<?xml version="1.0" encoding="utf-8"?>
<!-- Generator: Adobe Illustrator 23.0.6, SVG Export Plug-In . SVG Version: 6.00 Build 0)  -->
<svg version="1.1" id="Capa_1" xmlns="http://www.w3.org/2000/svg" xmlns:xlink="http://www.w3.org/1999/xlink" x="0px" y="0px"
	 viewBox="0 0 284.6 335.3" style="enable-background:new 0 0 284.6 335.3;" xml:space="preserve">
<style type="text/css">
	.st0{enable-background:new    ;}
	.st1{fill:#3C57AB;}
	.st2{fill:#FFD261;}
	.st3{fill:#D99B00;}
	.st4{fill:#9C6D00;}
	.st5{fill:#FFFFFF;}
	.st6{opacity:0.2;enable-background:new    ;}
	.st7{fill:#C3D4FB;}
	.st8{fill:#6582DB;}
	.st9{fill:#5F9E7A;}
	.st10{fill:#FF6344;}
	.st11{fill:#FF927D;}
	.st12{opacity:0.2;}
	.st13{fill:#2E8253;}
	.st14{fill:url(#Trazado_3043_1_);}
	.st15{fill:#414657;}
	.st16{fill:#782E20;}
	.st17{fill:url(#Trazado_3054_1_);}
	.st18{fill:url(#Trazado_3061_1_);}
	.st19{fill:url(#Trazado_3063_1_);}
	.st20{fill:url(#Trazado_3070_1_);}
	.st21{fill:url(#Trazado_3072_1_);}
	.st22{fill:url(#Trazado_3076_1_);}
	.st23{fill:none;stroke:#535373;stroke-width:1.227;stroke-miterlimit:10;}
	.st24{fill-rule:evenodd;clip-rule:evenodd;fill:#D99B00;}
</style>
<g id="Grupo_5050" transform="translate(-24.548 -46.277)">
	<g class="st0">
		<path class="st1" d="M40.1,120h-8.5v-16.1h8.2v1.7h-6.3v5.4h5.8v1.7h-5.8v5.6h6.6V120z"/>
		<path class="st1" d="M52.7,120h-8.4v-16.1h1.9v14.4h6.5V120z"/>
		<path class="st1" d="M75.9,120H74v-7.3h-8.3v7.3h-1.9v-16.1h1.9v7.1H74v-7.1h1.9V120z"/>
		<path class="st1" d="M87.7,120.2c-2.3,0-4.1-0.8-5.5-2.3c-1.4-1.5-2.1-3.5-2.1-5.9c0-2.6,0.7-4.7,2.1-6.2s3.3-2.3,5.7-2.3
			c2.2,0,4,0.7,5.4,2.2c1.4,1.5,2,3.5,2,5.9c0,2.6-0.7,4.7-2.1,6.2S90.1,120.2,87.7,120.2z M87.9,105.3c-1.7,0-3.1,0.6-4.1,1.8
			c-1.1,1.2-1.6,2.8-1.6,4.8c0,2,0.5,3.6,1.5,4.8c1,1.2,2.4,1.8,4,1.8c1.8,0,3.2-0.6,4.2-1.7c1-1.2,1.5-2.8,1.5-4.8
			c0-2.1-0.5-3.8-1.5-4.9C91,105.9,89.6,105.3,87.9,105.3z"/>
		<path class="st1" d="M111.8,118.9c-1.6,0.9-3.4,1.4-5.4,1.4c-2.3,0-4.2-0.7-5.6-2.2c-1.4-1.5-2.1-3.4-2.1-5.9
			c0-2.5,0.8-4.5,2.4-6.1c1.6-1.6,3.6-2.4,6-2.4c1.8,0,3.2,0.3,4.4,0.9v2.1c-1.3-0.8-2.8-1.2-4.6-1.2c-1.8,0-3.3,0.6-4.4,1.9
			s-1.7,2.9-1.7,4.8c0,2,0.5,3.6,1.6,4.8s2.5,1.7,4.4,1.7c1.3,0,2.3-0.3,3.3-0.8v-4.5h-3.5v-1.7h5.4V118.9z"/>
		<path class="st1" d="M129.1,120H127l-1.7-4.5h-6.8l-1.6,4.5h-2.1l6.2-16.1h2L129.1,120z M124.7,113.7l-2.5-6.9
			c-0.1-0.2-0.2-0.6-0.2-1.1h0c-0.1,0.5-0.2,0.8-0.3,1.1l-2.5,6.9H124.7z"/>
		<path class="st1" d="M144.2,120h-2.2l-2.7-4.5c-0.2-0.4-0.5-0.8-0.7-1.1s-0.5-0.5-0.7-0.7c-0.2-0.2-0.5-0.3-0.8-0.4
			c-0.3-0.1-0.6-0.1-0.9-0.1h-1.5v6.9h-1.9v-16.1h4.8c0.7,0,1.4,0.1,1.9,0.3c0.6,0.2,1.1,0.4,1.5,0.8c0.4,0.4,0.8,0.8,1,1.3
			s0.4,1.2,0.4,1.9c0,0.6-0.1,1.1-0.3,1.5c-0.2,0.5-0.4,0.9-0.7,1.3c-0.3,0.4-0.7,0.7-1.1,0.9c-0.4,0.3-0.9,0.5-1.5,0.6v0
			c0.3,0.1,0.5,0.3,0.7,0.4c0.2,0.2,0.4,0.3,0.6,0.5c0.2,0.2,0.4,0.4,0.5,0.7c0.2,0.3,0.4,0.6,0.6,0.9L144.2,120z M134.5,105.6v5.8
			h2.6c0.5,0,0.9-0.1,1.3-0.2c0.4-0.1,0.7-0.3,1-0.6s0.5-0.6,0.7-1s0.2-0.8,0.2-1.3c0-0.9-0.3-1.5-0.8-2c-0.6-0.5-1.4-0.7-2.4-0.7
			H134.5z"/>
		<path class="st1" d="M161.5,120.2c-2.3,0-4.1-0.8-5.5-2.3c-1.4-1.5-2.1-3.5-2.1-5.9c0-2.6,0.7-4.7,2.1-6.2
			c1.4-1.5,3.3-2.3,5.7-2.3c2.2,0,4,0.7,5.4,2.2c1.4,1.5,2,3.5,2,5.9c0,2.6-0.7,4.7-2.1,6.2c-0.3,0.4-0.7,0.7-1.1,0.9l4.5,3.2h-3.4
			l-3-2.3C163.3,120.1,162.4,120.2,161.5,120.2z M161.6,105.3c-1.7,0-3.1,0.6-4.1,1.8c-1.1,1.2-1.6,2.8-1.6,4.8c0,2,0.5,3.6,1.5,4.8
			c1,1.2,2.4,1.8,4,1.8c1.8,0,3.2-0.6,4.2-1.7c1-1.2,1.5-2.8,1.5-4.8c0-2.1-0.5-3.8-1.5-4.9C164.7,105.9,163.3,105.3,161.6,105.3z"
			/>
		<path class="st1" d="M185.3,113.4c0,4.5-2,6.8-6.1,6.8c-3.9,0-5.9-2.2-5.9-6.5v-9.8h1.9v9.7c0,3.3,1.4,5,4.2,5c2.7,0,4-1.6,4-4.8
			v-9.9h1.9V113.4z"/>
		<path class="st1" d="M199,120h-8.5v-16.1h8.2v1.7h-6.3v5.4h5.8v1.7h-5.8v5.6h6.6V120z"/>
	</g>
	<g class="st0">
		<path class="st1" d="M31.9,91.3V61.9h8.4c2.5,0,4.6,0.6,6,1.9s2.2,2.9,2.2,4.9c0,1.7-0.5,3.1-1.4,4.3s-2.1,2.1-3.7,2.6v0.1
			c2,0.2,3.6,1,4.8,2.2s1.8,2.9,1.8,4.9c0,2.5-0.9,4.6-2.7,6.1s-4.1,2.3-6.8,2.3H31.9z M35.3,65v9.5h3.5c1.9,0,3.4-0.5,4.5-1.4
			c1.1-0.9,1.6-2.2,1.6-3.8c0-2.9-1.9-4.3-5.6-4.3H35.3z M35.3,77.6v10.6H40c2,0,3.6-0.5,4.7-1.4s1.7-2.3,1.7-3.9
			c0-3.5-2.4-5.2-7.1-5.2H35.3z"/>
		<path class="st1" d="M81.7,79.4c0,8.3-3.7,12.4-11.2,12.4c-7.1,0-10.7-4-10.7-11.9v-18h3.4v17.8c0,6,2.5,9,7.6,9
			c4.9,0,7.4-2.9,7.4-8.7V61.9h3.4V79.4z"/>
		<path class="st1" d="M91.9,90.1V86c0.5,0.4,1,0.8,1.7,1.1s1.3,0.6,2.1,0.8c0.7,0.2,1.4,0.4,2.2,0.5s1.4,0.2,2,0.2
			c2.1,0,3.7-0.4,4.7-1.2s1.6-1.9,1.6-3.4c0-0.8-0.2-1.5-0.5-2.1s-0.8-1.1-1.4-1.6c-0.6-0.5-1.3-0.9-2.2-1.4
			c-0.8-0.4-1.7-0.9-2.7-1.4c-1-0.5-2-1-2.9-1.6s-1.7-1.1-2.3-1.8s-1.2-1.4-1.5-2.2c-0.4-0.8-0.6-1.8-0.6-2.9c0-1.3,0.3-2.5,0.9-3.5
			c0.6-1,1.4-1.8,2.3-2.5s2-1.1,3.3-1.4s2.5-0.5,3.7-0.5c2.9,0,5,0.3,6.3,1v3.9c-1.7-1.2-4-1.8-6.7-1.8c-0.8,0-1.5,0.1-2.3,0.2
			s-1.4,0.4-2,0.8s-1.1,0.8-1.4,1.4s-0.6,1.2-0.6,2.1c0,0.8,0.1,1.4,0.4,1.9s0.7,1,1.2,1.5s1.2,0.9,2,1.3s1.7,0.9,2.7,1.4
			c1.1,0.5,2.1,1.1,3,1.6s1.8,1.2,2.5,1.9s1.3,1.5,1.7,2.3s0.6,1.8,0.6,2.9c0,1.4-0.3,2.7-0.9,3.7c-0.6,1-1.3,1.8-2.3,2.5
			s-2.1,1.1-3.3,1.4c-1.3,0.3-2.6,0.4-4,0.4c-0.5,0-1,0-1.7-0.1s-1.4-0.2-2.1-0.3c-0.7-0.1-1.4-0.3-2-0.5
			C92.8,90.6,92.2,90.3,91.9,90.1z"/>
		<path class="st1" d="M139.8,90c-2.2,1.1-4.9,1.7-8.1,1.7c-4.2,0-7.5-1.3-10-4s-3.8-6.2-3.8-10.6c0-4.7,1.4-8.5,4.2-11.4
			s6.4-4.3,10.8-4.3c2.8,0,5.1,0.4,6.9,1.2v3.7c-2.1-1.2-4.4-1.8-7-1.8c-3.4,0-6.1,1.1-8.2,3.4s-3.1,5.3-3.1,9c0,3.6,1,6.4,2.9,8.6
			s4.5,3.2,7.7,3.2c3,0,5.5-0.7,7.7-2V90z"/>
		<path class="st1" d="M172.7,91.3h-3.8l-3.1-8.2h-12.5l-2.9,8.2h-3.8l11.3-29.4h3.6L172.7,91.3z M164.7,79.9L160,67.4
			c-0.2-0.4-0.3-1.1-0.5-2h-0.1c-0.1,0.8-0.3,1.5-0.5,2l-4.6,12.5H164.7z"/>
		<path class="st1" d="M211.2,91.3h-3.4V71.5c0-1.6,0.1-3.5,0.3-5.7H208c-0.3,1.3-0.6,2.3-0.9,2.9l-10,22.6h-1.7l-10-22.4
			c-0.3-0.7-0.6-1.7-0.9-3h-0.1c0.1,1.2,0.2,3.1,0.2,5.8v19.7h-3.3V61.9h4.6l9,20.5c0.7,1.6,1.1,2.7,1.4,3.5h0.1
			c0.6-1.6,1.1-2.8,1.4-3.6l9.2-20.4h4.3V91.3z"/>
		<path class="st1" d="M235,91.8c-4.2,0-7.5-1.4-10-4.1s-3.8-6.3-3.8-10.7c0-4.7,1.3-8.5,3.8-11.3s6-4.2,10.4-4.2
			c4.1,0,7.3,1.4,9.8,4.1s3.7,6.3,3.7,10.7c0,4.8-1.3,8.6-3.8,11.4S239.3,91.8,235,91.8z M235.3,64.5c-3.1,0-5.6,1.1-7.5,3.3
			s-2.9,5.2-2.9,8.8s0.9,6.5,2.8,8.7s4.3,3.3,7.4,3.3c3.2,0,5.8-1.1,7.6-3.2s2.8-5.1,2.8-8.8c0-3.9-0.9-6.9-2.7-9
			S238.4,64.5,235.3,64.5z"/>
		<path class="st1" d="M257.6,90.1V86c0.5,0.4,1,0.8,1.7,1.1s1.3,0.6,2.1,0.8c0.7,0.2,1.4,0.4,2.2,0.5s1.4,0.2,2,0.2
			c2.1,0,3.7-0.4,4.7-1.2s1.6-1.9,1.6-3.4c0-0.8-0.2-1.5-0.5-2.1s-0.8-1.1-1.4-1.6c-0.6-0.5-1.3-0.9-2.2-1.4
			c-0.8-0.4-1.7-0.9-2.7-1.4c-1-0.5-2-1-2.9-1.6s-1.7-1.1-2.3-1.8s-1.2-1.4-1.5-2.2c-0.4-0.8-0.6-1.8-0.6-2.9c0-1.3,0.3-2.5,0.9-3.5
			c0.6-1,1.4-1.8,2.3-2.5s2-1.1,3.3-1.4s2.5-0.5,3.7-0.5c2.9,0,5,0.3,6.3,1v3.9c-1.7-1.2-4-1.8-6.7-1.8c-0.8,0-1.5,0.1-2.3,0.2
			s-1.4,0.4-2,0.8s-1.1,0.8-1.4,1.4s-0.6,1.2-0.6,2.1c0,0.8,0.1,1.4,0.4,1.9s0.7,1,1.2,1.5s1.2,0.9,2,1.3s1.7,0.9,2.7,1.4
			c1.1,0.5,2.1,1.1,3,1.6s1.8,1.2,2.5,1.9s1.3,1.5,1.7,2.3s0.6,1.8,0.6,2.9c0,1.4-0.3,2.7-0.9,3.7c-0.6,1-1.3,1.8-2.3,2.5
			s-2.1,1.1-3.3,1.4c-1.3,0.3-2.6,0.4-4,0.4c-0.5,0-1,0-1.7-0.1s-1.4-0.2-2.1-0.3c-0.7-0.1-1.4-0.3-2-0.5
			C258.5,90.6,258,90.3,257.6,90.1z"/>
	</g>
	<g class="st0">
		<path class="st1" d="M30.6,152.2c-0.1-0.1-0.2-0.3-0.2-0.4v-17c0-0.2,0.1-0.3,0.2-0.5c0.1-0.1,0.2-0.2,0.4-0.2h1.1
			c0.2,0,0.3,0,0.4,0.1c0.1,0.1,0.2,0.2,0.3,0.3l8.7,13.4v-13.2c0-0.2,0.1-0.3,0.2-0.5c0.1-0.1,0.3-0.2,0.4-0.2h1.2
			c0.2,0,0.3,0.1,0.5,0.2c0.1,0.1,0.2,0.3,0.2,0.5v17c0,0.2-0.1,0.3-0.2,0.4s-0.3,0.2-0.4,0.2h-1.2c-0.3,0-0.5-0.1-0.6-0.4
			l-8.7-13.3v13.1c0,0.2-0.1,0.3-0.2,0.4c-0.1,0.1-0.3,0.2-0.4,0.2H31C30.9,152.4,30.7,152.3,30.6,152.2z"/>
		<path class="st1" d="M49.9,152.2c-0.1-0.1-0.2-0.3-0.2-0.4v-17c0-0.2,0.1-0.3,0.2-0.5c0.1-0.1,0.2-0.2,0.4-0.2H61
			c0.2,0,0.3,0.1,0.5,0.2c0.1,0.1,0.2,0.3,0.2,0.5v0.9c0,0.2-0.1,0.3-0.2,0.4c-0.1,0.1-0.3,0.2-0.5,0.2h-8.9v5.8h8.3
			c0.2,0,0.3,0.1,0.5,0.2c0.1,0.1,0.2,0.3,0.2,0.5v0.9c0,0.2-0.1,0.3-0.2,0.4c-0.1,0.1-0.3,0.2-0.5,0.2h-8.3v6h9.1
			c0.2,0,0.3,0.1,0.5,0.2c0.1,0.1,0.2,0.3,0.2,0.5v0.9c0,0.2-0.1,0.3-0.2,0.4c-0.1,0.1-0.3,0.2-0.4,0.2H50.3
			C50.2,152.4,50,152.3,49.9,152.2z"/>
		<path class="st1" d="M67.9,150.8c-1.2-1.3-1.9-3-1.9-5.2c0-0.5,0-1.2,0-2.3c0-1.1,0-1.9,0-2.3c0.1-2.2,0.7-3.9,1.9-5.2
			c1.2-1.3,3-1.9,5.3-1.9c1.5,0,2.9,0.3,3.9,0.8s1.9,1.3,2.4,2.1s0.8,1.8,0.9,2.8c0,0.2-0.1,0.3-0.2,0.4c-0.1,0.1-0.2,0.1-0.4,0.1
			h-1.3c-0.2,0-0.3,0-0.4-0.1c-0.1-0.1-0.2-0.2-0.2-0.4c-0.3-1.3-0.8-2.3-1.6-2.8c-0.8-0.5-1.8-0.8-3.1-0.8c-3,0-4.6,1.7-4.7,5
			c0,0.5,0,1.2,0,2.2s0,1.7,0,2.2c0.1,3.3,1.7,5,4.7,5c1.3,0,2.3-0.3,3.1-0.8c0.8-0.5,1.3-1.5,1.6-2.8c0.1-0.2,0.1-0.4,0.2-0.4
			s0.2-0.1,0.4-0.1h1.3c0.2,0,0.3,0,0.4,0.1c0.1,0.1,0.2,0.2,0.2,0.4c-0.1,1-0.4,2-0.9,2.8s-1.4,1.6-2.4,2.1
			c-1.1,0.5-2.4,0.8-3.9,0.8C70.8,152.6,69.1,152,67.9,150.8z"/>
		<path class="st1" d="M85.4,152.2c-0.1-0.1-0.2-0.3-0.2-0.4v-17c0-0.2,0.1-0.3,0.2-0.5c0.1-0.1,0.2-0.2,0.4-0.2h10.7
			c0.2,0,0.3,0.1,0.5,0.2c0.1,0.1,0.2,0.3,0.2,0.5v0.9c0,0.2-0.1,0.3-0.2,0.4c-0.1,0.1-0.3,0.2-0.5,0.2h-8.9v5.8h8.3
			c0.2,0,0.3,0.1,0.5,0.2c0.1,0.1,0.2,0.3,0.2,0.5v0.9c0,0.2-0.1,0.3-0.2,0.4c-0.1,0.1-0.3,0.2-0.5,0.2h-8.3v6h9.1
			c0.2,0,0.3,0.1,0.5,0.2c0.1,0.1,0.2,0.3,0.2,0.5v0.9c0,0.2-0.1,0.3-0.2,0.4c-0.1,0.1-0.3,0.2-0.4,0.2H85.8
			C85.6,152.4,85.5,152.3,85.4,152.2z"/>
		<path class="st1" d="M104.3,152c-1-0.5-1.8-1-2.4-1.8c-0.5-0.7-0.8-1.5-0.9-2.4c0-0.1,0.1-0.3,0.2-0.4c0.1-0.1,0.2-0.2,0.4-0.2
			h1.3c0.3,0,0.5,0.2,0.6,0.5c0.2,0.7,0.6,1.4,1.3,1.9c0.7,0.5,1.8,0.8,3.2,0.8c1.5,0,2.6-0.3,3.3-0.8c0.7-0.5,1.1-1.2,1.1-2.2
			c0-0.6-0.2-1.1-0.5-1.5c-0.4-0.4-0.9-0.7-1.6-1c-0.7-0.3-1.8-0.6-3.2-1.1c-1.3-0.4-2.4-0.8-3.2-1.2c-0.8-0.4-1.4-1-1.8-1.6
			s-0.6-1.4-0.6-2.4c0-0.9,0.3-1.8,0.8-2.5c0.5-0.7,1.2-1.3,2.2-1.7c1-0.4,2.1-0.6,3.4-0.6c1.4,0,2.5,0.2,3.5,0.7
			c1,0.5,1.7,1.1,2.2,1.8c0.5,0.7,0.8,1.4,0.8,2.2c0,0.2-0.1,0.3-0.2,0.4c-0.1,0.1-0.2,0.2-0.4,0.2h-1.3c-0.1,0-0.3,0-0.4-0.1
			c-0.1-0.1-0.2-0.2-0.3-0.4c-0.1-0.7-0.5-1.4-1.2-1.8s-1.6-0.7-2.7-0.7c-1.2,0-2.1,0.2-2.8,0.7c-0.7,0.5-1,1.1-1,2
			c0,0.6,0.2,1.1,0.5,1.5c0.3,0.4,0.8,0.7,1.5,1s1.6,0.6,2.9,1c1.5,0.4,2.6,0.8,3.5,1.2s1.5,0.9,1.9,1.5s0.6,1.4,0.6,2.4
			c0,1.6-0.6,2.9-1.9,3.8c-1.2,0.9-2.9,1.4-5,1.4C106.6,152.6,105.4,152.4,104.3,152z"/>
		<path class="st1" d="M119.8,152.2c-0.1-0.1-0.2-0.3-0.2-0.4v-17c0-0.2,0.1-0.3,0.2-0.4c0.1-0.1,0.2-0.2,0.4-0.2h1.3
			c0.2,0,0.3,0.1,0.4,0.2c0.1,0.1,0.2,0.3,0.2,0.4v17c0,0.2-0.1,0.3-0.2,0.4c-0.1,0.1-0.3,0.2-0.4,0.2h-1.3
			C120.1,152.4,119.9,152.3,119.8,152.2z"/>
		<path class="st1" d="M132.2,152.2c-0.1-0.1-0.2-0.3-0.2-0.4v-15.4h-5c-0.2,0-0.3-0.1-0.4-0.2s-0.2-0.3-0.2-0.4v-1
			c0-0.2,0.1-0.3,0.2-0.5c0.1-0.1,0.3-0.2,0.4-0.2h12.5c0.2,0,0.3,0.1,0.4,0.2c0.1,0.1,0.2,0.3,0.2,0.5v1c0,0.2-0.1,0.3-0.2,0.4
			c-0.1,0.1-0.3,0.2-0.4,0.2h-5v15.4c0,0.2-0.1,0.3-0.2,0.4c-0.1,0.1-0.3,0.2-0.4,0.2h-1.2C132.4,152.4,132.3,152.3,132.2,152.2z"/>
		<path class="st1" d="M140.8,152.2c-0.1-0.1-0.2-0.2-0.2-0.4l0.1-0.3l6.4-16.8c0.1-0.4,0.4-0.6,0.8-0.6h1.7c0.4,0,0.7,0.2,0.8,0.6
			l6.4,16.8l0.1,0.3c0,0.1-0.1,0.3-0.2,0.4c-0.1,0.1-0.2,0.2-0.4,0.2h-1.2c-0.2,0-0.3,0-0.4-0.1c-0.1-0.1-0.2-0.2-0.2-0.3l-1.5-3.7
			h-8.6l-1.4,3.7c-0.1,0.3-0.4,0.4-0.6,0.4h-1.2C141,152.4,140.9,152.3,140.8,152.2z M145.2,146h7.1l-3.6-9.3L145.2,146z"/>
		<path class="st1" d="M162.9,152c-1-0.5-1.8-1-2.4-1.8c-0.5-0.7-0.8-1.5-0.9-2.4c0-0.1,0.1-0.3,0.2-0.4c0.1-0.1,0.2-0.2,0.4-0.2
			h1.3c0.3,0,0.5,0.2,0.6,0.5c0.2,0.7,0.6,1.4,1.3,1.9c0.7,0.5,1.8,0.8,3.2,0.8c1.5,0,2.6-0.3,3.3-0.8c0.7-0.5,1.1-1.2,1.1-2.2
			c0-0.6-0.2-1.1-0.5-1.5c-0.4-0.4-0.9-0.7-1.6-1c-0.7-0.3-1.8-0.6-3.2-1.1c-1.3-0.4-2.4-0.8-3.2-1.2c-0.8-0.4-1.4-1-1.8-1.6
			s-0.6-1.4-0.6-2.4c0-0.9,0.3-1.8,0.8-2.5c0.5-0.7,1.2-1.3,2.2-1.7c1-0.4,2.1-0.6,3.4-0.6c1.4,0,2.5,0.2,3.5,0.7
			c1,0.5,1.7,1.1,2.2,1.8c0.5,0.7,0.8,1.4,0.8,2.2c0,0.2-0.1,0.3-0.2,0.4c-0.1,0.1-0.2,0.2-0.4,0.2h-1.3c-0.1,0-0.3,0-0.4-0.1
			c-0.1-0.1-0.2-0.2-0.3-0.4c-0.1-0.7-0.5-1.4-1.2-1.8c-0.7-0.5-1.6-0.7-2.7-0.7c-1.2,0-2.1,0.2-2.8,0.7c-0.7,0.5-1,1.1-1,2
			c0,0.6,0.2,1.1,0.5,1.5c0.3,0.4,0.8,0.7,1.5,1s1.6,0.6,2.9,1c1.5,0.4,2.6,0.8,3.5,1.2s1.5,0.9,1.9,1.5s0.6,1.4,0.6,2.4
			c0,1.6-0.6,2.9-1.9,3.8c-1.2,0.9-2.9,1.4-5,1.4C165.2,152.6,163.9,152.4,162.9,152z"/>
	</g>
	<g id="Grupo_5028" transform="translate(24.548 164.311)">
		<circle id="Elipse_99" class="st2" cx="205.9" cy="72.1" r="78.7"/>
		<g id="Grupo_4607" transform="translate(226.89 74.227)">
			<path id="Trazado_2999" class="st3" d="M37.9,40.3c0.2-6.9,3-12.9-0.6-19c-3.4-5.8-7.5-5.4-6.7-11.8S27.4,0,21.4,0
				s-10,3.1-9.2,9.5S9,15.5,5.6,21.3C2,27.5,4.8,33.4,5,40.3s-5,9.2-5,22.7c0,11.5,6.1,22.5,21.4,22.5s21.4-11,21.4-22.5
				C42.9,49.5,37.6,47.3,37.9,40.3z"/>
			<g id="Grupo_4602" transform="translate(20.823 13.832)">
				<rect id="Rectángulo_5841" x="0" y="0" class="st4" width="1.2" height="128.6"/>
			</g>
			<g id="Grupo_4603" transform="translate(10.806 19.691)">
				<path id="Trazado_3000" class="st4" d="M10.3,14.4C5.5,10.8,1.9,6,0,0.4L1.2,0C3.1,5.3,6.5,10,11,13.4L10.3,14.4z"/>
			</g>
			<g id="Grupo_4604" transform="translate(21.098 25.26)">
				<path id="Trazado_3001" class="st4" d="M0.7,18L0,17C8.4,11.5,12.2,0.1,12.2,0l1.2,0.4C13.2,0.9,9.4,12.3,0.7,18z"/>
			</g>
			<g id="Grupo_4605" transform="translate(4.777 47.075)">
				<path id="Trazado_3002" class="st4" d="M16.4,15.3C3.3,10,0.1,0.8,0,0.4L1.2,0c0,0.1,3.1,9.1,15.7,14.2L16.4,15.3z"/>
			</g>
			<g id="Grupo_4606" transform="translate(21.368 56.871)">
				<path id="Trazado_3003" class="st4" d="M0.1,15.5L0,14.3C10.6,13.1,16.7,0.1,16.8,0l1.1,0.5C17.6,1.1,11.4,14.3,0.1,15.5z"/>
			</g>
		</g>
		<path id="Trazado_3004" class="st2" d="M100.3,40.4c7.8-5.3,18.4-3.3,23.8,4.5c0,0,0,0,0,0c5.3,7.8,3.3,18.4-4.5,23.8c0,0,0,0,0,0
			c-6.6,4.5-15.4,3.8-21.3-1.6L88.9,69l5.2-8.1C91.1,53.4,93.7,44.9,100.3,40.4z"/>
		<path id="Trazado_3005" class="st5" d="M113.2,57c-0.4,0-0.7,0.1-1,0.3l-5.8-4.2c0-0.1,0-0.2,0-0.4c0-0.1,0-0.2,0-0.4l5.8-4.2
			c0.3,0.2,0.7,0.3,1,0.3c1.2,0,2.2-1,2.2-2.2c0-1.2-1-2.2-2.2-2.2h0c-1.2,0-2.2,1-2.2,2.2c0,0.1,0,0.2,0,0.4l-5.8,4.2
			c-0.3-0.2-0.7-0.3-1-0.3c-1.2,0-2.2,1-2.2,2.2c0,1.2,1,2.2,2.2,2.2c0.4,0,0.7-0.1,1-0.3l5.8,4.2c0,0.1,0,0.2,0,0.4
			c0,1.2,1,2.2,2.2,2.2c1.2,0,2.2-1,2.2-2.2l0,0C115.4,58,114.4,57,113.2,57z"/>
		<path id="Trazado_3006" class="st5" d="M226.9,27.6H188c-3.2,0-5.8,2.6-5.8,5.8v9.3c0,3.2,2.6,5.8,5.8,5.8h13l4.3,5.9v-5.9h21.5
			c3.2,0,5.8-2.6,5.8-5.8v-9.3C232.6,30.2,230,27.6,226.9,27.6z"/>
		<g id="Grupo_4608" transform="translate(222.127 37.446)">
			<path id="Trazado_3007" class="st3" d="M0,0L0,0"/>
		</g>
		<g id="Grupo_4610" transform="translate(116.795 175.926)">
			<path id="Trazado_3010" class="st1" d="M45.4,0H16C16,35.9,0,40.5,0,40.5h61.4C61.4,40.5,45.4,35.9,45.4,0z"/>
			<path id="Trazado_3011" class="st6" d="M45.4,0H16c0,3.5-0.2,7-0.5,10.5l32.7,11.7C46.2,14.9,45.3,7.5,45.4,0z"/>
		</g>
		<g id="Grupo_4615" transform="translate(74.508 81.885)">
			<path id="Rectángulo_5842" class="st1" d="M5.3,0h135.4c2.9,0,5.3,2.4,5.3,5.3v87.5c0,2.9-2.4,5.3-5.3,5.3H5.3
				c-2.9,0-5.3-2.4-5.3-5.3V5.3C0,2.4,2.4,0,5.3,0z"/>
			<g id="Grupo_4612" transform="translate(7.496 7.277)">
				<path id="Rectángulo_5843" class="st5" d="M2.5,0h126c1.4,0,2.5,1.1,2.5,2.5V81c0,1.4-1.1,2.5-2.5,2.5H2.5
					C1.1,83.5,0,82.4,0,81V2.5C0,1.1,1.1,0,2.5,0z"/>
				<path id="Rectángulo_5844" class="st7" d="M2.3,0h126.5c1.3,0,2.3,1,2.3,2.3v7.6l0,0H0l0,0V2.3C0,1,1,0,2.3,0
					C2.3,0,2.3,0,2.3,0z"/>
				<g id="Grupo_4611" transform="translate(6.531 2.745)">
					<circle id="Elipse_101" class="st8" cx="2.2" cy="2.2" r="2.2"/>
					<circle id="Elipse_102" class="st8" cx="11.1" cy="2.2" r="2.2"/>
					<circle id="Elipse_103" class="st8" cx="20.1" cy="2.2" r="2.2"/>
				</g>
			</g>
			<g id="Grupo_4613" transform="translate(27.306 55.289)">
				<path id="Rectángulo_5845" class="st7" d="M2.2,0h62c1.2,0,2.2,1,2.2,2.2v0.7c0,1.2-1,2.2-2.2,2.2h-62C1,5.1,0,4.1,0,2.9
					c0,0,0,0,0,0V2.2C0,1,1,0,2.2,0C2.2,0,2.2,0,2.2,0z"/>
				<path id="Rectángulo_5846" class="st7" d="M2.2,9.5h62c1.2,0,2.2,1,2.2,2.2v0.7c0,1.2-1,2.2-2.2,2.2h-62c-1.2,0-2.2-1-2.2-2.2
					c0,0,0,0,0,0v-0.7C0,10.5,1,9.5,2.2,9.5C2.2,9.5,2.2,9.5,2.2,9.5z"/>
				<path id="Rectángulo_5847" class="st7" d="M2.2,19h24.4c1.2,0,2.2,1,2.2,2.2c0,0,0,0,0,0v0.7c0,1.2-1,2.2-2.2,2.2c0,0,0,0,0,0
					H2.2c-1.2,0-2.2-1-2.2-2.2c0,0,0,0,0,0v-0.7C0,20,1,19,2.2,19C2.2,19,2.2,19,2.2,19z"/>
			</g>
			<g id="Grupo_4614" transform="translate(23.217 30.274)">
				<path id="Trazado_3012" class="st8" d="M91.4,16.3H8.2C3.7,16.3,0,12.7,0,8.2c0,0,0,0,0,0l0,0C0,3.7,3.7,0,8.2,0c0,0,0,0,0,0
					h83.2c4.5,0,8.2,3.7,8.2,8.2l0,0C99.6,12.7,95.9,16.3,91.4,16.3z"/>
				<path id="Trazado_3013" class="st1" d="M91.4,16.3h-4.9c-4.5,0-8.2-3.7-8.2-8.2c0,0,0,0,0,0l0,0C78.3,3.7,82,0,86.5,0
					c0,0,0,0,0,0h4.9c4.5,0,8.2,3.7,8.2,8.2l0,0C99.6,12.7,95.9,16.3,91.4,16.3z"/>
				<path id="Trazado_3014" class="st5" d="M93.9,12l-3-3c1.1-1.4,0.9-3.3-0.3-4.5c-1.3-1.3-3.5-1.3-4.9,0c-1.3,1.3-1.3,3.5,0,4.9
					c0.6,0.6,1.5,1,2.4,1c0.8,0,1.5-0.3,2.1-0.7l3,3L93.9,12z M86.3,8.7c-1-1-1-2.6,0-3.6c0.5-0.5,1.1-0.7,1.8-0.7
					c0.7,0,1.3,0.3,1.8,0.7c1,1,1,2.6,0,3.6C88.9,9.6,87.4,9.6,86.3,8.7z"/>
			</g>
		</g>
		<g id="Grupo_4616" transform="translate(31.859 191.551)">
			<path id="Trazado_3015" class="st9" d="M102,24.9c-6.5-5-21.8-15.2-34.8-12C59.7,3.1,48.7,3.8,42.8,6C36.7-2.4,4-6.4,0,24.9H102z
				"/>
			<path id="Trazado_3016" class="st9" d="M129.3,24.9c6.5-5,21.8-15.2,34.8-12c7.5-9.9,18.5-9.2,24.4-6.9
				c6.1-8.5,38.8-12.4,42.8,18.9H129.3z"/>
		</g>
		<g id="Grupo_4622" transform="translate(129.033 -12.195)">
			<circle id="Elipse_104" class="st6" cx="28.3" cy="30.2" r="21.8"/>
			<circle id="Elipse_105" class="st5" cx="29.3" cy="29.3" r="20.7"/>
			<g id="Grupo_4617" transform="translate(13.05 13.05)">
				<path id="Trazado_3017" class="st10" d="M16.2,32.5C7.3,32.5,0,25.2,0,16.3C0,7.3,7.3,0,16.2,0c9,0,16.2,7.3,16.3,16.3
					C32.5,25.2,25.2,32.5,16.2,32.5z M16.2,4.5C9.8,4.5,4.5,9.8,4.5,16.3C4.5,22.7,9.8,28,16.2,28C22.7,28,28,22.7,28,16.3
					C28,9.8,22.7,4.5,16.2,4.5L16.2,4.5z"/>
			</g>
			<g id="Grupo_4618" transform="translate(21.262 21.262)">
				<path id="Trazado_3018" class="st10" d="M8,16.1c-4.4,0-8-3.6-8-8c0-4.4,3.6-8,8-8c4.4,0,8,3.6,8,8C16.1,12.5,12.5,16.1,8,16.1z
					 M8,4.5c-2,0-3.5,1.6-3.5,3.5c0,2,1.6,3.5,3.5,3.5c2,0,3.5-1.6,3.5-3.5C11.6,6.1,10,4.5,8,4.5z"/>
			</g>
			<g id="Grupo_4621" transform="translate(28.933 11.394)">
				<path id="Trazado_3019" class="st1" d="M27.5,3.6L4.7,15.6c-0.3,0.2-0.7,0-0.9-0.3l-0.4-0.7l-3.3,3.5c-0.2,0.2-0.2,0.5,0,0.7
					c0.1,0.1,0.2,0.1,0.4,0.1l4.8-0.7l-0.4-0.7c-0.2-0.3,0-0.7,0.3-0.9c0,0,0,0,0,0L28,4.6L27.5,3.6z"/>
				<g id="Grupo_4619" transform="translate(22.518)">
					<path id="Trazado_3020" class="st5" d="M1.2,5.6L0,6.2l0.5-3.6L1.7,2L1.2,5.6z"/>
					<path id="Trazado_3021" class="st10" d="M2.5,4.9L1.2,5.6L1.7,2L3,1.3L2.5,4.9z"/>
					<path id="Trazado_3022" class="st5" d="M3.7,4.3L2.5,4.9L3,1.3l1.2-0.7L3.7,4.3z"/>
					<path id="Trazado_3023" class="st10" d="M5,3.6L3.7,4.3l0.5-3.6L5.5,0L5,3.6z"/>
				</g>
				<g id="Grupo_4620" transform="translate(23.022 4.578)">
					<path id="Trazado_3024" class="st5" d="M1.2,2L0,2.6l3.2,1.7l1.2-0.7L1.2,2z"/>
					<path id="Trazado_3025" class="st10" d="M2.5,1.3L1.2,2l3.2,1.7L5.7,3L2.5,1.3z"/>
					<path id="Trazado_3026" class="st5" d="M3.7,0.7L2.5,1.3L5.7,3L7,2.3L3.7,0.7z"/>
					<path id="Trazado_3027" class="st10" d="M5,0L3.7,0.7L7,2.3l1.2-0.7L5,0z"/>
				</g>
			</g>
		</g>
		<g id="Grupo_4626" transform="translate(160.25 55.952)">
			<path id="Trazado_3031" class="st11" d="M39.2,135.1l1.7,16.1c0.1,1-0.4,2-1.3,2.5c-3,1.7-9.2,5.3-9,6.1
				c0.3,1.1,12.5,0.8,16.3-1.6s0.1-4.1,0-8.4s0.1-14.8,0.1-14.8L39.2,135.1z"/>
			<path id="Trazado_3032" class="st1" d="M46.8,158.3c2.9-1.8,1.4-3.3,0.5-5.8l-4.7,1.9c-0.7-0.6-1.4-1-2.3-1.3
				c-0.2,0.3-0.5,0.5-0.8,0.7c-3,1.7-9.2,5.3-9,6.1C30.8,161,43,160.7,46.8,158.3z"/>
			<path id="Trazado_3033" class="st11" d="M64.9,134.2l7.7,14.3c0.5,0.9,0.4,2-0.2,2.9c-2.1,2.7-6.5,8.4-6,9.1
				c0.7,0.9,11.9-4.1,14.4-7.7s-1.5-3.9-3.2-7.8s-5.5-13.7-5.5-13.7L64.9,134.2z"/>
			<g id="Grupo_4624" transform="translate(39.157 131.22)" class="st12">
				<path id="Trazado_3034" d="M25.8,3l4.7,8.7l7.3,0.6C35.9,7.9,32.9,0,32.9,0L25.8,3z"/>
				<path id="Trazado_3035" d="M0,3.9l0.5,5.2l7.1,0.6c0.1-3.2,0.1-5.8,0.1-5.8L0,3.9z"/>
			</g>
			<path id="Trazado_3036" class="st1" d="M80.8,152.7c1.9-2.8,0-3.6-1.7-5.6l-3.6,3.6c-0.8-0.3-1.7-0.4-2.6-0.4
				c-0.1,0.3-0.2,0.7-0.4,0.9c-2.1,2.7-6.5,8.4-6,9.1C67,161.3,78.3,156.3,80.8,152.7z"/>
			<path id="Trazado_3037" class="st13" d="M48.5,61.3h17.4c0,0,4.3,4.7,3.5,13.3s-0.5,23.2,1.9,27.7s4.3,7.7,3.9,11.7
				s6,6.8,5.9,12.9c-0.1,2.4,0.5,4.8,1.8,6.8c0.7,1.2,0.4,2.7-0.7,3.4c-0.4,0.3-0.9,0.4-1.3,0.4H38.1l-1.8-25.5
				c-0.4-5.3,0.1-10.6,1.4-15.8C40.3,85.8,45.2,67.6,48.5,61.3z"/>
			<path id="Trazado_3038" class="st6" d="M69.4,93.7c-0.5-6.4-0.5-12.7,0-19.1c0.8-8.7-3.5-13.3-3.5-13.3H48.5
				c-1.1,2.2-2,4.4-2.7,6.7C47.5,75.3,52.9,89.5,69.4,93.7z"/>
			<path id="Trazado_3039" class="st11" d="M47.2,30.2C45,31.8,32.6,43.4,32.6,43.4l2.8-12.8l-3.3-0.4c0,0-10.1,17.4-3.7,20
				s18.5-10.9,18.5-10.9S50.3,34.2,47.2,30.2z"/>
			<path id="Trazado_3040" class="st6" d="M34.7,33.8l0.7-3.2l-3.3-0.4c0,0-1.5,2.5-2.9,5.7C31.2,35.9,33.2,35.2,34.7,33.8z"/>
			<path id="Trazado_3041" class="st11" d="M46.5,13.9l-0.4,1.5l1.1,0.2c0,0-1,7.8,6.2,7.2v6.1l6.8-0.6l-1.3-18L48.7,2.5
				C48.7,2.5,42.8,7.9,46.5,13.9z"/>
			<path id="Trazado_3042" class="st6" d="M50.9,22.5c0.8,0.2,1.7,0.3,2.5,0.2v6.1l6.8-0.6l-0.7-9.3C55.6,21.9,52.1,22.6,50.9,22.5z
				"/>
			
				<linearGradient id="Trazado_3043_1_" gradientUnits="userSpaceOnUse" x1="-315.5325" y1="384.0811" x2="-315.5325" y2="384.6611" gradientTransform="matrix(22.584 0 0 -37.1649 7182.2788 14331.1572)">
				<stop  offset="0" style="stop-color:#3C57AB"/>
				<stop  offset="1" style="stop-color:#6582DB"/>
			</linearGradient>
			<path id="Trazado_3043" class="st14" d="M67.6,41.5l-1.9-12.2c0,0-0.7,0-1.7-0.1c-1-0.1-1.7-0.8-1.7-1.8l0,0
				c0-0.7-0.6-1.3-1.3-1.3h-9.3c-0.7,0-1.3,0.6-1.3,1.3v0.4c0,0.8-0.5,1.5-1.3,1.7l-1.9,0.6c0,2-0.4,3.9-1.1,5.8c-1,2.1-2,4.8,0,7.6
				s2.7,9.3,1.2,14.8s-0.2,5,4.6,5h12.2c2.8,0,3.9-1.1,3.3-5.6C66.8,52.3,66.9,46.9,67.6,41.5z"/>
			<path id="Trazado_3044" class="st5" d="M79.7,77.5H55.3c-0.7,0-1.3-0.6-1.3-1.3c0-0.1,0-0.2,0-0.3l3.3-16.2c0.1-0.6,0.7-1,1.3-1
				H83c0.7,0,1.3,0.6,1.3,1.3c0,0.1,0,0.2,0,0.3L81,76.5C80.8,77.1,80.3,77.5,79.7,77.5z"/>
			<path id="Trazado_3045" class="st11" d="M64.6,29.3c4.2-2.1,13.9,15.9,13.9,24.1s-8.3,21.1-8.3,21.1c0,1.1-0.3,2.2-1,3.1
				c-1.1,1.3-4.6,1.9-5,0.9c-0.2-0.7-0.2-1.5,0-2.2c0,0-2,1.7-2.4,1.3s1.1-3.5,5.5-5.5l6-18c0,0-6.4-13.1-7.9-17
				C63.8,33.3,62.1,30.5,64.6,29.3z"/>
			<path id="Trazado_3046" class="st11" d="M32.2,25.1c1.3-2.2,3.5-1.3,4.6-0.9s1.8,3.4,1.3,4.1s-0.8,0-0.8,0s-0.2,3.5-3.1,3.5
				S30.8,27.5,32.2,25.1z"/>
			<path id="Trazado_3047" class="st10" d="M36,28.6l-2.8-0.4l0.3-9.3l2.8,0.4L36,28.6z"/>
			<g id="Grupo_4625" transform="translate(0 2.304)">
				<path id="Trazado_3048" class="st5" d="M10.9,5.4L2.5,1.8L2.7,0l8.3,4.1L10.9,5.4z"/>
				<path id="Trazado_3049" class="st5" d="M10.3,10.1L1.7,8.3l0.2-1.8l8.6,2.3L10.3,10.1z"/>
				<path id="Trazado_3050" class="st5" d="M9.7,14.8l-8.9,0.1l0.2-1.8l8.8,0.4L9.7,14.8z"/>
				<path id="Trazado_3051" class="st5" d="M9.1,19.5L0,21.4l0.2-1.8l9-1.4L9.1,19.5z"/>
			</g>
			<path id="Trazado_3052" class="st15" d="M48,5.9c0,0,0.5,5.4,7.9,7.2L57,38c0,0.5,0.5,1,1,0.9c0.3,0,0.6-0.2,0.8-0.5
				c0.6-1.1,1.2-2.3,1.7-3.5c2-4.8,5.4-2.1,5.4-7.7S66.9,0,54,0c-12.9,0-13.4,13.1-7.5,13.9C46.5,11.2,47,8.4,48,5.9z"/>
			<path id="Trazado_3053" class="st10" d="M33.2,21.9l-19.2,4l2.7-21l17.6,8.7L33.2,21.9z"/>
			<path id="Rectángulo_5848" class="st10" d="M37.5,14.6l2.1,0.3c1.7,0.2,2.9,1.8,2.7,3.5l-0.1,1c-0.2,1.7-1.8,2.9-3.5,2.7
				l-2.1-0.3l0,0L37.5,14.6L37.5,14.6z"/>
			
				<rect id="Rectángulo_5849" x="31" y="16.3" transform="matrix(0.126 -0.992 0.992 0.126 13.0892 50.7875)" class="st16" width="8.7" height="3.3"/>
			
				<ellipse id="Elipse_106" transform="matrix(0.126 -0.992 0.992 0.126 -1.9095 28.6814)" class="st16" cx="15.3" cy="15.4" rx="10.6" ry="3"/>
		</g>
		<g id="Grupo_4629" transform="translate(16.194 59.568)">
			
				<linearGradient id="Trazado_3054_1_" gradientUnits="userSpaceOnUse" x1="-174.108" y1="384.4086" x2="-174.108" y2="384.7316" gradientTransform="matrix(35.5431 0 0 -87.7001 6222.1831 33805.625)">
				<stop  offset="0" style="stop-color:#3C57AB"/>
				<stop  offset="1" style="stop-color:#6582DB"/>
			</linearGradient>
			<path id="Trazado_3054" class="st17" d="M35.1,57.8l13.8,35c2.7,6.8,3.4,14.3,2.1,21.5l-5.8,31.2h-9.9c0,0-0.3-32.5,3.9-42.5
				L18.7,77.2c0,0-6.3-9.6,0.6-19.4L35.1,57.8z"/>
			<path id="Trazado_3055" class="st5" d="M39.1,18l5.8,5.6l-15.7,29C29.3,52.6,31.1,31.5,39.1,18z"/>
			<path id="Trazado_3056" class="st11" d="M70.2,42.4c0.9,0.7,1.3,1.8,1.2,2.9c-0.2,1.9-1.1,5-3.1,4.9S68.6,41.2,70.2,42.4z"/>
			<g id="Grupo_4628" transform="translate(61.249 16.045)">
				<path id="Trazado_3057" class="st1" d="M13.8,1C8.4-0.2,3.1,2.9,1.3,8c-1.6,4.7,0.3,10,4.6,12.6c0.9,0.6,1.4,1.7,1.1,2.8
					L3.3,37.5c-0.2,0.6,0.2,1.3,0.8,1.4l0,0c0.6,0.2,1.3-0.2,1.5-0.8c0,0,0,0,0,0L9.3,24c0.3-1.1,1.3-1.9,2.4-1.9
					c4.7-0.1,8.8-3.3,10.1-7.9c1.5-5.7-1.9-11.6-7.6-13.1C14,1.1,13.9,1,13.8,1z"/>
				<circle id="Elipse_107" class="st7" cx="11.4" cy="11.4" r="8.2"/>
				<g id="Grupo_4627" transform="translate(3.483 3.483)">
					<path id="Trazado_3058" class="st5" d="M13.2,1.7L1.7,13.2c1,1.2,2.3,2,3.7,2.5L15.7,5.4C15.2,3.9,14.4,2.6,13.2,1.7z"/>
					<path id="Trazado_3059" class="st5" d="M0.9,12.2L12.2,0.9c-0.7-0.4-1.4-0.7-2.1-0.9C10,0,10,0,10,0L0,10
						C0.2,10.8,0.5,11.5,0.9,12.2z"/>
				</g>
			</g>
			<path id="Trazado_3060" class="st11" d="M60.1,48.1l3.9-2.2c0,0,1-3.7,3.4-3.7c1.9,0,2,3.2,1.7,3.3c-0.8,0.4-1.5-1.6-1.5-1.6
				s-0.9,5.4-2.8,6l-3,1.9L60.1,48.1z"/>
			
				<linearGradient id="Trazado_3061_1_" gradientUnits="userSpaceOnUse" x1="-172.5164" y1="380.1068" x2="-171.5164" y2="380.1068" gradientTransform="matrix(24.4101 0 0 -33.4257 4249.689 12751.627)">
				<stop  offset="0" style="stop-color:#3C57AB"/>
				<stop  offset="1" style="stop-color:#6582DB"/>
			</linearGradient>
			<path id="Trazado_3061" class="st18" d="M51.8,30c1.9,1.8-4.9,23.2-4.9,23.2l14.5-7l1.5,5.5c0,0-12.9,10-19.5,11.2
				s-6-6.4-1.9-19.6C41.6,43.3,48.5,26.9,51.8,30z"/>
			<path id="Trazado_3062" class="st6" d="M51.2,37.6c0.8-3.8,1.3-7,0.6-7.6c-3.3-3.1-10.2,13.3-10.2,13.3c-0.7,2.3-1.3,4.4-1.8,6.3
				L51.2,37.6z"/>
			
				<linearGradient id="Trazado_3063_1_" gradientUnits="userSpaceOnUse" x1="-172.4619" y1="384.1659" x2="-172.4619" y2="384.4919" gradientTransform="matrix(26.1551 0 0 -89.543 4527.6895 34517.7227)">
				<stop  offset="0" style="stop-color:#3C57AB"/>
				<stop  offset="1" style="stop-color:#6582DB"/>
			</linearGradient>
			<path id="Trazado_3063" class="st19" d="M26.4,56l3.4,35.9c0.6,6-0.2,12-2.4,17.6l-13.7,36H3.9c0,0,3.6-36.1,12.4-44.8L10,75.4
				c0,0-6.3-9.6,0.6-19.4H26.4z"/>
			<path id="Trazado_3064" class="st11" d="M13.2,144.1l-1.9,6.7c0,0,11.9,4,12.2,5.5s-22,0-22,0c0.1-2.2,1.2-4.3,2.8-5.8l1.2-6.5
				L13.2,144.1z"/>
			<path id="Trazado_3065" class="st15" d="M23.5,156.4c-0.3-1.5-12.2-5.5-12.2-5.5l0.7-2.5c-1.3,0.1-2.4,1-2.9,2.2H4.3
				c-1.6,1.5-2.7,3.6-2.8,5.8C1.5,156.4,23.8,157.9,23.5,156.4z"/>
			<path id="Trazado_3066" class="st11" d="M44.1,144.1l-0.5,6.7c0,0,11.9,4,12.2,5.5s-22,0-22,0c0.1-2.2,1.2-4.3,2.8-5.8l-0.3-6.5
				L44.1,144.1z"/>
			<path id="Trazado_3067" class="st15" d="M55.9,156.4c-0.3-1.5-12.2-5.5-12.2-5.5l0.2-2.5c-1.2,0-2.3,1-2.3,2.2h-4.8
				c-1.6,1.5-2.7,3.6-2.8,5.8C33.9,156.4,56.1,157.9,55.9,156.4z"/>
			<path id="Trazado_3068" class="st11" d="M60.4,11.9l-2.9,5.4l-1.4-0.9c0,0-2.2,4.8-4.8,4.5s-2.9-1-2.9-1L45,23.6
				c0,0-5.3-1.6-5.8-5.6l3.2-5.1l8.2-8.4L60.4,11.9z"/>
			<path id="Trazado_3069" class="st15" d="M54.4,8.7c0,0,4.4,3.6,7.1,5.4s6.6-0.8,6.6-5.3s-5.6-6.1-7.5-5c0,0-4.8-3.9-7.9-3.9
				c-3,0-3,2.5-3,2.5c-1.7-1-3.9-0.6-5.2,0.8c-2.4,2.5-2.2,9.6-2.2,9.6l2.8,1.7l1.7-1.7c0,0-0.9-5.5,2.9-4.8
				c1.5,0.2,0.4,3.3,0.4,3.3C51.8,11.2,53.5,10.2,54.4,8.7z"/>
			
				<linearGradient id="Trazado_3070_1_" gradientUnits="userSpaceOnUse" x1="-172.7759" y1="381.7277" x2="-171.7759" y2="381.7277" gradientTransform="matrix(25.397 0 0 -43.9049 4414.4292 16805.2754)">
				<stop  offset="0" style="stop-color:#3C57AB"/>
				<stop  offset="1" style="stop-color:#6582DB"/>
			</linearGradient>
			<path id="Trazado_3070" class="st20" d="M45,23.6L26.4,56l0.9,11.6h11.8l-4.3-12l17-25.5L45,23.6z"/>
			<path id="Trazado_3071" class="st7" d="M30.1,49.5L45,23.6l2.9,7.8l-9.9,6.9l1.9,5L30.1,49.5z"/>
			
				<linearGradient id="Trazado_3072_1_" gradientUnits="userSpaceOnUse" x1="-174.6989" y1="382.6483" x2="-173.6989" y2="382.6483" gradientTransform="matrix(36.262 0 0 -53.416 6337.8086 20480.3496)">
				<stop  offset="0" style="stop-color:#3C57AB"/>
				<stop  offset="1" style="stop-color:#6582DB"/>
			</linearGradient>
			<path id="Trazado_3072" class="st21" d="M39.1,18L28.6,55l-6,12.5H2.9l9.8-19L21,18.6l10-4.5L39.1,18z"/>
			<path id="Trazado_3073" class="st6" d="M16.1,36.1l12.9-15.7l-8.9,1.2L16.1,36.1z"/>
			<path id="Trazado_3074" class="st7" d="M39.1,18L28.6,55l-1.5-18.5l4.8-0.5L31,19.8L39.1,18z"/>
			<path id="Trazado_3075" class="st11" d="M11.8,47.3l1.1,3.1l4.3,2.1c0.7,0.4,1.3,1,1.6,1.8l1.2,3.4l-1.2,0.5
				c-1,0.4-2.1,0.1-2.7-0.9l-0.4-0.7l-4.3-1.9c-0.9-0.4-1.5-1.3-1.6-2.3l-0.1-1l-1.4-2.9L11.8,47.3z"/>
			
				<linearGradient id="Trazado_3076_1_" gradientUnits="userSpaceOnUse" x1="-174.0901" y1="380.7707" x2="-173.0901" y2="380.7707" gradientTransform="matrix(31.9361 0 0 -37.0471 5559.7505 14138.8594)">
				<stop  offset="0" style="stop-color:#3C57AB"/>
				<stop  offset="1" style="stop-color:#6582DB"/>
			</linearGradient>
			<path id="Trazado_3076" class="st22" d="M31.1,14.1C27.3,12.3,2,22.5,0.2,28.7s8.1,22.2,8.1,22.2l4.4-2.4L8.3,32.7
				c0,0,11.7-6.4,16.5-9.1C29.8,20.9,33.8,15.4,31.1,14.1z"/>
			<path id="Trazado_3077" class="st6" d="M45.2,145.5l3.1-16.9L39.1,103c-4.2,10-3.9,42.5-3.9,42.5L45.2,145.5z"/>
		</g>
		<line id="Línea_145" class="st23" x1="0" y1="216.6" x2="284.4" y2="216.6"/>
		<path id="Trazado_3078" class="st5" d="M104.5,70.9h-2.1c-0.4,0-0.6-0.3-0.6-0.6v-2.1h-1v2.1c0,0.4-0.3,0.6-0.6,0.6H98v1h2.1
			c0.4,0,0.6,0.3,0.6,0.6l0,0v2.1h1v-2.1c0-0.4,0.3-0.6,0.6-0.6h2.1V70.9z"/>
		<path id="Trazado_3079" class="st5" d="M240.5,60.4h-2.1c-0.4,0-0.6-0.3-0.6-0.6v-2.1h-1v2.1c0,0.4-0.3,0.6-0.6,0.6c0,0,0,0,0,0
			H234v1h2.1c0.4,0,0.6,0.3,0.6,0.6c0,0,0,0,0,0v2.1h1V62c0-0.4,0.3-0.6,0.6-0.6c0,0,0,0,0,0h2.1V60.4z"/>
		<path id="Trazado_3080" class="st5" d="M269.4,178.7h-2.1c-0.4,0-0.6-0.3-0.6-0.6v-2.1h-1v2.1c0,0.4-0.3,0.6-0.6,0.6h-2.1v1h2.1
			c0.4,0,0.6,0.3,0.6,0.6v2.1h1v-2.1c0-0.4,0.3-0.6,0.6-0.6h2.1L269.4,178.7z"/>
		<g id="Grupo_4631" transform="translate(144.672 157.295)">
			<circle id="Elipse_108" class="st1" cx="20.4" cy="20.4" r="11.9"/>
			<g id="Grupo_4630">
				<path id="Trazado_3081" class="st7" d="M20.4,11c-5.2,0-9.4,4.2-9.4,9.4c0,5.2,4.2,9.4,9.4,9.4c5.2,0,9.4-4.2,9.4-9.4
					C29.8,15.2,25.6,11,20.4,11z M20.4,24.7c-2.4,0-4.3-1.9-4.3-4.3c0-2.4,1.9-4.3,4.3-4.3c0,0,0,0,0,0c2.4,0,4.3,1.9,4.3,4.3l0,0
					C24.7,22.8,22.8,24.7,20.4,24.7C20.4,24.7,20.4,24.7,20.4,24.7L20.4,24.7z"/>
				<path id="Trazado_3082" class="st7" d="M40.4,24.6c0.3-1.4,0.4-2.8,0.4-4.2c0-1.4-0.1-2.8-0.4-4.2h-4.7
					c-0.3-1.3-0.8-2.5-1.5-3.6l3.3-3.3c-1.6-2.4-3.6-4.4-6-6l-3.3,3.3c-1.1-0.6-2.3-1.1-3.6-1.5V0.4C23.2,0.1,21.8,0,20.4,0
					c-1.4,0-2.8,0.1-4.2,0.4v4.7c-1.3,0.3-2.5,0.8-3.6,1.5L9.3,3.3c-2.4,1.6-4.4,3.6-6,6l3.3,3.3c-0.6,1.1-1.1,2.3-1.5,3.6H0.5
					C0.2,17.6,0,19,0,20.4c0,1.4,0.1,2.8,0.4,4.2h4.7c0.3,1.3,0.8,2.5,1.5,3.6l-3.3,3.3c1.6,2.4,3.6,4.4,6,6l3.3-3.3
					c1.1,0.6,2.3,1.1,3.6,1.5v4.7c1.4,0.3,2.8,0.4,4.2,0.4c1.4,0,2.8-0.1,4.2-0.4v-4.7c1.3-0.3,2.5-0.8,3.6-1.5l3.3,3.3
					c2.4-1.6,4.4-3.6,6-6l-3.3-3.3c0.6-1.1,1.1-2.3,1.5-3.6H40.4z M20.4,31.1c-5.9,0-10.6-4.8-10.6-10.6c0-5.9,4.8-10.6,10.6-10.6
					c5.9,0,10.6,4.8,10.7,10.6C31,26.3,26.3,31,20.4,31.1L20.4,31.1z"/>
			</g>
		</g>
		<g id="Grupo_4633" transform="translate(123.676 183.78)">
			<path id="Trazado_3083" class="st1" d="M17.7,11.2c0,3.6-2.9,6.5-6.5,6.5c0,0,0,0,0,0c-3.6,0-6.5-2.9-6.5-6.5c0,0,0,0,0,0
				c0-3.6,2.9-6.5,6.5-6.5c0,0,0,0,0,0C14.8,4.7,17.7,7.6,17.7,11.2L17.7,11.2z"/>
			<g id="Grupo_4632">
				<path id="Trazado_3084" class="st7" d="M11.2,6C8.3,6,6,8.3,6,11.2c0,2.9,2.3,5.2,5.2,5.2c2.9,0,5.2-2.3,5.2-5.2
					C16.4,8.3,14.1,6,11.2,6z M11.2,13.5c-1.3,0-2.3-1-2.3-2.3c0,0,0,0,0,0c0-1.3,1.1-2.3,2.3-2.3c0,0,0,0,0,0
					c1.3,0,2.3,1.1,2.3,2.3C13.6,12.5,12.5,13.5,11.2,13.5C11.2,13.5,11.2,13.5,11.2,13.5z"/>
				<path id="Trazado_3085" class="st7" d="M22.2,13.5c0.2-0.8,0.2-1.5,0.2-2.3c0-0.8-0.1-1.6-0.2-2.3h-2.6c-0.2-0.7-0.5-1.4-0.8-2
					l1.8-1.8c-0.9-1.3-2-2.4-3.3-3.3l-1.8,1.8c-0.6-0.4-1.3-0.6-2-0.8V0.2C12.8,0.1,12,0,11.2,0c-0.8,0-1.6,0.1-2.3,0.2v2.6
					C8.2,3,7.5,3.3,6.9,3.6L5.1,1.8c-1.3,0.9-2.4,2-3.3,3.3l1.8,1.8C3.3,7.5,3,8.2,2.8,8.9H0.2C0.1,9.7,0,10.4,0,11.2
					c0,0.8,0.1,1.6,0.2,2.3h2.6c0.2,0.7,0.5,1.4,0.8,2l-1.8,1.8c0.9,1.3,2,2.4,3.3,3.3l1.8-1.8c0.6,0.4,1.3,0.6,2,0.8v2.6
					c0.8,0.2,1.5,0.2,2.3,0.2c0.8,0,1.6-0.1,2.3-0.2v-2.6c0.7-0.2,1.4-0.5,2-0.8l1.8,1.8c1.3-0.9,2.4-2,3.3-3.3l-1.8-1.8
					c0.4-0.6,0.6-1.3,0.8-2H22.2z M11.2,17.1c-3.2,0-5.8-2.6-5.8-5.8C5.4,8,8,5.4,11.2,5.4c3.2,0,5.8,2.6,5.8,5.8
					C17,14.4,14.4,17,11.2,17.1L11.2,17.1z"/>
			</g>
		</g>
		<g class="st0">
			<path class="st7" d="M102.7,114v-1.3h-0.4c0,0-0.1,0-0.1,0c0,0,0,0,0-0.1v-0.2c0,0,0-0.1,0-0.1s0,0,0.1,0h0.4v-0.8
				c0,0,0-0.1,0-0.1s0,0,0.1,0h0.2c0,0,0.1,0,0.1,0c0,0,0,0,0,0.1v0.8h0.6c0,0,0.1,0,0.1,0c0,0,0,0,0,0.1v0.2c0,0,0,0.1,0,0.1
				c0,0,0,0-0.1,0h-0.6v1.3c0,0.2,0,0.3,0.1,0.4c0.1,0.1,0.1,0.1,0.3,0.1h0.3c0,0,0.1,0,0.1,0s0,0,0,0.1v0.2c0,0,0,0.1,0,0.1
				s0,0-0.1,0h-0.3C103,114.8,102.7,114.5,102.7,114z"/>
			<path class="st7" d="M105.7,114.6c-0.2-0.2-0.3-0.5-0.3-0.9l0-0.2l0-0.2c0-0.4,0.1-0.6,0.3-0.9c0.2-0.2,0.5-0.3,0.8-0.3
				c0.4,0,0.7,0.1,0.9,0.4s0.3,0.5,0.3,1v0.1c0,0,0,0.1,0,0.1c0,0,0,0-0.1,0h-1.7v0c0,0.2,0.1,0.4,0.2,0.6c0.1,0.2,0.3,0.2,0.5,0.2
				c0.2,0,0.3,0,0.4-0.1c0.1-0.1,0.2-0.1,0.2-0.2c0,0,0.1-0.1,0.1-0.1c0,0,0,0,0.1,0h0.2c0,0,0.1,0,0.1,0c0,0,0,0,0,0.1
				c0,0.1,0,0.2-0.1,0.3s-0.2,0.2-0.4,0.3s-0.4,0.1-0.6,0.1C106.1,114.9,105.9,114.8,105.7,114.6z M107.2,113.3L107.2,113.3
				c0-0.2-0.1-0.4-0.2-0.6c-0.1-0.1-0.3-0.2-0.5-0.2c-0.2,0-0.4,0.1-0.5,0.2c-0.1,0.1-0.2,0.3-0.2,0.6v0H107.2z"/>
			<path class="st7" d="M109.7,114.5v0.2c0,0,0,0.1,0,0.1c0,0,0,0-0.1,0h-0.2c0,0-0.1,0-0.1,0c0,0,0,0,0-0.1v-3.3c0,0,0-0.1,0-0.1
				c0,0,0,0,0.1,0h0.2c0,0,0.1,0,0.1,0c0,0,0,0,0,0.1v1.2c0.2-0.2,0.5-0.4,0.8-0.4c0.4,0,0.6,0.1,0.8,0.3c0.2,0.2,0.3,0.5,0.3,0.9
				c0,0,0,0.1,0,0.2s0,0.1,0,0.1c0,0.3-0.1,0.6-0.3,0.9c-0.2,0.2-0.4,0.3-0.8,0.3C110.2,114.9,109.9,114.8,109.7,114.5z
				 M110.9,114.3c0.1-0.1,0.2-0.3,0.2-0.6c0,0,0-0.1,0-0.1c0-0.6-0.2-1-0.7-1c-0.2,0-0.4,0.1-0.5,0.2s-0.2,0.3-0.2,0.5
				c0,0,0,0.1,0,0.2c0,0.1,0,0.2,0,0.2c0,0.2,0.1,0.4,0.2,0.6c0.1,0.2,0.3,0.2,0.5,0.2C110.7,114.5,110.8,114.4,110.9,114.3z"/>
			<path class="st7" d="M113.4,114.6c-0.2-0.2-0.3-0.5-0.3-0.8v-1.4c0,0,0-0.1,0-0.1c0,0,0,0,0.1,0h0.2c0,0,0.1,0,0.1,0
				c0,0,0,0,0,0.1v1.4c0,0.5,0.2,0.8,0.7,0.8c0.2,0,0.4-0.1,0.5-0.2c0.1-0.1,0.2-0.3,0.2-0.6v-1.4c0,0,0-0.1,0-0.1c0,0,0,0,0.1,0
				h0.2c0,0,0.1,0,0.1,0c0,0,0,0,0,0.1v2.4c0,0,0,0.1,0,0.1c0,0,0,0-0.1,0h-0.2c0,0-0.1,0-0.1,0c0,0,0,0,0-0.1v-0.2
				c-0.1,0.1-0.2,0.2-0.3,0.3c-0.1,0.1-0.3,0.1-0.5,0.1C113.9,114.9,113.6,114.8,113.4,114.6z"/>
			<path class="st7" d="M117.5,114.8c-0.2-0.1-0.3-0.2-0.4-0.3s-0.1-0.2-0.1-0.2c0,0,0-0.1,0-0.1s0,0,0.1,0h0.2c0,0,0,0,0,0s0,0,0,0
				c0.1,0.1,0.2,0.2,0.3,0.2c0.1,0.1,0.2,0.1,0.4,0.1c0.2,0,0.3,0,0.4-0.1c0.1-0.1,0.2-0.2,0.2-0.3c0-0.1,0-0.1-0.1-0.2
				c0,0-0.1-0.1-0.2-0.1s-0.3-0.1-0.5-0.1c-0.3-0.1-0.5-0.2-0.6-0.3c-0.1-0.1-0.2-0.3-0.2-0.5c0-0.1,0-0.2,0.1-0.4s0.2-0.2,0.3-0.3
				c0.1-0.1,0.3-0.1,0.5-0.1c0.2,0,0.4,0,0.5,0.1s0.3,0.2,0.3,0.2c0.1,0.1,0.1,0.2,0.1,0.2c0,0,0,0.1,0,0.1c0,0,0,0-0.1,0h-0.2
				c0,0-0.1,0-0.1-0.1c-0.1-0.1-0.1-0.1-0.1-0.1c0,0-0.1-0.1-0.2-0.1c-0.1,0-0.2,0-0.3,0c-0.2,0-0.3,0-0.4,0.1
				c-0.1,0.1-0.1,0.2-0.1,0.3c0,0.1,0,0.1,0.1,0.2c0,0,0.1,0.1,0.2,0.1s0.3,0.1,0.5,0.1c0.3,0.1,0.5,0.2,0.7,0.3
				c0.1,0.1,0.2,0.3,0.2,0.5c0,0.1,0,0.3-0.1,0.4c-0.1,0.1-0.2,0.2-0.4,0.3s-0.4,0.1-0.6,0.1C117.9,114.9,117.7,114.8,117.5,114.8z"
				/>
			<path class="st7" d="M121,114.6c-0.2-0.2-0.3-0.5-0.3-0.8l0-0.2l0-0.2c0-0.4,0.1-0.6,0.3-0.8c0.2-0.2,0.5-0.3,0.8-0.3
				c0.2,0,0.4,0,0.6,0.1s0.3,0.2,0.4,0.3c0.1,0.1,0.1,0.3,0.1,0.4c0,0,0,0.1,0,0.1c0,0-0.1,0-0.1,0h-0.2c0,0-0.1,0-0.1,0
				c0,0,0,0-0.1-0.1c-0.1-0.2-0.1-0.3-0.2-0.3s-0.2-0.1-0.4-0.1c-0.2,0-0.4,0.1-0.5,0.2c-0.1,0.1-0.2,0.3-0.2,0.6l0,0.2l0,0.2
				c0,0.3,0.1,0.5,0.2,0.6c0.1,0.1,0.3,0.2,0.5,0.2c0.2,0,0.3,0,0.4-0.1c0.1-0.1,0.2-0.2,0.2-0.3c0,0,0-0.1,0.1-0.1c0,0,0,0,0.1,0
				h0.2c0,0,0.1,0,0.1,0c0,0,0,0.1,0,0.1c0,0.1-0.1,0.2-0.1,0.4c-0.1,0.1-0.2,0.2-0.4,0.3s-0.4,0.1-0.6,0.1
				C121.4,114.9,121.2,114.8,121,114.6z"/>
			<path class="st7" d="M124.7,114.6c-0.2-0.2-0.3-0.5-0.3-0.8l0-0.2l0-0.2c0-0.3,0.1-0.6,0.3-0.8s0.5-0.3,0.8-0.3
				c0.4,0,0.6,0.1,0.8,0.3s0.3,0.5,0.3,0.8c0,0.1,0,0.1,0,0.2c0,0.1,0,0.1,0,0.2c0,0.3-0.1,0.6-0.3,0.8c-0.2,0.2-0.5,0.3-0.8,0.3
				S124.9,114.8,124.7,114.6z M126.1,114.3c0.1-0.1,0.2-0.3,0.2-0.6c0,0,0-0.1,0-0.2c0-0.1,0-0.2,0-0.2c0-0.3-0.1-0.4-0.2-0.6
				s-0.3-0.2-0.5-0.2c-0.2,0-0.4,0.1-0.5,0.2s-0.2,0.3-0.2,0.6l0,0.2l0,0.2c0,0.3,0.1,0.4,0.2,0.6s0.3,0.2,0.5,0.2
				C125.8,114.5,125.9,114.4,126.1,114.3z"/>
			<path class="st7" d="M128.5,114.5c-0.2-0.2-0.3-0.5-0.3-0.9l0-0.1l0-0.2c0-0.3,0.1-0.6,0.3-0.9s0.4-0.3,0.8-0.3s0.6,0.1,0.8,0.4
				v-1.2c0,0,0-0.1,0-0.1s0,0,0.1,0h0.2c0,0,0.1,0,0.1,0c0,0,0,0,0,0.1v3.3c0,0,0,0.1,0,0.1c0,0,0,0-0.1,0h-0.2c0,0-0.1,0-0.1,0
				s0,0,0-0.1v-0.2c-0.2,0.3-0.5,0.4-0.8,0.4C129,114.9,128.7,114.8,128.5,114.5z M129.9,114.3c0.1-0.2,0.2-0.3,0.2-0.6
				c0,0,0-0.1,0-0.2c0-0.1,0-0.2,0-0.2c0-0.2-0.1-0.4-0.2-0.5s-0.3-0.2-0.5-0.2c-0.2,0-0.4,0.1-0.5,0.2c-0.1,0.2-0.2,0.3-0.2,0.6
				l0,0.1c0,0.6,0.2,1,0.7,1C129.6,114.5,129.8,114.4,129.9,114.3z"/>
			<path class="st7" d="M132.4,115.8C132.3,115.7,132.3,115.7,132.4,115.8l0-3.4c0,0,0-0.1,0-0.1c0,0,0,0,0.1,0h0.2c0,0,0.1,0,0.1,0
				c0,0,0,0,0,0.1v0.2c0.2-0.3,0.5-0.4,0.8-0.4c0.4,0,0.6,0.1,0.8,0.3c0.2,0.2,0.3,0.5,0.3,0.8c0,0,0,0.1,0,0.2c0,0.1,0,0.1,0,0.2
				c0,0.3-0.1,0.6-0.3,0.8c-0.2,0.2-0.4,0.3-0.8,0.3c-0.4,0-0.6-0.1-0.8-0.4v1.2c0,0,0,0.1,0,0.1c0,0,0,0-0.1,0L132.4,115.8
				C132.4,115.8,132.4,115.8,132.4,115.8z M134,114.3c0.1-0.1,0.2-0.3,0.2-0.6c0,0,0-0.1,0-0.1c0-0.6-0.2-1-0.7-1
				c-0.2,0-0.4,0.1-0.5,0.2s-0.2,0.3-0.2,0.5c0,0,0,0.1,0,0.2c0,0.1,0,0.2,0,0.2c0,0.2,0.1,0.4,0.2,0.5s0.3,0.2,0.5,0.2
				C133.7,114.5,133.9,114.4,134,114.3z"/>
			<path class="st7" d="M136.5,114v-1.3h-0.4c0,0-0.1,0-0.1,0c0,0,0,0,0-0.1v-0.2c0,0,0-0.1,0-0.1s0,0,0.1,0h0.4v-0.8
				c0,0,0-0.1,0-0.1s0,0,0.1,0h0.2c0,0,0.1,0,0.1,0c0,0,0,0,0,0.1v0.8h0.6c0,0,0.1,0,0.1,0c0,0,0,0,0,0.1v0.2c0,0,0,0.1,0,0.1
				c0,0,0,0-0.1,0h-0.6v1.3c0,0.2,0,0.3,0.1,0.4c0.1,0.1,0.1,0.1,0.3,0.1h0.3c0,0,0.1,0,0.1,0s0,0,0,0.1v0.2c0,0,0,0.1,0,0.1
				s0,0-0.1,0h-0.3C136.8,114.8,136.5,114.5,136.5,114z"/>
			<path class="st7" d="M139.4,114.6c-0.2-0.2-0.3-0.5-0.3-0.8l0-0.2l0-0.2c0-0.3,0.1-0.6,0.3-0.8s0.5-0.3,0.8-0.3
				c0.4,0,0.6,0.1,0.8,0.3s0.3,0.5,0.3,0.8c0,0.1,0,0.1,0,0.2c0,0.1,0,0.1,0,0.2c0,0.3-0.1,0.6-0.3,0.8c-0.2,0.2-0.5,0.3-0.8,0.3
				S139.6,114.8,139.4,114.6z M140.8,114.3c0.1-0.1,0.2-0.3,0.2-0.6c0,0,0-0.1,0-0.2c0-0.1,0-0.2,0-0.2c0-0.3-0.1-0.4-0.2-0.6
				s-0.3-0.2-0.5-0.2c-0.2,0-0.4,0.1-0.5,0.2s-0.2,0.3-0.2,0.6l0,0.2l0,0.2c0,0.3,0.1,0.4,0.2,0.6s0.3,0.2,0.5,0.2
				C140.5,114.5,140.6,114.4,140.8,114.3z"/>
		</g>
		<path id="Trazado_3086" class="st3" d="M204.3,43.3c0-0.1,0-0.2,0-0.2c0-0.5-0.4-0.8-0.8-0.8c0,0,0,0,0,0c-0.4,0-0.7,0.2-0.8,0.6
			c0,0,0-0.1-0.1-0.1c-0.1-0.3-0.4-0.5-0.7-0.5c-0.5,0-0.8,0.4-0.8,0.8c0,0.1,0,0.2,0,0.2c0.1,0.5,1,1.3,1.6,1.9l0,0
			C203.3,44.5,204.2,43.9,204.3,43.3L204.3,43.3z M207.4,41.6l-4.4-3.9c-0.2-0.1-0.4-0.1-0.6,0l-4.4,3.9c-0.2,0.2-0.2,0.4,0,0.6
			c0.2,0.2,0.4,0.2,0.6,0.1c0,0,0,0,0,0l4.1-3.6l4.1,3.6c0.1,0.1,0.2,0.1,0.3,0.1c0.1,0,0.3-0.1,0.3-0.2
			C207.6,42,207.6,41.7,207.4,41.6z M205.8,46.4h-6.2v-3.9l3.1-2.7l3.1,2.7L205.8,46.4z"/>
		<path id="Trazado_3087" class="st24" d="M196.4,46.4h-5.7c-0.2,0-0.5-0.1-0.6-0.3l0,0l0,0c-0.2-0.2-0.3-0.4-0.3-0.6V33
			c0-0.2,0.1-0.5,0.3-0.6l0,0l0,0c0.2-0.2,0.4-0.3,0.6-0.3h5.8c0.2,0,0.4,0.1,0.6,0.3l0,0l0,0c0.2,0.2,0.3,0.4,0.3,0.6v12.5
			C197.5,46.6,196.4,46.3,196.4,46.4 M192.4,35.8h-1.1c-0.1,0-0.2,0-0.2,0.1l0,0C191,36,191,36,191,36.1v1c0,0.1,0,0.2,0.1,0.2l0,0
			c0.1,0.1,0.1,0.1,0.2,0.1h1.1c0.1,0,0.2,0,0.2-0.1l0,0c0.1-0.1,0.1-0.1,0.1-0.2v-1c0-0.1,0-0.2-0.1-0.2l0,0
			C192.5,35.8,192.5,35.8,192.4,35.8z M192.4,33.4h-1.1c-0.1,0-0.2,0-0.2,0.1l0,0c-0.1,0.1-0.1,0.1-0.1,0.2v1c0,0.1,0,0.2,0.1,0.2
			l0,0c0.1,0.1,0.1,0.1,0.2,0.1h1.1c0.1,0,0.2,0,0.2-0.1l0,0c0.1-0.1,0.1-0.1,0.1-0.2v-1c0-0.1,0-0.2-0.1-0.2l0,0
			C192.6,33.5,192.5,33.4,192.4,33.4z M195.2,33.4h-1.1c-0.1,0-0.2,0-0.2,0.1l0,0c-0.1,0.1-0.1,0.1-0.1,0.2v1c0,0.1,0,0.2,0.1,0.2
			l0,0c0.1,0.1,0.1,0.1,0.2,0.1h1.1c0.1,0,0.2,0,0.2-0.1l0,0c0.1-0.1,0.1-0.1,0.1-0.2v-1c0-0.1,0-0.2-0.1-0.2l0,0
			C195.3,33.5,195.2,33.4,195.2,33.4z M192.4,43h-1.1c-0.1,0-0.2,0-0.2,0.1l0,0c-0.1,0.1-0.1,0.1-0.1,0.2v1c0,0.1,0,0.2,0.1,0.2l0,0
			c0.1,0.1,0.1,0.1,0.2,0.1h1.1c0.1,0,0.2,0,0.2-0.1l0,0c0.1-0.1,0.1-0.1,0.1-0.2v-1c0-0.1,0-0.2-0.1-0.2l0,0
			C192.5,43,192.5,43,192.4,43z M195.2,43h-1.1c-0.1,0-0.2,0-0.2,0.1l0,0c-0.1,0.1-0.1,0.1-0.1,0.2v1c0,0.1,0,0.2,0.1,0.2l0,0
			c0.1,0.1,0.1,0.1,0.2,0.1h1.1c0.1,0,0.2,0,0.2-0.1l0,0c0.1-0.1,0.1-0.1,0.1-0.2v-1c0-0.1,0-0.2-0.1-0.2l0,0
			C195.3,43,195.2,43,195.2,43z M192.4,40.6h-1.1c-0.1,0-0.2,0-0.2,0.1l0,0c-0.1,0.1-0.1,0.1-0.1,0.2v1c0,0.1,0,0.2,0.1,0.2l0,0
			c0.1,0.1,0.1,0.1,0.2,0.1h1.1c0.1,0,0.2,0,0.2-0.1l0,0c0.1-0.1,0.1-0.1,0.1-0.2v-1c0-0.1,0-0.2-0.1-0.2l0,0
			C192.6,40.6,192.5,40.6,192.4,40.6z M195.2,40.6h-1.1c-0.1,0-0.2,0-0.2,0.1l0,0c-0.1,0.1-0.1,0.1-0.1,0.2v1c0,0.1,0,0.2,0.1,0.2
			l0,0c0.1,0.1,0.1,0.1,0.2,0.1h1.1c0.1,0,0.2,0,0.2-0.1l0,0c0.1-0.1,0.1-0.1,0.1-0.2v-1c0-0.1,0-0.2-0.1-0.2l0,0
			C195.3,40.6,195.2,40.6,195.2,40.6z M192.4,38.2h-1.1c-0.1,0-0.2,0-0.2,0.1l0,0c-0.1,0.1-0.1,0.1-0.1,0.2v0.9c0,0.1,0,0.2,0.1,0.2
			l0,0c0.1,0.1,0.1,0.1,0.2,0.1h1.1c0.1,0,0.2,0,0.2-0.1l0,0c0.1-0.1,0.1-0.1,0.1-0.2v-0.9c0-0.1,0-0.2-0.1-0.2l0,0
			C192.6,38.2,192.5,38.2,192.4,38.2z M195.2,38.2h-1.1c-0.1,0-0.2,0-0.2,0.1l0,0c-0.1,0.1-0.1,0.1-0.1,0.2v0.9c0,0.1,0,0.2,0.1,0.2
			l0,0c0.1,0.1,0.1,0.1,0.2,0.1h1.1c0.1,0,0.2,0,0.2-0.1l0,0c0.1-0.1,0.1-0.1,0.1-0.2v-0.9c0-0.1,0-0.2-0.1-0.2l0,0
			C195.3,38.2,195.2,38.2,195.2,38.2z M195.2,35.8h-1.1c-0.1,0-0.2,0-0.2,0.1l0,0c-0.1,0.1-0.1,0.1-0.1,0.2v1c0,0.1,0,0.2,0.1,0.2
			l0,0c0.1,0.1,0.1,0.1,0.2,0.1h1.1c0.1,0,0.2,0,0.2-0.1l0,0c0.1-0.1,0.1-0.1,0.1-0.2v-1c0-0.1,0-0.2-0.1-0.2l0,0
			C195.3,35.8,195.2,35.8,195.2,35.8z"/>
		<path id="Trazado_3088" class="st3" d="M223.7,43.3c0-0.1,0-0.2,0-0.2c0-0.5-0.4-0.8-0.8-0.8c-0.4,0-0.7,0.2-0.8,0.6
			c0,0,0-0.1-0.1-0.1c-0.1-0.3-0.4-0.5-0.7-0.5c-0.5,0-0.8,0.4-0.8,0.8c0,0.1,0,0.2,0,0.2c0.1,0.5,1,1.3,1.6,1.9l0,0
			C222.8,44.5,223.7,43.9,223.7,43.3L223.7,43.3z M226.9,41.6l-4.4-3.9c-0.2-0.1-0.4-0.1-0.6,0l-4.4,3.9c-0.2,0.2-0.2,0.4,0,0.6
			c0.2,0.2,0.4,0.2,0.6,0.1c0,0,0,0,0,0l4.1-3.6l4.1,3.6c0.1,0.1,0.2,0.1,0.3,0.1c0.1,0,0.3-0.1,0.3-0.2
			C227.1,42,227.1,41.7,226.9,41.6z M225.3,46.4h-6.2v-3.9l3.1-2.7l3.1,2.7L225.3,46.4z"/>
		<path id="Trazado_3089" class="st24" d="M215.5,46.4h-5.7c-0.2,0-0.5-0.1-0.6-0.3v0l0,0c-0.2-0.2-0.3-0.4-0.3-0.6V33
			c0-0.2,0.1-0.5,0.3-0.6l0,0l0,0c0.2-0.2,0.4-0.3,0.6-0.3h5.8c0.2,0,0.4,0.1,0.6,0.3l0,0l0,0c0.2,0.2,0.3,0.4,0.3,0.6v12.5
			C216.6,46.6,215.6,46.3,215.5,46.4 M211.5,35.8h-1.1c-0.1,0-0.2,0-0.2,0.1l0,0c-0.1,0.1-0.1,0.1-0.1,0.2v1c0,0.1,0,0.2,0.1,0.2
			l0,0c0.1,0.1,0.1,0.1,0.2,0.1h1.1c0.1,0,0.2,0,0.2-0.1l0,0c0.1-0.1,0.1-0.1,0.1-0.2v-1c0-0.1,0-0.2-0.1-0.2l0,0
			C211.7,35.8,211.6,35.8,211.5,35.8z M211.5,33.4h-1.1c-0.1,0-0.2,0-0.2,0.1l0,0c-0.1,0.1-0.1,0.1-0.1,0.2v1c0,0.1,0,0.2,0.1,0.2
			l0,0c0.1,0.1,0.1,0.1,0.2,0.1h1.1c0.1,0,0.2,0,0.2-0.1l0,0c0.1-0.1,0.1-0.1,0.1-0.2v-1c0-0.1,0-0.2-0.1-0.2l0,0
			C211.7,33.5,211.6,33.4,211.5,33.4z M214.3,33.4h-1.1c-0.1,0-0.2,0-0.2,0.1l0,0c-0.1,0.1-0.1,0.1-0.1,0.2v1c0,0.1,0,0.2,0.1,0.2
			l0,0c0.1,0.1,0.1,0.1,0.2,0.1h1.1c0.1,0,0.2,0,0.2-0.1l0,0c0.1-0.1,0.1-0.1,0.1-0.2v-1c0-0.1,0-0.2-0.1-0.2l0,0
			C214.4,33.5,214.3,33.4,214.3,33.4z M211.5,43h-1.1c-0.1,0-0.2,0-0.2,0.1l0,0c-0.1,0.1-0.1,0.1-0.1,0.2v1c0,0.1,0,0.2,0.1,0.2l0,0
			c0.1,0.1,0.1,0.1,0.2,0.1h1.1c0.1,0,0.2,0,0.2-0.1l0,0c0.1-0.1,0.1-0.1,0.1-0.2v-1c0-0.1,0-0.2-0.1-0.2l0,0
			C211.7,43,211.6,43,211.5,43z M214.3,43h-1.1c-0.1,0-0.2,0-0.2,0.1l0,0c-0.1,0.1-0.1,0.1-0.1,0.2v1c0,0.1,0,0.2,0.1,0.2l0,0
			c0.1,0.1,0.1,0.1,0.2,0.1h1.1c0.1,0,0.2,0,0.2-0.1l0,0c0.1-0.1,0.1-0.1,0.1-0.2v-1c0-0.1,0-0.2-0.1-0.2l0,0
			C214.4,43,214.3,43,214.3,43z M211.5,40.6h-1.1c-0.1,0-0.2,0-0.2,0.1l0,0c-0.1,0.1-0.1,0.1-0.1,0.2v1c0,0.1,0,0.2,0.1,0.2l0,0
			c0.1,0.1,0.1,0.1,0.2,0.1h1.1c0.1,0,0.2,0,0.2-0.1l0,0c0.1-0.1,0.1-0.1,0.1-0.2v-1c0-0.1,0-0.2-0.1-0.2l0,0
			C211.7,40.6,211.6,40.6,211.5,40.6z M214.3,40.6h-1.1c-0.1,0-0.2,0-0.2,0.1l0,0c-0.1,0.1-0.1,0.1-0.1,0.2v1c0,0.1,0,0.2,0.1,0.2
			l0,0c0.1,0.1,0.1,0.1,0.2,0.1h1.1c0.1,0,0.2,0,0.2-0.1l0,0c0.1-0.1,0.1-0.1,0.1-0.2v-1c0-0.1,0-0.2-0.1-0.2l0,0
			C214.4,40.6,214.3,40.6,214.3,40.6z M211.5,38.2h-1.1c-0.1,0-0.2,0-0.2,0.1l0,0c-0.1,0.1-0.1,0.1-0.1,0.2v0.9c0,0.1,0,0.2,0.1,0.2
			l0,0c0.1,0.1,0.1,0.1,0.2,0.1h1.1c0.1,0,0.2,0,0.2-0.1l0,0c0.1-0.1,0.1-0.1,0.1-0.2v-0.9c0-0.1,0-0.2-0.1-0.2l0,0
			C211.7,38.2,211.6,38.2,211.5,38.2z M214.3,38.2h-1.1c-0.1,0-0.2,0-0.2,0.1l0,0c-0.1,0.1-0.1,0.1-0.1,0.2v0.9c0,0.1,0,0.2,0.1,0.2
			l0,0c0.1,0.1,0.1,0.1,0.2,0.1h1.1c0.1,0,0.2,0,0.2-0.1l0,0c0.1-0.1,0.1-0.1,0.1-0.2v-0.9c0-0.1,0-0.2-0.1-0.2l0,0
			C214.4,38.2,214.3,38.2,214.3,38.2z M214.3,35.8h-1.1c-0.1,0-0.2,0-0.2,0.1l0,0c-0.1,0.1-0.1,0.1-0.1,0.2v1c0,0.1,0,0.2,0.1,0.2
			l0,0c0.1,0.1,0.1,0.1,0.2,0.1h1.1c0.1,0,0.2,0,0.2-0.1l0,0c0.1-0.1,0.1-0.1,0.1-0.2v-1c0-0.1,0-0.2-0.1-0.2l0,0
			C214.4,35.8,214.3,35.8,214.3,35.8z"/>
	</g>
</g>
</svg>
