<?xml version="1.0" encoding="utf-8"?>
<!-- Generator: Adobe Illustrator 23.0.6, SVG Export Plug-In . SVG Version: 6.00 Build 0)  -->
<svg version="1.1" id="Capa_1" xmlns="http://www.w3.org/2000/svg" xmlns:xlink="http://www.w3.org/1999/xlink" x="0px" y="0px"
	 viewBox="0 0 264.7 338.3" style="enable-background:new 0 0 264.7 338.3;" xml:space="preserve">
<style type="text/css">
	.st0{fill:#5793CE;}
	.st1{fill:#C4D9E8;}
	.st2{fill:#D4ECFF;}
	.st3{fill:#173D7A;}
	.st4{fill:#FFFFFF;}
	.st5{fill:#396CAA;}
	.st6{fill:#D3D0CF;}
	.st7{fill:#F2F2F2;}
	.st8{fill:#E08F8D;}
	.st9{fill:#9B6464;}
	.st10{fill:#414657;}
	.st11{fill:#274F89;}
	.st12{fill:#4D5466;}
	.st13{enable-background:new    ;}
	.st14{fill:#003CA5;}
	.st15{fill:#FFB700;}
</style>
<g id="Grupo_5051" transform="translate(-29.771 -863.652)">
	<g id="Grupo_4464" transform="translate(101.627 935.904)">
		<g id="Grupo_4424" transform="translate(103.45 114.021)">
			
				<rect id="Rectángulo_5836" x="4.2" y="0.3" transform="matrix(0.9688 -0.2479 0.2479 0.9688 -2.592956e-02 1.4077)" class="st0" width="2.8" height="1"/>
			
				<rect id="Rectángulo_5837" x="2.8" y="1.7" transform="matrix(0.9687 -0.2482 0.2482 0.9687 -0.4009 1.1108)" class="st0" width="2.8" height="1"/>
			
				<rect id="Rectángulo_5838" x="1.4" y="3" transform="matrix(0.9687 -0.2482 0.2482 0.9687 -0.7757 0.8123)" class="st0" width="2.8" height="1"/>
			
				<rect id="Rectángulo_5839" x="0.1" y="4.3" transform="matrix(0.9687 -0.2483 0.2483 0.9687 -1.1509 0.514)" class="st0" width="2.8" height="1"/>
		</g>
		<g id="Grupo_4452" transform="translate(10.574 1.077)">
			<path id="Trazado_2764" class="st1" d="M57.7,26.5L32.5,41.3c-6.4-2-14.5-1.4-19.9,1.8c-6.5,3.8-6.5,10,0.1,13.7
				c1.6,0.9,3.2,1.5,5,1.9c1.3,0.3,2.6,0.6,3.9,0.7c5.2,0.5,10.8-0.4,14.9-2.8c4.9-2.9,6.1-7,3.6-10.5l3.5-2l-0.1-2.2l3.7,0
				l-0.1-2.1l3.7,0l-0.1-2.1l3.7,0l-0.1-2.1l3.7,0l-0.1-2.1l3.9,0l1.2-0.7l1.3-5.4L57.7,26.5z M22.2,54.8c-1.9,1-4.2,1-6.2,0
				c-1.7-1-1.7-2.6,0-3.6c1.9-1,4.2-1,6.2,0C23.9,52.2,23.9,53.8,22.2,54.8L22.2,54.8z"/>
			<path id="Trazado_2765" class="st1" d="M71.5,120.1l-34-19.6c-2.3-1.3-2-3.6,0.6-5.2l33-19.1c2.6-1.5,6.6-1.7,8.9-0.4l34,19.6
				c2.3,1.3,2,3.6-0.6,5.2l-33,19.1C77.8,121.3,73.8,121.4,71.5,120.1z"/>
			<g id="Grupo_4427" transform="translate(26.512 39.667)">
				<g id="Grupo_4425" transform="translate(47.273)">
					<path id="Trazado_2766" class="st0" d="M37.6,36.1l-5.9-3.4l21.7-12.5c0.6-0.2,0.9-0.8,0.7-1.4c-0.1-0.3-0.4-0.6-0.7-0.7
						L31.3,5.2c-1.2-0.6-2.5-0.6-3.7,0L5.9,17.8L0,14.4L21.7,1.8c4.9-2.5,10.6-2.5,15.5,0l22.2,12.8c4.3,2.5,4.3,6.5,0,8.9
						L37.6,36.1z"/>
				</g>
				<g id="Grupo_4426" transform="translate(0 6.238)">
					<path id="Trazado_2767" class="st2" d="M94.4,31.4c0-3.1-1.9-6.8-4.3-8.2L50.8,0.5C50-0.1,49-0.2,48.1,0.3l0,0L1.1,27.5
						l45.4,34.2l46.2-26.8c0.1-0.1,0.3-0.1,0.4-0.2l0,0C94.1,33.8,94.5,32.6,94.4,31.4z"/>
					<path id="Trazado_2768" class="st3" d="M46.5,61.7l46.2-26.8c0.1-0.1,0.3-0.1,0.4-0.2l0,0c0.9-0.8,1.4-2.1,1.2-3.3
						c0-1.6-0.4-3.1-1.2-4.5L40.6,57.2L46.5,61.7z"/>
					<path id="Trazado_2769" class="st0" d="M43.6,61.6L4.3,38.9c-2.4-1.4-4.3-5-4.3-8.2l0,0c0-3.1,1.9-4.6,4.3-3.2l39.3,22.7
						c2.4,1.4,4.3,5,4.3,8.2l0,0C47.8,61.5,45.9,63,43.6,61.6z"/>
				</g>
				<path id="Trazado_2770" class="st4" d="M37.7,60.2L33,57.5c-0.5-0.4-0.8-1-0.9-1.6l0,0c0-0.6,0.4-0.9,0.9-0.6l4.7,2.7
					c0.5,0.4,0.8,1,0.9,1.6l0,0C38.5,60.2,38.1,60.5,37.7,60.2z"/>
			</g>
			<g id="Grupo_4451">
				<g id="Grupo_4450">
					<path id="Trazado_2771" class="st5" d="M28.7,20l8.1,4.6l8.2-4.8l0-2.1l-0.1,0l0-0.1l3.7,0l0-2.1l3.6,0l0-2.1l3.6,0l0-2.1
						l3.6,0l0-2.1l3.8,0l1.2-0.7L65.6,3l0-2.1l-0.6,2l-5.8-0.8L28.7,20z"/>
					<g id="Grupo_4449">
						<g id="Grupo_4448">
							<g id="Grupo_4443" transform="translate(9.113)">
								<g id="Grupo_4429" transform="translate(19.583)">
									<g id="Grupo_4428">
										<path id="Trazado_2772" class="st2" d="M8.1,22.5l8.2-4.8l-0.1-2.2l3.7,0l-0.1-2.1l3.7,0l-0.1-2.1l3.7,0l-0.1-2.1l3.7,0
											L30.5,7l3.9,0l1.2-0.7l1.3-5.4L30.4,0L0,17.9L8.1,22.5z"/>
									</g>
								</g>
								<g id="Grupo_4431" transform="translate(19.582 14.373)">
									<g id="Grupo_4430">
										<path id="Trazado_2773" class="st5" d="M13.6,4.9c-1-1.3-2.3-2.4-3.7-3.2C8.6,0.9,7.3,0.4,6,0L0,3.5l8.1,4.6L13.6,4.9z"/>
									</g>
								</g>
								<g id="Grupo_4433" transform="translate(29.69 0.719)">
									<g id="Grupo_4432">
										<path id="Trazado_2774" class="st0" d="M26.6,1.1l0.2-0.9L25.7,0L0,15.1l1.4,0.8L26.6,1.1z"/>
									</g>
								</g>
								<g id="Grupo_4435" transform="translate(0.002 23.611)">
									<g id="Grupo_4434">
										<path id="Trazado_2775" class="st6" d="M0.1,3L0,0l1,2L0.1,3z"/>
									</g>
								</g>
								<path id="Trazado_2776" class="st5" d="M5.1,33.3c6.6,3.7,17.2,3.7,23.8-0.2c3.3-1.9,4.9-4.4,4.9-6.9l0,0l-0.1-3.2l-0.5,0.6
									c-1-1.8-2.5-3.3-4.3-4.2c-6.6-3.7-17.2-3.7-23.8,0.2S-1.5,29.6,5.1,33.3z M14.6,27.7c1.7,1,1.7,2.6,0,3.6
									c-1.9,1-4.2,1-6.2,0c-1.7-1-1.7-2.6,0-3.6C10.3,26.8,12.6,26.8,14.6,27.7L14.6,27.7z"/>
								<g id="Grupo_4437" transform="translate(0 13.672)">
									<g id="Grupo_4436">
										<path id="Trazado_2777" class="st7" d="M5,16.7c6.6,3.7,17.2,3.7,23.8-0.2s6.5-10-0.1-13.7S11.4-0.9,4.9,2.9
											S-1.6,12.9,5,16.7z M14.5,11.1c1.7,1,1.7,2.6,0,3.6c-1.9,1-4.2,1-6.2,0c-1.7-1-1.7-2.6,0-3.6
											C10.2,10.1,12.6,10.1,14.5,11.1L14.5,11.1z"/>
									</g>
								</g>
								<path id="Trazado_2778" class="st0" d="M12.6,32c-1.4,0.3-2.9,0-4.2-0.6c-1.2-0.7-1.6-1.7-1.1-2.6l-3-2.4l-3.1-3.5
									c-2.4,3.5-1.1,7.7,3.8,10.5c2.3,1.2,4.8,2,7.4,2.3L12.6,32z"/>
								<g id="Grupo_4439" transform="translate(0 13.672)">
									<g id="Grupo_4438">
										<path id="Trazado_2779" class="st2" d="M5,16.7c1.6,0.9,3.2,1.5,5,1.9c1.3,0.3,2.6,0.6,3.9,0.7c5.2,0.5,10.8-0.4,14.9-2.8
											c6.5-3.8,6.5-10-0.1-13.7S11.4-0.9,4.9,2.9S-1.6,12.9,5,16.7z M14.5,11.1c1.7,1,1.7,2.6,0,3.6c-1.9,1-4.2,1-6.2,0
											c-1.7-1-1.7-2.6,0-3.6C10.2,10.1,12.6,10.1,14.5,11.1L14.5,11.1z"/>
									</g>
								</g>
								<g id="Grupo_4442" transform="translate(1.858 14.744)">
									<g id="Grupo_4441">
										<g id="Grupo_4440">
											<path id="Trazado_2780" class="st5" d="M0,8.8C0.3,6.9,1.7,5,4.3,3.5C10.1,0.1,19.6,0,25.4,3.4c2.9,1.7,4.4,3.8,4.4,6
												c0.4-2.5-1-5.1-4.4-7C19.6-0.9,10.2-0.8,4.3,2.6C1.4,4.3,0,6.6,0,8.8z"/>
										</g>
									</g>
								</g>
							</g>
							<g id="Grupo_4447" transform="translate(0 23.012)">
								<g id="Grupo_4446">
									<g id="Grupo_4445">
										<g id="Grupo_4444">
											<path id="Trazado_2781" class="st5" d="M7,27.7c-1.2,0-2.3-0.3-3.3-0.9c-2.4-1.3-3.7-4-3.7-7.6C0,12.8,4.5,4.8,10.1,1.6
												c3.1-1.8,6.1-2,8.4-0.7c1,0.6,1.9,1.4,2.4,2.4c0.9,1.6,1.3,3.3,1.3,5.1c0,6.5-4.5,14.4-10.1,17.7
												C10.6,27.1,8.8,27.6,7,27.7z M15.2,2.4c-1.4,0.1-2.7,0.5-3.9,1.2c-4.9,2.9-8.9,9.9-8.9,15.6c0,2.7,0.9,4.6,2.5,5.5
												s3.7,0.7,6-0.7c4.9-2.9,8.9-9.9,8.9-15.6c0-1.4-0.3-2.7-0.9-4l0,0c-0.4-0.7-0.9-1.2-1.6-1.6C16.6,2.6,15.9,2.4,15.2,2.4
												L15.2,2.4z"/>
										</g>
									</g>
								</g>
							</g>
						</g>
					</g>
				</g>
				<path id="Trazado_2782" class="st2" d="M18.3,30.7l4.7,1.2l0.7-3.5c-1.9,1-4.2,1-6.2,0L18.3,30.7z"/>
				<path id="Trazado_2783" class="st2" d="M14.1,30.3c1.6,0.9,3.2,1.5,5,1.9c1.3,0.3,2.6,0.6,3.9,0.7c5.2,0.5,10.8-0.4,14.9-2.8
					l-19.1-0.4L14.1,30.3z"/>
				<path id="Trazado_2784" class="st5" d="M21.2,32.8c-1.4-0.2-2.8-0.6-4.2-1.1v2.9c1.3,0.5,2.7,0.8,4.1,1.1
					C25.5,36.2,21.2,32.8,21.2,32.8z"/>
			</g>
			<path id="Trazado_2785" class="st0" d="M18.1,32c-0.9-0.3-1.8-0.6-2.7-1c-2.6-1.2,0.7,3.2,0.7,3.2s0.9,0.3,2,0.7L18.1,32z"/>
		</g>
		<path id="Trazado_2786" class="st0" d="M76.7,84.7l-8.4,5.4l-4.1-0.7l9.9-4.8L76.7,84.7z"/>
		<g id="Grupo_4457" transform="translate(48.067 11.632)">
			<g id="Grupo_4454" transform="translate(1.815)">
				<path id="Trazado_2787" class="st3" d="M16.7,100.3c0,0-2.4-1.2-3.9,0.6s-3.6,6.1-3.7,9s2.3,2.7,3.7,2s5.5-6.6,5.7-7.8
					c0.2-1.1-0.1-2.2-0.7-3C17.4,100.7,16.7,100.3,16.7,100.3z"/>
				<path id="Trazado_2788" class="st0" d="M17.2,99.7l0.1,2.5c0,0.5-0.2,1-0.7,1.3c-0.6,0.3-1.2,0.4-1.9,0.3
					c-1.8-0.3-2-0.8-2.1-3.3S17.2,99.7,17.2,99.7z"/>
				<g id="Grupo_4453" transform="translate(0 44.302)">
					<path id="Trazado_2789" class="st3" d="M7.8,51.2c0,0-2.4-1.2-3.9,0.6s-3.6,6.1-3.7,9s2.3,2.7,3.7,2s5.5-6.6,5.7-7.8
						c0.2-1.1-0.1-2.2-0.7-3C8.6,51.6,7.8,51.2,7.8,51.2z"/>
					<path id="Trazado_2790" class="st0" d="M8.4,50.6l0.1,2.5c0,0.5-0.2,1-0.7,1.3c-0.6,0.3-1.2,0.4-1.9,0.3
						c-1.8-0.3-2-0.8-2.1-3.3S8.4,50.6,8.4,50.6z"/>
					<path id="Trazado_2791" class="st2" d="M29.9,4.8C29.2-6.9,17.3,6.5,17.3,6.5l-8.1,8l-7.3,8c-1.4,1.6-2.1,3.7-1.8,5.8l3,22.5
						c0.1,1.1,1.1,1.9,2.2,1.9c0.4,0,0.7,0,1.1-0.1c1.5-0.2,2.5-1.4,2.4-2.9L8.2,28.6l15.3-9.3C23.6,19.3,30.6,16.4,29.9,4.8z"/>
				</g>
				<path id="Trazado_2792" class="st0" d="M14.1,68.9l-2.2-0.8c-0.1,0-3.7,3.5-3.7,4.8l1.6,0.5l4.1-4L14.1,68.9z"/>
				<path id="Trazado_2793" class="st0" d="M26.8,73c0,0,9.1-5.2,10.2-7.4c0.4-0.9,1.1-1.7-1.6-3l-12.2,8.7l0.5,3L26.8,73z"/>
				<path id="Trazado_2794" class="st2" d="M38.7,53.5c-0.8-11.6-12.6,1.7-12.6,1.7l-8.1,8l-7.3,8c-1.4,1.6-2.1,3.7-1.8,5.8l3,22.5
					c0.1,1.1,1.1,1.9,2.2,1.9c0.4,0,0.7,0,1.1-0.1c1.5-0.2,2.5-1.4,2.4-2.9l-0.5-21.1l15.3-9.3C32.4,68.1,39.4,64.1,38.7,53.5z"/>
				<path id="Trazado_2795" class="st0" d="M31.7,16.2c9,3.7,8.8,9,8.8,9s-1.8,19.5-1.2,32.5c0.3,5.4-28.9,5.9-24.5-8.7
					c5.1-17.1,3.2-31,5.6-33S29.4,15.2,31.7,16.2z"/>
				<path id="Trazado_2796" class="st8" d="M34.6,20.9c-0.5,1.8-2.9,2.8-5.3,2.1s-4.1-2.6-3.6-4.5s2.9-2.8,5.3-2.1
					S35,19.1,34.6,20.9z"/>
				<path id="Trazado_2797" class="st4" d="M30.7,23.7c-0.5,0-1.1-0.1-1.6-0.2c-1.2-0.3-2.3-1-3.2-1.9c-0.7-0.8-1-2-0.8-3.1
					c0.5-2.1,3.2-3.2,5.9-2.5c1.2,0.3,2.3,1,3.2,1.9c0.7,0.8,1,2,0.8,3.1C34.6,22.7,32.8,23.7,30.7,23.7z M29.4,16.7
					c-1.7,0-3.1,0.8-3.4,2c-0.2,0.8,0.1,1.7,0.6,2.3c0.7,0.8,1.6,1.4,2.7,1.6c2.2,0.6,4.4-0.2,4.8-1.8c0.2-0.8-0.1-1.7-0.6-2.3
					c-0.7-0.8-1.6-1.4-2.7-1.6C30.4,16.8,29.9,16.7,29.4,16.7L29.4,16.7z"/>
				<path id="Trazado_2798" class="st8" d="M28.1,15.8c0.1,1.1,0,2.1-0.1,3.2c0,0.9,3.1,1.7,3.9,0.9s0.5-1.7,0.7-4.7
					S28.1,15.8,28.1,15.8z"/>
				<path id="Trazado_2799" class="st9" d="M32.6,15.2c0,0-0.8,2.8-4.6,3.9l0.1-2.6L32.6,15.2z"/>
				<path id="Trazado_2800" class="st8" d="M35,8.1c1,3.7-1.3,7.5-5,8.4c0,0,0,0,0,0c-3.7,1-7.5-1.3-8.4-5c0,0,0,0,0,0
					c-1-3.7,1.3-7.5,5-8.4C30.3,2.1,34,4.4,35,8.1C35,8.1,35,8.1,35,8.1z"/>
				<path id="Trazado_2801" class="st9" d="M29.9,10c-2.1,0.9-4.2,1.4-6.4,1.7c-2.6,0-2.1-2.2-2.1-2.2l7.8-1.1L29.9,10z"/>
				<path id="Trazado_2802" class="st10" d="M22.6,10.5c2-0.8,4.1-1.1,6.2-0.8c0.7,0.1,1.3,0.5,1.8,1c0.1,0.2,0.3,0.3,0.5,0.4
					c0.5,0.1,1.4-2,2.4-2.1s1.7,0.7,0.9,2c-0.8,1.3-0.5,2.8-0.2,3s4.4-2.9,0.9-9.9S22.5,0.9,21.1,2.3c0,0-1.5,1.3-2.7,0.1
					C18.5,2.4,17.1,12.5,22.6,10.5z"/>
				<path id="Trazado_2803" class="st8" d="M35.4,39.5v5.3c0,0.6-0.3,1.2-0.7,1.6l-10.8,9.9l1.2,1.9l14.3-10.4
					c0.7-0.5,1.1-1.2,1.2-2l1-9.2L35.4,39.5z"/>
				<path id="Trazado_2804" class="st0" d="M39.7,22.6c0,0,3.3,4.9,4.5,17.9c0,0-5.6,1.8-8.8,0.8S39.7,22.6,39.7,22.6z"/>
				<path id="Trazado_2805" class="st5" d="M34.8,28.9c-0.6,3.3-1.1,6.7-1.4,10.1c0,0.9,0.5,1.7,1.4,2l0,0V28.9z"/>
			</g>
			<g id="Grupo_4455" transform="translate(1.729 52.265)">
				<path id="Trazado_2806" class="st3" d="M32.1,10.8l-2.4-0.3L14.3,1.6c-0.6-0.3-1.3-0.3-1.9,0.1L1.4,7.9L0,7.8v1.4l0,0
					c0,0.2,0.1,0.4,0.3,0.5l17.5,10.1c0.6,0.3,1.3,0.3,1.9-0.1l11.9-6.9c0.3-0.1,0.4-0.4,0.5-0.6l0,0L32.1,10.8z"/>
				<path id="Trazado_2807" class="st5" d="M20.5,5.1l-1.1-0.6H7.4L1.4,7.9L0,7.8v1.4l0,0c0,0.2,0.1,0.4,0.3,0.5l17.5,10.1
					c0.3,0.2,0.7,0.2,1,0.2L20.5,5.1z"/>
				<path id="Trazado_2808" class="st0" d="M0.6,7.8L0,7.8v1.4l0,0c0,0.2,0.1,0.4,0.3,0.5l0.3,0.2L0.6,7.8z"/>
				<path id="Trazado_2809" class="st11" d="M18,19.9c0.5,0.2,1.1,0.1,1.6-0.1v-2.4H18V19.9z"/>
				<path id="Trazado_2810" class="st4" d="M17.8,18.4L0.3,8.3C-0.2,8-0.1,7.5,0.5,7.1l11.9-6.9c0.6-0.3,1.3-0.4,1.9-0.1l17.5,10.1
					c0.5,0.3,0.4,0.8-0.1,1.1l-11.9,6.9C19.2,18.6,18.4,18.6,17.8,18.4z"/>
				<path id="Trazado_2811" class="st2" d="M17.5,16.8L3,8.4C2.6,8.2,2.6,7.8,3.1,7.5l6.4-3.6c0.5-0.3,1.1-0.3,1.6-0.1l14.5,8.4
					c0.4,0.2,0.4,0.7-0.1,0.9l-6.4,3.6C18.6,17,18,17.1,17.5,16.8z"/>
			</g>
			<path id="Trazado_2812" class="st8" d="M14.8,52.2l-0.2,1.2c-0.2,1-0.1,2.1,0.1,3.1l0.2,1.1c0.1,0.6,0.6,1.1,1.2,1.2l0,0
				c0.4,0.1,0.9-0.2,1-0.7c0,0,0,0,0-0.1l0.3-2.6c0,0,0.7,0.9,1,0.9s-0.4-2.6-1.1-4C16.5,50.8,14.8,52.2,14.8,52.2z"/>
			<path id="Trazado_2813" class="st8" d="M20.7,33l-1.9,3.7c-0.4,0.9-0.7,1.8-0.8,2.8l-0.8,12.7l-2.5-0.1l-1.1-14.3
				c0-0.4,0-0.9,0.1-1.3l1.3-7.2L20.7,33z"/>
			<g id="Grupo_4456" transform="translate(0 44.703)">
				<path id="Trazado_2814" class="st3" d="M19,26.9L17.5,25L2.1,16c-0.6-0.4-0.9-1-0.9-1.7l0-12.6L0.3,0.6l0.8-0.5l0,0
					C1.3,0,1.6,0,1.7,0.1l17.5,10.1c0.6,0.4,0.9,1,0.9,1.7l0,13.7c0,0.3-0.1,0.6-0.3,0.7l0,0L19,26.9z"/>
				<path id="Trazado_2815" class="st5" d="M8.3,19.6L7.2,19l-6-10.4l0-6.9L0.3,0.6l0.8-0.5l0,0C1.3,0,1.6,0,1.7,0.1l17.5,10.1
					c0.3,0.2,0.5,0.5,0.7,0.8L8.3,19.6z"/>
				<path id="Trazado_2816" class="st0" d="M0.7,1.1L0.3,0.6l0.8-0.5l0,0C1.3,0,1.6,0,1.7,0.1L2,0.3L0.7,1.1z"/>
				<path id="Trazado_2817" class="st11" d="M19.4,10.3c0.4,0.4,0.7,0.9,0.7,1.5l-1.7,1l-0.8-1.4L19.4,10.3z"/>
				<path id="Trazado_2818" class="st0" d="M18.4,10.7L0.9,0.6C0.4,0.3,0,0.6,0,1.3L0,15c0,0.7,0.3,1.3,0.9,1.7l17.5,10.1
					c0.5,0.3,0.9,0,0.9-0.7l0-13.7C19.3,11.7,18.9,11.1,18.4,10.7z"/>
			</g>
			<path id="Trazado_2819" class="st8" d="M27,58.1l-0.3,0.6c-0.3,0.7-0.8,1.2-1.5,1.6l-1.7,1.1c-0.5,0.3-1.2,0.4-1.8,0l-0.1,0
				c-0.5-0.3-0.6-1-0.3-1.5c0-0.1,0.1-0.1,0.1-0.1l1.8-1.9c0,0-1,0.8-1.3,0.5c-0.2-0.2,1-1.4,1.9-1.4c0.7-0.1,1.3-0.3,1.8-0.8
				L27,58.1z"/>
			<path id="Trazado_2820" class="st0" d="M22.4,16c0,0-6.6,7.2-9.3,13.9c1.8,2.8,4.6,4.8,7.8,5.7C26.4,37.2,22.4,16,22.4,16z"/>
			<path id="Trazado_2821" class="st5" d="M19.6,35.2l1.1-10.4l-2.5,9.8C18.6,34.7,19.1,35,19.6,35.2z"/>
			<path id="Trazado_2822" class="st4" d="M27.4,14.6l-1.8-0.5c0.5,0.8,1.2,1.4,2.1,1.7c1.2,0.3,1.4-0.7,1.4-0.7L27.4,14.6z"/>
		</g>
		<path id="Trazado_2823" class="st2" d="M41.5,10.2c-2.8,0-5-2.2-5-5c0-2.8,2.2-5,5-5c2.8,0,5,2.2,5,5C46.5,8,44.3,10.2,41.5,10.2z
			 M41.5,1.3c-2.2,0-3.9,1.8-3.9,3.9c0,2.2,1.8,3.9,3.9,3.9c2.2,0,3.9-1.8,3.9-3.9C45.4,3,43.7,1.3,41.5,1.3L41.5,1.3z"/>
		<path id="Trazado_2824" class="st0" d="M142.7,46.3c-2,0-3.5-1.6-3.5-3.5c0-2,1.6-3.5,3.5-3.5c2,0,3.5,1.6,3.5,3.5
			C146.2,44.7,144.6,46.3,142.7,46.3z M142.7,40.3c-1.4,0-2.5,1.1-2.5,2.5c0,1.4,1.1,2.5,2.5,2.5c1.4,0,2.5-1.1,2.5-2.5
			C145.1,41.4,144,40.3,142.7,40.3L142.7,40.3L142.7,40.3z"/>
		<path id="Trazado_2825" class="st0" d="M26.3,110.4l-2.4-4.9l4.9-2.4l2.4,4.9L26.3,110.4z M25.4,106l1.4,2.9l2.9-1.4l-1.4-2.9
			L25.4,106z"/>
		<path id="Trazado_2826" class="st0" d="M97.4,34.4L95,29.5l4.9-2.4l2.4,4.9L97.4,34.4z M96.5,30l1.4,2.9l2.9-1.4l-1.4-2.9L96.5,30
			z"/>
		
			<rect id="Rectángulo_5840" x="17.9" y="80.9" transform="matrix(0.8974 -0.4412 0.4412 0.8974 -34.2849 16.8921)" class="st0" width="2.5" height="2.5"/>
		<g id="Grupo_4460" transform="translate(92.233 0)">
			<g id="Grupo_4458">
				<path id="Trazado_2827" class="st10" d="M15.8,7.9L2.4,0.1C2.2,0,1.9,0,1.7,0.1v0L0.4,0.8l0.9,0.3v9.7c0,0.8,0.4,1.6,1.1,2.1
					l12.8,7.4v1.1l1.3-0.8h0c0.3-0.2,0.4-0.5,0.4-0.9v-10C16.8,9.1,16.4,8.3,15.8,7.9z"/>
				<path id="Trazado_2828" class="st12" d="M14.5,21.4L1.1,13.7C0.4,13.2,0,12.5,0,11.7v-10c0-0.8,0.5-1.2,1.1-0.8l13.4,7.7
					c0.7,0.5,1.1,1.2,1.1,2.1v10C15.5,21.4,15.1,21.8,14.5,21.4z"/>
			</g>
			<g id="Grupo_4459" transform="translate(3.772 8.595)">
				<path id="Trazado_2829" class="st4" d="M1.8,1.7c0,0.6-0.4,0.8-0.9,0.5C0.4,1.9,0,1.3,0,0.6c0-0.6,0.4-0.8,0.9-0.5
					C1.4,0.5,1.8,1.1,1.8,1.7z"/>
				<path id="Trazado_2830" class="st4" d="M4.5,3.3c0,0.6-0.4,0.8-0.9,0.5C3.1,3.4,2.8,2.9,2.7,2.2c0-0.6,0.4-0.8,0.9-0.5
					C4.2,2.1,4.5,2.6,4.5,3.3z"/>
				<path id="Trazado_2831" class="st4" d="M7.3,4.8c0,0.6-0.4,0.8-0.9,0.5C5.8,5,5.5,4.4,5.5,3.8c0-0.6,0.4-0.8,0.9-0.5
					C6.9,3.6,7.2,4.2,7.3,4.8z"/>
			</g>
		</g>
		<g id="Grupo_4463" transform="translate(0 84.828)">
			<g id="Grupo_4461">
				<path id="Trazado_2832" class="st0" d="M15.5,7.7L2.4,0.1C2.2,0,1.9,0,1.7,0.1v0L0.4,0.8l0.9,0.3v9.6c0,0.8,0.4,1.6,1.1,2
					L14.9,20v1.1l1.3-0.7h0c0.3-0.2,0.4-0.5,0.4-0.8V9.7C16.5,8.9,16.1,8.2,15.5,7.7z"/>
				<path id="Trazado_2833" class="st2" d="M14.2,21L1.1,13.5c-0.7-0.5-1-1.2-1.1-2V1.7c0-0.8,0.5-1.1,1.1-0.8l13.1,7.6
					c0.7,0.5,1,1.2,1.1,2v9.8C15.2,21,14.8,21.4,14.2,21z"/>
			</g>
			<g id="Grupo_4462" transform="translate(3.7 8.432)">
				<path id="Trazado_2834" class="st4" d="M1.8,1.7c0,0.6-0.4,0.8-0.9,0.5C0.4,1.8,0,1.3,0,0.6c0-0.6,0.4-0.8,0.9-0.5
					C1.4,0.5,1.7,1,1.8,1.7z"/>
				<path id="Trazado_2835" class="st4" d="M4.5,3.2c0,0.6-0.4,0.8-0.9,0.5C3,3.4,2.7,2.8,2.7,2.2c0-0.6,0.4-0.8,0.9-0.5
					C4.1,2,4.4,2.6,4.5,3.2z"/>
				<path id="Trazado_2836" class="st4" d="M7.1,4.8c0,0.6-0.4,0.8-0.9,0.5C5.7,4.9,5.4,4.4,5.4,3.7c0-0.6,0.4-0.8,0.9-0.5
					C6.8,3.6,7.1,4.1,7.1,4.8z"/>
			</g>
		</g>
	</g>
	<g id="Grupo_5027" transform="translate(29.771 919.378)">
		<g id="Grupo_4424-2" transform="translate(186.46 205.513)">
			
				<rect id="Rectángulo_5836-2" x="7.5" y="0.6" transform="matrix(0.9688 -0.2479 0.2479 0.9688 -4.681657e-02 2.5371)" class="st0" width="5" height="1.7"/>
			
				<rect id="Rectángulo_5837-2" x="5.1" y="3" transform="matrix(0.9687 -0.2482 0.2482 0.9687 -0.7224 2.0025)" class="st0" width="5" height="1.7"/>
			
				<rect id="Rectángulo_5838-2" x="2.6" y="5.4" transform="matrix(0.9687 -0.2482 0.2482 0.9687 -1.3982 1.4643)" class="st0" width="5" height="1.7"/>
			
				<rect id="Rectángulo_5839-2" x="0.1" y="7.8" transform="matrix(0.9687 -0.2483 0.2483 0.9687 -2.0745 0.9267)" class="st0" width="5" height="1.7"/>
		</g>
		<g id="Grupo_4452-2" transform="translate(19.059 1.942)">
			<path id="Trazado_2764-2" class="st1" d="M104.1,47.7L58.6,74.4c-11.5-3.5-26.2-2.4-35.9,3.2c-11.8,6.9-11.7,18,0.2,24.8
				c2.8,1.6,5.8,2.7,8.9,3.5c2.3,0.6,4.7,1,7.1,1.2c9.5,0.9,19.5-0.8,26.8-5c8.8-5.2,11-12.7,6.6-18.9l6.3-3.7l-0.2-4l6.6,0
				l-0.2-3.7l6.6,0L91.3,68l6.6,0l-0.2-3.7l6.6,0l-0.2-3.7l7.1-0.1l2.2-1.3l2.4-9.8L104.1,47.7z M40.1,98.8
				c-3.5,1.8-7.6,1.8-11.2,0.1c-3.1-1.8-3.1-4.6,0-6.4c3.5-1.8,7.6-1.8,11.2-0.1C43.1,94.1,43.1,97,40.1,98.8z"/>
			<path id="Trazado_2765-2" class="st1" d="M128.9,216.5l-61.3-35.3c-4.1-2.4-3.6-6.5,1.2-9.3l59.5-34.4c4.8-2.8,12-3.1,16.1-0.7
				l61.3,35.3c4.1,2.4,3.6,6.5-1.2,9.3L145,215.8C140.3,218.6,133.1,218.9,128.9,216.5z"/>
			<g id="Grupo_4427-2" transform="translate(47.785 71.497)">
				<g id="Grupo_4425-2" transform="translate(85.206)">
					<path id="Trazado_2766-2" class="st0" d="M67.8,65.1l-10.6-6.1l39.1-22.6c1.8-1.1,1.8-2.8,0-3.9L56.4,9.5
						c-2.1-1.1-4.6-1.1-6.7,0L10.6,32L0,25.9L39.1,3.3c7.7-4.4,20.2-4.4,27.9,0l39.9,23.1c7.7,4.4,7.7,11.7,0,16.1L67.8,65.1z"/>
				</g>
				<g id="Grupo_4426-2" transform="translate(0 11.243)">
					<path id="Trazado_2767-2" class="st2" d="M170.1,56.5c0-5.7-3.4-12.3-7.7-14.7L91.6,0.9c-1.9-1.1-3.6-1.2-5-0.4l0,0L2.1,49.6
						l81.8,61.6l83.3-48.4c0.3-0.1,0.5-0.3,0.7-0.4l0,0C169.3,61.4,170.1,59.4,170.1,56.5z"/>
					<path id="Trazado_2768-2" class="st3" d="M83.8,111.3l83.3-48.4c0.3-0.1,0.5-0.3,0.7-0.4l0,0c1.4-1.1,2.3-3.1,2.3-6
						c-0.1-2.9-0.8-5.7-2.1-8.2l-95,54.8L83.8,111.3z"/>
					<path id="Trazado_2769-2" class="st0" d="M78.5,111L7.7,70.1C3.4,67.7,0,61.1,0,55.4l0,0c0-5.7,3.4-8.3,7.7-5.8l70.8,40.9
						c4.3,2.5,7.7,9,7.7,14.7l0,0C86.2,110.9,82.8,113.5,78.5,111z"/>
				</g>
				<path id="Trazado_2770-2" class="st4" d="M67.9,108.5l-8.5-4.9c-0.9-0.7-1.5-1.8-1.5-2.9l0,0c0-1.1,0.7-1.6,1.5-1.2l8.5,4.9
					c0.9,0.7,1.5,1.8,1.5,2.9l0,0C69.4,108.5,68.8,109,67.9,108.5z"/>
			</g>
			<g id="Grupo_4451-2">
				<g id="Grupo_4450-2">
					<path id="Trazado_2771-2" class="st5" d="M51.8,36l14.6,8.3l14.8-8.7l0-3.8L81,31.8l0-0.3l6.6,0l0-3.7l6.5,0l0-3.7l6.5,0l0-3.7
						l6.5,0l0-3.7l6.9,0l2.2-1.3l2.4-9.8l0-3.8l-1.1,3.6l-10.5-1.4L51.8,36z"/>
					<g id="Grupo_4449-2">
						<g id="Grupo_4448-2">
							<g id="Grupo_4443-2" transform="translate(16.426)">
								<g id="Grupo_4429-2" transform="translate(35.296)">
									<g id="Grupo_4428-2">
										<path id="Trazado_2772-2" class="st2" d="M14.6,40.5l14.8-8.7l-0.2-4l6.6,0L35.7,24l6.6,0l-0.2-3.7l6.6,0l-0.2-3.7l6.6,0
											L55,12.7l7.1,0l2.2-1.3l2.4-9.8L54.9,0L0,32.2L14.6,40.5z"/>
									</g>
								</g>
								<g id="Grupo_4431-2" transform="translate(35.295 25.907)">
									<g id="Grupo_4430-2">
										<path id="Trazado_2773-2" class="st5" d="M24.4,8.8c-1.8-2.4-4.1-4.4-6.7-5.8c-2.2-1.2-4.5-2.2-7-2.9L0,6.3l14.6,8.3
											L24.4,8.8z"/>
									</g>
								</g>
								<g id="Grupo_4433-2" transform="translate(53.514 1.297)">
									<g id="Grupo_4432-2">
										<path id="Trazado_2774-2" class="st0" d="M47.9,1.9l0.4-1.6l-2-0.3L0,27.2l2.4,1.4L47.9,1.9z"/>
									</g>
								</g>
								<g id="Grupo_4435-2" transform="translate(0.004 42.556)">
									<g id="Grupo_4434-2">
										<path id="Trazado_2775-2" class="st6" d="M0.2,5.4L0,0l1.7,3.6L0.2,5.4z"/>
									</g>
								</g>
								<path id="Trazado_2776-2" class="st5" d="M9.1,60.1C21,66.8,40.2,66.7,52,59.8c5.9-3.5,8.8-8,8.8-12.5l0,0l-0.2-5.7l-1,1.1
									c-1.4-2.8-4-5.5-7.8-7.7C39.9,28.2,20.7,28.4,9,35.3S-2.8,53.3,9.1,60.1z M26.3,50c3.1,1.8,3.1,4.6,0,6.4
									c-3.5,1.8-7.6,1.8-11.2,0.1c-3.1-1.8-3.1-4.6,0-6.4C18.6,48.3,22.8,48.2,26.3,50L26.3,50z"/>
								<g id="Grupo_4437-2" transform="translate(0 24.643)">
									<g id="Grupo_4436-2">
										<path id="Trazado_2777-2" class="st7" d="M9,30c11.9,6.8,31.1,6.6,42.9-0.3s11.7-18-0.2-24.8S20.6-1.6,8.8,5.3
											S-2.9,23.3,9,30z M26.1,20c3.1,1.8,3.1,4.6,0,6.4c-3.5,1.8-7.6,1.8-11.2,0.1c-3.1-1.8-3.1-4.6,0-6.4
											C18.5,18.2,22.6,18.2,26.1,20L26.1,20z"/>
									</g>
								</g>
								<path id="Trazado_2778-2" class="st0" d="M22.8,57.6c-2.6,0.5-5.2,0.1-7.6-1.1c-2.2-1.3-2.8-3.1-1.9-4.7l-5.4-4.3
									c0,0-2.8-3.2-5.6-6.3C-2,47.5,0.2,55,9.1,60.1c4.1,2.2,8.6,3.7,13.3,4.2L22.8,57.6z"/>
								<g id="Grupo_4439-2" transform="translate(0 24.643)">
									<g id="Grupo_4438-2">
										<path id="Trazado_2779-2" class="st2" d="M9,30c2.8,1.6,5.8,2.7,8.9,3.5c2.3,0.6,4.7,1,7.1,1.2c9.5,0.9,19.5-0.8,26.8-5
											c11.8-6.9,11.7-18-0.2-24.8S20.6-1.6,8.8,5.3S-2.9,23.3,9,30z M26.1,20c3.1,1.8,3.1,4.6,0,6.4c-3.5,1.8-7.6,1.8-11.2,0.1
											c-3.1-1.8-3.1-4.6,0-6.4C18.5,18.2,22.6,18.2,26.1,20L26.1,20z"/>
									</g>
								</g>
								<g id="Grupo_4442-2" transform="translate(3.35 26.574)">
									<g id="Grupo_4441-2">
										<g id="Grupo_4440-2">
											<path id="Trazado_2780-2" class="st5" d="M0,15.8C0.6,12.4,3.1,9,7.7,6.3c10.5-6.2,27.6-6.3,38.2-0.3
												c5.3,3,7.9,6.9,8,10.9C54.6,12.5,52,7.8,46,4.4c-10.6-6-27.7-5.9-38.2,0.3C2.5,7.8-0.1,11.8,0,15.8z"/>
										</g>
									</g>
								</g>
							</g>
							<g id="Grupo_4447-2" transform="translate(0 41.477)">
								<g id="Grupo_4446-2">
									<g id="Grupo_4445-2">
										<g id="Grupo_4444-2">
											<path id="Trazado_2781-2" class="st5" d="M12.6,49.9c-2.1,0-4.1-0.5-5.9-1.5C2.4,46,0,41.1,0,34.7
												C-0.1,23,8,8.7,18.1,2.8C23.6-0.4,29-0.9,33.3,1.5c1.8,1.1,3.4,2.6,4.4,4.4c1.6,2.8,2.3,6,2.3,9.3
												c0.1,11.7-8,26-18.1,31.9C19.1,48.9,15.9,49.8,12.6,49.9z M27.3,4.3c-2.5,0.1-4.9,0.9-7,2.2c-8.9,5.2-16.1,17.9-16,28.2
												c0,4.8,1.6,8.4,4.5,10s6.7,1.2,10.9-1.2c8.9-5.2,16.1-17.9,16-28.2c0.1-2.5-0.5-4.9-1.7-7.1l0,0
												c-0.7-1.2-1.7-2.2-2.8-2.9C30,4.6,28.7,4.3,27.3,4.3L27.3,4.3z"/>
										</g>
									</g>
								</g>
							</g>
						</g>
					</g>
				</g>
				<path id="Trazado_2782-2" class="st2" d="M32.9,55.3l8.5,2.1l1.2-6.3c-3.5,1.8-7.6,1.8-11.2,0.1L32.9,55.3z"/>
				<path id="Trazado_2783-2" class="st2" d="M25.4,54.7c2.8,1.6,5.8,2.7,8.9,3.5c2.3,0.6,4.7,1,7.1,1.2c9.5,0.9,19.5-0.8,26.8-5
					l-34.5-0.8L25.4,54.7z"/>
				<path id="Trazado_2784-2" class="st5" d="M38.1,59c-2.5-0.4-5-1.1-7.5-1.9v5.3c2.4,0.9,4.9,1.5,7.4,1.9
					C45.9,65.3,38.1,59,38.1,59z"/>
			</g>
			<path id="Trazado_2785-2" class="st0" d="M32.6,57.7c-1.7-0.5-3.3-1.1-4.9-1.8c-4.6-2.2,1.2,5.8,1.2,5.8s1.6,0.6,3.7,1.3
				L32.6,57.7z"/>
		</g>
		<path id="Trazado_2786-2" class="st0" d="M138.2,152.6l-15.1,9.7l-7.3-1.2l17.9-8.7L138.2,152.6z"/>
		<g id="Grupo_4457-2" transform="translate(86.636 20.965)">
			<g id="Grupo_4454-2" transform="translate(3.272)">
				<path id="Trazado_2787-2" class="st3" d="M30,180.7c0,0-4.3-2.2-7,1.1s-6.5,11-6.6,16.2s4.1,4.9,6.6,3.6s9.9-11.9,10.3-14
					s-0.5-4.9-1.2-5.5S30,180.7,30,180.7z"/>
				<path id="Trazado_2788-2" class="st0" d="M31,179.7l0.2,4.5c0,1-0.4,1.9-1.3,2.3c-1,0.6-2.2,0.7-3.4,0.5c-3.3-0.5-3.6-1.5-3.8-6
					S31,179.7,31,179.7z"/>
				<g id="Grupo_4453-2" transform="translate(0 79.85)">
					<path id="Trazado_2789-2" class="st3" d="M14.1,92.2c0,0-4.3-2.2-7,1.1s-6.5,11-6.6,16.2s4.1,4.9,6.6,3.6s9.9-11.9,10.3-14
						s-0.5-4.9-1.2-5.5S14.1,92.2,14.1,92.2z"/>
					<path id="Trazado_2790-2" class="st0" d="M15.1,91.2l0.2,4.5c0,1-0.4,1.9-1.3,2.3c-1,0.6-2.2,0.7-3.4,0.5
						c-3.3-0.5-3.6-1.5-3.8-6S15.1,91.2,15.1,91.2z"/>
					<path id="Trazado_2791-2" class="st2" d="M53.8,8.6c-1.3-20.9-22.7,3.1-22.7,3.1L16.6,26L3.4,40.4c-2.6,2.8-3.8,6.6-3.3,10.4
						l5.3,40.6c0.3,2,2,3.5,4,3.5c0.7,0,1.3-0.1,2-0.2c2.6-0.3,4.6-2.6,4.4-5.3l-1-37.9l27.7-16.7C42.5,34.9,55.1,29.5,53.8,8.6z"/>
				</g>
				<path id="Trazado_2792-2" class="st0" d="M25.4,124.2l-3.9-1.4c-0.1,0-6.7,6.4-6.6,8.6l3,1l7.4-7.2L25.4,124.2z"/>
				<path id="Trazado_2793-2" class="st0" d="M48.3,131.6c0,0,16.4-9.4,18.4-13.3c0.8-1.5,2-3.2-2.8-5.5l-21.9,15.6l1,5.4
					L48.3,131.6z"/>
				<path id="Trazado_2794-2" class="st2" d="M69.7,96.5c-1.4-20.9-22.7,3.1-22.7,3.1l-14.6,14.3l-13.2,14.5
					c-2.6,2.8-3.8,6.6-3.3,10.4l5.3,40.6c0.3,2,2,3.5,4,3.5c0.7,0,1.3-0.1,2-0.2c2.6-0.3,4.6-2.6,4.4-5.3l-1-37.9l27.7-16.7
					C58.4,122.8,71,115.6,69.7,96.5z"/>
				<path id="Trazado_2795-2" class="st0" d="M57.1,29.2C73.3,35.9,73,45.5,73,45.5s-3.2,35.1-2.1,58.6c0.5,9.8-52.1,10.6-44.2-15.6
					c9.2-30.8,5.8-55.8,10.1-59.6S52.9,27.5,57.1,29.2z"/>
				<path id="Trazado_2796-2" class="st8" d="M62.3,37.7c-0.8,3.3-5.2,5-9.6,3.9s-7.4-4.8-6.6-8s5.2-5,9.6-3.9S63.2,34.4,62.3,37.7z
					"/>
				<path id="Trazado_2797-2" class="st4" d="M55.4,42.7c-1,0-2-0.1-2.9-0.4c-2.2-0.5-4.2-1.7-5.7-3.5c-1.3-1.5-1.9-3.5-1.4-5.5
					c1-3.7,5.7-5.7,10.6-4.4c2.2,0.5,4.2,1.7,5.7,3.5c1.3,1.5,1.9,3.5,1.4,5.5C62.3,40.9,59.1,42.7,55.4,42.7z M53,30.1
					c-3,0-5.5,1.4-6.1,3.6c-0.3,1.5,0.1,3,1.1,4.1c1.3,1.5,3,2.5,4.9,3c4,1,7.9-0.4,8.7-3.3c0.3-1.5-0.1-3-1.1-4.1
					c-1.3-1.5-3-2.5-4.9-3C54.7,30.2,53.8,30.1,53,30.1L53,30.1z"/>
				<path id="Trazado_2798-2" class="st8" d="M50.6,28.5c0.1,1.9,0,3.9-0.1,5.8c-0.1,1.6,5.6,3.1,7,1.7s0.9-3,1.2-8.5
					S50.6,28.5,50.6,28.5z"/>
				<path id="Trazado_2799-2" class="st9" d="M58.7,27.5c0,0-1.4,5.1-8.3,7l0.1-4.6L58.7,27.5z"/>
				<path id="Trazado_2800-2" class="st8" d="M63.1,14.5c1.7,6.7-2.3,13.5-8.9,15.2c0,0,0,0,0,0c-6.7,1.7-13.5-2.3-15.2-8.9
					c0,0,0,0,0,0c-1.7-6.7,2.3-13.5,8.9-15.2c0,0,0,0,0,0C54.5,3.8,61.3,7.9,63.1,14.5C63.1,14.5,63.1,14.5,63.1,14.5z"/>
				<path id="Trazado_2801-2" class="st9" d="M53.8,18.1c0,0-6.9,2.9-11.6,3s-3.7-3.9-3.7-3.9l14.1-2L53.8,18.1z"/>
				<path id="Trazado_2802-2" class="st10" d="M40.8,18.9c0,0,6-2.5,11.2-1.5c1.2,0.2,2.4,0.9,3.2,1.9c0.2,0.3,0.6,0.6,1,0.7
					c0.9,0.2,2.5-3.6,4.3-3.7s3,1.2,1.5,3.6s-1,5-0.3,5.4s7.9-5.2,1.5-17.8S40.6,1.6,38.1,4.1c0,0-2.7,2.3-4.8,0.3
					C33.3,4.4,30.8,22.5,40.8,18.9z"/>
				<path id="Trazado_2803-2" class="st8" d="M63.9,71.2v9.5c0,1.1-0.5,2.1-1.3,2.9l-19.5,17.8l2.2,3.4L71.1,86
					c1.2-0.9,2-2.2,2.1-3.7L75,65.8L63.9,71.2z"/>
				<path id="Trazado_2804-2" class="st0" d="M71.6,40.8c0,0,5.9,8.9,8.1,32.3c0,0-10.1,3.3-15.8,1.4S71.6,40.8,71.6,40.8z"/>
				<path id="Trazado_2805-2" class="st5" d="M62.8,52c0,0-2.3,12.4-2.4,18.2c0,1.6,0.9,3,2.4,3.6l0,0V52z"/>
			</g>
			<g id="Grupo_4455-2" transform="translate(3.116 94.204)">
				<path id="Trazado_2806-2" class="st3" d="M57.9,19.4l-4.3-0.6L25.8,2.8c-1.1-0.5-2.4-0.5-3.5,0.1L2.6,14.3L0,14v2.6l0,0
					c0,0.4,0.2,0.8,0.6,0.9l31.5,18.2c1.1,0.5,2.4,0.5,3.5-0.1l21.5-12.4c0.5-0.2,0.8-0.7,0.9-1.2l0,0L57.9,19.4z"/>
				<path id="Trazado_2807-2" class="st5" d="M37,9.3l-2-1.1H13.3L2.6,14.3L0,14v2.6l0,0c0,0.4,0.2,0.8,0.6,0.9l31.5,18.2
					c0.6,0.3,1.2,0.4,1.8,0.3L37,9.3z"/>
				<path id="Trazado_2808-2" class="st0" d="M1.2,14.1L0,14v2.6l0,0c0,0.4,0.2,0.8,0.6,0.9l0.6,0.3L1.2,14.1z"/>
				<path id="Trazado_2809-2" class="st11" d="M32.4,35.8c1,0.3,2,0.2,3-0.2v-4.4h-3V35.8z"/>
				<path id="Trazado_2810-2" class="st4" d="M32.1,33.1L0.6,14.9c-0.9-0.5-0.8-1.4,0.2-2L22.3,0.5c1.1-0.6,2.4-0.7,3.5-0.1
					l31.5,18.2c0.9,0.5,0.8,1.4-0.2,2L35.6,32.9C34.5,33.5,33.2,33.6,32.1,33.1z"/>
				<path id="Trazado_2811-2" class="st2" d="M31.6,30.3L5.4,15.2c-0.7-0.4-0.6-1.2,0.2-1.7l11.5-6.5c0.9-0.5,2-0.5,2.9-0.1
					l26.2,15.1c0.7,0.4,0.6,1.2-0.2,1.7l-11.5,6.5C33.6,30.7,32.5,30.7,31.6,30.3z"/>
			</g>
			<path id="Trazado_2812-2" class="st8" d="M26.6,94.1l-0.3,2.2c-0.3,1.9-0.2,3.7,0.1,5.6l0.4,1.9c0.2,1.1,1.1,1.9,2.2,2.1l0,0
				c0.8,0.1,1.6-0.4,1.7-1.2c0,0,0-0.1,0-0.1l0.5-4.6c0,0,1.2,1.6,1.8,1.6s-0.6-4.7-1.9-7.3S26.6,94.1,26.6,94.1z"/>
			<path id="Trazado_2813-2" class="st8" d="M37.3,59.5l-3.4,6.7c-0.8,1.6-1.3,3.3-1.4,5.1l-1.5,22.9l-4.4-0.1l-2-25.7
				c-0.1-0.8,0-1.6,0.1-2.4L27,53L37.3,59.5z"/>
			<g id="Grupo_4456-2" transform="translate(0 80.573)">
				<path id="Trazado_2814-2" class="st3" d="M34.2,48.5L31.5,45L3.7,28.9c-1-0.7-1.6-1.9-1.6-3.1l0-22.8L0.5,1L2,0.1l0,0
					C2.4-0.1,2.8,0,3.1,0.2l31.5,18.2c1,0.7,1.6,1.9,1.6,3.1l0,24.8c0.1,0.5-0.2,1-0.6,1.3l0,0L34.2,48.5z"/>
				<path id="Trazado_2815-2" class="st5" d="M14.9,35.4l-2-1.1L2.1,15.4l0-12.4L0.5,1L2,0.1l0,0C2.4-0.1,2.8,0,3.1,0.2l31.5,18.2
					c0.5,0.3,0.9,0.8,1.2,1.4L14.9,35.4z"/>
				<path id="Trazado_2816-2" class="st0" d="M1.3,1.9L0.5,1L2,0.1l0,0C2.4-0.1,2.8,0,3.1,0.2l0.6,0.3L1.3,1.9z"/>
				<path id="Trazado_2817-2" class="st11" d="M34.9,18.6c0.8,0.7,1.2,1.6,1.3,2.7l-3.1,1.8l-1.5-2.6L34.9,18.6z"/>
				<path id="Trazado_2818-2" class="st0" d="M33.1,19.3L1.6,1.1C0.8,0.5,0,1.1,0,2.3l0,24.8c0,1.2,0.6,2.4,1.6,3.1l31.5,18.2
					c0.9,0.5,1.6,0,1.6-1.2l0-24.8C34.7,21.2,34.1,20,33.1,19.3z"/>
			</g>
			<path id="Trazado_2819-2" class="st8" d="M48.6,104.7l-0.5,1c-0.6,1.2-1.5,2.2-2.6,2.9l-3.1,1.9c-1,0.6-2.2,0.6-3.2,0.1l-0.1-0.1
				c-0.9-0.6-1.1-1.8-0.5-2.6c0.1-0.1,0.1-0.2,0.2-0.3l3.3-3.4c0,0-1.8,1.4-2.4,0.8c-0.4-0.4,1.8-2.4,3.4-2.5
				c1.2-0.1,2.3-0.6,3.3-1.4L48.6,104.7z"/>
			<path id="Trazado_2820-2" class="st0" d="M40.3,28.9c0,0-12,13-16.8,25c3.3,5,8.3,8.7,14.1,10.3C47.7,67,40.3,28.9,40.3,28.9z"/>
			<path id="Trazado_2821-2" class="st5" d="M35.4,63.4l1.9-18.8l-4.6,17.6C33.6,62.6,34.5,63,35.4,63.4z"/>
			<path id="Trazado_2822-2" class="st4" d="M49.3,26.2l-3.2-0.9c0.9,1.4,2.2,2.5,3.8,3c2.2,0.6,2.6-1.3,2.6-1.3L49.3,26.2z"/>
		</g>
		<path id="Trazado_2823-2" class="st2" d="M74.8,18.4c-5,0-9-4-9-9c0-5,4-9,9-9c5,0,9,4,9,9C83.8,14.3,79.8,18.4,74.8,18.4z
			 M74.8,2.3c-3.9,0-7,3.2-7.1,7.1c0,3.9,3.2,7,7.1,7.1c3.9,0,7-3.2,7-7.1C81.9,5.5,78.7,2.3,74.8,2.3z"/>
		<path id="Trazado_2824-2" class="st0" d="M257.2,83.4c-3.5,0-6.4-2.9-6.4-6.4s2.9-6.4,6.4-6.4c3.5,0,6.4,2.9,6.4,6.4
			S260.7,83.4,257.2,83.4z M257.2,72.5c-2.4,0-4.4,2-4.4,4.4c0,2.4,2,4.4,4.4,4.4c2.4,0,4.4-2,4.4-4.4
			C261.6,74.5,259.6,72.6,257.2,72.5z"/>
		<path id="Trazado_2825-2" class="st0" d="M47.5,198.9l-4.3-8.8l8.8-4.3l4.3,8.8L47.5,198.9z M45.8,191l2.6,5.3l5.3-2.6l-2.6-5.3
			L45.8,191z"/>
		<path id="Trazado_2826-2" class="st0" d="M175.6,62.1l-4.3-8.8l8.8-4.3l4.3,8.8L175.6,62.1z M173.9,54.1l2.6,5.3l5.3-2.6l-2.6-5.3
			L173.9,54.1z"/>
		
			<rect id="Rectángulo_5840-2" x="32.3" y="145.8" transform="matrix(0.8974 -0.4412 0.4412 0.8974 -61.7957 30.4462)" class="st0" width="4.5" height="4.5"/>
		<g id="Grupo_4460-2" transform="translate(166.241 0)">
			<g id="Grupo_4458-2">
				<path id="Trazado_2827-2" class="st10" d="M28.4,14.2L4.3,0.2C4,0,3.5-0.1,3.1,0.1v0L0.7,1.5l1.6,0.6v17.6
					c0,1.5,0.7,2.9,1.9,3.7l23.1,13.3v2.1l2.4-1.4h0c0.5-0.4,0.7-1,0.7-1.5V17.9C30.4,16.4,29.6,15,28.4,14.2z"/>
				<path id="Trazado_2828-2" class="st12" d="M26.1,38.6L1.9,24.7C0.7,23.9,0,22.5,0,21V3.1C0,1.6,0.9,1,1.9,1.6l24.1,13.9
					c1.2,0.9,1.9,2.2,1.9,3.7v17.9C28,38.6,27.1,39.3,26.1,38.6z"/>
			</g>
			<g id="Grupo_4459-2" transform="translate(6.798 15.491)">
				<path id="Trazado_2829-2" class="st4" d="M3.3,3c0,1-0.7,1.5-1.6,0.9C0.7,3.4,0.1,2.3,0,1.2c0-1,0.7-1.5,1.6-0.9
					C2.6,0.8,3.2,1.9,3.3,3z"/>
				<path id="Trazado_2830-2" class="st4" d="M8.2,5.9c0,1-0.7,1.5-1.6,0.9C5.6,6.2,5,5.2,4.9,4c0-1,0.7-1.5,1.6-0.9
					C7.5,3.7,8.1,4.7,8.2,5.9z"/>
				<path id="Trazado_2831-2" class="st4" d="M13.1,8.7c0,1-0.7,1.5-1.6,0.9C10.5,9,9.9,8,9.9,6.9c0-1,0.7-1.5,1.6-0.9
					C12.5,6.5,13.1,7.6,13.1,8.7z"/>
			</g>
		</g>
		<g id="Grupo_4463-2" transform="translate(0 152.895)">
			<g id="Grupo_4461-2">
				<path id="Trazado_2832-2" class="st0" d="M27.9,13.9L4.2,0.2C3.9,0,3.4-0.1,3,0.1v0L0.7,1.4c0,0,1,0.4,1.6,0.6v17.2
					c0,1.4,0.7,2.8,1.9,3.6L26.9,36v2l2.3-1.3h0c0.5-0.4,0.7-0.9,0.6-1.5V17.5C29.8,16.1,29.1,14.7,27.9,13.9z"/>
				<path id="Trazado_2833-2" class="st2" d="M25.6,37.9L1.9,24.2C0.7,23.4,0,22.1,0,20.6V3c0-1.4,0.9-2,1.9-1.4l23.7,13.7
					c1.2,0.8,1.9,2.2,1.9,3.6v17.6C27.5,37.9,26.6,38.5,25.6,37.9z"/>
			</g>
			<g id="Grupo_4462-2" transform="translate(6.669 15.198)">
				<path id="Trazado_2834-2" class="st4" d="M3.2,3c0,1-0.7,1.4-1.6,0.9C0.6,3.3,0.1,2.3,0,1.1c0-1,0.7-1.4,1.6-0.9
					C2.5,0.8,3.1,1.9,3.2,3z"/>
				<path id="Trazado_2835-2" class="st4" d="M8,5.8c0,1-0.7,1.4-1.6,0.9C5.5,6.1,4.9,5.1,4.8,3.9c0-1,0.7-1.4,1.6-0.9
					C7.4,3.6,8,4.7,8,5.8z"/>
				<path id="Trazado_2836-2" class="st4" d="M12.9,8.6c0,1-0.7,1.4-1.6,0.9c-0.9-0.6-1.5-1.6-1.6-2.8c0-1,0.7-1.4,1.6-0.9
					C12.2,6.4,12.8,7.4,12.9,8.6z"/>
			</g>
		</g>
	</g>
	<g class="st13">
		<path class="st14" d="M103.5,884.5c-0.1-0.1-0.1-0.2-0.1-0.4v-14.4c0-0.2,0-0.3,0.1-0.4s0.2-0.1,0.4-0.1h5.4c1.7,0,3,0.4,3.9,1.2
			c0.9,0.8,1.4,1.9,1.4,3.4c0,1.1-0.3,2-0.8,2.8c-0.6,0.7-1.3,1.2-2.3,1.5l3.4,5.9c0,0.1,0.1,0.2,0.1,0.2c0,0.1,0,0.2-0.1,0.3
			s-0.2,0.1-0.3,0.1h-1c-0.2,0-0.4-0.1-0.5-0.2c-0.1-0.1-0.2-0.2-0.3-0.4l-3.2-5.6h-3.9v5.7c0,0.1-0.1,0.3-0.2,0.4
			c-0.1,0.1-0.2,0.1-0.4,0.1h-1.1C103.8,884.7,103.6,884.6,103.5,884.5z M109.2,876.6c2.2,0,3.3-0.9,3.3-2.8c0-1.9-1.1-2.8-3.3-2.8
			h-3.7v5.6H109.2z"/>
		<path class="st14" d="M117.9,884.5c-0.1-0.1-0.1-0.2-0.1-0.4v-14.4c0-0.2,0-0.3,0.1-0.4s0.2-0.1,0.4-0.1h9c0.2,0,0.3,0,0.4,0.1
			c0.1,0.1,0.1,0.2,0.1,0.4v0.8c0,0.1,0,0.3-0.1,0.4c-0.1,0.1-0.2,0.1-0.4,0.1h-7.5v4.9h7c0.2,0,0.3,0,0.4,0.1s0.1,0.2,0.1,0.4v0.7
			c0,0.1,0,0.3-0.1,0.4s-0.2,0.1-0.4,0.1h-7v5.1h7.7c0.2,0,0.3,0,0.4,0.1c0.1,0.1,0.1,0.2,0.1,0.4v0.8c0,0.1-0.1,0.3-0.2,0.4
			c-0.1,0.1-0.2,0.1-0.4,0.1h-9.2C118.1,884.7,118,884.6,117.9,884.5z"/>
		<path class="st14" d="M132.1,883.3c-1.1-1.1-1.6-2.5-1.7-4.3c0-0.4,0-1.1,0-2.1c0-1,0-1.6,0-2.1c0.1-1.8,0.6-3.2,1.7-4.3
			s2.5-1.6,4.5-1.6c1.3,0,2.4,0.2,3.3,0.7c0.9,0.5,1.6,1,2,1.7c0.5,0.7,0.7,1.3,0.7,1.8v0c0,0.1,0,0.2-0.1,0.3
			c-0.1,0.1-0.2,0.1-0.3,0.1h-1.2c-0.1,0-0.2,0-0.3-0.1s-0.1-0.2-0.2-0.3c-0.2-0.7-0.7-1.3-1.3-1.7c-0.6-0.5-1.5-0.7-2.6-0.7
			c-1.2,0-2.2,0.3-2.9,1c-0.7,0.7-1.1,1.7-1.1,3.1c0,0.4,0,1.1,0,2c0,0.9,0,1.5,0,2c0,1.4,0.4,2.5,1.1,3.1c0.7,0.7,1.7,1,2.9,1
			c1.2,0,2.2-0.3,3-1s1.1-1.7,1.1-3.1V878h-3.4c-0.1,0-0.3-0.1-0.4-0.2c-0.1-0.1-0.1-0.2-0.1-0.4v-0.7c0-0.1,0-0.3,0.1-0.4
			c0.1-0.1,0.2-0.2,0.4-0.2h4.9c0.2,0,0.3,0,0.4,0.1c0.1,0.1,0.1,0.2,0.1,0.4v2.1c0,1.2-0.2,2.2-0.7,3.1c-0.5,0.9-1.2,1.6-2.1,2.1
			c-0.9,0.5-2,0.7-3.3,0.7C134.6,884.9,133.1,884.3,132.1,883.3z"/>
		<path class="st14" d="M146,884.5c-0.1-0.1-0.1-0.2-0.1-0.4v-14.4c0-0.1,0-0.3,0.1-0.4s0.2-0.1,0.4-0.1h1.1c0.2,0,0.3,0,0.4,0.1
			c0.1,0.1,0.1,0.2,0.1,0.4v14.4c0,0.1,0,0.3-0.1,0.4c-0.1,0.1-0.2,0.1-0.4,0.1h-1.1C146.2,884.7,146.1,884.6,146,884.5z"/>
		<path class="st14" d="M153.6,884.3c-0.9-0.4-1.6-0.9-2-1.5c-0.5-0.6-0.7-1.3-0.7-2c0-0.1,0-0.2,0.1-0.3s0.2-0.1,0.3-0.1h1.1
			c0.3,0,0.4,0.1,0.6,0.4c0.1,0.6,0.5,1.1,1.1,1.6c0.6,0.4,1.5,0.7,2.7,0.7c1.2,0,2.2-0.2,2.8-0.7c0.6-0.4,0.9-1,0.9-1.8
			c0-0.5-0.2-0.9-0.5-1.2c-0.3-0.3-0.7-0.6-1.3-0.8c-0.6-0.2-1.5-0.5-2.7-0.9c-1.1-0.3-2-0.7-2.7-1c-0.7-0.4-1.2-0.8-1.5-1.4
			c-0.3-0.5-0.5-1.2-0.5-2c0-0.8,0.2-1.5,0.6-2.1c0.4-0.6,1-1.1,1.8-1.5c0.8-0.4,1.8-0.5,2.9-0.5c1.1,0,2.1,0.2,2.9,0.6
			s1.4,0.9,1.9,1.5s0.7,1.2,0.7,1.8c0,0.1,0,0.2-0.1,0.3s-0.2,0.1-0.3,0.1h-1.1c-0.1,0-0.2,0-0.3-0.1s-0.2-0.2-0.2-0.3
			c-0.1-0.6-0.4-1.2-1.1-1.6c-0.6-0.4-1.4-0.6-2.3-0.6c-1,0-1.8,0.2-2.4,0.6c-0.6,0.4-0.9,1-0.9,1.7c0,0.5,0.1,0.9,0.4,1.3
			s0.7,0.6,1.3,0.9c0.6,0.2,1.4,0.5,2.5,0.9c1.2,0.4,2.2,0.7,2.9,1.1c0.7,0.4,1.2,0.8,1.6,1.3s0.5,1.2,0.5,2c0,1.4-0.5,2.5-1.6,3.2
			c-1,0.8-2.5,1.2-4.3,1.2C155.6,884.9,154.5,884.7,153.6,884.3z"/>
		<path class="st14" d="M168.8,884.5c-0.1-0.1-0.1-0.2-0.1-0.4v-13h-4.2c-0.1,0-0.3,0-0.4-0.1c-0.1-0.1-0.1-0.2-0.1-0.4v-0.9
			c0-0.2,0-0.3,0.1-0.4c0.1-0.1,0.2-0.1,0.4-0.1H175c0.2,0,0.3,0,0.4,0.1s0.1,0.2,0.1,0.4v0.9c0,0.1,0,0.3-0.1,0.4
			c-0.1,0.1-0.2,0.1-0.4,0.1h-4.2v13c0,0.1-0.1,0.3-0.2,0.4c-0.1,0.1-0.2,0.1-0.4,0.1h-1.1C169,884.7,168.9,884.6,168.8,884.5z"/>
		<path class="st14" d="M178.1,884.5c-0.1-0.1-0.1-0.2-0.1-0.4v-14.4c0-0.2,0-0.3,0.1-0.4s0.2-0.1,0.4-0.1h5.4c1.7,0,3,0.4,3.9,1.2
			c0.9,0.8,1.4,1.9,1.4,3.4c0,1.1-0.3,2-0.8,2.8c-0.6,0.7-1.3,1.2-2.3,1.5l3.4,5.9c0,0.1,0.1,0.2,0.1,0.2c0,0.1,0,0.2-0.1,0.3
			s-0.2,0.1-0.3,0.1h-1c-0.2,0-0.4-0.1-0.5-0.2c-0.1-0.1-0.2-0.2-0.3-0.4l-3.2-5.6h-3.9v5.7c0,0.1-0.1,0.3-0.2,0.4
			c-0.1,0.1-0.2,0.1-0.4,0.1h-1.1C178.4,884.7,178.2,884.6,178.1,884.5z M183.8,876.6c2.2,0,3.3-0.9,3.3-2.8c0-1.9-1.1-2.8-3.3-2.8
			h-3.7v5.6H183.8z"/>
		<path class="st14" d="M191,884.5c-0.1-0.1-0.1-0.2-0.1-0.3l0-0.2l5.5-14.2c0.1-0.3,0.4-0.5,0.7-0.5h1.4c0.4,0,0.6,0.2,0.7,0.5
			l5.5,14.2l0,0.2c0,0.1,0,0.2-0.1,0.3c-0.1,0.1-0.2,0.1-0.3,0.1h-1c-0.1,0-0.3,0-0.4-0.1c-0.1-0.1-0.2-0.2-0.2-0.3l-1.2-3.2h-7.3
			l-1.2,3.2c-0.1,0.3-0.3,0.4-0.5,0.4h-1.1C191.2,884.7,191.1,884.6,191,884.5z M194.8,879.3h6l-3-7.9L194.8,879.3z"/>
		<path class="st14" d="M209,884.5c-0.1-0.1-0.1-0.2-0.1-0.4v-13h-4.2c-0.1,0-0.3,0-0.4-0.1c-0.1-0.1-0.1-0.2-0.1-0.4v-0.9
			c0-0.2,0-0.3,0.1-0.4c0.1-0.1,0.2-0.1,0.4-0.1h10.6c0.2,0,0.3,0,0.4,0.1c0.1,0.1,0.1,0.2,0.1,0.4v0.9c0,0.1,0,0.3-0.1,0.4
			c-0.1,0.1-0.2,0.1-0.4,0.1h-4.2v13c0,0.1-0.1,0.3-0.2,0.4c-0.1,0.1-0.2,0.1-0.4,0.1h-1.1C209.2,884.7,209.1,884.6,209,884.5z"/>
		<path class="st14" d="M218.3,884.5c-0.1-0.1-0.1-0.2-0.1-0.4v-14.4c0-0.2,0-0.3,0.1-0.4s0.2-0.1,0.4-0.1h9c0.2,0,0.3,0,0.4,0.1
			c0.1,0.1,0.1,0.2,0.1,0.4v0.8c0,0.1,0,0.3-0.1,0.4c-0.1,0.1-0.2,0.1-0.4,0.1h-7.5v4.9h7c0.2,0,0.3,0,0.4,0.1
			c0.1,0.1,0.1,0.2,0.1,0.4v0.7c0,0.1,0,0.3-0.1,0.4c-0.1,0.1-0.2,0.1-0.4,0.1h-7v5.1h7.7c0.2,0,0.3,0,0.4,0.1
			c0.1,0.1,0.1,0.2,0.1,0.4v0.8c0,0.1-0.1,0.3-0.2,0.4c-0.1,0.1-0.2,0.1-0.4,0.1h-9.2C218.5,884.7,218.4,884.6,218.3,884.5z"/>
	</g>
	<rect id="Rectángulo_5902" x="75.2" y="892.2" class="st15" width="180.8" height="1.9"/>
	<g class="st13">
		<path d="M61.9,1172.4v2.6h-0.8v-7H63c0.7,0,1.3,0.2,1.7,0.5s0.6,0.9,0.6,1.5s-0.2,1.2-0.7,1.6s-1.1,0.6-1.9,0.6H61.9z
			 M61.9,1168.7v2.9h0.9c0.6,0,1-0.1,1.3-0.4c0.3-0.3,0.4-0.6,0.4-1.1c0-0.9-0.5-1.4-1.6-1.4H61.9z"/>
		<path d="M71.5,1175.1c-1,0-1.8-0.3-2.4-1s-0.9-1.5-0.9-2.6c0-1.1,0.3-2,0.9-2.7s1.4-1,2.5-1c1,0,1.7,0.3,2.3,1s0.9,1.5,0.9,2.6
			c0,1.1-0.3,2-0.9,2.7S72.6,1175.1,71.5,1175.1z M71.6,1168.6c-0.7,0-1.3,0.3-1.8,0.8s-0.7,1.2-0.7,2.1s0.2,1.6,0.7,2.1
			c0.4,0.5,1,0.8,1.8,0.8c0.8,0,1.4-0.3,1.8-0.8s0.7-1.2,0.7-2.1c0-0.9-0.2-1.6-0.6-2.1S72.4,1168.6,71.6,1168.6z"/>
		<path d="M78.3,1175v-7h1.9c2.5,0,3.7,1.1,3.7,3.4c0,1.1-0.3,1.9-1,2.6c-0.7,0.7-1.6,1-2.8,1H78.3z M79.1,1168.7v5.5h1
			c0.9,0,1.6-0.2,2.1-0.7s0.8-1.2,0.8-2.1c0-1.8-1-2.7-2.9-2.7H79.1z"/>
		<path d="M92.3,1175h-1l-1.2-2c-0.1-0.2-0.2-0.3-0.3-0.5c-0.1-0.1-0.2-0.2-0.3-0.3s-0.2-0.1-0.3-0.2c-0.1,0-0.3-0.1-0.4-0.1h-0.7v3
			h-0.8v-7h2.1c0.3,0,0.6,0,0.8,0.1c0.3,0.1,0.5,0.2,0.7,0.3s0.3,0.4,0.4,0.6c0.1,0.2,0.2,0.5,0.2,0.8c0,0.2,0,0.5-0.1,0.7
			c-0.1,0.2-0.2,0.4-0.3,0.5s-0.3,0.3-0.5,0.4c-0.2,0.1-0.4,0.2-0.6,0.3v0c0.1,0.1,0.2,0.1,0.3,0.2c0.1,0.1,0.2,0.1,0.2,0.2
			s0.2,0.2,0.2,0.3c0.1,0.1,0.2,0.3,0.3,0.4L92.3,1175z M88.1,1168.7v2.5h1.1c0.2,0,0.4,0,0.6-0.1s0.3-0.2,0.5-0.3
			c0.1-0.1,0.2-0.3,0.3-0.4c0.1-0.2,0.1-0.4,0.1-0.6c0-0.4-0.1-0.7-0.4-0.9c-0.2-0.2-0.6-0.3-1.1-0.3H88.1z"/>
		<path d="M100.7,1175h-0.9l-0.7-2h-3l-0.7,2h-0.9l2.7-7H98L100.7,1175z M98.8,1172.3l-1.1-3c0-0.1-0.1-0.3-0.1-0.5h0
			c0,0.2-0.1,0.4-0.1,0.5l-1.1,3H98.8z"/>
		<path d="M103.4,1174.7v-1c0.1,0.1,0.2,0.2,0.4,0.3s0.3,0.1,0.5,0.2c0.2,0.1,0.3,0.1,0.5,0.1s0.3,0,0.5,0c0.5,0,0.9-0.1,1.1-0.3
			c0.2-0.2,0.4-0.5,0.4-0.8c0-0.2,0-0.4-0.1-0.5s-0.2-0.3-0.3-0.4c-0.1-0.1-0.3-0.2-0.5-0.3c-0.2-0.1-0.4-0.2-0.6-0.3
			c-0.2-0.1-0.5-0.2-0.7-0.4s-0.4-0.3-0.6-0.4s-0.3-0.3-0.4-0.5c-0.1-0.2-0.1-0.4-0.1-0.7c0-0.3,0.1-0.6,0.2-0.8
			c0.1-0.2,0.3-0.4,0.6-0.6s0.5-0.3,0.8-0.3s0.6-0.1,0.9-0.1c0.7,0,1.2,0.1,1.5,0.2v0.9c-0.4-0.3-0.9-0.4-1.6-0.4
			c-0.2,0-0.4,0-0.5,0.1c-0.2,0-0.3,0.1-0.5,0.2s-0.3,0.2-0.3,0.3s-0.1,0.3-0.1,0.5c0,0.2,0,0.3,0.1,0.5s0.2,0.2,0.3,0.4
			s0.3,0.2,0.5,0.3s0.4,0.2,0.6,0.3c0.3,0.1,0.5,0.3,0.7,0.4s0.4,0.3,0.6,0.5s0.3,0.3,0.4,0.6s0.1,0.4,0.1,0.7
			c0,0.3-0.1,0.6-0.2,0.9c-0.1,0.2-0.3,0.4-0.5,0.6s-0.5,0.3-0.8,0.3c-0.3,0.1-0.6,0.1-0.9,0.1c-0.1,0-0.2,0-0.4,0
			c-0.2,0-0.3,0-0.5-0.1c-0.2,0-0.3-0.1-0.5-0.1C103.6,1174.8,103.5,1174.8,103.4,1174.7z"/>
		<path d="M119.5,1175h-3.7v-7h3.6v0.7h-2.7v2.3h2.5v0.7h-2.5v2.5h2.9V1175z"/>
		<path d="M126.4,1175h-3.6v-7h0.8v6.3h2.8V1175z"/>
		<path d="M133.2,1175h-3.7v-7h3.6v0.7h-2.7v2.3h2.5v0.7h-2.5v2.5h2.9V1175z"/>
		<path d="M141.8,1174.5c-0.7,0.4-1.5,0.6-2.3,0.6c-1,0-1.8-0.3-2.4-1s-0.9-1.5-0.9-2.6c0-1.1,0.3-2,1-2.7c0.7-0.7,1.6-1,2.6-1
			c0.8,0,1.4,0.1,1.9,0.4v0.9c-0.6-0.4-1.2-0.5-2-0.5c-0.8,0-1.4,0.3-1.9,0.8s-0.8,1.2-0.8,2.1c0,0.9,0.2,1.6,0.7,2.1
			c0.5,0.5,1.1,0.8,1.9,0.8c0.5,0,1-0.1,1.4-0.3v-2h-1.5v-0.7h2.4V1174.5z"/>
		<path d="M147,1165.8l-1.3,1.6h-0.6l1.1-1.6H147z M146.3,1175h-0.8v-7h0.8V1175z"/>
		<path d="M159,1168.7h-2v6.3h-0.8v-6.3h-2v-0.7h4.9V1168.7z"/>
		<path d="M167.2,1172.2c0,2-0.9,2.9-2.7,2.9c-1.7,0-2.5-0.9-2.5-2.8v-4.3h0.8v4.2c0,1.4,0.6,2.2,1.8,2.2c1.2,0,1.8-0.7,1.8-2.1
			v-4.3h0.8V1172.2z"/>
		<path d="M170.6,1174.7v-1c0.1,0.1,0.2,0.2,0.4,0.3c0.2,0.1,0.3,0.1,0.5,0.2c0.2,0.1,0.3,0.1,0.5,0.1c0.2,0,0.3,0,0.5,0
			c0.5,0,0.9-0.1,1.1-0.3c0.2-0.2,0.4-0.5,0.4-0.8c0-0.2,0-0.4-0.1-0.5s-0.2-0.3-0.3-0.4c-0.1-0.1-0.3-0.2-0.5-0.3
			c-0.2-0.1-0.4-0.2-0.6-0.3c-0.2-0.1-0.5-0.2-0.7-0.4c-0.2-0.1-0.4-0.3-0.6-0.4s-0.3-0.3-0.4-0.5c-0.1-0.2-0.1-0.4-0.1-0.7
			c0-0.3,0.1-0.6,0.2-0.8c0.1-0.2,0.3-0.4,0.6-0.6c0.2-0.2,0.5-0.3,0.8-0.3c0.3-0.1,0.6-0.1,0.9-0.1c0.7,0,1.2,0.1,1.5,0.2v0.9
			c-0.4-0.3-0.9-0.4-1.6-0.4c-0.2,0-0.4,0-0.5,0.1c-0.2,0-0.3,0.1-0.5,0.2c-0.1,0.1-0.3,0.2-0.3,0.3s-0.1,0.3-0.1,0.5
			c0,0.2,0,0.3,0.1,0.5c0.1,0.1,0.2,0.2,0.3,0.4c0.1,0.1,0.3,0.2,0.5,0.3c0.2,0.1,0.4,0.2,0.6,0.3c0.3,0.1,0.5,0.3,0.7,0.4
			s0.4,0.3,0.6,0.5c0.2,0.2,0.3,0.3,0.4,0.6c0.1,0.2,0.1,0.4,0.1,0.7c0,0.3-0.1,0.6-0.2,0.9c-0.1,0.2-0.3,0.4-0.5,0.6
			s-0.5,0.3-0.8,0.3c-0.3,0.1-0.6,0.1-0.9,0.1c-0.1,0-0.2,0-0.4,0c-0.2,0-0.3,0-0.5-0.1c-0.2,0-0.3-0.1-0.5-0.1
			C170.8,1174.8,170.7,1174.8,170.6,1174.7z"/>
		<path d="M183.8,1172.4v2.6H183v-7h1.9c0.7,0,1.3,0.2,1.7,0.5c0.4,0.4,0.6,0.9,0.6,1.5s-0.2,1.2-0.7,1.6c-0.5,0.4-1.1,0.6-1.9,0.6
			H183.8z M183.8,1168.7v2.9h0.9c0.6,0,1-0.1,1.3-0.4c0.3-0.3,0.4-0.6,0.4-1.1c0-0.9-0.5-1.4-1.6-1.4H183.8z"/>
		<path d="M195.6,1175h-1l-1.2-2c-0.1-0.2-0.2-0.3-0.3-0.5c-0.1-0.1-0.2-0.2-0.3-0.3c-0.1-0.1-0.2-0.1-0.3-0.2
			c-0.1,0-0.3-0.1-0.4-0.1h-0.7v3h-0.8v-7h2.1c0.3,0,0.6,0,0.8,0.1c0.3,0.1,0.5,0.2,0.7,0.3s0.3,0.4,0.4,0.6
			c0.1,0.2,0.2,0.5,0.2,0.8c0,0.2,0,0.5-0.1,0.7c-0.1,0.2-0.2,0.4-0.3,0.5c-0.1,0.2-0.3,0.3-0.5,0.4c-0.2,0.1-0.4,0.2-0.6,0.3v0
			c0.1,0.1,0.2,0.1,0.3,0.2c0.1,0.1,0.2,0.1,0.2,0.2s0.2,0.2,0.2,0.3c0.1,0.1,0.2,0.3,0.3,0.4L195.6,1175z M191.4,1168.7v2.5h1.1
			c0.2,0,0.4,0,0.6-0.1c0.2-0.1,0.3-0.2,0.5-0.3c0.1-0.1,0.2-0.3,0.3-0.4c0.1-0.2,0.1-0.4,0.1-0.6c0-0.4-0.1-0.7-0.4-0.9
			c-0.2-0.2-0.6-0.3-1.1-0.3H191.4z"/>
		<path d="M202.3,1175h-3.7v-7h3.6v0.7h-2.7v2.3h2.5v0.7h-2.5v2.5h2.9V1175z"/>
		<path d="M209.2,1168.7h-2.7v2.4h2.5v0.7h-2.5v3.1h-0.8v-7h3.6V1168.7z"/>
		<path d="M216.2,1175h-3.7v-7h3.6v0.7h-2.7v2.3h2.5v0.7h-2.5v2.5h2.9V1175z"/>
		<path d="M224.6,1175h-1l-1.2-2c-0.1-0.2-0.2-0.3-0.3-0.5c-0.1-0.1-0.2-0.2-0.3-0.3c-0.1-0.1-0.2-0.1-0.3-0.2
			c-0.1,0-0.3-0.1-0.4-0.1h-0.7v3h-0.8v-7h2.1c0.3,0,0.6,0,0.8,0.1c0.3,0.1,0.5,0.2,0.7,0.3s0.3,0.4,0.4,0.6
			c0.1,0.2,0.2,0.5,0.2,0.8c0,0.2,0,0.5-0.1,0.7c-0.1,0.2-0.2,0.4-0.3,0.5c-0.1,0.2-0.3,0.3-0.5,0.4c-0.2,0.1-0.4,0.2-0.6,0.3v0
			c0.1,0.1,0.2,0.1,0.3,0.2c0.1,0.1,0.2,0.1,0.2,0.2s0.2,0.2,0.2,0.3c0.1,0.1,0.2,0.3,0.3,0.4L224.6,1175z M220.4,1168.7v2.5h1.1
			c0.2,0,0.4,0,0.6-0.1c0.2-0.1,0.3-0.2,0.5-0.3c0.1-0.1,0.2-0.3,0.3-0.4c0.1-0.2,0.1-0.4,0.1-0.6c0-0.4-0.1-0.7-0.4-0.9
			c-0.2-0.2-0.6-0.3-1.1-0.3H220.4z"/>
		<path d="M231.3,1175h-3.7v-7h3.6v0.7h-2.7v2.3h2.5v0.7h-2.5v2.5h2.9V1175z"/>
		<path d="M240.3,1175h-1l-3.6-5.6c-0.1-0.1-0.2-0.3-0.2-0.4h0c0,0.1,0,0.5,0,1v5.1h-0.8v-7h1.1l3.5,5.5c0.1,0.2,0.2,0.4,0.3,0.5h0
			c0-0.2,0-0.5,0-1v-4.9h0.8V1175z"/>
		<path d="M248.9,1174.7c-0.5,0.3-1.2,0.4-1.9,0.4c-1,0-1.8-0.3-2.4-1c-0.6-0.6-0.9-1.5-0.9-2.5c0-1.1,0.3-2,1-2.7s1.5-1,2.6-1
			c0.7,0,1.2,0.1,1.7,0.3v0.9c-0.5-0.3-1.1-0.4-1.7-0.4c-0.8,0-1.5,0.3-2,0.8c-0.5,0.5-0.8,1.3-0.8,2.2c0,0.9,0.2,1.5,0.7,2
			c0.5,0.5,1.1,0.8,1.8,0.8c0.7,0,1.3-0.2,1.8-0.5V1174.7z"/>
		<path d="M253.1,1175h-0.8v-7h0.8V1175z"/>
		<path d="M262.4,1175h-0.9l-0.7-2h-3l-0.7,2h-0.9l2.7-7h0.8L262.4,1175z M260.5,1172.3l-1.1-3c0-0.1-0.1-0.3-0.1-0.5h0
			c0,0.2-0.1,0.4-0.1,0.5l-1.1,3H260.5z"/>
		<path d="M265.1,1174.7v-1c0.1,0.1,0.2,0.2,0.4,0.3c0.2,0.1,0.3,0.1,0.5,0.2c0.2,0.1,0.3,0.1,0.5,0.1c0.2,0,0.3,0,0.5,0
			c0.5,0,0.9-0.1,1.1-0.3c0.2-0.2,0.4-0.5,0.4-0.8c0-0.2,0-0.4-0.1-0.5s-0.2-0.3-0.3-0.4c-0.1-0.1-0.3-0.2-0.5-0.3
			c-0.2-0.1-0.4-0.2-0.6-0.3c-0.2-0.1-0.5-0.2-0.7-0.4c-0.2-0.1-0.4-0.3-0.6-0.4s-0.3-0.3-0.4-0.5c-0.1-0.2-0.1-0.4-0.1-0.7
			c0-0.3,0.1-0.6,0.2-0.8c0.1-0.2,0.3-0.4,0.6-0.6c0.2-0.2,0.5-0.3,0.8-0.3c0.3-0.1,0.6-0.1,0.9-0.1c0.7,0,1.2,0.1,1.5,0.2v0.9
			c-0.4-0.3-0.9-0.4-1.6-0.4c-0.2,0-0.4,0-0.5,0.1c-0.2,0-0.3,0.1-0.5,0.2c-0.1,0.1-0.3,0.2-0.3,0.3s-0.1,0.3-0.1,0.5
			c0,0.2,0,0.3,0.1,0.5c0.1,0.1,0.2,0.2,0.3,0.4c0.1,0.1,0.3,0.2,0.5,0.3c0.2,0.1,0.4,0.2,0.6,0.3c0.3,0.1,0.5,0.3,0.7,0.4
			s0.4,0.3,0.6,0.5c0.2,0.2,0.3,0.3,0.4,0.6c0.1,0.2,0.1,0.4,0.1,0.7c0,0.3-0.1,0.6-0.2,0.9c-0.1,0.2-0.3,0.4-0.5,0.6
			s-0.5,0.3-0.8,0.3c-0.3,0.1-0.6,0.1-0.9,0.1c-0.1,0-0.2,0-0.4,0c-0.2,0-0.3,0-0.5-0.1c-0.2,0-0.3-0.1-0.5-0.1
			C265.3,1174.8,265.2,1174.8,265.1,1174.7z"/>
	</g>
	<g class="st13">
		<path d="M54.6,1180l-2.3,4.4v2.6h-0.8v-2.6l-2.3-4.4h0.9l1.6,3.2c0,0,0.1,0.2,0.2,0.4h0c0-0.1,0.1-0.3,0.2-0.4l1.6-3.2H54.6z"/>
		<path d="M66,1187h-3.6v-7h0.8v6.3H66V1187z"/>
		<path d="M74,1184.2c0,2-0.9,2.9-2.7,2.9c-1.7,0-2.5-0.9-2.5-2.8v-4.3h0.8v4.2c0,1.4,0.6,2.2,1.8,2.2c1.2,0,1.8-0.7,1.8-2.1v-4.3
			H74V1184.2z"/>
		<path d="M81.4,1187h-3.7v-7h3.6v0.7h-2.7v2.3h2.5v0.7h-2.5v2.5h2.9V1187z"/>
		<path d="M90,1186.5c-0.7,0.4-1.5,0.6-2.3,0.6c-1,0-1.8-0.3-2.4-1s-0.9-1.5-0.9-2.6c0-1.1,0.3-2,1-2.7c0.7-0.7,1.6-1,2.6-1
			c0.8,0,1.4,0.1,1.9,0.4v0.9c-0.6-0.4-1.2-0.5-2-0.5c-0.8,0-1.4,0.3-1.9,0.8s-0.8,1.2-0.8,2.1c0,0.9,0.2,1.6,0.7,2.1
			c0.5,0.5,1.1,0.8,1.9,0.8c0.5,0,1-0.1,1.4-0.3v-2h-1.5v-0.7H90V1186.5z"/>
		<path d="M96.5,1187.1c-1,0-1.8-0.3-2.4-1s-0.9-1.5-0.9-2.6c0-1.1,0.3-2,0.9-2.7s1.4-1,2.5-1c1,0,1.7,0.3,2.3,1s0.9,1.5,0.9,2.6
			c0,1.1-0.3,2-0.9,2.7S97.5,1187.1,96.5,1187.1z M96.5,1180.6c-0.7,0-1.3,0.3-1.8,0.8s-0.7,1.2-0.7,2.1s0.2,1.6,0.7,2.1
			c0.4,0.5,1,0.8,1.8,0.8c0.8,0,1.4-0.3,1.8-0.8s0.7-1.2,0.7-2.1c0-0.9-0.2-1.6-0.6-2.1S97.3,1180.6,96.5,1180.6z"/>
		<path d="M111.6,1187h-3.7v-7h3.6v0.7h-2.7v2.3h2.5v0.7h-2.5v2.5h2.9V1187z"/>
		<path d="M118.6,1187H115v-7h0.8v6.3h2.8V1187z"/>
		<path d="M127.2,1184.4v2.6h-0.8v-7h1.9c0.7,0,1.3,0.2,1.7,0.5s0.6,0.9,0.6,1.5s-0.2,1.2-0.7,1.6s-1.1,0.6-1.9,0.6H127.2z
			 M127.2,1180.7v2.9h0.9c0.6,0,1-0.1,1.3-0.4c0.3-0.3,0.4-0.6,0.4-1.1c0-0.9-0.5-1.4-1.6-1.4H127.2z"/>
		<path d="M137.7,1187H134v-7h0.8v6.3h2.8V1187z"/>
		<path d="M146.4,1187h-0.9l-0.7-2h-3l-0.7,2h-0.9l2.7-7h0.8L146.4,1187z M144.5,1184.3l-1.1-3c0-0.1-0.1-0.3-0.1-0.5h0
			c0,0.2-0.1,0.4-0.1,0.5l-1.1,3H144.5z"/>
		<path d="M155.1,1187h-1l-3.6-5.6c-0.1-0.1-0.2-0.3-0.2-0.4h0c0,0.1,0,0.5,0,1v5.1h-0.8v-7h1.1l3.5,5.5c0.1,0.2,0.2,0.4,0.3,0.5h0
			c0-0.2,0-0.5,0-1v-4.9h0.8V1187z"/>
		<path d="M166.5,1187.1c-1,0-1.8-0.3-2.4-1c-0.6-0.7-0.9-1.5-0.9-2.6c0-1.1,0.3-2,0.9-2.7c0.6-0.7,1.4-1,2.5-1c1,0,1.7,0.3,2.3,1
			c0.6,0.7,0.9,1.5,0.9,2.6c0,1.1-0.3,2-0.9,2.7c-0.1,0.2-0.3,0.3-0.5,0.4l2,1.4H169l-1.3-1C167.3,1187.1,166.9,1187.1,166.5,1187.1
			z M166.6,1180.6c-0.7,0-1.3,0.3-1.8,0.8s-0.7,1.2-0.7,2.1c0,0.9,0.2,1.6,0.7,2.1c0.4,0.5,1,0.8,1.8,0.8c0.8,0,1.4-0.3,1.8-0.8
			c0.4-0.5,0.7-1.2,0.7-2.1c0-0.9-0.2-1.6-0.6-2.1C167.9,1180.9,167.3,1180.6,166.6,1180.6z"/>
		<path d="M178.4,1184.2c0,2-0.9,2.9-2.7,2.9c-1.7,0-2.5-0.9-2.5-2.8v-4.3h0.8v4.2c0,1.4,0.6,2.2,1.8,2.2c1.2,0,1.8-0.7,1.8-2.1
			v-4.3h0.8V1184.2z"/>
		<path d="M185.8,1187h-3.7v-7h3.6v0.7h-2.7v2.3h2.5v0.7h-2.5v2.5h2.9V1187z"/>
		<path d="M201,1187h-0.8v-4.7c0-0.4,0-0.8,0.1-1.4h0c-0.1,0.3-0.1,0.5-0.2,0.7l-2.4,5.4h-0.4l-2.4-5.3c-0.1-0.2-0.1-0.4-0.2-0.7h0
			c0,0.3,0,0.7,0,1.4v4.7h-0.8v-7h1.1l2.1,4.9c0.2,0.4,0.3,0.7,0.3,0.8h0c0.1-0.4,0.3-0.7,0.3-0.9l2.2-4.9h1V1187z"/>
		<path d="M210.3,1187h-0.9l-0.7-2h-3l-0.7,2h-0.9l2.7-7h0.8L210.3,1187z M208.4,1184.3l-1.1-3c0-0.1-0.1-0.3-0.1-0.5h0
			c0,0.2-0.1,0.4-0.1,0.5l-1.1,3H208.4z M208.2,1177.8l-1.3,1.6h-0.6l1.1-1.6H208.2z"/>
		<path d="M213,1186.7v-1c0.1,0.1,0.2,0.2,0.4,0.3c0.2,0.1,0.3,0.1,0.5,0.2c0.2,0.1,0.3,0.1,0.5,0.1c0.2,0,0.3,0,0.5,0
			c0.5,0,0.9-0.1,1.1-0.3c0.2-0.2,0.4-0.5,0.4-0.8c0-0.2,0-0.4-0.1-0.5s-0.2-0.3-0.3-0.4c-0.1-0.1-0.3-0.2-0.5-0.3
			c-0.2-0.1-0.4-0.2-0.6-0.3c-0.2-0.1-0.5-0.2-0.7-0.4c-0.2-0.1-0.4-0.3-0.6-0.4s-0.3-0.3-0.4-0.5c-0.1-0.2-0.1-0.4-0.1-0.7
			c0-0.3,0.1-0.6,0.2-0.8c0.1-0.2,0.3-0.4,0.6-0.6c0.2-0.2,0.5-0.3,0.8-0.3c0.3-0.1,0.6-0.1,0.9-0.1c0.7,0,1.2,0.1,1.5,0.2v0.9
			c-0.4-0.3-0.9-0.4-1.6-0.4c-0.2,0-0.4,0-0.5,0.1c-0.2,0-0.3,0.1-0.5,0.2c-0.1,0.1-0.3,0.2-0.3,0.3s-0.1,0.3-0.1,0.5
			c0,0.2,0,0.3,0.1,0.5c0.1,0.1,0.2,0.2,0.3,0.4c0.1,0.1,0.3,0.2,0.5,0.3c0.2,0.1,0.4,0.2,0.6,0.3c0.3,0.1,0.5,0.3,0.7,0.4
			s0.4,0.3,0.6,0.5c0.2,0.2,0.3,0.3,0.4,0.6c0.1,0.2,0.1,0.4,0.1,0.7c0,0.3-0.1,0.6-0.2,0.9c-0.1,0.2-0.3,0.4-0.5,0.6
			s-0.5,0.3-0.8,0.3c-0.3,0.1-0.6,0.1-0.9,0.1c-0.1,0-0.2,0-0.4,0c-0.2,0-0.3,0-0.5-0.1c-0.2,0-0.3-0.1-0.5-0.1
			C213.2,1186.8,213.1,1186.8,213,1186.7z"/>
		<path d="M229.5,1180.7h-2v6.3h-0.8v-6.3h-2v-0.7h4.9V1180.7z"/>
		<path d="M236.3,1187h-3.7v-7h3.6v0.7h-2.7v2.3h2.5v0.7h-2.5v2.5h2.9V1187z"/>
		<path d="M249.7,1186.5c-0.7,0.4-1.5,0.6-2.3,0.6c-1,0-1.8-0.3-2.4-1c-0.6-0.6-0.9-1.5-0.9-2.6c0-1.1,0.3-2,1-2.7
			c0.7-0.7,1.6-1,2.6-1c0.8,0,1.4,0.1,1.9,0.4v0.9c-0.6-0.4-1.2-0.5-2-0.5c-0.8,0-1.4,0.3-1.9,0.8c-0.5,0.5-0.8,1.2-0.8,2.1
			c0,0.9,0.2,1.6,0.7,2.1c0.5,0.5,1.1,0.8,1.9,0.8c0.5,0,1-0.1,1.4-0.3v-2h-1.5v-0.7h2.4V1186.5z"/>
		<path d="M258.4,1184.2c0,2-0.9,2.9-2.7,2.9c-1.7,0-2.5-0.9-2.5-2.8v-4.3h0.8v4.2c0,1.4,0.6,2.2,1.8,2.2c1.2,0,1.8-0.7,1.8-2.1
			v-4.3h0.8V1184.2z"/>
		<path d="M261.8,1186.7v-1c0.1,0.1,0.2,0.2,0.4,0.3c0.2,0.1,0.3,0.1,0.5,0.2c0.2,0.1,0.3,0.1,0.5,0.1c0.2,0,0.3,0,0.5,0
			c0.5,0,0.9-0.1,1.1-0.3c0.2-0.2,0.4-0.5,0.4-0.8c0-0.2,0-0.4-0.1-0.5s-0.2-0.3-0.3-0.4c-0.1-0.1-0.3-0.2-0.5-0.3
			c-0.2-0.1-0.4-0.2-0.6-0.3c-0.2-0.1-0.5-0.2-0.7-0.4c-0.2-0.1-0.4-0.3-0.6-0.4s-0.3-0.3-0.4-0.5c-0.1-0.2-0.1-0.4-0.1-0.7
			c0-0.3,0.1-0.6,0.2-0.8c0.1-0.2,0.3-0.4,0.6-0.6c0.2-0.2,0.5-0.3,0.8-0.3c0.3-0.1,0.6-0.1,0.9-0.1c0.7,0,1.2,0.1,1.5,0.2v0.9
			c-0.4-0.3-0.9-0.4-1.6-0.4c-0.2,0-0.4,0-0.5,0.1c-0.2,0-0.3,0.1-0.5,0.2c-0.1,0.1-0.3,0.2-0.3,0.3s-0.1,0.3-0.1,0.5
			c0,0.2,0,0.3,0.1,0.5c0.1,0.1,0.2,0.2,0.3,0.4c0.1,0.1,0.3,0.2,0.5,0.3c0.2,0.1,0.4,0.2,0.6,0.3c0.3,0.1,0.5,0.3,0.7,0.4
			s0.4,0.3,0.6,0.5c0.2,0.2,0.3,0.3,0.4,0.6c0.1,0.2,0.1,0.4,0.1,0.7c0,0.3-0.1,0.6-0.2,0.9c-0.1,0.2-0.3,0.4-0.5,0.6
			s-0.5,0.3-0.8,0.3c-0.3,0.1-0.6,0.1-0.9,0.1c-0.1,0-0.2,0-0.4,0c-0.2,0-0.3,0-0.5-0.1c-0.2,0-0.3-0.1-0.5-0.1
			C262,1186.8,261.9,1186.8,261.8,1186.7z"/>
		<path d="M273.6,1180.7h-2v6.3h-0.8v-6.3h-2v-0.7h4.9V1180.7z"/>
		<path d="M280.4,1187h-3.7v-7h3.6v0.7h-2.7v2.3h2.5v0.7h-2.5v2.5h2.9V1187z"/>
	</g>
	<g class="st13">
		<path d="M106.8,1199h-3.7v-7h3.6v0.7h-2.7v2.3h2.5v0.7h-2.5v2.5h2.9V1199z"/>
		<path d="M109.8,1198.7v-1c0.1,0.1,0.2,0.2,0.4,0.3s0.3,0.1,0.5,0.2c0.2,0.1,0.3,0.1,0.5,0.1s0.3,0,0.5,0c0.5,0,0.9-0.1,1.1-0.3
			c0.2-0.2,0.4-0.5,0.4-0.8c0-0.2,0-0.4-0.1-0.5s-0.2-0.3-0.3-0.4c-0.1-0.1-0.3-0.2-0.5-0.3c-0.2-0.1-0.4-0.2-0.6-0.3
			c-0.2-0.1-0.5-0.2-0.7-0.4s-0.4-0.3-0.6-0.4s-0.3-0.3-0.4-0.5c-0.1-0.2-0.1-0.4-0.1-0.7c0-0.3,0.1-0.6,0.2-0.8
			c0.1-0.2,0.3-0.4,0.6-0.6s0.5-0.3,0.8-0.3s0.6-0.1,0.9-0.1c0.7,0,1.2,0.1,1.5,0.2v0.9c-0.4-0.3-0.9-0.4-1.6-0.4
			c-0.2,0-0.4,0-0.5,0.1c-0.2,0-0.3,0.1-0.5,0.2s-0.3,0.2-0.3,0.3s-0.1,0.3-0.1,0.5c0,0.2,0,0.3,0.1,0.5s0.2,0.2,0.3,0.4
			s0.3,0.2,0.5,0.3s0.4,0.2,0.6,0.3c0.3,0.1,0.5,0.3,0.7,0.4s0.4,0.3,0.6,0.5s0.3,0.3,0.4,0.6s0.1,0.4,0.1,0.7
			c0,0.3-0.1,0.6-0.2,0.9c-0.1,0.2-0.3,0.4-0.5,0.6s-0.5,0.3-0.8,0.3c-0.3,0.1-0.6,0.1-0.9,0.1c-0.1,0-0.2,0-0.4,0
			c-0.2,0-0.3,0-0.5-0.1c-0.2,0-0.3-0.1-0.5-0.1C110,1198.8,109.9,1198.8,109.8,1198.7z"/>
		<path d="M121.9,1198.7v-1c0.1,0.1,0.2,0.2,0.4,0.3s0.3,0.1,0.5,0.2c0.2,0.1,0.3,0.1,0.5,0.1s0.3,0,0.5,0c0.5,0,0.9-0.1,1.1-0.3
			c0.2-0.2,0.4-0.5,0.4-0.8c0-0.2,0-0.4-0.1-0.5s-0.2-0.3-0.3-0.4c-0.1-0.1-0.3-0.2-0.5-0.3c-0.2-0.1-0.4-0.2-0.6-0.3
			c-0.2-0.1-0.5-0.2-0.7-0.4s-0.4-0.3-0.6-0.4s-0.3-0.3-0.4-0.5c-0.1-0.2-0.1-0.4-0.1-0.7c0-0.3,0.1-0.6,0.2-0.8
			c0.1-0.2,0.3-0.4,0.6-0.6s0.5-0.3,0.8-0.3s0.6-0.1,0.9-0.1c0.7,0,1.2,0.1,1.5,0.2v0.9c-0.4-0.3-0.9-0.4-1.6-0.4
			c-0.2,0-0.4,0-0.5,0.1c-0.2,0-0.3,0.1-0.5,0.2s-0.3,0.2-0.3,0.3s-0.1,0.3-0.1,0.5c0,0.2,0,0.3,0.1,0.5s0.2,0.2,0.3,0.4
			s0.3,0.2,0.5,0.3s0.4,0.2,0.6,0.3c0.3,0.1,0.5,0.3,0.7,0.4s0.4,0.3,0.6,0.5s0.3,0.3,0.4,0.6s0.1,0.4,0.1,0.7
			c0,0.3-0.1,0.6-0.2,0.9c-0.1,0.2-0.3,0.4-0.5,0.6s-0.5,0.3-0.8,0.3c-0.3,0.1-0.6,0.1-0.9,0.1c-0.1,0-0.2,0-0.4,0
			c-0.2,0-0.3,0-0.5-0.1c-0.2,0-0.3-0.1-0.5-0.1C122.1,1198.8,122,1198.8,121.9,1198.7z"/>
		<path d="M130.3,1199h-0.8v-7h0.8V1199z"/>
		<path d="M141.3,1199h-0.8v-4.7c0-0.4,0-0.8,0.1-1.4h0c-0.1,0.3-0.1,0.5-0.2,0.7l-2.4,5.4h-0.4l-2.4-5.3c-0.1-0.2-0.1-0.4-0.2-0.7
			h0c0,0.3,0,0.7,0,1.4v4.7h-0.8v-7h1.1l2.1,4.9c0.2,0.4,0.3,0.7,0.3,0.8h0c0.1-0.4,0.3-0.7,0.3-0.9l2.2-4.9h1V1199z"/>
		<path d="M146,1196.4v2.6h-0.8v-7h1.9c0.7,0,1.3,0.2,1.7,0.5s0.6,0.9,0.6,1.5s-0.2,1.2-0.7,1.6s-1.1,0.6-1.9,0.6H146z M146,1192.7
			v2.9h0.9c0.6,0,1-0.1,1.3-0.4c0.3-0.3,0.4-0.6,0.4-1.1c0-0.9-0.5-1.4-1.6-1.4H146z"/>
		<path d="M156.4,1199h-3.6v-7h0.8v6.3h2.8V1199z"/>
		<path d="M163.2,1199h-3.7v-7h3.6v0.7h-2.7v2.3h2.5v0.7h-2.5v2.5h2.9V1199z"/>
		<path d="M175.8,1192l-2.3,4.4v2.6h-0.8v-2.6l-2.3-4.4h0.9l1.6,3.2c0,0,0.1,0.2,0.2,0.4h0c0-0.1,0.1-0.3,0.2-0.4l1.6-3.2H175.8z"/>
		<path d="M188.5,1199h-1l-1.2-2c-0.1-0.2-0.2-0.3-0.3-0.5c-0.1-0.1-0.2-0.2-0.3-0.3c-0.1-0.1-0.2-0.1-0.3-0.2
			c-0.1,0-0.3-0.1-0.4-0.1h-0.7v3h-0.8v-7h2.1c0.3,0,0.6,0,0.8,0.1c0.3,0.1,0.5,0.2,0.7,0.3s0.3,0.4,0.4,0.6
			c0.1,0.2,0.2,0.5,0.2,0.8c0,0.2,0,0.5-0.1,0.7c-0.1,0.2-0.2,0.4-0.3,0.5c-0.1,0.2-0.3,0.3-0.5,0.4c-0.2,0.1-0.4,0.2-0.6,0.3v0
			c0.1,0.1,0.2,0.1,0.3,0.2c0.1,0.1,0.2,0.1,0.2,0.2s0.2,0.2,0.2,0.3c0.1,0.1,0.2,0.3,0.3,0.4L188.5,1199z M184.3,1192.7v2.5h1.1
			c0.2,0,0.4,0,0.6-0.1c0.2-0.1,0.3-0.2,0.5-0.3c0.1-0.1,0.2-0.3,0.3-0.4c0.1-0.2,0.1-0.4,0.1-0.6c0-0.4-0.1-0.7-0.4-0.9
			c-0.2-0.2-0.6-0.3-1.1-0.3H184.3z"/>
		<path d="M196.9,1199H196l-0.7-2h-3l-0.7,2h-0.9l2.7-7h0.8L196.9,1199z M195,1196.3l-1.1-3c0-0.1-0.1-0.3-0.1-0.5h0
			c0,0.2-0.1,0.4-0.1,0.5l-1.1,3H195z M194.8,1189.8l-1.3,1.6h-0.6l1.1-1.6H194.8z"/>
		<path d="M200.8,1196.4v2.6h-0.8v-7h1.9c0.7,0,1.3,0.2,1.7,0.5c0.4,0.4,0.6,0.9,0.6,1.5s-0.2,1.2-0.7,1.6c-0.5,0.4-1.1,0.6-1.9,0.6
			H200.8z M200.8,1192.7v2.9h0.9c0.6,0,1-0.1,1.3-0.4c0.3-0.3,0.4-0.6,0.4-1.1c0-0.9-0.5-1.4-1.6-1.4H200.8z"/>
		<path d="M208.4,1199h-0.8v-7h0.8V1199z"/>
		<path d="M212.2,1199v-7h1.9c2.5,0,3.7,1.1,3.7,3.4c0,1.1-0.3,1.9-1,2.6c-0.7,0.7-1.6,1-2.8,1H212.2z M213,1192.7v5.5h1
			c0.9,0,1.6-0.2,2.1-0.7c0.5-0.5,0.8-1.2,0.8-2.1c0-1.8-1-2.7-2.9-2.7H213z"/>
		<path d="M224,1199.1c-1,0-1.8-0.3-2.4-1c-0.6-0.7-0.9-1.5-0.9-2.6c0-1.1,0.3-2,0.9-2.7c0.6-0.7,1.4-1,2.5-1c1,0,1.7,0.3,2.3,1
			s0.9,1.5,0.9,2.6c0,1.1-0.3,2-0.9,2.7S225.1,1199.1,224,1199.1z M224.1,1192.6c-0.7,0-1.3,0.3-1.8,0.8s-0.7,1.2-0.7,2.1
			s0.2,1.6,0.7,2.1c0.4,0.5,1,0.8,1.8,0.8c0.8,0,1.4-0.3,1.8-0.8c0.4-0.5,0.7-1.2,0.7-2.1c0-0.9-0.2-1.6-0.6-2.1
			S224.9,1192.6,224.1,1192.6z"/>
	</g>
</g>
</svg>
