<?xml version="1.0" encoding="utf-8"?>
<!-- Generator: Adobe Illustrator 23.0.6, SVG Export Plug-In . SVG Version: 6.00 Build 0)  -->
<svg version="1.1" id="Capa_1" xmlns="http://www.w3.org/2000/svg" xmlns:xlink="http://www.w3.org/1999/xlink" x="0px" y="0px"
	 viewBox="0 0 270 404.3" style="enable-background:new 0 0 270 404.3;" xml:space="preserve">
<style type="text/css">
	.st0{enable-background:new    ;}
	.st1{fill:#003CA5;}
	.st2{fill:#FFB700;}
	.st3{opacity:0.35;fill:#CCE0FF;enable-background:new    ;}
	.st4{fill:#FF5D24;}
	.st5{fill:none;}
	.st6{fill:#FF8B22;}
	.st7{opacity:0.5;}
	.st8{fill:#297DE2;}
	.st9{fill:#FFFFFF;}
	.st10{fill:#3EEDFF;}
	.st11{fill:#00246B;}
	.st12{fill:#69B8B6;}
	.st13{fill:#8ABFFF;}
	.st14{fill:#E9F2FF;}
	.st15{fill:#CCE0FF;}
	.st16{fill:#62ABF4;}
	.st17{fill:#242629;}
	.st18{fill:#D99B00;}
	.st19{fill:#303437;}
	.st20{fill:#E08F8D;}
	.st21{fill:#0851C4;}
</style>
<g id="Grupo_5052" transform="translate(-24.548 -1291.652)">
	<g class="st0">
		<path d="M80.7,1648h-1.1v-6.1c0-0.5,0-1.1,0.1-1.8h0c-0.1,0.4-0.2,0.7-0.3,0.9l-3.1,7h-0.5l-3.1-6.9c-0.1-0.2-0.2-0.5-0.3-0.9h0
			c0,0.4,0.1,1,0.1,1.8v6.1h-1v-9.1h1.4l2.8,6.3c0.2,0.5,0.4,0.9,0.4,1.1h0c0.2-0.5,0.3-0.9,0.4-1.1l2.9-6.3h1.3V1648z"/>
		<path d="M92.8,1648h-1.2l-1-2.6h-3.9l-0.9,2.6h-1.2l3.5-9.1h1.1L92.8,1648z M90.3,1644.5l-1.4-3.9c0-0.1-0.1-0.3-0.1-0.6h0
			c0,0.3-0.1,0.5-0.1,0.6l-1.4,3.9H90.3z M90,1636l-1.7,2.1h-0.8l1.4-2.1H90z"/>
		<path d="M96.3,1647.6v-1.3c0.1,0.1,0.3,0.2,0.5,0.3c0.2,0.1,0.4,0.2,0.6,0.3c0.2,0.1,0.4,0.1,0.7,0.2s0.4,0.1,0.6,0.1
			c0.7,0,1.1-0.1,1.5-0.4c0.3-0.2,0.5-0.6,0.5-1.1c0-0.2-0.1-0.5-0.2-0.6c-0.1-0.2-0.3-0.3-0.4-0.5s-0.4-0.3-0.7-0.4
			c-0.3-0.1-0.5-0.3-0.8-0.4c-0.3-0.2-0.6-0.3-0.9-0.5c-0.3-0.2-0.5-0.3-0.7-0.5c-0.2-0.2-0.4-0.4-0.5-0.7c-0.1-0.3-0.2-0.5-0.2-0.9
			c0-0.4,0.1-0.8,0.3-1.1s0.4-0.6,0.7-0.8c0.3-0.2,0.6-0.3,1-0.4c0.4-0.1,0.8-0.1,1.2-0.1c0.9,0,1.6,0.1,2,0.3v1.2
			c-0.5-0.4-1.2-0.6-2.1-0.6c-0.2,0-0.5,0-0.7,0.1s-0.4,0.1-0.6,0.2c-0.2,0.1-0.3,0.3-0.4,0.4s-0.2,0.4-0.2,0.6c0,0.2,0,0.4,0.1,0.6
			c0.1,0.2,0.2,0.3,0.4,0.5s0.4,0.3,0.6,0.4c0.2,0.1,0.5,0.3,0.8,0.4c0.3,0.2,0.6,0.3,0.9,0.5s0.5,0.4,0.8,0.6
			c0.2,0.2,0.4,0.5,0.5,0.7c0.1,0.3,0.2,0.6,0.2,0.9c0,0.4-0.1,0.8-0.3,1.1c-0.2,0.3-0.4,0.6-0.7,0.8c-0.3,0.2-0.6,0.3-1,0.4
			s-0.8,0.1-1.2,0.1c-0.1,0-0.3,0-0.5,0s-0.4-0.1-0.6-0.1c-0.2,0-0.4-0.1-0.6-0.2C96.6,1647.8,96.4,1647.7,96.3,1647.6z"/>
		<path d="M117.2,1648h-4.8v-9.1h4.6v1h-3.6v3h3.3v1h-3.3v3.2h3.8V1648z"/>
		<path d="M121.1,1647.6v-1.3c0.1,0.1,0.3,0.2,0.5,0.3c0.2,0.1,0.4,0.2,0.6,0.3c0.2,0.1,0.4,0.1,0.7,0.2s0.4,0.1,0.6,0.1
			c0.7,0,1.1-0.1,1.5-0.4c0.3-0.2,0.5-0.6,0.5-1.1c0-0.2-0.1-0.5-0.2-0.6c-0.1-0.2-0.3-0.3-0.4-0.5s-0.4-0.3-0.7-0.4
			c-0.3-0.1-0.5-0.3-0.8-0.4c-0.3-0.2-0.6-0.3-0.9-0.5c-0.3-0.2-0.5-0.3-0.7-0.5c-0.2-0.2-0.4-0.4-0.5-0.7c-0.1-0.3-0.2-0.5-0.2-0.9
			c0-0.4,0.1-0.8,0.3-1.1s0.4-0.6,0.7-0.8c0.3-0.2,0.6-0.3,1-0.4c0.4-0.1,0.8-0.1,1.2-0.1c0.9,0,1.6,0.1,2,0.3v1.2
			c-0.5-0.4-1.2-0.6-2.1-0.6c-0.2,0-0.5,0-0.7,0.1s-0.4,0.1-0.6,0.2c-0.2,0.1-0.3,0.3-0.4,0.4s-0.2,0.4-0.2,0.6c0,0.2,0,0.4,0.1,0.6
			c0.1,0.2,0.2,0.3,0.4,0.5s0.4,0.3,0.6,0.4c0.2,0.1,0.5,0.3,0.8,0.4c0.3,0.2,0.6,0.3,0.9,0.5s0.5,0.4,0.8,0.6
			c0.2,0.2,0.4,0.5,0.5,0.7c0.1,0.3,0.2,0.6,0.2,0.9c0,0.4-0.1,0.8-0.3,1.1c-0.2,0.3-0.4,0.6-0.7,0.8c-0.3,0.2-0.6,0.3-1,0.4
			s-0.8,0.1-1.2,0.1c-0.1,0-0.3,0-0.5,0s-0.4-0.1-0.6-0.1c-0.2,0-0.4-0.1-0.6-0.2C121.4,1647.8,121.3,1647.7,121.1,1647.6z"/>
		<path d="M132.1,1644.6v3.4h-1.1v-9.1h2.5c1,0,1.7,0.2,2.3,0.7c0.5,0.5,0.8,1.1,0.8,2s-0.3,1.6-0.9,2.1c-0.6,0.5-1.4,0.8-2.4,0.8
			H132.1z M132.1,1639.9v3.7h1.1c0.7,0,1.3-0.2,1.7-0.5c0.4-0.3,0.6-0.8,0.6-1.4c0-1.2-0.7-1.8-2.1-1.8H132.1z"/>
		<path d="M145.8,1648h-4.8v-9.1h4.6v1H142v3h3.3v1H142v3.2h3.8V1648z"/>
		<path d="M156.3,1647.6c-0.7,0.4-1.5,0.5-2.5,0.5c-1.3,0-2.3-0.4-3.1-1.3c-0.8-0.8-1.2-1.9-1.2-3.3c0-1.5,0.4-2.6,1.3-3.5
			s2-1.3,3.3-1.3c0.9,0,1.6,0.1,2.1,0.4v1.1c-0.7-0.4-1.4-0.5-2.2-0.5c-1,0-1.9,0.3-2.5,1c-0.6,0.7-1,1.6-1,2.8c0,1.1,0.3,2,0.9,2.7
			c0.6,0.7,1.4,1,2.4,1c0.9,0,1.7-0.2,2.4-0.6V1647.6z"/>
		<path d="M162.8,1636l-1.7,2.1h-0.8l1.4-2.1H162.8z M161.8,1648h-1.1v-9.1h1.1V1648z"/>
		<path d="M171.5,1639.9h-3.6v3.1h3.3v1h-3.3v4h-1.1v-9.1h4.6V1639.9z"/>
		<path d="M176.8,1648h-1.1v-9.1h1.1V1648z"/>
		<path d="M188,1647.6c-0.7,0.4-1.5,0.5-2.5,0.5c-1.3,0-2.3-0.4-3.1-1.3c-0.8-0.8-1.2-1.9-1.2-3.3c0-1.5,0.4-2.6,1.3-3.5
			s2-1.3,3.3-1.3c0.9,0,1.6,0.1,2.1,0.4v1.1c-0.7-0.4-1.4-0.5-2.2-0.5c-1,0-1.9,0.3-2.5,1c-0.6,0.7-1,1.6-1,2.8c0,1.1,0.3,2,0.9,2.7
			s1.4,1,2.4,1c0.9,0,1.7-0.2,2.4-0.6V1647.6z"/>
		<path d="M199.5,1648h-1.2l-1-2.6h-3.9l-0.9,2.6h-1.2l3.5-9.1h1.1L199.5,1648z M197,1644.5l-1.4-3.9c0-0.1-0.1-0.3-0.1-0.6h0
			c0,0.3-0.1,0.5-0.1,0.6l-1.4,3.9H197z"/>
		<path d="M203,1647.6v-1.3c0.1,0.1,0.3,0.2,0.5,0.3c0.2,0.1,0.4,0.2,0.6,0.3c0.2,0.1,0.4,0.1,0.7,0.2c0.2,0,0.4,0.1,0.6,0.1
			c0.7,0,1.1-0.1,1.5-0.4c0.3-0.2,0.5-0.6,0.5-1.1c0-0.2-0.1-0.5-0.2-0.6c-0.1-0.2-0.3-0.3-0.4-0.5s-0.4-0.3-0.7-0.4
			c-0.3-0.1-0.5-0.3-0.8-0.4c-0.3-0.2-0.6-0.3-0.9-0.5c-0.3-0.2-0.5-0.3-0.7-0.5c-0.2-0.2-0.4-0.4-0.5-0.7c-0.1-0.3-0.2-0.5-0.2-0.9
			c0-0.4,0.1-0.8,0.3-1.1c0.2-0.3,0.4-0.6,0.7-0.8c0.3-0.2,0.6-0.3,1-0.4c0.4-0.1,0.8-0.1,1.2-0.1c0.9,0,1.6,0.1,2,0.3v1.2
			c-0.5-0.4-1.2-0.6-2.1-0.6c-0.2,0-0.5,0-0.7,0.1c-0.2,0-0.4,0.1-0.6,0.2c-0.2,0.1-0.3,0.3-0.4,0.4s-0.2,0.4-0.2,0.6
			c0,0.2,0,0.4,0.1,0.6c0.1,0.2,0.2,0.3,0.4,0.5c0.2,0.1,0.4,0.3,0.6,0.4s0.5,0.3,0.8,0.4c0.3,0.2,0.6,0.3,0.9,0.5s0.5,0.4,0.8,0.6
			c0.2,0.2,0.4,0.5,0.5,0.7s0.2,0.6,0.2,0.9c0,0.4-0.1,0.8-0.3,1.1c-0.2,0.3-0.4,0.6-0.7,0.8c-0.3,0.2-0.6,0.3-1,0.4
			c-0.4,0.1-0.8,0.1-1.2,0.1c-0.1,0-0.3,0-0.5,0c-0.2,0-0.4-0.1-0.6-0.1c-0.2,0-0.4-0.1-0.6-0.2
			C203.3,1647.8,203.2,1647.7,203,1647.6z"/>
		<path d="M218.7,1647.6v-1.3c0.1,0.1,0.3,0.2,0.5,0.3s0.4,0.2,0.6,0.3c0.2,0.1,0.4,0.1,0.7,0.2c0.2,0,0.4,0.1,0.6,0.1
			c0.7,0,1.1-0.1,1.5-0.4c0.3-0.2,0.5-0.6,0.5-1.1c0-0.2-0.1-0.5-0.2-0.6c-0.1-0.2-0.3-0.3-0.4-0.5s-0.4-0.3-0.7-0.4
			c-0.3-0.1-0.5-0.3-0.8-0.4c-0.3-0.2-0.6-0.3-0.9-0.5c-0.3-0.2-0.5-0.3-0.7-0.5c-0.2-0.2-0.4-0.4-0.5-0.7s-0.2-0.5-0.2-0.9
			c0-0.4,0.1-0.8,0.3-1.1c0.2-0.3,0.4-0.6,0.7-0.8c0.3-0.2,0.6-0.3,1-0.4c0.4-0.1,0.8-0.1,1.2-0.1c0.9,0,1.6,0.1,2,0.3v1.2
			c-0.5-0.4-1.2-0.6-2.1-0.6c-0.2,0-0.5,0-0.7,0.1c-0.2,0-0.4,0.1-0.6,0.2c-0.2,0.1-0.3,0.3-0.4,0.4s-0.2,0.4-0.2,0.6
			c0,0.2,0,0.4,0.1,0.6c0.1,0.2,0.2,0.3,0.4,0.5c0.2,0.1,0.4,0.3,0.6,0.4c0.2,0.1,0.5,0.3,0.8,0.4c0.3,0.2,0.6,0.3,0.9,0.5
			s0.5,0.4,0.8,0.6c0.2,0.2,0.4,0.5,0.5,0.7c0.1,0.3,0.2,0.6,0.2,0.9c0,0.4-0.1,0.8-0.3,1.1c-0.2,0.3-0.4,0.6-0.7,0.8
			c-0.3,0.2-0.6,0.3-1,0.4c-0.4,0.1-0.8,0.1-1.2,0.1c-0.1,0-0.3,0-0.5,0c-0.2,0-0.4-0.1-0.6-0.1c-0.2,0-0.4-0.1-0.6-0.2
			C219,1647.8,218.8,1647.7,218.7,1647.6z"/>
		<path d="M232.3,1648.2c-1.3,0-2.3-0.4-3.1-1.3c-0.8-0.9-1.2-2-1.2-3.3c0-1.5,0.4-2.6,1.2-3.5c0.8-0.9,1.9-1.3,3.2-1.3
			c1.3,0,2.3,0.4,3,1.3c0.8,0.8,1.2,2,1.2,3.3c0,1.5-0.4,2.7-1.2,3.5S233.6,1648.2,232.3,1648.2z M232.4,1639.7c-1,0-1.7,0.3-2.3,1
			c-0.6,0.7-0.9,1.6-0.9,2.7c0,1.1,0.3,2,0.9,2.7s1.3,1,2.3,1c1,0,1.8-0.3,2.4-1c0.6-0.7,0.9-1.6,0.9-2.7c0-1.2-0.3-2.1-0.8-2.8
			C234.1,1640,233.4,1639.7,232.4,1639.7z"/>
		<path d="M248.4,1648h-1.3l-4.7-7.3c-0.1-0.2-0.2-0.4-0.3-0.6h0c0,0.2,0.1,0.6,0.1,1.3v6.6H241v-9.1h1.4l4.6,7.1
			c0.2,0.3,0.3,0.5,0.4,0.6h0c0-0.3-0.1-0.7-0.1-1.3v-6.4h1.1V1648z"/>
	</g>
	<g class="st0">
		<path d="M91.5,1654.9h-2.6v8.1h-1.1v-8.1h-2.6v-1h6.3V1654.9z"/>
		<path d="M102.2,1659.3c0,2.6-1.2,3.8-3.5,3.8c-2.2,0-3.3-1.2-3.3-3.7v-5.6h1.1v5.5c0,1.9,0.8,2.8,2.4,2.8c1.5,0,2.3-0.9,2.3-2.7
			v-5.6h1.1V1659.3z"/>
		<path d="M106.7,1662.6v-1.3c0.1,0.1,0.3,0.2,0.5,0.3c0.2,0.1,0.4,0.2,0.6,0.3c0.2,0.1,0.4,0.1,0.7,0.2s0.4,0.1,0.6,0.1
			c0.7,0,1.1-0.1,1.5-0.4c0.3-0.2,0.5-0.6,0.5-1.1c0-0.2-0.1-0.5-0.2-0.6c-0.1-0.2-0.3-0.3-0.4-0.5s-0.4-0.3-0.7-0.4
			c-0.3-0.1-0.5-0.3-0.8-0.4c-0.3-0.2-0.6-0.3-0.9-0.5c-0.3-0.2-0.5-0.3-0.7-0.5c-0.2-0.2-0.4-0.4-0.5-0.7c-0.1-0.3-0.2-0.5-0.2-0.9
			c0-0.4,0.1-0.8,0.3-1.1s0.4-0.6,0.7-0.8c0.3-0.2,0.6-0.3,1-0.4c0.4-0.1,0.8-0.1,1.2-0.1c0.9,0,1.6,0.1,2,0.3v1.2
			c-0.5-0.4-1.2-0.6-2.1-0.6c-0.2,0-0.5,0-0.7,0.1s-0.4,0.1-0.6,0.2c-0.2,0.1-0.3,0.3-0.4,0.4s-0.2,0.4-0.2,0.6c0,0.2,0,0.4,0.1,0.6
			c0.1,0.2,0.2,0.3,0.4,0.5s0.4,0.3,0.6,0.4c0.2,0.1,0.5,0.3,0.8,0.4c0.3,0.2,0.6,0.3,0.9,0.5s0.5,0.4,0.8,0.6
			c0.2,0.2,0.4,0.5,0.5,0.7c0.1,0.3,0.2,0.6,0.2,0.9c0,0.4-0.1,0.8-0.3,1.1c-0.2,0.3-0.4,0.6-0.7,0.8c-0.3,0.2-0.6,0.3-1,0.4
			s-0.8,0.1-1.2,0.1c-0.1,0-0.3,0-0.5,0s-0.4-0.1-0.6-0.1c-0.2,0-0.4-0.1-0.6-0.2C107,1662.8,106.8,1662.7,106.7,1662.6z"/>
		<path d="M123.8,1659.6v3.4h-1.1v-9.1h2.5c1,0,1.7,0.2,2.3,0.7c0.5,0.5,0.8,1.1,0.8,2s-0.3,1.6-0.9,2.1c-0.6,0.5-1.4,0.8-2.4,0.8
			H123.8z M123.8,1654.9v3.7h1.1c0.7,0,1.3-0.2,1.7-0.5c0.4-0.3,0.6-0.8,0.6-1.4c0-1.2-0.7-1.8-2.1-1.8H123.8z"/>
		<path d="M139.2,1663h-1.3l-1.5-2.6c-0.1-0.2-0.3-0.4-0.4-0.6s-0.3-0.3-0.4-0.4c-0.1-0.1-0.3-0.2-0.4-0.2c-0.2,0-0.3-0.1-0.5-0.1
			h-0.9v3.9h-1.1v-9.1h2.7c0.4,0,0.8,0,1.1,0.1c0.3,0.1,0.6,0.3,0.9,0.5c0.2,0.2,0.4,0.5,0.6,0.8s0.2,0.7,0.2,1.1
			c0,0.3,0,0.6-0.1,0.9c-0.1,0.3-0.2,0.5-0.4,0.7c-0.2,0.2-0.4,0.4-0.6,0.5c-0.2,0.1-0.5,0.3-0.8,0.3v0c0.2,0.1,0.3,0.1,0.4,0.2
			c0.1,0.1,0.2,0.2,0.3,0.3c0.1,0.1,0.2,0.3,0.3,0.4c0.1,0.2,0.2,0.3,0.3,0.5L139.2,1663z M133.7,1654.9v3.3h1.4
			c0.3,0,0.5,0,0.7-0.1c0.2-0.1,0.4-0.2,0.6-0.3s0.3-0.3,0.4-0.6s0.1-0.5,0.1-0.7c0-0.5-0.2-0.9-0.5-1.1c-0.3-0.3-0.8-0.4-1.4-0.4
			H133.7z"/>
		<path d="M147.9,1663H143v-9.1h4.6v1h-3.6v3h3.3v1h-3.3v3.2h3.8V1663z"/>
		<path d="M156.8,1654.9h-3.6v3.1h3.3v1h-3.3v4h-1.1v-9.1h4.6V1654.9z"/>
		<path d="M166,1663h-4.8v-9.1h4.6v1h-3.6v3h3.3v1h-3.3v3.2h3.8V1663z"/>
		<path d="M176.9,1663h-1.3l-1.5-2.6c-0.1-0.2-0.3-0.4-0.4-0.6c-0.1-0.2-0.3-0.3-0.4-0.4c-0.1-0.1-0.3-0.2-0.4-0.2
			c-0.2,0-0.3-0.1-0.5-0.1h-0.9v3.9h-1.1v-9.1h2.7c0.4,0,0.8,0,1.1,0.1c0.3,0.1,0.6,0.3,0.9,0.5c0.2,0.2,0.4,0.5,0.6,0.8
			s0.2,0.7,0.2,1.1c0,0.3,0,0.6-0.1,0.9c-0.1,0.3-0.2,0.5-0.4,0.7c-0.2,0.2-0.4,0.4-0.6,0.5c-0.2,0.1-0.5,0.3-0.8,0.3v0
			c0.2,0.1,0.3,0.1,0.4,0.2c0.1,0.1,0.2,0.2,0.3,0.3c0.1,0.1,0.2,0.3,0.3,0.4c0.1,0.2,0.2,0.3,0.3,0.5L176.9,1663z M171.4,1654.9
			v3.3h1.4c0.3,0,0.5,0,0.7-0.1c0.2-0.1,0.4-0.2,0.6-0.3s0.3-0.3,0.4-0.6c0.1-0.2,0.1-0.5,0.1-0.7c0-0.5-0.2-0.9-0.5-1.1
			c-0.3-0.3-0.8-0.4-1.4-0.4H171.4z"/>
		<path d="M185.5,1663h-4.8v-9.1h4.6v1h-3.6v3h3.3v1h-3.3v3.2h3.8V1663z"/>
		<path d="M197.2,1663h-1.3l-4.7-7.3c-0.1-0.2-0.2-0.4-0.3-0.6h0c0,0.2,0.1,0.6,0.1,1.3v6.6h-1.1v-9.1h1.4l4.6,7.1
			c0.2,0.3,0.3,0.5,0.4,0.6h0c0-0.3-0.1-0.7-0.1-1.3v-6.4h1.1V1663z"/>
		<path d="M208.4,1662.6c-0.7,0.4-1.5,0.5-2.5,0.5c-1.3,0-2.3-0.4-3.1-1.3c-0.8-0.8-1.2-1.9-1.2-3.3c0-1.5,0.4-2.6,1.3-3.5
			s2-1.3,3.3-1.3c0.9,0,1.6,0.1,2.1,0.4v1.1c-0.7-0.4-1.4-0.5-2.2-0.5c-1,0-1.9,0.3-2.5,1c-0.6,0.7-1,1.6-1,2.8c0,1.1,0.3,2,0.9,2.7
			s1.4,1,2.4,1c0.9,0,1.7-0.2,2.4-0.6V1662.6z"/>
		<path d="M213.9,1663h-1.1v-9.1h1.1V1663z"/>
		<path d="M226,1663h-1.2l-1-2.6H220l-0.9,2.6h-1.2l3.5-9.1h1.1L226,1663z M223.5,1659.5l-1.4-3.9c0-0.1-0.1-0.3-0.1-0.6h0
			c0,0.3-0.1,0.5-0.1,0.6l-1.4,3.9H223.5z"/>
		<path d="M229.5,1662.6v-1.3c0.1,0.1,0.3,0.2,0.5,0.3c0.2,0.1,0.4,0.2,0.6,0.3c0.2,0.1,0.4,0.1,0.7,0.2c0.2,0,0.4,0.1,0.6,0.1
			c0.7,0,1.1-0.1,1.5-0.4c0.3-0.2,0.5-0.6,0.5-1.1c0-0.2-0.1-0.5-0.2-0.6c-0.1-0.2-0.3-0.3-0.4-0.5s-0.4-0.3-0.7-0.4
			c-0.3-0.1-0.5-0.3-0.8-0.4c-0.3-0.2-0.6-0.3-0.9-0.5c-0.3-0.2-0.5-0.3-0.7-0.5c-0.2-0.2-0.4-0.4-0.5-0.7c-0.1-0.3-0.2-0.5-0.2-0.9
			c0-0.4,0.1-0.8,0.3-1.1c0.2-0.3,0.4-0.6,0.7-0.8c0.3-0.2,0.6-0.3,1-0.4c0.4-0.1,0.8-0.1,1.2-0.1c0.9,0,1.6,0.1,2,0.3v1.2
			c-0.5-0.4-1.2-0.6-2.1-0.6c-0.2,0-0.5,0-0.7,0.1c-0.2,0-0.4,0.1-0.6,0.2c-0.2,0.1-0.3,0.3-0.4,0.4s-0.2,0.4-0.2,0.6
			c0,0.2,0,0.4,0.1,0.6c0.1,0.2,0.2,0.3,0.4,0.5c0.2,0.1,0.4,0.3,0.6,0.4s0.5,0.3,0.8,0.4c0.3,0.2,0.6,0.3,0.9,0.5s0.5,0.4,0.8,0.6
			c0.2,0.2,0.4,0.5,0.5,0.7s0.2,0.6,0.2,0.9c0,0.4-0.1,0.8-0.3,1.1c-0.2,0.3-0.4,0.6-0.7,0.8c-0.3,0.2-0.6,0.3-1,0.4
			c-0.4,0.1-0.8,0.1-1.2,0.1c-0.1,0-0.3,0-0.5,0c-0.2,0-0.4-0.1-0.6-0.1c-0.2,0-0.4-0.1-0.6-0.2
			C229.8,1662.8,229.6,1662.7,229.5,1662.6z"/>
		<path d="M240.2,1661.6l-1,3.1h-0.7l0.7-3.1H240.2z"/>
	</g>
	<g class="st0">
		<path d="M85.8,1678h-1.1v-6.1c0-0.5,0-1.1,0.1-1.8h0c-0.1,0.4-0.2,0.7-0.3,0.9l-3.1,7h-0.5l-3.1-6.9c-0.1-0.2-0.2-0.5-0.3-0.9h0
			c0,0.4,0.1,1,0.1,1.8v6.1h-1v-9.1H78l2.8,6.3c0.2,0.5,0.4,0.9,0.4,1.1h0c0.2-0.5,0.3-0.9,0.4-1.1l2.9-6.3h1.3V1678z"/>
		<path d="M95.7,1678h-4.8v-9.1h4.6v1h-3.6v3h3.3v1h-3.3v3.2h3.8V1678z"/>
		<path d="M102.3,1674.7c0,1.1-0.2,1.9-0.7,2.5s-1.1,0.9-1.8,0.9c-0.4,0-0.6-0.1-0.9-0.2v-1.1c0.2,0.2,0.5,0.2,0.9,0.2
			c1,0,1.4-0.8,1.4-2.4v-5.9h1.1V1674.7z"/>
		<path d="M110.9,1678.2c-1.3,0-2.3-0.4-3.1-1.3c-0.8-0.9-1.2-2-1.2-3.3c0-1.5,0.4-2.6,1.2-3.5s1.9-1.3,3.2-1.3c1.3,0,2.3,0.4,3,1.3
			c0.8,0.8,1.2,2,1.2,3.3c0,1.5-0.4,2.7-1.2,3.5S112.2,1678.2,110.9,1678.2z M111,1669.7c-1,0-1.7,0.3-2.3,1
			c-0.6,0.7-0.9,1.6-0.9,2.7c0,1.1,0.3,2,0.9,2.7c0.6,0.7,1.3,1,2.3,1c1,0,1.8-0.3,2.4-1c0.6-0.7,0.9-1.6,0.9-2.7
			c0-1.2-0.3-2.1-0.8-2.8C112.7,1670,112,1669.7,111,1669.7z"/>
		<path d="M126.2,1678h-1.3l-1.5-2.6c-0.1-0.2-0.3-0.4-0.4-0.6s-0.3-0.3-0.4-0.4c-0.1-0.1-0.3-0.2-0.4-0.2c-0.2,0-0.3-0.1-0.5-0.1
			h-0.9v3.9h-1.1v-9.1h2.7c0.4,0,0.8,0,1.1,0.1c0.3,0.1,0.6,0.3,0.9,0.5c0.2,0.2,0.4,0.5,0.6,0.8s0.2,0.7,0.2,1.1
			c0,0.3,0,0.6-0.1,0.9c-0.1,0.3-0.2,0.5-0.4,0.7c-0.2,0.2-0.4,0.4-0.6,0.5c-0.2,0.1-0.5,0.3-0.8,0.3v0c0.2,0.1,0.3,0.1,0.4,0.2
			c0.1,0.1,0.2,0.2,0.3,0.3c0.1,0.1,0.2,0.3,0.3,0.4c0.1,0.2,0.2,0.3,0.3,0.5L126.2,1678z M120.7,1669.9v3.3h1.4
			c0.3,0,0.5,0,0.7-0.1c0.2-0.1,0.4-0.2,0.6-0.3s0.3-0.3,0.4-0.6s0.1-0.5,0.1-0.7c0-0.5-0.2-0.9-0.5-1.1c-0.3-0.3-0.8-0.4-1.4-0.4
			H120.7z"/>
		<path d="M135.8,1677.6v-1.3c0.1,0.1,0.3,0.2,0.5,0.3c0.2,0.1,0.4,0.2,0.6,0.3c0.2,0.1,0.4,0.1,0.7,0.2s0.4,0.1,0.6,0.1
			c0.7,0,1.1-0.1,1.5-0.4c0.3-0.2,0.5-0.6,0.5-1.1c0-0.2-0.1-0.5-0.2-0.6c-0.1-0.2-0.3-0.3-0.4-0.5s-0.4-0.3-0.7-0.4
			c-0.3-0.1-0.5-0.3-0.8-0.4c-0.3-0.2-0.6-0.3-0.9-0.5c-0.3-0.2-0.5-0.3-0.7-0.5c-0.2-0.2-0.4-0.4-0.5-0.7c-0.1-0.3-0.2-0.5-0.2-0.9
			c0-0.4,0.1-0.8,0.3-1.1s0.4-0.6,0.7-0.8c0.3-0.2,0.6-0.3,1-0.4c0.4-0.1,0.8-0.1,1.2-0.1c0.9,0,1.6,0.1,2,0.3v1.2
			c-0.5-0.4-1.2-0.6-2.1-0.6c-0.2,0-0.5,0-0.7,0.1s-0.4,0.1-0.6,0.2c-0.2,0.1-0.3,0.3-0.4,0.4s-0.2,0.4-0.2,0.6c0,0.2,0,0.4,0.1,0.6
			c0.1,0.2,0.2,0.3,0.4,0.5s0.4,0.3,0.6,0.4c0.2,0.1,0.5,0.3,0.8,0.4c0.3,0.2,0.6,0.3,0.9,0.5s0.5,0.4,0.8,0.6
			c0.2,0.2,0.4,0.5,0.5,0.7c0.1,0.3,0.2,0.6,0.2,0.9c0,0.4-0.1,0.8-0.3,1.1c-0.2,0.3-0.4,0.6-0.7,0.8c-0.3,0.2-0.6,0.3-1,0.4
			s-0.8,0.1-1.2,0.1c-0.1,0-0.3,0-0.5,0s-0.4-0.1-0.6-0.1c-0.2,0-0.4-0.1-0.6-0.2C136,1677.8,135.9,1677.7,135.8,1677.6z"/>
		<path d="M150.5,1678h-4.8v-9.1h4.6v1h-3.6v3h3.3v1h-3.3v3.2h3.8V1678z"/>
		<path d="M161.4,1678h-1.3l-1.5-2.6c-0.1-0.2-0.3-0.4-0.4-0.6s-0.3-0.3-0.4-0.4c-0.1-0.1-0.3-0.2-0.4-0.2c-0.2,0-0.3-0.1-0.5-0.1
			h-0.9v3.9h-1.1v-9.1h2.7c0.4,0,0.8,0,1.1,0.1c0.3,0.1,0.6,0.3,0.9,0.5c0.2,0.2,0.4,0.5,0.6,0.8s0.2,0.7,0.2,1.1
			c0,0.3,0,0.6-0.1,0.9c-0.1,0.3-0.2,0.5-0.4,0.7c-0.2,0.2-0.4,0.4-0.6,0.5c-0.2,0.1-0.5,0.3-0.8,0.3v0c0.2,0.1,0.3,0.1,0.4,0.2
			c0.1,0.1,0.2,0.2,0.3,0.3c0.1,0.1,0.2,0.3,0.3,0.4c0.1,0.2,0.2,0.3,0.3,0.5L161.4,1678z M155.9,1669.9v3.3h1.4
			c0.3,0,0.5,0,0.7-0.1c0.2-0.1,0.4-0.2,0.6-0.3s0.3-0.3,0.4-0.6s0.1-0.5,0.1-0.7c0-0.5-0.2-0.9-0.5-1.1c-0.3-0.3-0.8-0.4-1.4-0.4
			H155.9z"/>
		<path d="M172.3,1678h-1.2l-1-2.6h-3.9l-0.9,2.6h-1.2l3.5-9.1h1.1L172.3,1678z M169.8,1674.5l-1.4-3.9c0-0.1-0.1-0.3-0.1-0.6h0
			c0,0.3-0.1,0.5-0.1,0.6l-1.4,3.9H169.8z"/>
		<path d="M187.8,1669.9h-2.6v8.1h-1.1v-8.1h-2.6v-1h6.3V1669.9z"/>
		<path d="M198.3,1678h-1.3l-1.5-2.6c-0.1-0.2-0.3-0.4-0.4-0.6c-0.1-0.2-0.3-0.3-0.4-0.4c-0.1-0.1-0.3-0.2-0.4-0.2
			c-0.2,0-0.3-0.1-0.5-0.1h-0.9v3.9h-1.1v-9.1h2.7c0.4,0,0.8,0,1.1,0.1c0.3,0.1,0.6,0.3,0.9,0.5c0.2,0.2,0.4,0.5,0.6,0.8
			s0.2,0.7,0.2,1.1c0,0.3,0,0.6-0.1,0.9c-0.1,0.3-0.2,0.5-0.4,0.7c-0.2,0.2-0.4,0.4-0.6,0.5c-0.2,0.1-0.5,0.3-0.8,0.3v0
			c0.2,0.1,0.3,0.1,0.4,0.2c0.1,0.1,0.2,0.2,0.3,0.3c0.1,0.1,0.2,0.3,0.3,0.4c0.1,0.2,0.2,0.3,0.3,0.5L198.3,1678z M192.9,1669.9
			v3.3h1.4c0.3,0,0.5,0,0.7-0.1c0.2-0.1,0.4-0.2,0.6-0.3s0.3-0.3,0.4-0.6c0.1-0.2,0.1-0.5,0.1-0.7c0-0.5-0.2-0.9-0.5-1.1
			c-0.3-0.3-0.8-0.4-1.4-0.4H192.9z"/>
		<path d="M209.2,1678H208l-1-2.6h-3.9l-0.9,2.6h-1.2l3.5-9.1h1.1L209.2,1678z M206.7,1674.5l-1.4-3.9c0-0.1-0.1-0.3-0.1-0.6h0
			c0,0.3-0.1,0.5-0.1,0.6l-1.4,3.9H206.7z"/>
		<path d="M213.2,1678v-9.1h2.6c0.8,0,1.4,0.2,1.9,0.6c0.5,0.4,0.7,0.9,0.7,1.5c0,0.5-0.1,1-0.4,1.3s-0.7,0.7-1.2,0.8v0
			c0.6,0.1,1.1,0.3,1.5,0.7s0.6,0.9,0.6,1.5c0,0.8-0.3,1.4-0.8,1.9s-1.3,0.7-2.1,0.7H213.2z M214.2,1669.9v2.9h1.1
			c0.6,0,1-0.1,1.4-0.4c0.3-0.3,0.5-0.7,0.5-1.2c0-0.9-0.6-1.3-1.7-1.3H214.2z M214.2,1673.8v3.3h1.4c0.6,0,1.1-0.1,1.5-0.4
			c0.3-0.3,0.5-0.7,0.5-1.2c0-1.1-0.7-1.6-2.2-1.6H214.2z"/>
		<path d="M230.3,1678h-1.2l-1-2.6h-3.9l-0.9,2.6h-1.2l3.5-9.1h1.1L230.3,1678z M227.8,1674.5l-1.4-3.9c0-0.1-0.1-0.3-0.1-0.6h0
			c0,0.3-0.1,0.5-0.1,0.6l-1.4,3.9H227.8z"/>
		<path d="M237.1,1674.7c0,1.1-0.2,1.9-0.7,2.5s-1.1,0.9-1.8,0.9c-0.4,0-0.6-0.1-0.9-0.2v-1.1c0.2,0.2,0.5,0.2,0.9,0.2
			c1,0,1.4-0.8,1.4-2.4v-5.9h1.1V1674.7z"/>
		<path d="M245.7,1678.2c-1.3,0-2.3-0.4-3.1-1.3c-0.8-0.9-1.2-2-1.2-3.3c0-1.5,0.4-2.6,1.2-3.5c0.8-0.9,1.9-1.3,3.2-1.3
			c1.3,0,2.3,0.4,3,1.3c0.8,0.8,1.2,2,1.2,3.3c0,1.5-0.4,2.7-1.2,3.5S247,1678.2,245.7,1678.2z M245.8,1669.7c-1,0-1.7,0.3-2.3,1
			c-0.6,0.7-0.9,1.6-0.9,2.7c0,1.1,0.3,2,0.9,2.7s1.3,1,2.3,1c1,0,1.8-0.3,2.4-1c0.6-0.7,0.9-1.6,0.9-2.7c0-1.2-0.3-2.1-0.8-2.8
			C247.5,1670,246.8,1669.7,245.8,1669.7z"/>
	</g>
	<g class="st0">
		<path d="M50.5,1693v-9.1h2.5c3.2,0,4.8,1.5,4.8,4.4c0,1.4-0.4,2.5-1.3,3.4c-0.9,0.9-2.1,1.3-3.6,1.3H50.5z M51.6,1684.9v7.2H53
			c1.2,0,2.1-0.3,2.8-1c0.7-0.6,1-1.5,1-2.7c0-2.3-1.2-3.5-3.7-3.5H51.6z"/>
		<path d="M67.1,1693h-4.8v-9.1h4.6v1h-3.6v3h3.3v1h-3.3v3.2h3.8V1693z"/>
		<path d="M84.9,1693h-1.3l-4.7-7.3c-0.1-0.2-0.2-0.4-0.3-0.6h0c0,0.2,0.1,0.6,0.1,1.3v6.6h-1.1v-9.1H79l4.6,7.1
			c0.2,0.3,0.3,0.5,0.4,0.6h0c0-0.3-0.1-0.7-0.1-1.3v-6.4h1.1V1693z"/>
		<path d="M96.6,1689.3c0,2.6-1.2,3.8-3.5,3.8c-2.2,0-3.3-1.2-3.3-3.7v-5.6h1.1v5.5c0,1.9,0.8,2.8,2.4,2.8c1.5,0,2.3-0.9,2.3-2.7
			v-5.6h1.1V1689.3z"/>
		<path d="M106.3,1693h-4.8v-9.1h4.6v1h-3.6v3h3.3v1h-3.3v3.2h3.8V1693z"/>
		<path d="M110.2,1692.6v-1.3c0.1,0.1,0.3,0.2,0.5,0.3c0.2,0.1,0.4,0.2,0.6,0.3c0.2,0.1,0.4,0.1,0.7,0.2s0.4,0.1,0.6,0.1
			c0.7,0,1.1-0.1,1.5-0.4c0.3-0.2,0.5-0.6,0.5-1.1c0-0.2-0.1-0.5-0.2-0.6c-0.1-0.2-0.3-0.3-0.4-0.5s-0.4-0.3-0.7-0.4
			c-0.3-0.1-0.5-0.3-0.8-0.4c-0.3-0.2-0.6-0.3-0.9-0.5c-0.3-0.2-0.5-0.3-0.7-0.5c-0.2-0.2-0.4-0.4-0.5-0.7c-0.1-0.3-0.2-0.5-0.2-0.9
			c0-0.4,0.1-0.8,0.3-1.1s0.4-0.6,0.7-0.8c0.3-0.2,0.6-0.3,1-0.4c0.4-0.1,0.8-0.1,1.2-0.1c0.9,0,1.6,0.1,2,0.3v1.2
			c-0.5-0.4-1.2-0.6-2.1-0.6c-0.2,0-0.5,0-0.7,0.1s-0.4,0.1-0.6,0.2c-0.2,0.1-0.3,0.3-0.4,0.4s-0.2,0.4-0.2,0.6c0,0.2,0,0.4,0.1,0.6
			c0.1,0.2,0.2,0.3,0.4,0.5s0.4,0.3,0.6,0.4c0.2,0.1,0.5,0.3,0.8,0.4c0.3,0.2,0.6,0.3,0.9,0.5s0.5,0.4,0.8,0.6
			c0.2,0.2,0.4,0.5,0.5,0.7c0.1,0.3,0.2,0.6,0.2,0.9c0,0.4-0.1,0.8-0.3,1.1c-0.2,0.3-0.4,0.6-0.7,0.8c-0.3,0.2-0.6,0.3-1,0.4
			s-0.8,0.1-1.2,0.1c-0.1,0-0.3,0-0.5,0s-0.4-0.1-0.6-0.1c-0.2,0-0.4-0.1-0.6-0.2C110.5,1692.8,110.3,1692.7,110.2,1692.6z"/>
		<path d="M125.5,1684.9h-2.6v8.1h-1.1v-8.1h-2.6v-1h6.3V1684.9z"/>
		<path d="M136.1,1693h-1.3l-1.5-2.6c-0.1-0.2-0.3-0.4-0.4-0.6s-0.3-0.3-0.4-0.4c-0.1-0.1-0.3-0.2-0.4-0.2c-0.2,0-0.3-0.1-0.5-0.1
			h-0.9v3.9h-1.1v-9.1h2.7c0.4,0,0.8,0,1.1,0.1c0.3,0.1,0.6,0.3,0.9,0.5c0.2,0.2,0.4,0.5,0.6,0.8s0.2,0.7,0.2,1.1
			c0,0.3,0,0.6-0.1,0.9c-0.1,0.3-0.2,0.5-0.4,0.7c-0.2,0.2-0.4,0.4-0.6,0.5c-0.2,0.1-0.5,0.3-0.8,0.3v0c0.2,0.1,0.3,0.1,0.4,0.2
			c0.1,0.1,0.2,0.2,0.3,0.3c0.1,0.1,0.2,0.3,0.3,0.4c0.1,0.2,0.2,0.3,0.3,0.5L136.1,1693z M130.6,1684.9v3.3h1.4
			c0.3,0,0.5,0,0.7-0.1c0.2-0.1,0.4-0.2,0.6-0.3s0.3-0.3,0.4-0.6s0.1-0.5,0.1-0.7c0-0.5-0.2-0.9-0.5-1.1c-0.3-0.3-0.8-0.4-1.4-0.4
			H130.6z"/>
		<path d="M143.5,1693.2c-1.3,0-2.3-0.4-3.1-1.3c-0.8-0.9-1.2-2-1.2-3.3c0-1.5,0.4-2.6,1.2-3.5s1.9-1.3,3.2-1.3c1.3,0,2.3,0.4,3,1.3
			c0.8,0.8,1.2,2,1.2,3.3c0,1.5-0.4,2.7-1.2,3.5S144.8,1693.2,143.5,1693.2z M143.5,1684.7c-1,0-1.7,0.3-2.3,1
			c-0.6,0.7-0.9,1.6-0.9,2.7c0,1.1,0.3,2,0.9,2.7c0.6,0.7,1.3,1,2.3,1c1,0,1.8-0.3,2.4-1c0.6-0.7,0.9-1.6,0.9-2.7
			c0-1.2-0.3-2.1-0.8-2.8C145.3,1685,144.5,1684.7,143.5,1684.7z"/>
		<path d="M151.8,1692.6v-1.3c0.1,0.1,0.3,0.2,0.5,0.3c0.2,0.1,0.4,0.2,0.6,0.3c0.2,0.1,0.4,0.1,0.7,0.2s0.4,0.1,0.6,0.1
			c0.7,0,1.1-0.1,1.5-0.4c0.3-0.2,0.5-0.6,0.5-1.1c0-0.2-0.1-0.5-0.2-0.6c-0.1-0.2-0.3-0.3-0.4-0.5s-0.4-0.3-0.7-0.4
			c-0.3-0.1-0.5-0.3-0.8-0.4c-0.3-0.2-0.6-0.3-0.9-0.5c-0.3-0.2-0.5-0.3-0.7-0.5c-0.2-0.2-0.4-0.4-0.5-0.7c-0.1-0.3-0.2-0.5-0.2-0.9
			c0-0.4,0.1-0.8,0.3-1.1s0.4-0.6,0.7-0.8c0.3-0.2,0.6-0.3,1-0.4c0.4-0.1,0.8-0.1,1.2-0.1c0.9,0,1.6,0.1,2,0.3v1.2
			c-0.5-0.4-1.2-0.6-2.1-0.6c-0.2,0-0.5,0-0.7,0.1s-0.4,0.1-0.6,0.2c-0.2,0.1-0.3,0.3-0.4,0.4s-0.2,0.4-0.2,0.6c0,0.2,0,0.4,0.1,0.6
			c0.1,0.2,0.2,0.3,0.4,0.5s0.4,0.3,0.6,0.4c0.2,0.1,0.5,0.3,0.8,0.4c0.3,0.2,0.6,0.3,0.9,0.5s0.5,0.4,0.8,0.6
			c0.2,0.2,0.4,0.5,0.5,0.7c0.1,0.3,0.2,0.6,0.2,0.9c0,0.4-0.1,0.8-0.3,1.1c-0.2,0.3-0.4,0.6-0.7,0.8c-0.3,0.2-0.6,0.3-1,0.4
			s-0.8,0.1-1.2,0.1c-0.1,0-0.3,0-0.5,0s-0.4-0.1-0.6-0.1c-0.2,0-0.4-0.1-0.6-0.2C152.1,1692.8,151.9,1692.7,151.8,1692.6z"/>
		<path d="M172.7,1693h-4.8v-9.1h4.6v1h-3.6v3h3.3v1h-3.3v3.2h3.8V1693z"/>
		<path d="M176.6,1692.6v-1.3c0.1,0.1,0.3,0.2,0.5,0.3c0.2,0.1,0.4,0.2,0.6,0.3c0.2,0.1,0.4,0.1,0.7,0.2s0.4,0.1,0.6,0.1
			c0.7,0,1.1-0.1,1.5-0.4c0.3-0.2,0.5-0.6,0.5-1.1c0-0.2-0.1-0.5-0.2-0.6c-0.1-0.2-0.3-0.3-0.4-0.5s-0.4-0.3-0.7-0.4
			c-0.3-0.1-0.5-0.3-0.8-0.4c-0.3-0.2-0.6-0.3-0.9-0.5c-0.3-0.2-0.5-0.3-0.7-0.5c-0.2-0.2-0.4-0.4-0.5-0.7s-0.2-0.5-0.2-0.9
			c0-0.4,0.1-0.8,0.3-1.1s0.4-0.6,0.7-0.8c0.3-0.2,0.6-0.3,1-0.4c0.4-0.1,0.8-0.1,1.2-0.1c0.9,0,1.6,0.1,2,0.3v1.2
			c-0.5-0.4-1.2-0.6-2.1-0.6c-0.2,0-0.5,0-0.7,0.1s-0.4,0.1-0.6,0.2c-0.2,0.1-0.3,0.3-0.4,0.4s-0.2,0.4-0.2,0.6c0,0.2,0,0.4,0.1,0.6
			c0.1,0.2,0.2,0.3,0.4,0.5s0.4,0.3,0.6,0.4s0.5,0.3,0.8,0.4c0.3,0.2,0.6,0.3,0.9,0.5s0.5,0.4,0.8,0.6c0.2,0.2,0.4,0.5,0.5,0.7
			s0.2,0.6,0.2,0.9c0,0.4-0.1,0.8-0.3,1.1c-0.2,0.3-0.4,0.6-0.7,0.8c-0.3,0.2-0.6,0.3-1,0.4s-0.8,0.1-1.2,0.1c-0.1,0-0.3,0-0.5,0
			s-0.4-0.1-0.6-0.1c-0.2,0-0.4-0.1-0.6-0.2C176.9,1692.8,176.7,1692.7,176.6,1692.6z"/>
		<path d="M187.6,1689.6v3.4h-1.1v-9.1h2.5c1,0,1.7,0.2,2.3,0.7s0.8,1.1,0.8,2s-0.3,1.6-0.9,2.1c-0.6,0.5-1.4,0.8-2.4,0.8H187.6z
			 M187.6,1684.9v3.7h1.1c0.7,0,1.3-0.2,1.7-0.5c0.4-0.3,0.6-0.8,0.6-1.4c0-1.2-0.7-1.8-2.1-1.8H187.6z"/>
		<path d="M201.3,1693h-4.8v-9.1h4.6v1h-3.6v3h3.3v1h-3.3v3.2h3.8V1693z"/>
		<path d="M211.8,1692.6c-0.7,0.4-1.5,0.5-2.5,0.5c-1.3,0-2.3-0.4-3.1-1.3c-0.8-0.8-1.2-1.9-1.2-3.3c0-1.5,0.4-2.6,1.3-3.5
			c0.9-0.9,2-1.3,3.3-1.3c0.9,0,1.6,0.1,2.1,0.4v1.1c-0.7-0.4-1.4-0.5-2.2-0.5c-1,0-1.9,0.3-2.5,1c-0.6,0.7-1,1.6-1,2.8
			c0,1.1,0.3,2,0.9,2.7s1.4,1,2.4,1c0.9,0,1.7-0.2,2.4-0.6V1692.6z"/>
		<path d="M217.3,1693h-1.1v-9.1h1.1V1693z"/>
		<path d="M229.4,1693h-1.2l-1-2.6h-3.9l-0.9,2.6h-1.2l3.5-9.1h1.1L229.4,1693z M226.9,1689.5l-1.4-3.9c0-0.1-0.1-0.3-0.1-0.6h0
			c0,0.3-0.1,0.5-0.1,0.6l-1.4,3.9H226.9z"/>
		<path d="M238,1693h-4.7v-9.1h1.1v8.1h3.7V1693z"/>
		<path d="M243.1,1693H242v-9.1h1.1V1693z"/>
		<path d="M247.7,1692.6v-1.3c0.1,0.1,0.3,0.2,0.5,0.3s0.4,0.2,0.6,0.3c0.2,0.1,0.4,0.1,0.7,0.2c0.2,0,0.4,0.1,0.6,0.1
			c0.7,0,1.1-0.1,1.5-0.4c0.3-0.2,0.5-0.6,0.5-1.1c0-0.2-0.1-0.5-0.2-0.6c-0.1-0.2-0.3-0.3-0.4-0.5c-0.2-0.2-0.4-0.3-0.7-0.4
			s-0.5-0.3-0.8-0.4c-0.3-0.2-0.6-0.3-0.9-0.5c-0.3-0.2-0.5-0.3-0.7-0.5c-0.2-0.2-0.4-0.4-0.5-0.7c-0.1-0.3-0.2-0.5-0.2-0.9
			c0-0.4,0.1-0.8,0.3-1.1c0.2-0.3,0.4-0.6,0.7-0.8c0.3-0.2,0.6-0.3,1-0.4c0.4-0.1,0.8-0.1,1.2-0.1c0.9,0,1.6,0.1,2,0.3v1.2
			c-0.5-0.4-1.2-0.6-2.1-0.6c-0.2,0-0.5,0-0.7,0.1c-0.2,0-0.4,0.1-0.6,0.2c-0.2,0.1-0.3,0.3-0.4,0.4c-0.1,0.2-0.2,0.4-0.2,0.6
			c0,0.2,0,0.4,0.1,0.6c0.1,0.2,0.2,0.3,0.4,0.5c0.2,0.1,0.4,0.3,0.6,0.4c0.2,0.1,0.5,0.3,0.8,0.4c0.3,0.2,0.6,0.3,0.9,0.5
			c0.3,0.2,0.5,0.4,0.8,0.6c0.2,0.2,0.4,0.5,0.5,0.7s0.2,0.6,0.2,0.9c0,0.4-0.1,0.8-0.3,1.1c-0.2,0.3-0.4,0.6-0.7,0.8
			c-0.3,0.2-0.6,0.3-1,0.4c-0.4,0.1-0.8,0.1-1.2,0.1c-0.1,0-0.3,0-0.5,0c-0.2,0-0.4-0.1-0.6-0.1c-0.2,0-0.4-0.1-0.6-0.2
			S247.8,1692.7,247.7,1692.6z"/>
		<path d="M263,1684.9h-2.6v8.1h-1.1v-8.1h-2.6v-1h6.3V1684.9z"/>
		<path d="M273.2,1693H272l-1-2.6h-3.9l-0.9,2.6h-1.2l3.5-9.1h1.1L273.2,1693z M270.7,1689.5l-1.4-3.9c0-0.1-0.1-0.3-0.1-0.6h0
			c0,0.3-0.1,0.5-0.1,0.6l-1.4,3.9H270.7z"/>
		<path d="M276.7,1692.6v-1.3c0.1,0.1,0.3,0.2,0.5,0.3s0.4,0.2,0.6,0.3c0.2,0.1,0.4,0.1,0.7,0.2c0.2,0,0.4,0.1,0.6,0.1
			c0.7,0,1.1-0.1,1.5-0.4c0.3-0.2,0.5-0.6,0.5-1.1c0-0.2-0.1-0.5-0.2-0.6c-0.1-0.2-0.3-0.3-0.4-0.5c-0.2-0.2-0.4-0.3-0.7-0.4
			s-0.5-0.3-0.8-0.4c-0.3-0.2-0.6-0.3-0.9-0.5c-0.3-0.2-0.5-0.3-0.7-0.5c-0.2-0.2-0.4-0.4-0.5-0.7c-0.1-0.3-0.2-0.5-0.2-0.9
			c0-0.4,0.1-0.8,0.3-1.1c0.2-0.3,0.4-0.6,0.7-0.8c0.3-0.2,0.6-0.3,1-0.4c0.4-0.1,0.8-0.1,1.2-0.1c0.9,0,1.6,0.1,2,0.3v1.2
			c-0.5-0.4-1.2-0.6-2.1-0.6c-0.2,0-0.5,0-0.7,0.1c-0.2,0-0.4,0.1-0.6,0.2c-0.2,0.1-0.3,0.3-0.4,0.4c-0.1,0.2-0.2,0.4-0.2,0.6
			c0,0.2,0,0.4,0.1,0.6c0.1,0.2,0.2,0.3,0.4,0.5c0.2,0.1,0.4,0.3,0.6,0.4c0.2,0.1,0.5,0.3,0.8,0.4c0.3,0.2,0.6,0.3,0.9,0.5
			c0.3,0.2,0.5,0.4,0.8,0.6c0.2,0.2,0.4,0.5,0.5,0.7s0.2,0.6,0.2,0.9c0,0.4-0.1,0.8-0.3,1.1c-0.2,0.3-0.4,0.6-0.7,0.8
			c-0.3,0.2-0.6,0.3-1,0.4c-0.4,0.1-0.8,0.1-1.2,0.1c-0.1,0-0.3,0-0.5,0c-0.2,0-0.4-0.1-0.6-0.1c-0.2,0-0.4-0.1-0.6-0.2
			S276.8,1692.7,276.7,1692.6z"/>
	</g>
	<g class="st0">
		<path class="st1" d="M92.5,1312.5c-0.1-0.1-0.1-0.2-0.1-0.4v-14.4c0-0.2,0-0.3,0.1-0.4s0.2-0.1,0.4-0.1h9c0.2,0,0.3,0,0.4,0.1
			c0.1,0.1,0.1,0.2,0.1,0.4v0.8c0,0.1,0,0.3-0.1,0.4c-0.1,0.1-0.2,0.1-0.4,0.1h-7.5v4.9h7c0.2,0,0.3,0,0.4,0.1s0.1,0.2,0.1,0.4v0.7
			c0,0.1,0,0.3-0.1,0.4s-0.2,0.1-0.4,0.1h-7v5.1h7.7c0.2,0,0.3,0,0.4,0.1c0.1,0.1,0.1,0.2,0.1,0.4v0.8c0,0.1-0.1,0.3-0.2,0.4
			c-0.1,0.1-0.2,0.1-0.4,0.1h-9.2C92.8,1312.7,92.6,1312.6,92.5,1312.5z"/>
		<path class="st1" d="M107.5,1312.3c-0.9-0.4-1.6-0.9-2-1.5c-0.5-0.6-0.7-1.3-0.7-2c0-0.1,0-0.2,0.1-0.3s0.2-0.1,0.3-0.1h1.1
			c0.3,0,0.4,0.1,0.6,0.4c0.1,0.6,0.5,1.1,1.1,1.6c0.6,0.4,1.5,0.7,2.7,0.7c1.2,0,2.2-0.2,2.8-0.7c0.6-0.4,0.9-1,0.9-1.8
			c0-0.5-0.2-0.9-0.5-1.2c-0.3-0.3-0.7-0.6-1.3-0.8c-0.6-0.2-1.5-0.5-2.7-0.9c-1.1-0.3-2-0.7-2.7-1c-0.7-0.4-1.2-0.8-1.5-1.4
			c-0.3-0.5-0.5-1.2-0.5-2c0-0.8,0.2-1.5,0.6-2.1c0.4-0.6,1-1.1,1.8-1.5c0.8-0.4,1.8-0.5,2.9-0.5c1.1,0,2.1,0.2,2.9,0.6
			s1.4,0.9,1.9,1.5s0.7,1.2,0.7,1.8c0,0.1,0,0.2-0.1,0.3s-0.2,0.1-0.3,0.1h-1.1c-0.1,0-0.2,0-0.3-0.1s-0.2-0.2-0.2-0.3
			c-0.1-0.6-0.4-1.2-1.1-1.6c-0.6-0.4-1.4-0.6-2.3-0.6c-1,0-1.8,0.2-2.4,0.6c-0.6,0.4-0.9,1-0.9,1.7c0,0.5,0.1,0.9,0.4,1.3
			s0.7,0.6,1.3,0.9c0.6,0.2,1.4,0.5,2.5,0.9c1.2,0.4,2.2,0.7,2.9,1.1c0.7,0.4,1.2,0.8,1.6,1.3s0.5,1.2,0.5,2c0,1.4-0.5,2.5-1.6,3.2
			c-1,0.8-2.5,1.2-4.3,1.2C109.4,1312.9,108.4,1312.7,107.5,1312.3z"/>
		<path class="st1" d="M119.5,1312.5c-0.1-0.1-0.1-0.2-0.1-0.4v-14.4c0-0.2,0-0.3,0.1-0.4s0.2-0.1,0.4-0.1h5.6c1.7,0,3,0.4,3.9,1.2
			c0.9,0.8,1.4,2,1.4,3.5s-0.5,2.7-1.4,3.5c-0.9,0.8-2.2,1.2-3.9,1.2h-4v5.5c0,0.1,0,0.3-0.1,0.4c-0.1,0.1-0.2,0.1-0.4,0.1h-1.1
			C119.7,1312.7,119.6,1312.6,119.5,1312.5z M125.3,1304.8c2.2,0,3.3-1,3.3-2.9c0-0.9-0.3-1.7-0.8-2.2c-0.5-0.5-1.4-0.7-2.5-0.7
			h-3.9v5.8H125.3z"/>
		<path class="st1" d="M133.6,1312.5c-0.1-0.1-0.1-0.2-0.1-0.4v-14.4c0-0.2,0-0.3,0.1-0.4s0.2-0.1,0.4-0.1h9c0.2,0,0.3,0,0.4,0.1
			c0.1,0.1,0.1,0.2,0.1,0.4v0.8c0,0.1,0,0.3-0.1,0.4c-0.1,0.1-0.2,0.1-0.4,0.1h-7.5v4.9h7c0.2,0,0.3,0,0.4,0.1s0.1,0.2,0.1,0.4v0.7
			c0,0.1,0,0.3-0.1,0.4s-0.2,0.1-0.4,0.1h-7v5.1h7.7c0.2,0,0.3,0,0.4,0.1c0.1,0.1,0.1,0.2,0.1,0.4v0.8c0,0.1-0.1,0.3-0.2,0.4
			c-0.1,0.1-0.2,0.1-0.4,0.1H134C133.8,1312.7,133.7,1312.6,133.6,1312.5z"/>
		<path class="st1" d="M147.7,1311.3c-1-1.1-1.6-2.5-1.6-4.4c0-0.4,0-1,0-1.9c0-0.9,0-1.6,0-2c0.1-1.8,0.6-3.3,1.6-4.4
			c1-1.1,2.5-1.6,4.5-1.6c1.3,0,2.4,0.2,3.3,0.7s1.6,1.1,2.1,1.8s0.7,1.5,0.8,2.4c0,0.1,0,0.2-0.1,0.3c-0.1,0.1-0.2,0.1-0.3,0.1
			h-1.1c-0.1,0-0.3,0-0.4-0.1c-0.1-0.1-0.2-0.2-0.2-0.4c-0.2-1.1-0.7-1.9-1.4-2.4c-0.7-0.5-1.5-0.7-2.7-0.7c-2.6,0-3.9,1.4-4,4.3
			c0,0.4,0,1,0,1.8s0,1.4,0,1.9c0.1,2.8,1.4,4.2,4,4.2c1.1,0,2-0.2,2.6-0.7c0.7-0.5,1.1-1.2,1.4-2.4c0-0.2,0.1-0.3,0.2-0.4
			c0.1-0.1,0.2-0.1,0.4-0.1h1.1c0.1,0,0.2,0,0.3,0.1c0.1,0.1,0.1,0.2,0.1,0.3c0,0.9-0.3,1.6-0.8,2.4s-1.1,1.4-2.1,1.8
			s-2,0.7-3.3,0.7C150.2,1312.9,148.7,1312.3,147.7,1311.3z"/>
		<path class="st1" d="M161.4,1312.5c-0.1-0.1-0.1-0.2-0.1-0.4v-14.4c0-0.1,0-0.3,0.1-0.4s0.2-0.1,0.4-0.1h1.1c0.2,0,0.3,0,0.4,0.1
			c0.1,0.1,0.1,0.2,0.1,0.4v14.4c0,0.1,0,0.3-0.1,0.4c-0.1,0.1-0.2,0.1-0.4,0.1h-1.1C161.6,1312.7,161.5,1312.6,161.4,1312.5z"/>
		<path class="st1" d="M165.8,1312.5c-0.1-0.1-0.1-0.2-0.1-0.3l0-0.2l5.5-14.2c0.1-0.3,0.4-0.5,0.7-0.5h1.4c0.4,0,0.6,0.2,0.7,0.5
			l5.5,14.2l0,0.2c0,0.1,0,0.2-0.1,0.3c-0.1,0.1-0.2,0.1-0.3,0.1h-1c-0.1,0-0.3,0-0.4-0.1c-0.1-0.1-0.2-0.2-0.2-0.3l-1.2-3.2H169
			l-1.2,3.2c-0.1,0.3-0.3,0.4-0.5,0.4h-1.1C166,1312.7,165.9,1312.6,165.8,1312.5z M169.6,1307.3h6l-3-7.9L169.6,1307.3z"/>
		<path class="st1" d="M182,1312.5c-0.1-0.1-0.1-0.2-0.1-0.4v-14.4c0-0.1,0-0.3,0.1-0.4s0.2-0.1,0.4-0.1h1.1c0.1,0,0.3,0,0.4,0.1
			s0.1,0.2,0.1,0.4v13h7.3c0.2,0,0.3,0,0.4,0.1c0.1,0.1,0.1,0.2,0.1,0.4v0.8c0,0.1-0.1,0.3-0.2,0.4c-0.1,0.1-0.2,0.1-0.4,0.1h-8.9
			C182.2,1312.7,182.1,1312.6,182,1312.5z"/>
		<path class="st1" d="M194.4,1312.5c-0.1-0.1-0.1-0.2-0.1-0.4v-14.4c0-0.1,0-0.3,0.1-0.4s0.2-0.1,0.4-0.1h1.1c0.2,0,0.3,0,0.4,0.1
			c0.1,0.1,0.1,0.2,0.1,0.4v14.4c0,0.1,0,0.3-0.1,0.4c-0.1,0.1-0.2,0.1-0.4,0.1h-1.1C194.6,1312.7,194.5,1312.6,194.4,1312.5z"/>
		<path class="st1" d="M202,1312.3c-0.9-0.4-1.6-0.9-2-1.5c-0.5-0.6-0.7-1.3-0.7-2c0-0.1,0-0.2,0.1-0.3s0.2-0.1,0.3-0.1h1.1
			c0.3,0,0.4,0.1,0.6,0.4c0.1,0.6,0.5,1.1,1.1,1.6c0.6,0.4,1.5,0.7,2.7,0.7c1.2,0,2.2-0.2,2.8-0.7c0.6-0.4,0.9-1,0.9-1.8
			c0-0.5-0.2-0.9-0.5-1.2c-0.3-0.3-0.7-0.6-1.3-0.8s-1.5-0.5-2.7-0.9c-1.1-0.3-2-0.7-2.7-1c-0.7-0.4-1.2-0.8-1.5-1.4
			c-0.3-0.5-0.5-1.2-0.5-2c0-0.8,0.2-1.5,0.6-2.1c0.4-0.6,1-1.1,1.8-1.5c0.8-0.4,1.8-0.5,2.9-0.5c1.1,0,2.1,0.2,2.9,0.6
			c0.8,0.4,1.4,0.9,1.9,1.5c0.4,0.6,0.7,1.2,0.7,1.8c0,0.1,0,0.2-0.1,0.3s-0.2,0.1-0.3,0.1h-1.1c-0.1,0-0.2,0-0.3-0.1
			s-0.2-0.2-0.2-0.3c-0.1-0.6-0.4-1.2-1.1-1.6c-0.6-0.4-1.4-0.6-2.3-0.6c-1,0-1.8,0.2-2.4,0.6c-0.6,0.4-0.9,1-0.9,1.7
			c0,0.5,0.1,0.9,0.4,1.3s0.7,0.6,1.3,0.9c0.6,0.2,1.4,0.5,2.5,0.9c1.2,0.4,2.2,0.7,2.9,1.1c0.7,0.4,1.2,0.8,1.6,1.3
			c0.4,0.5,0.5,1.2,0.5,2c0,1.4-0.5,2.5-1.6,3.2c-1,0.8-2.5,1.2-4.3,1.2C203.9,1312.9,202.9,1312.7,202,1312.3z"/>
		<path class="st1" d="M217.2,1312.5c-0.1-0.1-0.1-0.2-0.1-0.4v-13h-4.2c-0.1,0-0.3,0-0.4-0.1c-0.1-0.1-0.1-0.2-0.1-0.4v-0.9
			c0-0.2,0-0.3,0.1-0.4c0.1-0.1,0.2-0.1,0.4-0.1h10.6c0.2,0,0.3,0,0.4,0.1c0.1,0.1,0.1,0.2,0.1,0.4v0.9c0,0.1,0,0.3-0.1,0.4
			c-0.1,0.1-0.2,0.1-0.4,0.1h-4.2v13c0,0.1-0.1,0.3-0.2,0.4c-0.1,0.1-0.2,0.1-0.4,0.1h-1.1C217.4,1312.7,217.3,1312.6,217.2,1312.5z
			"/>
		<path class="st1" d="M223.4,1312.5c-0.1-0.1-0.1-0.2-0.1-0.3l0-0.2l5.5-14.2c0.1-0.3,0.4-0.5,0.7-0.5h1.4c0.4,0,0.6,0.2,0.7,0.5
			l5.5,14.2l0,0.2c0,0.1,0,0.2-0.1,0.3c-0.1,0.1-0.2,0.1-0.3,0.1h-1c-0.1,0-0.3,0-0.4-0.1c-0.1-0.1-0.2-0.2-0.2-0.3l-1.2-3.2h-7.3
			l-1.2,3.2c-0.1,0.3-0.3,0.4-0.5,0.4h-1.1C223.6,1312.7,223.5,1312.6,223.4,1312.5z M227.1,1307.3h6l-3-7.9L227.1,1307.3z"/>
		<path class="st1" d="M241,1312.3c-0.9-0.4-1.6-0.9-2-1.5c-0.5-0.6-0.7-1.3-0.7-2c0-0.1,0-0.2,0.1-0.3s0.2-0.1,0.3-0.1h1.1
			c0.3,0,0.4,0.1,0.5,0.4c0.1,0.6,0.5,1.1,1.1,1.6c0.6,0.4,1.5,0.7,2.7,0.7c1.2,0,2.2-0.2,2.8-0.7c0.6-0.4,0.9-1,0.9-1.8
			c0-0.5-0.2-0.9-0.5-1.2c-0.3-0.3-0.7-0.6-1.3-0.8c-0.6-0.2-1.5-0.5-2.7-0.9c-1.1-0.3-2-0.7-2.7-1c-0.7-0.4-1.2-0.8-1.5-1.4
			c-0.3-0.5-0.5-1.2-0.5-2c0-0.8,0.2-1.5,0.6-2.1c0.4-0.6,1-1.1,1.8-1.5s1.8-0.5,2.9-0.5c1.1,0,2.1,0.2,2.9,0.6
			c0.8,0.4,1.4,0.9,1.9,1.5c0.4,0.6,0.7,1.2,0.7,1.8c0,0.1,0,0.2-0.1,0.3s-0.2,0.1-0.3,0.1h-1.1c-0.1,0-0.2,0-0.3-0.1
			s-0.2-0.2-0.2-0.3c-0.1-0.6-0.4-1.2-1.1-1.6c-0.6-0.4-1.4-0.6-2.3-0.6c-1,0-1.8,0.2-2.4,0.6c-0.6,0.4-0.9,1-0.9,1.7
			c0,0.5,0.1,0.9,0.4,1.3s0.7,0.6,1.3,0.9c0.6,0.2,1.4,0.5,2.5,0.9c1.2,0.4,2.2,0.7,2.9,1.1c0.7,0.4,1.2,0.8,1.6,1.3
			c0.4,0.5,0.5,1.2,0.5,2c0,1.4-0.5,2.5-1.6,3.2c-1,0.8-2.5,1.2-4.3,1.2C242.9,1312.9,241.9,1312.7,241,1312.3z"/>
	</g>
	<rect id="Rectángulo_5903" x="80.2" y="1320.2" class="st2" width="180.8" height="1.9"/>
	<rect id="Rectángulo_5904" x="155.2" y="1624.1" class="st2" width="8.8" height="2.9"/>
	<path id="Trazado_3878" class="st3" d="M155.5,1585.4c39.5,0.5,76.5-13.7,104.2-45c15.8-17.8,32.3-36.9,34.6-60.6
		c3.1-31.4-18.1-63.1-47.8-73.7s-65.2-0.3-85.8,23.6c-13.2,15.3-24.8,37.7-45,37.1c-16.5-0.4-28.2-16.9-44.1-21.2
		c-19.5-5.4-40.5,10.3-45.5,29.8s3,40.6,16,56c8.1,9.5,17.8,17.3,28.2,24.4c15.1,10.4,31.8,18.1,49.5,22.8
		C130.4,1581.5,145.5,1585.2,155.5,1585.4z"/>
	<g id="Grupo_5020" transform="translate(69.232 1346)">
		<g id="Grupo_4801" transform="translate(126.876 61.259)">
			<g id="Grupo_4800">
				<g id="Grupo_4799">
					<g id="Grupo_4797" transform="translate(12.042 22.666)">
						<g id="Grupo_4796">
							<path id="Trazado_3269" class="st4" d="M0,0.9L1.6,0l0,0L0,0.9L0,0.9L0,0.9z"/>
						</g>
					</g>
					<path id="Trazado_3270" class="st4" d="M19.3,9.1L4.1,0.3C3.6,0,2.9-0.1,2.3,0.2L0.8,1.1c0.6-0.3,1.3-0.2,1.8,0.2L17.8,10
						c1.5,1,2.5,2.6,2.6,4.4l0,10.9c0.1,0.6-0.2,1.3-0.8,1.6l1.5-0.9c0.5-0.4,0.8-1,0.8-1.6l0-10.9C21.8,11.7,20.8,10.1,19.3,9.1z"
						/>
					<g id="Grupo_4798" transform="translate(0 0.893)">
						<path id="Trazado_3271" class="st5" d="M5.2,18.7l0.4,0.2l0,0L5.2,18.7z"/>
						<path id="Trazado_3272" class="st5" d="M12.1,22.7l0.9,0.5L12.1,22.7z"/>
						<path id="Trazado_3273" class="st6" d="M17.8,9.1L2.6,0.4C1.2-0.5,0,0.2,0,1.8l0,10.9c0.1,1.8,1,3.4,2.6,4.4l2.7,1.5l-0.1-0.1
							l0.1,0.1l0.4,0.2l0,0l6.4,3.7l0,0l0.9,0.5l0.1,0l-0.1,0l4.8,2.8c1.4,0.8,2.6,0.2,2.6-1.5l0-10.9C20.2,11.7,19.3,10.1,17.8,9.1
							z"/>
					</g>
				</g>
			</g>
		</g>
		<g id="Grupo_4803" transform="translate(107.694)" class="st7">
			<path id="Trazado_3274" class="st8" d="M29.9,38.1L0.2,21.2C0.1,21.1,0,21,0,20.9V0.1C0,0,0.1,0,0.2,0l29.7,16.9
				C30,17,30,17.1,30,17.2V38C30,38.1,30,38.1,29.9,38.1z"/>
			<path id="Trazado_3275" class="st9" d="M28.7,36.7L1.3,21.1c-0.1,0-0.1-0.1-0.1-0.2V3.3c0-0.1,0.1-0.1,0.1-0.1l27.4,15.6
				c0.1,0,0.1,0.1,0.1,0.2v17.5C28.9,36.7,28.8,36.7,28.7,36.7z"/>
			<g id="Grupo_4802" transform="translate(3.124 7.094)">
				<path id="Trazado_3276" class="st8" d="M20.3,12.3L0,0.7V0l20.3,11.6V12.3z"/>
				<path id="Trazado_3277" class="st8" d="M12.4,10.2L0,3.1V2.4l12.4,7.1V10.2z"/>
				<path id="Trazado_3278" class="st8" d="M1.2,5.5L0,4.8V4l1.2,0.7V5.5z"/>
				<path id="Trazado_3279" class="st10" d="M3.2,6.6L2,5.9V5.2l1.2,0.7V6.6z"/>
				<path id="Trazado_3280" class="st4" d="M7.2,12.2L2,9.3V8.5l5.2,3V12.2z"/>
				<path id="Trazado_3281" class="st4" d="M7.2,13.9l-5.2-3v-0.7l5.2,3V13.9z"/>
				<path id="Trazado_3282" class="st4" d="M21.5,22l-2-1.2v-0.7l2,1.2V22z"/>
				<path id="Trazado_3283" class="st4" d="M7.2,15.6l-5.2-3v-0.7l5.2,3V15.6z"/>
				<path id="Trazado_3284" class="st4" d="M21.5,23.7l-5.2-3V20l5.2,3V23.7z"/>
				<path id="Trazado_3285" class="st4" d="M7.2,17.2l-5.2-3v-0.7l5.2,3V17.2z"/>
				<path id="Trazado_3286" class="st4" d="M21.5,25.4l-11-6.3v-0.7l11,6.3V25.4z"/>
				<path id="Trazado_3287" class="st10" d="M5.3,7.8L4.1,7.1V6.4l1.2,0.7V7.8z"/>
				<path id="Trazado_3288" class="st10" d="M7.3,9L6.1,8.3V7.5l1.2,0.7V9z"/>
				<path id="Trazado_3289" class="st10" d="M21.5,8.5L20.6,8c-0.1,0-0.1-0.1-0.1-0.2V7.3c0-0.1,0.1-0.1,0.1-0.1l0.9,0.5
					c0.1,0,0.1,0.1,0.1,0.2v0.4C21.7,8.6,21.6,8.6,21.5,8.5z"/>
				<path id="Trazado_3290" class="st10" d="M23.6,9.7l-0.9-0.5c-0.1,0-0.1-0.1-0.1-0.2V8.5c0-0.1,0.1-0.1,0.1-0.1L23.6,9
					c0.1,0,0.1,0.1,0.1,0.2v0.4C23.7,9.7,23.7,9.8,23.6,9.7z"/>
				<path id="Trazado_3291" class="st10" d="M25.6,10.9l-0.9-0.5c-0.1,0-0.1-0.1-0.1-0.2V9.7c0-0.1,0.1-0.1,0.1-0.1l0.9,0.5
					c0.1,0,0.1,0.1,0.1,0.2v0.4C25.8,10.9,25.7,10.9,25.6,10.9z"/>
				<path id="Trazado_3292" class="st10" d="M9.5,10.2L8.3,9.5V8.8l1.2,0.7V10.2z"/>
				<path id="Trazado_3293" class="st10" d="M16.9,14.4l-6.5-3.7V10l6.5,3.7V14.4z"/>
				<path id="Trazado_3294" class="st8" d="M1.2,7.2L0,6.5V5.7l1.2,0.7V7.2z"/>
				<path id="Trazado_3295" class="st6" d="M21.1,18.5L2,7.6V6.9l19,10.8V18.5z"/>
				<path id="Trazado_3296" class="st8" d="M1.2,8.8L0,8.1V7.4l1.2,0.7V8.8z"/>
				<path id="Trazado_3297" class="st8" d="M1.2,10.5L0,9.8V9.1l1.2,0.7V10.5z"/>
				<path id="Trazado_3298" class="st8" d="M16.9,12.7l-2.6-1.5v-0.7l2.6,1.5V12.7z"/>
				<path id="Trazado_3299" class="st8" d="M22.9,13.8l-1.7-1v-0.7l1.7,1V13.8z"/>
				<path id="Trazado_3300" class="st6" d="M23.8,20l-1.7-1v-0.7l1.7,1V20z"/>
			</g>
		</g>
		<g id="Grupo_4805" transform="translate(0 29.547)" class="st7">
			<path id="Trazado_3301" class="st8" d="M0.2,38.1l29.7-16.9C30,21.1,30,21,30,20.9V0.1C30,0,30,0,29.9,0L0.2,16.9
				C0.1,17,0,17.1,0,17.2V38C0,38.1,0.1,38.1,0.2,38.1z"/>
			<path id="Trazado_3302" class="st9" d="M1.3,36.7l27.4-15.6c0.1,0,0.1-0.1,0.1-0.2V3.3c0-0.1-0.1-0.1-0.1-0.1L1.3,18.8
				c-0.1,0-0.1,0.1-0.1,0.2v17.5C1.2,36.7,1.2,36.7,1.3,36.7z"/>
			<g id="Grupo_4804" transform="translate(1.128 7.094)">
				<path id="Trazado_3303" class="st8" d="M5.5,12.3L25.8,0.7V0L5.5,11.6V12.3z"/>
				<path id="Trazado_3304" class="st8" d="M13.4,10.2l12.4-7.1V2.4L13.4,9.5V10.2z"/>
				<path id="Trazado_3305" class="st8" d="M24.6,5.5l1.2-0.7V4l-1.2,0.7V5.5z"/>
				<path id="Trazado_3306" class="st10" d="M22.6,6.6l1.2-0.7V5.2l-1.2,0.7V6.6z"/>
				<path id="Trazado_3307" class="st4" d="M18.6,12.2l5.2-3V8.5l-5.2,3V12.2z"/>
				<path id="Trazado_3308" class="st4" d="M18.6,13.9l5.2-3v-0.7l-5.2,3V13.9z"/>
				<path id="Trazado_3309" class="st4" d="M4.3,22l2-1.2v-0.7l-2,1.2V22z"/>
				<path id="Trazado_3310" class="st4" d="M18.6,15.6l5.2-3v-0.7l-5.2,3V15.6z"/>
				<path id="Trazado_3311" class="st4" d="M4.3,23.7l5.2-3V20l-5.2,3V23.7z"/>
				<path id="Trazado_3312" class="st4" d="M18.6,17.2l5.2-3v-0.7l-5.2,3V17.2z"/>
				<path id="Trazado_3313" class="st4" d="M4.3,25.4l11-6.3v-0.7l-11,6.3V25.4z"/>
				<path id="Trazado_3314" class="st10" d="M20.5,7.8l1.2-0.7V6.4l-1.2,0.7V7.8z"/>
				<path id="Trazado_3315" class="st10" d="M18.4,9l1.2-0.7V7.5l-1.2,0.7V9z"/>
				<path id="Trazado_3316" class="st10" d="M4.3,8.5L5.2,8c0.1,0,0.1-0.1,0.1-0.2V7.3c0-0.1-0.1-0.1-0.1-0.1L4.3,7.8
					C4.2,7.9,4.1,7.9,4.1,8v0.4C4.1,8.6,4.2,8.6,4.3,8.5z"/>
				<path id="Trazado_3317" class="st10" d="M2.2,9.7l0.9-0.5c0.1,0,0.1-0.1,0.1-0.2V8.5c0-0.1-0.1-0.1-0.1-0.1L2.2,9
					C2.1,9,2.1,9.1,2.1,9.2v0.4C2.1,9.7,2.1,9.8,2.2,9.7z"/>
				<path id="Trazado_3318" class="st10" d="M0.1,10.9l0.9-0.5c0.1,0,0.1-0.1,0.1-0.2V9.7c0-0.1-0.1-0.1-0.1-0.1l-0.9,0.5
					c-0.1,0-0.1,0.1-0.1,0.2v0.4C0,10.9,0.1,10.9,0.1,10.9z"/>
				<path id="Trazado_3319" class="st10" d="M16.3,10.2l1.2-0.7V8.8l-1.2,0.7V10.2z"/>
				<path id="Trazado_3320" class="st10" d="M8.9,14.4l6.5-3.7V10l-6.5,3.7V14.4z"/>
				<path id="Trazado_3321" class="st8" d="M24.6,7.2l1.2-0.7V5.7l-1.2,0.7V7.2z"/>
				<path id="Trazado_3322" class="st6" d="M4.7,18.5l19-10.8V6.9l-19,10.8V18.5z"/>
				<path id="Trazado_3323" class="st8" d="M24.6,8.8l1.2-0.7V7.4l-1.2,0.7V8.8z"/>
				<path id="Trazado_3324" class="st8" d="M24.6,10.5l1.2-0.7V9.1l-1.2,0.7V10.5z"/>
				<path id="Trazado_3325" class="st8" d="M8.9,12.7l2.6-1.5v-0.7L8.9,12V12.7z"/>
				<path id="Trazado_3326" class="st8" d="M2.9,13.8l1.7-1v-0.7l-1.7,1V13.8z"/>
				<path id="Trazado_3327" class="st6" d="M2,20l1.7-1v-0.7l-1.7,1V20z"/>
			</g>
		</g>
		<g id="Grupo_4807" transform="translate(155.059 9.873)" class="st7">
			<path id="Trazado_3328" class="st8" d="M43.6,55.5L0.2,30.9C0.1,30.8,0,30.6,0,30.5V0.1C0,0,0.1,0,0.2,0l43.3,24.7
				c0.1,0.1,0.2,0.2,0.2,0.4v30.3C43.8,55.6,43.7,55.6,43.6,55.5z"/>
			<path id="Trazado_3329" class="st9" d="M41.9,53.5l-40-22.8c-0.1-0.1-0.2-0.2-0.2-0.3V4.8c0-0.1,0.1-0.2,0.2-0.1l40,22.8
				c0.1,0.1,0.2,0.2,0.2,0.3v25.6C42.1,53.5,42,53.6,41.9,53.5z"/>
			<g id="Grupo_4806" transform="translate(4.558 10.347)">
				<path id="Trazado_3330" class="st8" d="M29.6,17.9L0,1.1V0l29.6,16.9V17.9z"/>
				<path id="Trazado_3331" class="st8" d="M18.1,14.9L0,4.6V3.5l18.1,10.3V14.9z"/>
				<path id="Trazado_3332" class="st8" d="M1.8,8L0,7V5.9l1.8,1V8z"/>
				<path id="Trazado_3333" class="st10" d="M4.7,9.7l-1.8-1V7.6l1.8,1V9.7z"/>
				<path id="Trazado_3334" class="st4" d="M10.5,17.8l-7.6-4.3v-1.1l7.6,4.3V17.8z"/>
				<path id="Trazado_3335" class="st4" d="M10.5,20.3L2.9,16v-1.1l7.6,4.3V20.3z"/>
				<path id="Trazado_3336" class="st4" d="M31.3,32.1l-2.9-1.7v-1.1l2.9,1.7V32.1z"/>
				<path id="Trazado_3337" class="st4" d="M10.5,22.7l-7.6-4.3v-1.1l7.6,4.3V22.7z"/>
				<path id="Trazado_3338" class="st4" d="M31.3,34.6l-7.6-4.3v-1.1l7.6,4.3V34.6z"/>
				<path id="Trazado_3339" class="st4" d="M10.5,25.1l-7.6-4.3v-1.1l7.6,4.3V25.1z"/>
				<path id="Trazado_3340" class="st4" d="M31.3,37l-16-9.1v-1.1l16,9.1V37z"/>
				<path id="Trazado_3341" class="st10" d="M7.7,11.4l-1.8-1V9.3l1.8,1V11.4z"/>
				<path id="Trazado_3342" class="st10" d="M10.7,13.1l-1.8-1V11l1.8,1V13.1z"/>
				<path id="Trazado_3343" class="st10" d="M31.4,12.5L30,11.7c-0.1-0.1-0.2-0.2-0.2-0.3v-0.7c0-0.1,0.1-0.2,0.2-0.1l1.3,0.8
					c0.1,0.1,0.2,0.2,0.2,0.3v0.7C31.6,12.5,31.5,12.5,31.4,12.5z"/>
				<path id="Trazado_3344" class="st10" d="M34.4,14.2L33,13.4c-0.1-0.1-0.2-0.2-0.2-0.3v-0.7c0-0.1,0.1-0.2,0.2-0.1l1.3,0.8
					c0.1,0.1,0.2,0.2,0.2,0.3v0.7C34.6,14.2,34.5,14.2,34.4,14.2z"/>
				<path id="Trazado_3345" class="st10" d="M37.4,15.9L36,15.1c-0.1-0.1-0.2-0.2-0.2-0.3v-0.7c0-0.1,0.1-0.2,0.2-0.1l1.3,0.8
					c0.1,0.1,0.2,0.2,0.2,0.3v0.7C37.6,15.9,37.5,15.9,37.4,15.9z"/>
				<path id="Trazado_3346" class="st10" d="M13.9,14.9l-1.8-1v-1.1l1.8,1V14.9z"/>
				<path id="Trazado_3347" class="st10" d="M24.6,21l-9.5-5.4v-1.1l9.5,5.4V21z"/>
				<path id="Trazado_3348" class="st8" d="M1.8,10.4L0,9.4V8.3l1.8,1V10.4z"/>
				<path id="Trazado_3349" class="st6" d="M30.7,26.9L2.9,11.1V10l27.8,15.8V26.9z"/>
				<path id="Trazado_3350" class="st8" d="M1.8,12.9l-1.8-1v-1.1l1.8,1V12.9z"/>
				<path id="Trazado_3351" class="st8" d="M1.8,15.3l-1.8-1v-1.1l1.8,1V15.3z"/>
				<path id="Trazado_3352" class="st8" d="M24.6,18.6l-3.7-2.1v-1.1l3.7,2.1V18.6z"/>
				<path id="Trazado_3353" class="st8" d="M33.4,20.1l-2.4-1.4v-1.1l2.4,1.4V20.1z"/>
				<path id="Trazado_3354" class="st6" d="M34.7,29.2l-2.4-1.4v-1.1l2.4,1.4V29.2z"/>
			</g>
		</g>
		<g id="Grupo_4808" transform="translate(67.151 130.733)">
			<path id="Trazado_3355" class="st1" d="M23.4,44L23.4,44c0,0-0.3-3.4-11.4-0.5l-10.7,3c-1.3,2.8-1.6,6-0.9,9.1
				c0.1,0.6,0.5,1.1,1.1,1.5l1.9,1.1c0.7,0.4,1.5,0.4,2.2,0L9,56.1c0.3-0.2,0.5-0.4,0.7-0.7c0.8-1.3,2.5-1.5,4.9-2.1
				c0.2,0,0.4-0.1,0.6-0.1c0.1,0,0.2,0,0.3-0.1c0.3-0.1,0.5-0.2,0.8-0.3c2.9-1.1,4.2-3,5.9-5.3C23.4,45.8,23.7,44.7,23.4,44z"/>
			<path id="Trazado_3356" class="st11" d="M0.7,46.8c0,1.5,0.9,2.9,2.2,3.6c1.1,0.5,2.4,0.9,3.6,1c2.2,0.1,4.3-0.4,6.2-1.5
				c1.8-1.2,2.9-3.2,2.9-5.4l-0.2-33.8C15.8,0.5,9,0.5,4.6,0.1C0-0.4,0.7,1.2,0.7,5.8L0.7,46.8z"/>
			<path id="Trazado_3357" class="st1" d="M38,53.1L38,53.1c0,0-0.3-3.4-11.4-0.5l-10.7,3c-1.3,2.8-1.6,6-0.9,9.1
				c0.1,0.6,0.5,1.1,1.1,1.5l1.9,1.1c0.7,0.4,1.5,0.4,2.2,0l3.5-2.1c0.3-0.2,0.5-0.4,0.7-0.7c0.8-1.3,2.5-1.5,4.9-2.1
				c0.2,0,0.4-0.1,0.6-0.1c0.1,0,0.2,0,0.3-0.1c0.3-0.1,0.5-0.2,0.8-0.3c2.9-1.1,4.2-3,5.9-5.3C38,54.9,38.3,53.8,38,53.1z"/>
			<path id="Trazado_3358" class="st11" d="M15.3,55.9c0,1.5,0.9,2.9,2.2,3.6c1.1,0.5,2.4,0.9,3.6,1c2.2,0.1,4.3-0.4,6.2-1.5
				c1.8-1.2,2.9-3.2,2.9-5.4L30,19.6C30.4,9.6,23.6,9.6,19.2,9.2c-4.7-0.5-3.9,1.1-3.9,5.8L15.3,55.9z"/>
		</g>
		<g id="Grupo_4827" transform="translate(0.992 60.229)">
			<g id="Grupo_4813" transform="translate(113.36 74.865)">
				<g id="Grupo_4812">
					<g id="Grupo_4809" transform="translate(3.732 2.154)">
						<path id="Trazado_3359" class="st1" d="M0.1,2.5L4.5,0L4.4,67.2L0,69.8L0.1,2.5z"/>
					</g>
					<g id="Grupo_4810" transform="translate(0.088)">
						<path id="Trazado_3360" class="st12" d="M0,2.5L4.4,0l3.7,2.2L3.7,4.7L0,2.5z"/>
					</g>
					<g id="Grupo_4811" transform="translate(0 2.537)">
						<path id="Trazado_3361" class="st1" d="M3.8,2.2L3.7,69.4L0,67.2L0.1,0L3.8,2.2z"/>
					</g>
				</g>
			</g>
			<g id="Grupo_4818" transform="translate(158.492 65.249)">
				<g id="Grupo_4817">
					<g id="Grupo_4814" transform="translate(3.732 2.154)">
						<path id="Trazado_3362" class="st1" d="M0.1,2.5L4.5,0L4.4,50.7L0,53.3L0.1,2.5z"/>
					</g>
					<g id="Grupo_4815" transform="translate(0.088)">
						<path id="Trazado_3363" class="st12" d="M0,2.5L4.4,0l3.7,2.2L3.7,4.7L0,2.5z"/>
					</g>
					<g id="Grupo_4816" transform="translate(0 2.538)">
						<path id="Trazado_3364" class="st1" d="M3.8,2.2L3.7,52.9L0,50.7L0.1,0L3.8,2.2z"/>
					</g>
				</g>
			</g>
			<g id="Grupo_4823" transform="translate(11.112 33.685)">
				<g id="Grupo_4822">
					<g id="Grupo_4819" transform="translate(3.732 2.154)">
						<path id="Trazado_3365" class="st1" d="M0.1,2.5L4.5,0L4.4,50.7L0,53.3L0.1,2.5z"/>
					</g>
					<g id="Grupo_4820" transform="translate(0.088)">
						<path id="Trazado_3366" class="st12" d="M0,2.5L4.4,0l3.7,2.2L3.7,4.7L0,2.5z"/>
					</g>
					<g id="Grupo_4821" transform="translate(0 2.538)">
						<path id="Trazado_3367" class="st1" d="M3.8,2.2L3.7,52.9L0,50.7L0.1,0L3.8,2.2z"/>
					</g>
				</g>
			</g>
			<g id="Grupo_4824" transform="translate(117.994 67.825)">
				<path id="Trazado_3368" class="st13" d="M58,0l0,4.1L0,37.8l0-4.1L58,0z"/>
			</g>
			<g id="Grupo_4825" transform="translate(0 33.685)">
				<path id="Trazado_3369" class="st13" d="M118,67.8l0,4.1L0,4.1L0,0L118,67.8z"/>
			</g>
			<g id="Grupo_4826" transform="translate(0.012)">
				<path id="Trazado_3370" class="st14" d="M176,67.8l-58,33.7L0,33.7L58,0L176,67.8z"/>
			</g>
		</g>
		<g id="Grupo_4833" transform="translate(119.54 111.597)">
			<g id="Grupo_4832">
				<path id="Trazado_3371" class="st13" d="M21.6,5l-13,7.5c-0.6,0.3-1.3,0.3-1.9,0L0.4,8.8C0.2,8.7,0,8.5,0,8.3C0,8.6,0,9,0,9.3
					c0,0.2,0.2,0.5,0.4,0.6l6.3,3.6c0.6,0.3,1.3,0.3,1.9,0l13-7.5C21.8,6,22,5.8,22,5.5c0-0.4,0-0.7,0-1.1C22,4.7,21.8,4.9,21.6,5z"
					/>
				<g id="Grupo_4828" transform="translate(16.543 1.753)">
					<path id="Trazado_3372" class="st13" d="M2.3,1.1c0.1,0,0.1,0.1,0.1,0.2c0,0,0,0.1-0.1,0.1C2.2,1.4,2,1.4,1.9,1.4L0.1,0.3
						C0,0.3,0,0.2,0,0.1c0,0,0-0.1,0.1-0.1C0.2,0,0.4,0,0.5,0.1L2.3,1.1z"/>
				</g>
				<g id="Grupo_4829" transform="translate(0.006)">
					<path id="Trazado_3373" class="st15" d="M21.6,3.9C21.9,4,22.1,4.3,22,4.6c-0.1,0.2-0.2,0.3-0.4,0.4l-13,7.5
						c-0.6,0.3-1.3,0.3-1.9,0L0.4,8.8C0.1,8.7-0.1,8.4,0,8.1c0.1-0.2,0.2-0.3,0.4-0.4l13-7.5c0.6-0.3,1.3-0.3,1.9,0L21.6,3.9z
						 M9.5,11.3l10.8-6.2c0.1,0,0.2-0.2,0.1-0.3c0-0.1-0.1-0.1-0.1-0.1L14,1c-0.2-0.1-0.5-0.1-0.8,0L2.4,7.2c-0.1,0-0.2,0.2-0.1,0.3
						c0,0.1,0.1,0.1,0.1,0.1l6.3,3.7C9,11.5,9.3,11.5,9.5,11.3L9.5,11.3z M17.1,1.8c-0.1-0.1-0.3-0.1-0.4,0c-0.1,0-0.1,0.1-0.1,0.2
						c0,0,0,0.1,0.1,0.1l1.8,1.1c0.1,0.1,0.3,0.1,0.4,0C19,3.1,19,3,19,2.9c0,0,0-0.1-0.1-0.1L17.1,1.8L17.1,1.8z"/>
				</g>
				<g id="Grupo_4830" transform="translate(1.044 0.883)">
					<path id="Trazado_3374" class="st9" d="M19.3,3.8c0.1,0,0.2,0.2,0.1,0.3c0,0.1-0.1,0.1-0.1,0.1L7.4,11c-0.4,0.2-0.9,0.2-1.4,0
						L0.2,7.6C0.1,7.6,0,7.4,0,7.2C0.1,7.1,0.1,7,0.2,7l11.9-6.9c0.2-0.1,0.5-0.1,0.8,0L19.3,3.8z"/>
				</g>
				<g id="Grupo_4831" transform="translate(19.027 3.225)">
					<path id="Trazado_3375" class="st13" d="M0.5,0.3c0.1,0,0.1-0.1,0.1-0.2c0,0,0-0.1-0.1-0.1l0,0C0.4,0,0.2,0,0.1,0.1
						C0,0.1,0,0.1,0,0.2c0,0,0,0.1,0.1,0.1l0,0C0.2,0.4,0.4,0.4,0.5,0.3z"/>
				</g>
			</g>
		</g>
		<g id="Grupo_4839" transform="translate(96.096 124.221)">
			<g id="Grupo_4838">
				<path id="Trazado_3376" class="st13" d="M32.3,7.7l-19,11.1c-0.7,0.3-1.5,0.3-2.1,0L0.4,12.6C0.2,12.5,0,12.3,0,12
					c0,0.4,0,0.8,0,1.2c0,0.3,0.2,0.5,0.4,0.6L11.2,20c0.7,0.3,1.5,0.3,2.1,0l19-11.1c0.2-0.1,0.4-0.3,0.4-0.6c0-0.4,0-0.8,0-1.2
					C32.7,7.4,32.6,7.6,32.3,7.7z"/>
				<g id="Grupo_4834" transform="translate(0.007)">
					<path id="Trazado_3377" class="st15" d="M32.3,6.5c0.3,0.1,0.5,0.5,0.4,0.8c-0.1,0.2-0.2,0.3-0.4,0.4l-19,11.1
						c-0.7,0.3-1.5,0.3-2.1,0L0.4,12.6c-0.3-0.1-0.5-0.5-0.4-0.8c0.1-0.2,0.2-0.3,0.4-0.4l19-11.1c0.7-0.3,1.5-0.3,2.1,0L32.3,6.5z
						 M14.3,17.6l16.6-9.7c0.1,0,0.2-0.2,0.2-0.3c0-0.1-0.1-0.1-0.2-0.2L20.1,1.1c-0.3-0.1-0.6-0.1-0.9,0L2.7,10.8
						c-0.1,0-0.2,0.2-0.2,0.3c0,0.1,0.1,0.1,0.2,0.2l10.8,6.3C13.7,17.7,14,17.7,14.3,17.6L14.3,17.6z"/>
				</g>
				<g id="Grupo_4835" transform="translate(1.155 0.976)">
					<path id="Trazado_3378" class="st9" d="M29.7,6.4c0.1,0,0.2,0.2,0.2,0.3c0,0.1-0.1,0.1-0.2,0.2L12,17.2c-0.5,0.2-1,0.2-1.5,0
						l-10.3-6C0.1,11.2,0,11,0,10.8c0-0.1,0.1-0.2,0.2-0.2L18.1,0.1C18.4,0,18.7,0,19,0.1L29.7,6.4z"/>
				</g>
				<g id="Grupo_4836" transform="translate(23.932 2.497)">
					<path id="Trazado_3379" class="st13" d="M2.6,1.2c0.1,0,0.1,0.1,0.1,0.2c0,0,0,0.1-0.1,0.1c-0.1,0.1-0.3,0.1-0.5,0l-2-1.2
						C0,0.3,0,0.2,0,0.2c0,0,0-0.1,0.1-0.1C0.2,0,0.4,0,0.6,0.1L2.6,1.2z"/>
				</g>
				<g id="Grupo_4837" transform="translate(26.679 4.125)">
					<path id="Trazado_3380" class="st13" d="M0.6,0.3c0.1,0,0.1-0.1,0.1-0.2c0,0,0-0.1-0.1-0.1l0,0C0.4,0,0.2,0,0.1,0.1
						C0,0.1,0,0.2,0,0.2c0,0,0,0.1,0.1,0.1l0,0C0.2,0.4,0.4,0.4,0.6,0.3z"/>
				</g>
			</g>
		</g>
		<g id="Grupo_4846" transform="translate(60.627 66.99)">
			<g id="Grupo_4845">
				<path id="Trazado_3381" class="st9" d="M24.1,3c-0.5-0.3-1-0.1-1,0.6L23,24.1c0,0.7,0.4,1.3,1,1.7l32.3,18.7
					c0.6,0.3,1,0.1,1-0.6l0.1-20.5c0-0.7-0.4-1.3-1-1.7L24.1,3z"/>
				<g id="Grupo_4842" transform="translate(0 26.648)">
					<path id="Trazado_3382" class="st13" d="M0,12.6C0,12.6,0,12.6,0,12.6c0,0.1,0,0.1,0,0.1c0,0,0,0,0,0.1s0,0,0,0.1s0,0,0,0.1
						c0,0,0,0.1,0,0.1c0,0,0,0,0,0.1c0,0,0,0.1,0.1,0.1l0,0c0,0,0.1,0.1,0.1,0.1l0,0c0,0,0,0,0.1,0.1s0,0,0.1,0.1c0,0,0,0,0.1,0.1
						c0,0,0.1,0.1,0.1,0.1l12.7,7.3v-0.8l2.8-1.6l-4.1-2.4v-0.3L11.9,16l-5.5-3.2l0-1.9L9,9.4l0.6,0.3V9.1l0.9-0.5l1.7-1l3-1.7
						l0.7,0.4V5.4l2.6-1.5L19,4.3V3.6l2.6-1.5l2.7,1.5v0.6l0.5-0.3l2.7,1.5v0.6l0.5-0.3l2.7,1.5v0.6l0.5-0.3l2.7,1.6v0.6l0.5-0.3
						L37,11v0.6l0.5-0.3l2.7,1.5v0.6l0.5-0.3l2.7,1.6v0.6l0.5-0.3l2.7,1.5v0.6l0.5-0.3l2.7,1.5l0,1.9l-1.5,0.9l0.6,0.4v-0.7l2.6-1.5
						l2.7,1.6l0,1.9l-2.6,1.5L50.9,24v0.7l-2.6,1.5l-0.6-0.3v0.7L45.2,28l-0.6-0.3v0.7L42,29.8l-0.6-0.3v0.7l-2.6,1.5l-5.7-3.3V28
						l-0.3,0.2l-4.2-2.4v-0.4l-0.4,0.2l-1.5-0.9v0.7L24,27l10.4,6c0.1,0.1,0.2,0.1,0.3,0.2c0,0,0.1,0,0.1,0c0.1,0,0.2,0,0.2,0.1
						s0.1,0,0.2,0.1c0.1,0,0.2,0,0.3,0.1c0,0,0,0,0.1,0c0.1,0,0.3,0,0.4,0h0.1c0.1,0,0.3,0,0.4,0c0,0,0,0,0.1,0c0.1,0,0.2,0,0.4-0.1
						l0.1,0c0.1,0,0.2-0.1,0.3-0.1c0,0,0,0,0,0c0.1,0,0.2-0.1,0.4-0.2l19.4-11.3c0.4-0.2,0.6-0.5,0.7-1c0,0.6,0,1.3,0,1.9
						c0,0.4-0.3,0.8-0.7,1L37.7,34.9c-0.1,0.1-0.2,0.1-0.4,0.2h0c0,0,0,0,0,0c-0.1,0-0.2,0.1-0.2,0.1c0,0-0.1,0-0.1,0l-0.1,0
						c0,0,0,0-0.1,0c-0.1,0-0.2,0-0.2,0l-0.1,0c0,0,0,0-0.1,0c0,0-0.1,0-0.1,0c-0.1,0-0.2,0-0.2,0h-0.1c0,0,0,0-0.1,0
						c0,0-0.1,0-0.1,0c-0.1,0-0.2,0-0.3,0h0c0,0,0,0-0.1,0c-0.1,0-0.1,0-0.2,0c0,0-0.1,0-0.1,0c-0.1,0-0.1,0-0.2,0c0,0-0.1,0-0.1,0
						s-0.1,0-0.1,0c0,0-0.1,0-0.1,0c-0.1,0-0.2-0.1-0.3-0.2L0.7,15.5c0,0-0.1,0-0.1,0c0,0,0,0,0,0c0,0-0.1,0-0.1-0.1s0,0-0.1-0.1
						s0,0-0.1-0.1s0,0,0,0s0,0,0,0c0,0-0.1-0.1-0.1-0.1c0,0,0,0,0,0c0,0,0,0,0,0c0,0,0-0.1-0.1-0.1c0,0,0,0,0,0l0,0c0,0,0-0.1,0-0.1
						s0,0,0,0v0c0,0,0-0.1,0-0.1c0,0,0,0,0,0v0c0,0,0,0,0-0.1c0,0,0,0,0-0.1v0C0,13.9,0,13.2,0,12.6z"/>
					<g id="Grupo_4841" transform="translate(0.005)">
						<path id="Trazado_3383" class="st15" d="M0.7,11.7L20,0.4c1-0.5,2.3-0.5,3.3,0L57,19.8c0.5,0.2,0.8,0.8,0.6,1.3
							c-0.1,0.3-0.3,0.5-0.6,0.6L37.7,33c-1,0.5-2.3,0.5-3.3,0L0.7,13.6c-0.5-0.2-0.8-0.8-0.6-1.3C0.2,12,0.4,11.8,0.7,11.7z"/>
						<g id="Grupo_4840" transform="translate(7.232 2.596)">
							<path id="Trazado_3384" class="st16" d="M14,5.4l1.8,1.1l1.7-1l-1.8-1.1L14,5.4z"/>
							<path id="Trazado_3385" class="st16" d="M9.9,6.7l1.8,1.1l1.7-1l-1.8-1.1L9.9,6.7z"/>
							<path id="Trazado_3386" class="st16" d="M6.8,8.6l1.7-1L7.2,6.8l3-1.7L7.9,3.7L3.2,6.5L6.8,8.6z"/>
							<path id="Trazado_3387" class="st16" d="M16.4,8.5l-1.8-1.1l-1.7,1l1.8,1.1L16.4,8.5z"/>
							<path id="Trazado_3388" class="st16" d="M6.4,10L1.7,7.3L0,8.3L4.7,11L6.4,10z"/>
							<path id="Trazado_3389" class="st16" d="M10.8,12.6l-3.3-1.9l-1.7,1l3.3,1.9L10.8,12.6z"/>
							<path id="Trazado_3390" class="st16" d="M17.5,12.8l-1.8-1.1l-1.7,1l1.8,1.1L17.5,12.8z"/>
							<path id="Trazado_3391" class="st16" d="M16.2,1.1L14.4,0l-1.7,1l1.8,1.1L16.2,1.1z"/>
							<path id="Trazado_3392" class="st16" d="M15.8,2.8l1.8,1.1l1.7-1l-1.8-1.1L15.8,2.8z"/>
							<path id="Trazado_3393" class="st16" d="M14.5,3.7l-3.3-1.9l-1.7,1l3.3,1.9L14.5,3.7z"/>
							<path id="Trazado_3394" class="st16" d="M19,4.7l1.8,1.1l1.7-1l-1.8-1.1L19,4.7z"/>
							<path id="Trazado_3395" class="st16" d="M22.2,6.5L24,7.6l1.7-1l-1.8-1.1L22.2,6.5z"/>
							<path id="Trazado_3396" class="st16" d="M17,7.2l1.8,1.1l1.7-1l-1.8-1.1L17,7.2z"/>
							<path id="Trazado_3397" class="st16" d="M25.3,8.4l1.8,1.1l1.7-1l-1.8-1.1L25.3,8.4z"/>
							<path id="Trazado_3398" class="st16" d="M20.1,9l1.8,1.1l1.7-1L21.8,8L20.1,9z"/>
							<path id="Trazado_3399" class="st16" d="M11.6,9.3L9.7,8.3L8,9.3l1.8,1.1L11.6,9.3z"/>
							<path id="Trazado_3400" class="st16" d="M28.5,10.2l1.8,1.1l1.7-1l-1.8-1.1L28.5,10.2z"/>
							<path id="Trazado_3401" class="st16" d="M15.9,10.2l1.8,1.1l1.7-1l-1.8-1.1L15.9,10.2z"/>
							<path id="Trazado_3402" class="st16" d="M23.1,10.7l1.8,1.1l1.7-1l-1.8-1.1L23.1,10.7z"/>
							<path id="Trazado_3403" class="st16" d="M14.6,11.1L12.7,10L11,11l1.8,1.1L14.6,11.1z"/>
							<path id="Trazado_3404" class="st16" d="M18.9,11.9l1.8,1.1l1.7-1l-1.8-1.1L18.9,11.9z"/>
							<path id="Trazado_3405" class="st16" d="M31.7,12.1l1.8,1.1l1.7-1l-1.8-1.1L31.7,12.1z"/>
							<path id="Trazado_3406" class="st16" d="M26.1,12.5l1.8,1.1l1.7-1l-1.8-1.1L26.1,12.5z"/>
							<path id="Trazado_3407" class="st16" d="M21.9,13.7l1.8,1.1l1.7-1l-1.8-1.1L21.9,13.7z"/>
							<path id="Trazado_3408" class="st16" d="M34.9,13.9l1.8,1.1l1.7-1l-1.8-1.1L34.9,13.9z"/>
							<path id="Trazado_3409" class="st16" d="M29.2,14.2l1.8,1.1l1.7-1l-1.8-1.1L29.2,14.2z"/>
							<path id="Trazado_3410" class="st16" d="M20.6,14.6l-1.8-1.1l-1.7,1l1.8,1.1L20.6,14.6z"/>
							<path id="Trazado_3411" class="st16" d="M24.9,15.4l1.8,1.1l1.7-1l-1.8-1.1L24.9,15.4z"/>
							<path id="Trazado_3412" class="st16" d="M38,15.7l1.8,1.1l1.7-1l-1.8-1.1L38,15.7z"/>
							<path id="Trazado_3413" class="st16" d="M35.7,16.1L33.9,15l-1.7,1l1.8,1.1L35.7,16.1z"/>
							<path id="Trazado_3414" class="st16" d="M23.6,16.3l-1.8-1.1l-1.7,1l1.8,1.1L23.6,16.3z"/>
							<path id="Trazado_3415" class="st16" d="M27.9,17.2l1.8,1.1l1.7-1l-1.8-1.1L27.9,17.2z"/>
							<path id="Trazado_3416" class="st16" d="M26.6,18.1L24.8,17l-1.7,1l1.8,1.1L26.6,18.1z"/>
							<path id="Trazado_3417" class="st16" d="M46,18.3l-1.8-1.1l-1.7,1l1.8,1.1L46,18.3z"/>
							<path id="Trazado_3418" class="st16" d="M34.4,19l-1.8-1.1l-1.7,1l1.8,1.1L34.4,19z"/>
							<path id="Trazado_3419" class="st16" d="M22.8,19.5l-10.9-6.3l-1.7,1l10.9,6.3L22.8,19.5z"/>
							<path id="Trazado_3420" class="st16" d="M26,19.7l1.8,1.1l1.7-1l-1.8-1.1L26,19.7z"/>
							<path id="Trazado_3421" class="st16" d="M35.4,17.8l5.7,3.3l1.7-1l-5.7-3.3L35.4,17.8z"/>
							<path id="Trazado_3422" class="st16" d="M10,15.8L7,17.5l8.7,5l2.9-1.7L10,15.8z"/>
							<path id="Trazado_3423" class="st16" d="M33.9,20.6l4,2.3l1.7-1l-4-2.3L33.9,20.6z"/>
							<path id="Trazado_3424" class="st16" d="M27.3,22.2L24,20.2l-1.7,1l3.3,1.9L27.3,22.2z"/>
							<path id="Trazado_3425" class="st16" d="M29.1,21.5l5.7,3.3l1.7-1l-5.7-3.3L29.1,21.5z"/>
							<path id="Trazado_3426" class="st16" d="M26.8,23.9l4.8,2.8l1.7-1l-4.8-2.8L26.8,23.9z"/>
						</g>
					</g>
				</g>
				<g id="Grupo_4843" transform="translate(22.228)">
					<path id="Trazado_3427" class="st15" d="M0.2,0.7L0.2,0.7l0.5-0.3l0.5-0.3C1.6-0.1,2,0,2.4,0.2L36,19.7c1,0.6,1.6,1.7,1.7,2.9
						l-0.1,22.4c0,0.4-0.1,0.8-0.5,1.1c-0.4,0.2-0.8,0.5-1.2,0.7c0.3-0.2,0.5-0.6,0.5-1.1l0.1-22.4c-0.1-1.2-0.7-2.2-1.7-2.9
						L1.2,0.9C0.8,0.7,0.4,0.6,0,0.8C0.1,0.8,0.1,0.7,0.2,0.7z"/>
				</g>
				<g id="Grupo_4844" transform="translate(21.678 0.689)">
					<path id="Trazado_3428" class="st13" d="M35.4,19.7c1,0.6,1.6,1.7,1.7,2.9L37,44.9c0,1.1-0.8,1.5-1.7,1L1.7,26.5
						c-1-0.6-1.6-1.7-1.7-2.9L0.1,1.2c0-1.1,0.8-1.5,1.7-0.9L35.4,19.7z M1.3,23.4c0,0.7,0.4,1.3,1,1.7l32.3,18.7
						c0.6,0.3,1,0.1,1-0.6l0.1-20.5c0-0.7-0.4-1.3-1-1.7L2.4,2.3c-0.5-0.3-1-0.1-1,0.6L1.3,23.4L1.3,23.4z"/>
				</g>
			</g>
		</g>
		<g id="Grupo_4850" transform="translate(172.043 102.874)">
			<g id="Grupo_4849">
				<g id="Grupo_4847" transform="translate(1.251)">
					<path id="Trazado_3429" class="st13" d="M1.9,1.5c0.5-0.3,1.2-0.4,1.7-0.2C4.1,1.3,4.6,1.5,5,1.8C5.4,2,5.8,2.3,6.2,2.7
						L4.3,3.8C3.9,3.5,3.5,3.1,3,2.9C2.6,2.6,2.2,2.5,1.7,2.4C1.2,2.2,0.5,2.3,0,2.6L1.9,1.5z"/>
					<path id="Trazado_3430" class="st13" d="M7.6,0.3C8.2,0,9-0.1,9.6,0.1c0.5,0.1,1,0.3,1.5,0.6c0.9,0.6,1.7,1.3,2.4,2.1
						c1.3,1.6,2.2,3.5,2.5,5.6c0.4,0.1,0.9,0.3,1.3,0.5c0.8,0.5,1.5,1.1,2.1,1.8c1.3,1.6,2.1,3.5,2.2,5.6c0.1,1.1-0.4,2.1-1.3,2.7
						l-1.9,1.1c0.9-0.6,1.4-1.7,1.3-2.7c-0.1-2.1-0.9-4-2.2-5.6c-0.6-0.7-1.3-1.3-2.1-1.8c-0.4-0.2-0.8-0.4-1.3-0.5
						c-0.3-2-1.2-4-2.5-5.6C11,3.1,10.1,2.4,9.2,1.8c-0.5-0.3-1-0.5-1.5-0.6C7,1,6.3,1.1,5.7,1.5L7.6,0.3z"/>
				</g>
				<g id="Grupo_4848" transform="translate(0 1.121)">
					<path id="Trazado_3431" class="st9" d="M10.5,0.7C8-0.8,5.9,0.2,5.6,2.7C5.2,2.3,4.8,2,4.3,1.8C1.9,0.4,0,1.5,0,4.2
						c0.2,3,1.7,5.8,4.3,7.4l12.3,7.1c2.4,1.4,4.3,0.3,4.3-2.4c-0.2-3-1.7-5.8-4.3-7.4c-0.4-0.2-0.8-0.4-1.3-0.5
						C14.9,5.2,13.1,2.4,10.5,0.7z"/>
				</g>
			</g>
		</g>
		<g id="Grupo_4854" transform="translate(33.989 18.058)">
			<g id="Grupo_4853">
				<g id="Grupo_4851" transform="translate(1.61)">
					<path id="Trazado_3432" class="st13" d="M2.5,1.9C3.2,1.5,4,1.4,4.7,1.6c0.6,0.1,1.2,0.4,1.7,0.7C7,2.6,7.5,3,8,3.5L5.5,4.9
						C5,4.4,4.5,4,3.9,3.7C3.4,3.4,2.8,3.2,2.2,3C1.5,2.8,0.7,2.9,0,3.3L2.5,1.9z"/>
					<path id="Trazado_3433" class="st13" d="M9.8,0.4c0.8-0.4,1.7-0.6,2.6-0.3c0.7,0.2,1.3,0.4,1.9,0.8c1.2,0.7,2.2,1.6,3.1,2.7
						c1.7,2,2.8,4.5,3.2,7.2c0.6,0.1,1.1,0.4,1.6,0.7c1,0.6,1.9,1.4,2.7,2.3c1.7,2,2.7,4.5,2.8,7.2c0.1,1.4-0.5,2.7-1.6,3.5
						l-2.5,1.4c1.1-0.8,1.7-2.2,1.6-3.5c-0.1-2.6-1.1-5.2-2.8-7.2c-0.7-0.9-1.6-1.7-2.7-2.3c-0.5-0.3-1-0.5-1.6-0.7
						C17.8,9.5,16.7,7.1,15,5c-0.9-1.1-1.9-2-3.1-2.7C11.3,2,10.6,1.7,9.9,1.5C9,1.3,8.1,1.4,7.3,1.9L9.8,0.4z"/>
				</g>
				<g id="Grupo_4852" transform="translate(0 1.443)">
					<path id="Trazado_3434" class="st14" d="M13.5,0.9C10.3-1,7.6,0.2,7.1,3.5C6.7,3,6.1,2.6,5.5,2.3C2.5,0.5,0,1.9,0,5.4
						c0.2,3.9,2.3,7.4,5.5,9.5l15.8,9.1c3,1.8,5.5,0.3,5.5-3.2c-0.2-3.9-2.2-7.4-5.5-9.5c-0.5-0.3-1-0.5-1.6-0.7
						C19.2,6.7,16.9,3.1,13.5,0.9z"/>
				</g>
			</g>
		</g>
		<g id="Grupo_4858" transform="translate(139.045 83.682)">
			<g id="Grupo_4857">
				<g id="Grupo_4855" transform="translate(1.67)">
					<path id="Trazado_3435" class="st13" d="M2.6,1.9c0.7-0.4,1.5-0.5,2.3-0.3C5.5,1.8,6.1,2,6.6,2.3c0.6,0.4,1.2,0.8,1.7,1.2
						L5.7,5.1C5.2,4.6,4.7,4.2,4.1,3.8C3.5,3.5,2.9,3.3,2.3,3.1C1.5,2.9,0.7,3,0,3.4L2.6,1.9z"/>
					<path id="Trazado_3436" class="st13" d="M10.2,0.4C11,0,11.9-0.1,12.9,0.1c0.7,0.2,1.4,0.4,2,0.8c1.2,0.7,2.3,1.7,3.2,2.8
						c1.8,2.1,2.9,4.7,3.3,7.4c0.6,0.1,1.1,0.4,1.7,0.7c1.1,0.6,2,1.5,2.8,2.4c1.8,2.1,2.8,4.7,2.9,7.5c0.1,1.4-0.5,2.8-1.7,3.7
						l-2.6,1.5c1.2-0.8,1.8-2.2,1.7-3.7c-0.1-2.7-1.2-5.4-2.9-7.5c-0.8-1-1.7-1.8-2.8-2.4c-0.5-0.3-1.1-0.5-1.7-0.7
						c-0.4-2.7-1.5-5.3-3.3-7.4c-0.9-1.1-2-2.1-3.2-2.8c-0.6-0.4-1.3-0.6-2-0.8C9.4,1.4,8.4,1.5,7.6,1.9L10.2,0.4z"/>
				</g>
				<g id="Grupo_4856" transform="translate(0 1.496)">
					<path id="Trazado_3437" class="st9" d="M14,0.9C10.6-1,7.9,0.2,7.4,3.6C6.9,3.1,6.3,2.7,5.7,2.3C2.6,0.5,0,2,0,5.6
						c0.2,4,2.3,7.7,5.7,9.9L22.1,25c3.2,1.8,5.7,0.4,5.7-3.3c-0.2-4-2.3-7.7-5.7-9.9c-0.5-0.3-1.1-0.5-1.7-0.7
						C19.9,7,17.5,3.2,14,0.9z"/>
				</g>
			</g>
		</g>
		<g id="Grupo_4867" transform="translate(146.192 108.781)">
			<g id="Grupo_4859" transform="translate(10.187)">
				<path id="Trazado_3438" class="st16" d="M5,2.5L5,2.5C5,2.5,5,2.4,4.9,2.3c-0.2-0.1-0.5-0.1-0.7,0C4.1,2.4,4,2.5,4.1,2.6
					c0,0.1,0.1,0.1,0.1,0.1C4.1,2.7,4,2.6,4,2.6L3.7,14.3c0,0.1,0,0.2,0.1,0.2c0,0,0,0,0,0v0c0,0,0.1,0.1,0.1,0.1
					c0.3,0.1,0.6,0.2,0.9,0.1v0c0.1,0,0.2-0.1,0.3-0.1c0.1-0.1,0.2-0.2,0.2-0.4L5,2.5z"/>
				<path id="Trazado_3439" class="st16" d="M9.1,5.2L9.1,5.2C9,5.1,9,5,8.9,5C8.7,4.9,8.4,4.9,8.2,5C8.1,5,8,5.2,8.1,5.3
					c0,0.1,0.1,0.1,0.1,0.1c-0.1,0-0.1-0.1-0.1-0.2L7.8,16.9c0,0.1,0,0.2,0.1,0.2c0,0,0,0,0,0v0c0,0,0.1,0.1,0.1,0.1
					c0.3,0.1,0.6,0.2,0.9,0.1v0c0.1,0,0.2-0.1,0.3-0.1c0.1-0.1,0.2-0.2,0.2-0.4L9.1,5.2z"/>
				<path id="Trazado_3440" class="st16" d="M1.3,0.3C1.3,0.3,1.3,0.3,1.3,0.3c0-0.1-0.1-0.1-0.1-0.2C0.9,0,0.7,0,0.5,0.1
					c-0.1,0-0.1,0.1-0.1,0.2l0,0v0L0,12c0,0.1,0,0.2,0.1,0.2c0,0,0,0,0,0v0c0,0,0.1,0.1,0.1,0.1c0.3,0.1,0.6,0.2,0.9,0.1v0
					c0.1,0,0.2-0.1,0.3-0.1c0.1-0.1,0.2-0.2,0.2-0.4L1.3,0.3z"/>
			</g>
			<g id="Grupo_4866" transform="translate(0 9.806)">
				<g id="Grupo_4865">
					<g id="Grupo_4864">
						<g id="Grupo_4860" transform="translate(12.575 7.235)">
							<path id="Trazado_3441" class="st13" d="M8.8,0l0,3.4L0,8.5l0-3.4L8.8,0z"/>
						</g>
						<g id="Grupo_4861" transform="translate(0 5.083)">
							<path id="Trazado_3442" class="st13" d="M12.6,7.2l0,3.4L0,3.4L0,0L12.6,7.2z"/>
						</g>
						<g id="Grupo_4862" transform="translate(0.667 6.307)">
							<path id="Trazado_3443" class="st15" d="M11.3,6.5l0,2L0,2l0-2L11.3,6.5z"/>
						</g>
						<g id="Grupo_4863" transform="translate(0.01)">
							<path id="Trazado_3444" class="st15" d="M21.4,7.2l-8.8,5.1L0,5.1L8.8,0L21.4,7.2z"/>
						</g>
					</g>
				</g>
				<path id="Trazado_3445" class="st9" d="M1.4,5c0.2-0.1,0.5-0.1,0.7,0c0.1,0,0.2,0.2,0.1,0.3c0,0.1-0.1,0.1-0.1,0.1
					c-0.2,0.1-0.5,0.1-0.7,0c-0.1,0-0.2-0.2-0.1-0.3C1.3,5,1.3,5,1.4,5z"/>
				<ellipse id="Elipse_111" class="st9" cx="2.9" cy="5.8" rx="0.5" ry="0.3"/>
				<path id="Trazado_3446" class="st9" d="M3.9,6.4c0.2-0.1,0.5-0.1,0.7,0c0.1,0,0.2,0.2,0.1,0.3c0,0.1-0.1,0.1-0.1,0.1
					c-0.2,0.1-0.5,0.1-0.7,0c-0.1,0-0.2-0.2-0.1-0.3C3.8,6.4,3.8,6.4,3.9,6.4z"/>
			</g>
		</g>
		<g id="Grupo_4868" transform="translate(63.692 85.66)">
			<path id="Trazado_3447" class="st8" d="M13.6,0.2c0.1,0,0.1,0,0.1,0c0.2,0.1,0.3,0.3,0.3,0.5c0,0.1,0,0.1,0,0.2L14.7,0L13.6,0.2z
				"/>
			<path id="Trazado_3448" class="st9" d="M13.8,0.2c0,0-0.1,0-0.1,0c-0.5,0.1-1,0.2-1.6,0.2c0,0,0,0,0,0c0,0,0.1,0,0.1,0
				c0,0,0,0,0.1,0c0.1,0,0.2,0,0.3,0.1c0.1,0.1,0.2,0.1,0.3,0.2c0.2,0.2,0.3,0.4,0.4,0.6c0,0.1,0.1,0.2,0.1,0.3c0,0.1,0,0.2-0.1,0.3
				c0,0,0,0,0,0c0,0,0,0-0.1,0.1c0,0,0,0,0,0l1-1.2c0,0,0-0.1,0-0.2C14.1,0.5,14,0.3,13.8,0.2z"/>
			<path id="Trazado_3449" class="st15" d="M13.1,2C13.1,2,13.1,2,13.1,2c0.1-0.1,0.1-0.2,0.1-0.3c0-0.1,0-0.2-0.1-0.3
				c-0.1-0.2-0.2-0.5-0.4-0.6c-0.1-0.1-0.2-0.2-0.3-0.2c-0.1,0-0.2-0.1-0.3-0.1c0,0,0,0-0.1,0c0,0-0.1,0-0.1,0c0,0-0.1,0-0.1,0l0,0
				L1.7,6.4c0.1,0,0.1,0,0.2,0c0,0,0,0,0.1,0c0.1,0,0.2,0,0.3,0.1c0.4,0.3,0.7,0.7,0.7,1.2c0,0.1,0,0.2-0.1,0.3l0,0c0,0,0,0-0.1,0.1
				c0,0-0.1,0.1-0.1,0.1l0,0L13,2.1l0,0C13,2.1,13,2.1,13.1,2C13,2.1,13,2.1,13.1,2z"/>
			<path id="Trazado_3450" class="st9" d="M1.9,6.3C1.9,6.3,1.9,6.3,1.9,6.3C1.9,6.3,1.9,6.3,1.9,6.3z"/>
			<path id="Trazado_3451" class="st9" d="M2.8,8C2.8,8,2.8,8.1,2.8,8C2.8,8.1,2.8,8,2.8,8z"/>
			<path id="Trazado_3452" class="st9" d="M2.9,7.6c0,0.1,0,0.2-0.1,0.3C2.9,7.8,2.9,7.7,2.9,7.6z"/>
			<path id="Trazado_3453" class="st9" d="M1.1,9c0,0,0.1,0,0.1,0l0,0C1.2,9,1.1,9,1.1,9z"/>
			<path id="Trazado_3454" class="st9" d="M0.2,7.3L0.2,7.3c0,0,0.1,0,0.1,0C0.3,7.2,0.3,7.2,0.2,7.3z"/>
			<path id="Trazado_3455" class="st9" d="M0.4,7.2c0.1,0,0.2,0,0.3,0.1C0.6,7.3,0.5,7.2,0.4,7.2z"/>
			<path id="Trazado_3456" class="st9" d="M0.1,7.4C0.1,7.4,0.1,7.4,0.1,7.4C0.1,7.4,0.1,7.4,0.1,7.4z"/>
			<path id="Trazado_3457" class="st9" d="M1.3,8.9C1.3,8.8,1.3,8.8,1.3,8.9C1.3,8.8,1.3,8.8,1.3,8.9z"/>
			<path id="Trazado_3458" class="st9" d="M1,9C0.9,9,0.8,9,0.7,8.9C0.8,9,0.9,9,1,9z"/>
			<path id="Trazado_3459" class="st8" d="M2.7,8.1C2.8,8.1,2.8,8,2.7,8.1C2.8,8,2.9,8,2.9,7.9l0,0c0-0.1,0.1-0.2,0.1-0.3
				c0-0.5-0.3-0.9-0.7-1.2C2.1,6.4,2,6.3,1.9,6.3c0,0,0,0-0.1,0c-0.1,0-0.1,0-0.2,0L0.2,7.3c0,0,0.1,0,0.1,0c-0.1,0-0.1,0-0.1,0
				c0,0-0.1,0.1-0.1,0.1c0,0,0,0.1-0.1,0.1C0,7.5,0,7.6,0,7.7c0,0.5,0.3,0.9,0.7,1.2C0.8,9,0.9,9,1,9c0,0,0,0,0.1,0
				c0.1,0,0.1,0,0.1,0l0,0L2.7,8.1L2.7,8.1z M0.4,7.2c0.1,0,0.2,0,0.3,0.1C0.6,7.3,0.5,7.2,0.4,7.2L0.4,7.2z M1.4,8.8
				C1.3,8.8,1.3,8.8,1.4,8.8C1.3,8.8,1.3,8.8,1.4,8.8L1.4,8.8z"/>
		</g>
		<g id="Grupo_4881" transform="translate(15.074 52.682)">
			<g id="Grupo_4872" transform="translate(8.863 83.332)">
				<g id="Grupo_4870" transform="translate(19.761)">
					<g id="Grupo_4869">
						<path id="Trazado_3460" class="st17" d="M1.6,0.9c0.5,0.3,0.9,0.9,0.9,1.6l0,0l0,9.8L1,11.4l0-9.8c0,0,0,0,0,0
							C0.9,0.9,0.5,0.3,0,0L1.6,0.9z"/>
					</g>
				</g>
				<path id="Trazado_3461" class="st1" d="M49.7,83.6l-0.3-0.2l0.8-0.5l0-1.9c0-1.3-0.7-2.5-1.8-3.1l-10.8-6.2l7.9-4.6
					c0.2,0.2,0.4,0.3,0.6,0.5c0.4,0.3,0.9,0.2,1.2-0.1c-0.1,0.1-0.1,0.2-0.2,0.2l1.8-1c0.3-0.2,0.5-0.6,0.4-0.9c0-0.2,0-0.4-0.1-0.6
					c0,0,0-0.1,0-0.1l0.1-0.1v-1.8c0-1.3-0.7-2.6-1.9-3.2l-1.2-0.7c-0.6-0.3-1.3-0.3-1.9,0l-10.1,5.9l-0.1-38.4h-8.5l0.1,38.1
					l-10.4-6.1c-0.6-0.3-1.3-0.3-1.9,0l-1.7,1c-0.9,0.5-1.4,1.4-1.4,2.5l0,2.3l0.1,0.1c0,0,0,0,0,0.1c0,0.1,0,0.1-0.1,0.2
					c-0.1,0.2-0.1,0.4-0.1,0.6c0,0.4,0.1,0.7,0.4,0.9l1.8,1c-0.1-0.1-0.1-0.1-0.2-0.2c0.3,0.4,0.9,0.4,1.2,0.1
					c0.3-0.2,0.5-0.4,0.7-0.6l8.7,5.1l-10.2,5.8c-1.1,0.6-1.8,1.8-1.8,3.1l0,1.8l0.7,0.4l-0.3,0.1l0,0h0l0,0
					c-0.3,0.2-0.5,0.6-0.4,0.9c0.1,1,0.6,1.9,1.4,2.5c0.4,0.3,0.9,0.2,1.2-0.1c-0.1,0.1-0.1,0.2-0.2,0.2l1.8-1
					c0.3-0.2,0.5-0.6,0.4-0.9c0,0,0,0,0-0.1l14.9-8.4l15.3,8.8c0,0.1,0,0.1,0,0.2c0,0.4,0.1,0.7,0.4,0.9l1.8,1
					c-0.1-0.1-0.1-0.1-0.2-0.2c0.3,0.4,0.9,0.4,1.2,0.1c0,0,0,0,0,0c0.8-0.5,1.4-1.5,1.4-2.5C50.2,84.1,50,83.8,49.7,83.6L49.7,83.6
					z"/>
				<g id="Grupo_4871" transform="translate(0 6.034)">
					<path id="Trazado_3462" class="st2" d="M59.1,16.9c0-0.4,0-0.8-0.1-1.2c-0.5,2.3-2.2,4.4-5.2,6.2l-11.4,6.5
						c-3.9,2-8.2,3.1-12.5,3.1c-4.6,0.1-9.1-0.9-13.2-3.1L5.3,21.9c-2.1-1.1-3.7-2.8-4.8-4.9c-0.2-0.4-0.3-0.8-0.4-1.2
						C0.1,16.3,0,16.7,0,17.2c0,0,0-0.1,0-0.2l0,3.6c0,0.1,0,0.2,0,0.3v0.7c0,0.8,0.2,1.7,0.5,2.5c1,2.1,2.7,3.8,4.8,4.9l11.3,6.5
						c4,2.1,8.6,3.2,13.2,3.1c4.4,0,8.7-1,12.5-3.1l11.4-6.5c3.6-2,5.4-4.7,5.4-7.4L59.1,16.9L59.1,16.9z"/>
					<path id="Trazado_3463" class="st18" d="M5.3,21.9l11.3,6.5c4,2.1,8.6,3.2,13.2,3.1c4.4,0,8.7-1,12.5-3.1l11.4-6.5
						c3-1.7,4.7-3.9,5.2-6.2c-0.4-2.2-2.1-4.4-5.1-6.2L42.5,3.1C35.4-1,23.9-1,16.8,3.1L5.4,9.6c-3,1.7-4.8,4-5.2,6.2
						c0.1,0.4,0.2,0.8,0.4,1.2C1.5,19.1,3.2,20.8,5.3,21.9z"/>
				</g>
				<path id="Trazado_3464" class="st1" d="M0.5,29.2c1,2.1,2.7,3.8,4.8,4.9l11.3,6.5c4,2.1,8.6,3.2,13.2,3.1c4.4,0,8.7-1,12.5-3.1
					l11.4-6.5c3.6-2,5.4-4.7,5.4-7.4l0,4.5c0,2.7-1.8,5.4-5.4,7.4l-11.4,6.5c-3.9,2-8.2,3.1-12.5,3.1c-4.6,0.1-9.1-0.9-13.2-3.1
					L5.3,38.6c-2.1-1.1-3.7-2.8-4.8-4.9C0.2,33,0,32.1,0,31.3l0-4.5C0,27.6,0.2,28.4,0.5,29.2z"/>
			</g>
			<g id="Grupo_4873" transform="translate(12.472 88.962)">
				<path id="Trazado_3465" class="st11" d="M48.4,0L33.1,7.1C20.2,3.7,2.8,0.3,1.1,6.3c-2.7,9.5,0.2,14.2,5,17.1s18.7,6.9,28.5,1.7
					L63,8.5L48.4,0z"/>
			</g>
			<path id="Trazado_3466" class="st9" d="M42.1,42.7c0-0.8-2.5-5.5-3.2-5c-2.5,1.9-9.6,1.5-11.3,0.6c-1.5-0.8-1.4-3.2-1.4-3.2
				s-9.8,8.6,3.8,11.2c2.8,0.6,5.7,0.3,8.3-0.9C40.4,44.4,44.1,44.6,42.1,42.7z"/>
			<g id="Grupo_4874" transform="translate(11.86 36.953)">
				<path id="Trazado_3467" class="st5" d="M43.5,59.5l0,0.9C43.5,59.8,43.5,59.5,43.5,59.5z"/>
				<path id="Trazado_3468" class="st8" d="M30.5,74.6c11.3-1.7,12.8-11.2,12.9-14.2l0-0.9l0,0c-0.9-1.9-1.7-3.9-2.3-6
					c-1.3-4.1,4-30.5-4.7-43.9c-1.9-2.2-4.3-4-6.9-5.2c0,0-3.7,4.2-12,2.4C9.2,5,12.3,0,12.3,0C1.4,0.1,1.4,14.3,1,19.4
					c-0.6,9.1-1.2,28-1,43.6c0.7,1.4,1.6,2.6,2.6,3.8C9.5,75,17,76.7,30.5,74.6z"/>
			</g>
			<g id="Grupo_4879" transform="translate(0 45.003)">
				<g id="Grupo_4877" transform="translate(14.855 31.908)">
					<g id="Grupo_4876">
						<g id="Grupo_4875" transform="translate(0.13)">
							<path id="Trazado_3469" class="st19" d="M5.1,4l2-1.1L2,0L0,1.1L5.1,4z"/>
						</g>
						<path id="Trazado_3470" class="st1" d="M5.2,4L0.1,1.1L0,46.6c0,0.6,0.3,1.1,0.8,1.4l2.7,1.6c1,0.5,2.1,0.5,3.1,0L7,49.2
							L7.1,2.9L5.2,4z"/>
					</g>
				</g>
				<g id="Grupo_4878">
					<path id="Trazado_3471" class="st2" d="M38.6,49.6l-2-24.7c-0.3-2.5-0.9-5-2-7.3c-1.3-2.9-3-5.6-5-8c-2.3-2.9-5.2-5.4-8.4-7.3
						c-1.6-1-3.4-1.7-5.3-2.1c-2.2-0.5-4.4-0.3-6.4,0.6C9.3,0.9,9.3,1,9.2,1L5.7,3C5.8,3,5.9,2.9,6,2.9c0,0,0.1,0,0.1,0
						C5.9,2.9,5.7,3,5.5,3.2c1.2-0.1,2.4,0,3.5,0.2c1.9,0.4,3.6,1.1,5.3,2.1c3.2,1.9,6.1,4.4,8.4,7.3c2,2.4,3.7,5.1,5.1,8
						c1.1,2.3,1.8,4.8,2,7.3l2,24.7c0.3,3.4-0.7,5.8-2.5,7.1c1.1,0,2.2-0.4,3.1-0.9c-0.1,0-0.1,0.1-0.2,0.1l3.4-2
						C37.7,55.9,38.9,53.3,38.6,49.6z"/>
					<path id="Trazado_3472" class="st18" d="M31.7,52.7l-2-24.7c-0.3-2.5-0.9-5-2-7.3c-1.3-2.9-3-5.6-5.1-8
						c-2.3-2.9-5.2-5.4-8.4-7.3c-1.6-1-3.4-1.7-5.3-2.1C7.9,3.1,6.7,3.1,5.5,3.2c-2,1.3-3.3,3.6-3.4,6L0.1,31.5
						c-0.7,7.2,5.3,16.8,13.3,21.4l8.4,4.8c2.2,1.4,4.8,2.2,7.5,2.2C31,58.5,32,56.1,31.7,52.7z"/>
				</g>
			</g>
			<path id="Trazado_3473" class="st20" d="M46,9c0.3,3.2,0.3,6.4-0.1,9.5c0.7,1,1.2,2.1,1.7,3.2c0.5,1.3-1.7,2.5-1.7,2.5
				c0.2,2,0,4.1-0.5,6.1c-0.8,3.3-3.7,3.9-6.4,4.4c-0.1,1-0.1,2,0,3.1c0,0-1.5,1.5-5.8,1.6S26,38.4,26,35.7V8.8L46,9z"/>
			<path id="Trazado_3474" class="st1" d="M33.8,31.4c-2.8-2.5-2.5-8.2,0.2-8.2s2.2,4.4,2.2,4.4c0.8,0.3,1.7,0.1,2.3-0.5
				c0,0-1.2-5.5,0-9.8s3.4-5.7,3.4-5.7s3.1,1.8,5.4,1.4c0.4-2.9,1-5.8,1.8-8.7c0,0-7.8-6.8-22.4-3.2S17,20.6,20.1,25.6
				c1.7,2.8,3.8,5.4,6.4,7.5c0,0,2.5,2.6,8.8,1.8c-0.4-0.6-0.7-1.2-0.9-1.8C34,32.6,33.9,32,33.8,31.4z"/>
			<g id="Grupo_4880" transform="translate(38.853 46.523)">
				<path id="Trazado_3475" class="st20" d="M17.1,8.8c1.3,0.1,2.6,0.5,3.8,1.1c2.1,1,3.4,2.1,3.8,2.1s0.7-0.6,0.2-1.3
					c-0.4-0.6-1-1.1-1.5-1.5c1.6-0.5,3.2-1.1,4.7-2c1.5-1-1.1-3-1.7-3.6c-0.9-0.9-3.2-0.6-5.4-0.3S18.1,3.9,15.9,4
					S17.1,8.8,17.1,8.8z"/>
				<path id="Trazado_3476" class="st1" d="M16,3.4c1.8,1.6,2.6,4,2.2,6.4c0,0-5.1,2.8-14.5,3L1.1,4.1C1.1,4.1,9,2,16,3.4"/>
				<path id="Trazado_3477" class="st20" d="M34.5,24.2c0.8-1.1,1.4-2.3,1.7-3.6c0.6-2.2,0.7-3.9,1-4.3s0.9-0.2,1.1,0.7
					c0.1,0.7,0.2,1.5,0.1,2.2c1.2-0.8,2.6-1.4,3.9-1.8c1.8-0.5,3.8,1.9,3.8,2.9c0.1,1.3-2.2,3.1-3.9,4.6s-3.5,1.8-5,3.4
					S34.5,24.2,34.5,24.2z"/>
				<path id="Trazado_3478" class="st21" d="M10.5,1.2c8.6,7.4,11.1,25.3,11.1,25.3c4.1-1.6,8.3-2.9,12.5-3.9c0,0,3.8,0.2,4.6,6.3
					c-5.1,3.6-10.5,6.8-16,9.7c-6.7,3.3-10.2,2.8-11.9-0.2S1.6,22.2,0,8.4c0,0-0.6-5.1,3.3-7.2C4.5,0.6,5.7,0.2,7,0
					C8.3-0.1,9.6,0.3,10.5,1.2z"/>
			</g>
		</g>
		<g id="Grupo_4883" transform="translate(128.549 20.535)">
			<path id="Trazado_3479" class="st8" d="M39.9,50.9L0.2,28.3C0.1,28.2,0,28.1,0,27.9V0.1C0,0,0.1,0,0.2,0l39.7,22.6
				c0.1,0.1,0.2,0.2,0.2,0.4v27.8C40.1,50.9,40,51,39.9,50.9z"/>
			<path id="Trazado_3480" class="st11" d="M38.4,49L1.7,28.1c-0.1-0.1-0.2-0.2-0.2-0.3V4.4c0-0.1,0.1-0.1,0.2-0.1l36.6,20.9
				c0.1,0.1,0.2,0.2,0.2,0.3v23.4C38.6,49,38.5,49.1,38.4,49z"/>
			<g id="Grupo_4882" transform="translate(4.176 9.481)">
				<path id="Trazado_3481" class="st8" d="M27.1,16.4L0,1V0l27.1,15.4V16.4z"/>
				<path id="Trazado_3482" class="st8" d="M16.6,13.6L0,4.2v-1l16.6,9.4V13.6z"/>
				<path id="Trazado_3483" class="st8" d="M1.6,7.3L0,6.4v-1l1.6,0.9V7.3z"/>
				<path id="Trazado_3484" class="st10" d="M4.3,8.9L2.7,7.9v-1l1.6,0.9V8.9z"/>
				<path id="Trazado_3485" class="st4" d="M9.6,16.3l-6.9-4v-1l6.9,4V16.3z"/>
				<path id="Trazado_3486" class="st4" d="M9.6,18.6l-6.9-4v-1l6.9,4V18.6z"/>
				<path id="Trazado_3487" class="st4" d="M28.7,29.4L26,27.9v-1l2.7,1.5V29.4z"/>
				<path id="Trazado_3488" class="st4" d="M9.6,20.8l-6.9-4v-1l6.9,4V20.8z"/>
				<path id="Trazado_3489" class="st4" d="M28.7,31.7l-6.9-4v-1l6.9,4V31.7z"/>
				<path id="Trazado_3490" class="st4" d="M9.6,23l-6.9-4v-1l6.9,4V23z"/>
				<path id="Trazado_3491" class="st4" d="M28.7,33.9L14,25.5v-1l14.7,8.4V33.9z"/>
				<path id="Trazado_3492" class="st10" d="M7.1,10.4L5.4,9.5v-1l1.6,0.9V10.4z"/>
				<path id="Trazado_3493" class="st10" d="M9.8,12l-1.6-0.9v-1L9.8,11V12z"/>
				<path id="Trazado_3494" class="st10" d="M28.8,11.4l-1.2-0.7c-0.1-0.1-0.2-0.2-0.2-0.3V9.8c0-0.1,0.1-0.1,0.2-0.1l1.2,0.7
					c0.1,0.1,0.2,0.2,0.2,0.3v0.6C29,11.4,28.9,11.5,28.8,11.4z"/>
				<path id="Trazado_3495" class="st10" d="M31.5,13l-1.2-0.7c-0.1-0.1-0.2-0.2-0.2-0.3v-0.6c0-0.1,0.1-0.1,0.2-0.1l1.2,0.7
					c0.1,0.1,0.2,0.2,0.2,0.3v0.6C31.7,13,31.6,13,31.5,13z"/>
				<path id="Trazado_3496" class="st10" d="M34.3,14.6L33,13.9c-0.1-0.1-0.2-0.2-0.2-0.3v-0.6c0-0.1,0.1-0.1,0.2-0.1l1.2,0.7
					c0.1,0.1,0.2,0.2,0.2,0.3v0.6C34.5,14.6,34.4,14.6,34.3,14.6z"/>
				<path id="Trazado_3497" class="st10" d="M12.7,13.6l-1.6-0.9v-1l1.6,0.9V13.6z"/>
				<path id="Trazado_3498" class="st10" d="M22.5,19.2l-8.7-4.9v-1l8.7,4.9V19.2z"/>
				<path id="Trazado_3499" class="st8" d="M1.6,9.6L0,8.6v-1l1.6,0.9V9.6z"/>
				<path id="Trazado_3500" class="st6" d="M28.1,24.7L2.7,10.2v-1l25.5,14.5V24.7z"/>
				<path id="Trazado_3501" class="st8" d="M1.6,11.8L0,10.9v-1l1.6,0.9V11.8z"/>
				<path id="Trazado_3502" class="st8" d="M1.6,14L0,13.1v-1L1.6,13V14z"/>
				<path id="Trazado_3503" class="st8" d="M22.5,17l-3.4-1.9v-1l3.4,1.9V17z"/>
				<path id="Trazado_3504" class="st8" d="M30.6,18.4l-2.2-1.3v-1l2.2,1.3V18.4z"/>
				<path id="Trazado_3505" class="st6" d="M31.8,26.7l-2.2-1.3v-1l2.2,1.3V26.7z"/>
			</g>
		</g>
		<g id="Grupo_4884" transform="translate(86.175 75.535)">
			<path id="Trazado_3506" class="st8" d="M24.6,14.8L0,0.8V0l24.6,14V14.8z"/>
			<path id="Trazado_3507" class="st8" d="M15,11.8L0,3.2V2.4L15,11V11.8z"/>
			<path id="Trazado_3508" class="st8" d="M1.5,5.7L0,4.9V4.1L1.5,5V5.7z"/>
			<path id="Trazado_3509" class="st10" d="M3.9,7.1L2.4,6.3V5.5l1.5,0.8V7.1z"/>
			<path id="Trazado_3510" class="st4" d="M8.7,13.3L2.4,9.7V8.9l6.3,3.6V13.3z"/>
			<path id="Trazado_3511" class="st4" d="M8.7,15l-6.3-3.6v-0.8l6.3,3.6V15z"/>
			<path id="Trazado_3512" class="st4" d="M26,24.8l-2.4-1.4v-0.8L26,24V24.8z"/>
			<path id="Trazado_3513" class="st4" d="M8.7,16.7l-6.3-3.6v-0.8l6.3,3.6V16.7z"/>
			<path id="Trazado_3514" class="st4" d="M26,26.5l-6.3-3.6v-0.8l6.3,3.6V26.5z"/>
			<path id="Trazado_3515" class="st4" d="M8.7,18.4l-6.3-3.6V14l6.3,3.6V18.4z"/>
			<path id="Trazado_3516" class="st4" d="M26,28.2l-13.3-7.6v-0.8L26,27.5V28.2z"/>
			<path id="Trazado_3517" class="st10" d="M6.4,8.5L4.9,7.7V6.9l1.5,0.8V8.5z"/>
			<path id="Trazado_3518" class="st10" d="M8.9,9.9L7.4,9.1V8.4l1.5,0.8V9.9z"/>
			<path id="Trazado_3519" class="st10" d="M11.5,11.5L10,10.6V9.9l1.5,0.8V11.5z"/>
			<path id="Trazado_3520" class="st10" d="M20.4,16.5L12.6,12v-0.8l7.8,4.5V16.5z"/>
			<path id="Trazado_3521" class="st8" d="M1.5,7.4L0,6.6V5.8l1.5,0.8V7.4z"/>
			<path id="Trazado_3522" class="st6" d="M25.5,21.1L2.4,8V7.2l23,13.2V21.1z"/>
			<path id="Trazado_3523" class="st8" d="M1.5,9.1L0,8.3V7.5l1.5,0.8V9.1z"/>
			<path id="Trazado_3524" class="st8" d="M1.5,10.8L0,10V9.2l1.5,0.8V10.8z"/>
			<path id="Trazado_3525" class="st8" d="M20.4,14.8l-3.1-1.8v-0.8l3.1,1.8V14.8z"/>
			<path id="Trazado_3526" class="st8" d="M27.7,16.6l-2-1.2v-0.8l2,1.2V16.6z"/>
			<path id="Trazado_3527" class="st6" d="M28.8,23l-2-1.2v-0.8l2,1.2V23z"/>
		</g>
		<g id="Grupo_4885" transform="translate(65.624 4.879)">
			<path id="Trazado_3528" class="st8" d="M51.5,31.2L0,1.8V0l51.5,29.4V31.2z"/>
			<path id="Trazado_3529" class="st8" d="M34.9,27.3L0,7.4V5.6l34.9,19.9V27.3z"/>
			<path id="Trazado_3530" class="st8" d="M3.4,13.3l-3.4-2V9.6l3.4,2V13.3z"/>
			<path id="Trazado_3531" class="st10" d="M9.1,16.5l-3.4-2v-1.8l3.4,2V16.5z"/>
			<path id="Trazado_3532" class="st4" d="M20.2,30.8L5.6,22.4v-1.8L20.2,29V30.8z"/>
			<path id="Trazado_3533" class="st4" d="M20.2,34.7L5.6,26.4v-1.8L20.2,33V34.7z"/>
			<path id="Trazado_3534" class="st4" d="M54.8,54.4l-5.7-3.2v-1.8l5.7,3.2V54.4z"/>
			<path id="Trazado_3535" class="st4" d="M79.8,79.1l-5.7-3.2v-1.8l5.7,3.2V79.1z"/>
			<path id="Trazado_3536" class="st4" d="M20.2,38.7L5.6,30.3v-1.8l14.6,8.3V38.7z"/>
			<path id="Trazado_3537" class="st4" d="M79.4,80.3c0.1,0,0.3,0,0.4,0v-0.5l-14.6-8.3v1.8l12.7,7.2C78.3,80.4,78.8,80.3,79.4,80.3
				z"/>
			<path id="Trazado_3538" class="st4" d="M54.8,58.4l-14.6-8.3v-1.8l14.6,8.3V58.4z"/>
			<path id="Trazado_3539" class="st4" d="M20.2,42.6L5.6,34.3v-1.8l14.6,8.3V42.6z"/>
			<path id="Trazado_3540" class="st4" d="M54.8,62.3L29.4,47.8v-1.8l25.4,14.5V62.3z"/>
			<path id="Trazado_3541" class="st10" d="M14.8,19.8l-3.4-2v-1.8l3.4,2V19.8z"/>
			<path id="Trazado_3542" class="st10" d="M20.6,23.1l-3.4-2v-1.8l3.4,2V23.1z"/>
			<path id="Trazado_3543" class="st10" d="M26.7,26.6l-3.4-2v-1.8l3.4,2V26.6z"/>
			<path id="Trazado_3544" class="st10" d="M67.9,65l-3.4-2v-1.8l3.4,2V65z"/>
			<path id="Trazado_3545" class="st10" d="M73.7,68.3l-3.4-2v-1.8l3.4,2V68.3z"/>
			<path id="Trazado_3546" class="st10" d="M79.8,71.8l-3.4-2v-1.8l3.4,2V71.8z"/>
			<path id="Trazado_3547" class="st10" d="M41.8,35.2L29.1,28v-1.8l12.7,7.3V35.2z"/>
			<path id="Trazado_3548" class="st10" d="M79.8,75.9l-12.7-7.3v-1.8l12.7,7.3V75.9z"/>
			<path id="Trazado_3549" class="st8" d="M3.4,17.2l-3.4-2v-1.8l3.4,2V17.2z"/>
			<path id="Trazado_3550" class="st6" d="M53.6,45.9l-48-27.4v-1.8l48,27.4V45.9z"/>
			<path id="Trazado_3551" class="st8" d="M3.4,21.2l-3.4-2v-1.8l3.4,2V21.2z"/>
			<path id="Trazado_3552" class="st8" d="M3.4,25.1l-3.4-2v-1.8l3.4,2V25.1z"/>
			<path id="Trazado_3553" class="st8" d="M41.8,31.3l-1.7-1v-1.8l1.7,1V31.3z"/>
			<path id="Trazado_3554" class="st8" d="M58.7,35.3L54,32.6v-1.8l4.7,2.7V35.3z"/>
			<path id="Trazado_3555" class="st6" d="M61.3,50.3l-4.7-2.7v-1.8l4.7,2.7V50.3z"/>
		</g>
		<g id="Grupo_4889" transform="translate(164.651 77.098)">
			<g id="Grupo_4888">
				<g id="Grupo_4886" transform="translate(0.818)">
					<path id="Trazado_3556" class="st13" d="M1.3,1C1.6,0.8,2,0.7,2.4,0.8C2.7,0.9,3,1,3.3,1.1c0.3,0.2,0.6,0.4,0.8,0.6L2.8,2.5
						C2.6,2.3,2.3,2.1,2,1.9C1.7,1.7,1.4,1.6,1.1,1.5C0.8,1.4,0.3,1.5,0,1.7L1.3,1z"/>
					<path id="Trazado_3557" class="st13" d="M5,0.2C5.4,0,5.9-0.1,6.3,0.1c0.3,0.1,0.7,0.2,1,0.4c0.6,0.4,1.1,0.8,1.6,1.4
						c0.9,1,1.4,2.3,1.6,3.6c0.3,0.1,0.6,0.2,0.8,0.3c0.5,0.3,1,0.7,1.4,1.2c0.9,1,1.4,2.3,1.4,3.7c0.1,0.7-0.2,1.4-0.8,1.8L12,13.2
						c0.6-0.4,0.9-1.1,0.8-1.8c-0.1-1.3-0.6-2.6-1.4-3.7C11,7.2,10.6,6.8,10,6.5C9.8,6.4,9.5,6.3,9.2,6.2C9,4.9,8.5,3.6,7.6,2.6
						C7.2,2,6.6,1.5,6,1.2C5.7,1,5.4,0.9,5,0.8C4.6,0.7,4.1,0.7,3.7,1L5,0.2z"/>
				</g>
				<g id="Grupo_4887" transform="translate(0 0.733)">
					<path id="Trazado_3558" class="st9" d="M6.8,0.4c-1.6-0.9-3-0.3-3.2,1.3C3.4,1.5,3.1,1.3,2.8,1.1C1.3,0.3,0,1,0,2.7
						c0.1,2,1.1,3.8,2.8,4.8l8,4.6c1.5,0.9,2.8,0.2,2.8-1.6c-0.1-2-1.1-3.8-2.8-4.8c-0.3-0.2-0.5-0.3-0.8-0.3
						C9.7,3.4,8.6,1.6,6.8,0.4z"/>
				</g>
			</g>
		</g>
	</g>
	<g class="st0">
		<path class="st8" d="M49.5,1614.9c-0.1-0.1-0.1-0.2-0.1-0.3v-10.4c0-0.1,0-0.2,0.1-0.3s0.1-0.1,0.3-0.1h4.4c1.1,0,2,0.3,2.6,0.8
			s0.9,1.3,0.9,2.1c0,0.6-0.1,1.1-0.4,1.5c-0.3,0.4-0.6,0.7-1,0.9c0.5,0.2,0.8,0.6,1.2,1c0.3,0.5,0.5,1,0.5,1.6
			c0,0.6-0.1,1.1-0.4,1.6c-0.3,0.5-0.7,0.9-1.2,1.2c-0.5,0.3-1.2,0.4-1.9,0.4h-4.5C49.7,1615,49.6,1615,49.5,1614.9z M53.9,1608.6
			c0.7,0,1.2-0.2,1.6-0.5c0.4-0.3,0.5-0.8,0.5-1.3c0-0.6-0.2-1-0.5-1.3s-0.9-0.4-1.6-0.4h-3v3.5H53.9z M54,1613.7
			c0.7,0,1.2-0.2,1.6-0.6c0.4-0.4,0.6-0.8,0.6-1.4c0-0.6-0.2-1.1-0.6-1.4c-0.4-0.4-0.9-0.5-1.6-0.5h-3.1v3.9H54z"/>
		<path class="st8" d="M60.6,1614.2c-0.6-0.7-0.8-1.5-0.8-2.6v-4.5c0-0.1,0-0.2,0.1-0.3c0.1-0.1,0.2-0.1,0.3-0.1h0.7
			c0.1,0,0.2,0,0.3,0.1s0.1,0.2,0.1,0.3v4.4c0,1.6,0.7,2.4,2.1,2.4c0.7,0,1.2-0.2,1.6-0.6c0.4-0.4,0.6-1,0.6-1.8v-4.4
			c0-0.1,0-0.2,0.1-0.3c0.1-0.1,0.2-0.1,0.3-0.1h0.7c0.1,0,0.2,0,0.3,0.1s0.1,0.2,0.1,0.3v7.6c0,0.1,0,0.2-0.1,0.3s-0.2,0.1-0.3,0.1
			H66c-0.1,0-0.2,0-0.3-0.1s-0.1-0.2-0.1-0.3v-0.7c-0.3,0.4-0.7,0.7-1.1,0.9s-0.9,0.3-1.6,0.3C62,1615.2,61.2,1614.8,60.6,1614.2z"
			/>
		<path class="st8" d="M70.5,1614.8c-0.5-0.2-0.9-0.5-1.1-0.8c-0.2-0.3-0.4-0.6-0.4-0.8c0-0.1,0-0.2,0.1-0.2s0.2-0.1,0.2-0.1H70
			c0.1,0,0.1,0,0.2,0c0,0,0.1,0.1,0.2,0.1c0.2,0.3,0.5,0.5,0.8,0.7c0.3,0.2,0.7,0.3,1.2,0.3c0.6,0,1-0.1,1.4-0.3
			c0.3-0.2,0.5-0.5,0.5-0.9c0-0.3-0.1-0.5-0.2-0.6c-0.1-0.2-0.4-0.3-0.7-0.4c-0.3-0.1-0.9-0.3-1.5-0.4c-0.9-0.2-1.6-0.5-2-0.9
			c-0.4-0.4-0.6-0.9-0.6-1.5c0-0.4,0.1-0.8,0.4-1.1c0.2-0.4,0.6-0.7,1-0.9s1-0.3,1.7-0.3c0.7,0,1.2,0.1,1.7,0.3
			c0.5,0.2,0.8,0.5,1.1,0.8c0.2,0.3,0.4,0.5,0.4,0.8c0,0.1,0,0.2-0.1,0.2c-0.1,0.1-0.2,0.1-0.2,0.1h-0.6c-0.1,0-0.3-0.1-0.3-0.2
			c-0.2-0.2-0.3-0.4-0.5-0.5s-0.3-0.2-0.5-0.3c-0.2-0.1-0.5-0.1-0.9-0.1c-0.5,0-0.9,0.1-1.2,0.3s-0.4,0.5-0.4,0.9
			c0,0.2,0.1,0.4,0.2,0.6c0.1,0.2,0.3,0.3,0.7,0.4c0.3,0.1,0.8,0.3,1.5,0.4c1,0.2,1.7,0.5,2.2,0.9c0.4,0.4,0.6,0.9,0.6,1.5
			c0,0.5-0.1,0.9-0.4,1.2c-0.3,0.4-0.7,0.7-1.2,0.9c-0.5,0.2-1.1,0.3-1.8,0.3C71.6,1615.2,71,1615,70.5,1614.8z"/>
		<path class="st8" d="M78.3,1614.2c-0.6-0.6-1-1.5-1-2.7l0-0.6l0-0.6c0-1.2,0.4-2.1,1-2.7s1.5-1,2.7-1c0.8,0,1.4,0.1,1.9,0.4
			c0.5,0.3,0.9,0.6,1.2,1c0.3,0.4,0.4,0.8,0.4,1.2c0,0.1,0,0.2-0.1,0.3c-0.1,0.1-0.2,0.1-0.3,0.1h-0.7c-0.1,0-0.2,0-0.2-0.1
			c-0.1,0-0.1-0.1-0.2-0.3c-0.2-0.5-0.5-0.9-0.8-1.1s-0.8-0.3-1.3-0.3c-0.7,0-1.2,0.2-1.6,0.6s-0.6,1.1-0.6,1.9l0,0.6l0,0.6
			c0,0.9,0.2,1.5,0.6,1.9s0.9,0.6,1.6,0.6c0.5,0,0.9-0.1,1.3-0.3c0.3-0.2,0.6-0.6,0.8-1.1c0.1-0.1,0.1-0.2,0.2-0.3
			c0.1,0,0.1-0.1,0.2-0.1h0.7c0.1,0,0.2,0,0.3,0.1c0.1,0.1,0.1,0.2,0.1,0.3c0,0.4-0.2,0.8-0.4,1.2c-0.3,0.4-0.7,0.7-1.2,1
			c-0.5,0.3-1.2,0.4-1.9,0.4C79.8,1615.2,78.9,1614.8,78.3,1614.2z"/>
		<path class="st8" d="M87.3,1614.8c-0.4-0.2-0.8-0.5-1.1-0.9c-0.3-0.4-0.4-0.8-0.4-1.2c0-0.7,0.3-1.3,0.9-1.7
			c0.6-0.4,1.4-0.7,2.4-0.9l2.4-0.3v-0.5c0-1.1-0.6-1.6-1.9-1.6c-0.5,0-0.9,0.1-1.2,0.3c-0.3,0.2-0.5,0.4-0.7,0.7
			c0,0.1-0.1,0.2-0.1,0.2c0,0-0.1,0.1-0.2,0.1h-0.6c-0.1,0-0.2,0-0.2-0.1s-0.1-0.2-0.1-0.2c0-0.2,0.1-0.5,0.3-0.9
			c0.2-0.3,0.6-0.6,1.1-0.8s1.1-0.4,1.8-0.4c1.2,0,2.1,0.3,2.6,0.8c0.5,0.6,0.8,1.2,0.8,2.1v5.2c0,0.1,0,0.2-0.1,0.3
			c-0.1,0.1-0.2,0.1-0.3,0.1h-0.7c-0.1,0-0.2,0-0.3-0.1s-0.1-0.2-0.1-0.3v-0.7c-0.2,0.4-0.6,0.6-1,0.9c-0.4,0.2-1,0.4-1.7,0.4
			C88.2,1615.2,87.7,1615.1,87.3,1614.8z M90.8,1613.3c0.4-0.5,0.7-1.1,0.7-2v-0.4l-1.9,0.3c-0.8,0.1-1.3,0.3-1.7,0.5
			s-0.6,0.6-0.6,1c0,0.4,0.2,0.8,0.5,1c0.4,0.2,0.8,0.4,1.3,0.4C89.7,1614,90.3,1613.8,90.8,1613.3z"/>
		<path class="st8" d="M95.3,1614.9c-0.1-0.1-0.1-0.2-0.1-0.3v-7.6c0-0.1,0-0.2,0.1-0.3c0.1-0.1,0.2-0.1,0.3-0.1h0.7
			c0.1,0,0.2,0,0.3,0.1c0.1,0.1,0.1,0.2,0.1,0.3v0.7c0.3-0.4,0.7-0.7,1.1-0.9c0.4-0.2,0.9-0.3,1.6-0.3c1,0,1.8,0.3,2.4,1
			s0.8,1.5,0.8,2.6v4.5c0,0.1,0,0.2-0.1,0.3s-0.2,0.1-0.3,0.1h-0.7c-0.1,0-0.2,0-0.3-0.1s-0.1-0.2-0.1-0.3v-4.4
			c0-0.8-0.2-1.4-0.6-1.8c-0.4-0.4-0.9-0.6-1.6-0.6c-0.7,0-1.2,0.2-1.6,0.6s-0.6,1-0.6,1.8v4.4c0,0.1,0,0.2-0.1,0.3
			s-0.2,0.1-0.3,0.1h-0.7C95.5,1615,95.4,1615,95.3,1614.9z"/>
		<path class="st8" d="M109.8,1614.8c-0.5-0.2-0.9-0.5-1.1-0.8c-0.2-0.3-0.4-0.6-0.4-0.8c0-0.1,0-0.2,0.1-0.2s0.2-0.1,0.2-0.1h0.7
			c0.1,0,0.1,0,0.2,0c0,0,0.1,0.1,0.2,0.1c0.2,0.3,0.5,0.5,0.8,0.7c0.3,0.2,0.7,0.3,1.2,0.3c0.6,0,1-0.1,1.4-0.3
			c0.3-0.2,0.5-0.5,0.5-0.9c0-0.3-0.1-0.5-0.2-0.6c-0.1-0.2-0.4-0.3-0.7-0.4c-0.3-0.1-0.9-0.3-1.5-0.4c-0.9-0.2-1.6-0.5-2-0.9
			c-0.4-0.4-0.6-0.9-0.6-1.5c0-0.4,0.1-0.8,0.4-1.1c0.2-0.4,0.6-0.7,1-0.9s1-0.3,1.7-0.3c0.7,0,1.2,0.1,1.7,0.3
			c0.5,0.2,0.8,0.5,1.1,0.8c0.2,0.3,0.4,0.5,0.4,0.8c0,0.1,0,0.2-0.1,0.2c-0.1,0.1-0.2,0.1-0.2,0.1h-0.6c-0.1,0-0.3-0.1-0.3-0.2
			c-0.2-0.2-0.3-0.4-0.5-0.5s-0.3-0.2-0.5-0.3c-0.2-0.1-0.5-0.1-0.9-0.1c-0.5,0-0.9,0.1-1.2,0.3s-0.4,0.5-0.4,0.9
			c0,0.2,0.1,0.4,0.2,0.6c0.1,0.2,0.3,0.3,0.7,0.4c0.3,0.1,0.8,0.3,1.5,0.4c1,0.2,1.7,0.5,2.2,0.9c0.4,0.4,0.6,0.9,0.6,1.5
			c0,0.5-0.1,0.9-0.4,1.2c-0.3,0.4-0.7,0.7-1.2,0.9c-0.5,0.2-1.1,0.3-1.8,0.3C110.9,1615.2,110.3,1615,109.8,1614.8z"/>
		<path class="st8" d="M117.6,1614.1c-0.7-0.7-1-1.6-1.1-2.8l0-0.5l0-0.5c0.1-1.2,0.4-2.1,1.1-2.8c0.7-0.7,1.5-1,2.6-1
			c1.2,0,2.1,0.4,2.7,1.1c0.6,0.7,1,1.8,1,3v0.3c0,0.1,0,0.2-0.1,0.3s-0.2,0.1-0.3,0.1H118v0.1c0,0.7,0.2,1.3,0.6,1.8
			c0.4,0.5,0.9,0.7,1.6,0.7c0.5,0,0.9-0.1,1.2-0.3c0.3-0.2,0.6-0.4,0.7-0.6c0.1-0.1,0.2-0.2,0.2-0.2c0.1,0,0.1,0,0.3,0h0.7
			c0.1,0,0.2,0,0.2,0.1c0.1,0.1,0.1,0.1,0.1,0.2c0,0.2-0.1,0.5-0.4,0.8c-0.3,0.3-0.7,0.6-1.2,0.9s-1.1,0.4-1.8,0.4
			C119.1,1615.2,118.3,1614.8,117.6,1614.1z M122.5,1610.2L122.5,1610.2c0-0.8-0.2-1.4-0.6-1.9c-0.4-0.5-0.9-0.7-1.6-0.7
			c-0.7,0-1.2,0.2-1.6,0.7c-0.4,0.5-0.6,1.1-0.6,1.8v0H122.5z"/>
		<path class="st8" d="M127.1,1618.1c-0.5-0.3-0.9-0.6-1.1-1s-0.3-0.7-0.3-1c0-0.1,0-0.2,0.1-0.2s0.2-0.1,0.3-0.1h0.7
			c0.1,0,0.2,0,0.2,0.1c0.1,0,0.1,0.1,0.2,0.3c0.3,0.9,1,1.3,2,1.3c0.8,0,1.4-0.2,1.8-0.5c0.4-0.3,0.6-0.9,0.6-1.8v-1.1
			c-0.6,0.8-1.5,1.2-2.6,1.2c-1.1,0-2-0.4-2.5-1.1c-0.6-0.7-0.9-1.6-0.9-2.8l0-0.4l0-0.4c0-1.1,0.3-2,0.9-2.7
			c0.6-0.7,1.4-1.1,2.5-1.1c1.1,0,2,0.4,2.6,1.2v-0.7c0-0.1,0-0.2,0.1-0.3c0.1-0.1,0.2-0.1,0.3-0.1h0.7c0.1,0,0.2,0,0.3,0.1
			c0.1,0.1,0.1,0.2,0.1,0.3v7.8c0,2.5-1.2,3.7-3.7,3.7C128.4,1618.5,127.7,1618.4,127.1,1618.1z M130.9,1613.1
			c0.4-0.5,0.6-1.1,0.6-1.8c0-0.1,0-0.3,0-0.6c0-0.3,0-0.4,0-0.5c0-0.7-0.2-1.3-0.6-1.8c-0.4-0.5-0.9-0.7-1.7-0.7
			c-0.8,0-1.3,0.2-1.7,0.7c-0.3,0.5-0.5,1.1-0.6,1.9l0,0.4l0,0.4c0,0.8,0.2,1.4,0.6,1.9c0.3,0.5,0.9,0.7,1.7,0.7
			C130,1613.8,130.5,1613.6,130.9,1613.1z"/>
		<path class="st8" d="M136.1,1614.2c-0.6-0.7-0.8-1.5-0.8-2.6v-4.5c0-0.1,0-0.2,0.1-0.3c0.1-0.1,0.2-0.1,0.3-0.1h0.7
			c0.1,0,0.2,0,0.3,0.1s0.1,0.2,0.1,0.3v4.4c0,1.6,0.7,2.4,2.1,2.4c0.7,0,1.2-0.2,1.6-0.6c0.4-0.4,0.6-1,0.6-1.8v-4.4
			c0-0.1,0-0.2,0.1-0.3c0.1-0.1,0.2-0.1,0.3-0.1h0.7c0.1,0,0.2,0,0.3,0.1s0.1,0.2,0.1,0.3v7.6c0,0.1,0,0.2-0.1,0.3s-0.2,0.1-0.3,0.1
			h-0.7c-0.1,0-0.2,0-0.3-0.1s-0.1-0.2-0.1-0.3v-0.7c-0.3,0.4-0.7,0.7-1.1,0.9s-0.9,0.3-1.6,0.3
			C137.5,1615.2,136.7,1614.8,136.1,1614.2z M138.2,1605.2c0-0.1,0-0.2,0.1-0.2l1.2-1.4c0.1-0.1,0.2-0.2,0.3-0.2
			c0.1,0,0.2-0.1,0.3-0.1h1c0.2,0,0.3,0.1,0.3,0.3c0,0.1,0,0.1-0.1,0.2l-1.8,1.5c-0.1,0.1-0.2,0.1-0.2,0.1s-0.2,0-0.3,0h-0.5
			C138.3,1605.5,138.2,1605.4,138.2,1605.2z"/>
		<path class="st8" d="M145.1,1614.9c-0.1-0.1-0.1-0.2-0.1-0.3v-7.6c0-0.1,0-0.2,0.1-0.3c0.1-0.1,0.2-0.1,0.3-0.1h0.7
			c0.1,0,0.2,0,0.3,0.1c0.1,0.1,0.1,0.2,0.1,0.3v0.7c0.3-0.4,0.7-0.7,1.1-0.9c0.4-0.2,0.9-0.3,1.6-0.3c1,0,1.8,0.3,2.4,1
			s0.8,1.5,0.8,2.6v4.5c0,0.1,0,0.2-0.1,0.3s-0.2,0.1-0.3,0.1h-0.7c-0.1,0-0.2,0-0.3-0.1s-0.1-0.2-0.1-0.3v-4.4
			c0-0.8-0.2-1.4-0.6-1.8c-0.4-0.4-0.9-0.6-1.6-0.6c-0.7,0-1.2,0.2-1.6,0.6s-0.6,1-0.6,1.8v4.4c0,0.1,0,0.2-0.1,0.3
			s-0.2,0.1-0.3,0.1h-0.7C145.3,1615,145.2,1615,145.1,1614.9z"/>
		<path class="st8" d="M159,1612.2v-4.3h-1.3c-0.1,0-0.2,0-0.3-0.1c-0.1-0.1-0.1-0.1-0.1-0.3v-0.5c0-0.1,0-0.2,0.1-0.3
			s0.1-0.1,0.3-0.1h1.3v-2.7c0-0.1,0-0.2,0.1-0.3s0.1-0.1,0.3-0.1h0.7c0.1,0,0.2,0,0.3,0.1c0.1,0.1,0.1,0.2,0.1,0.3v2.7h2
			c0.1,0,0.2,0,0.3,0.1s0.1,0.2,0.1,0.3v0.5c0,0.1,0,0.2-0.1,0.3c-0.1,0.1-0.2,0.1-0.3,0.1h-2v4.2c0,0.5,0.1,1,0.3,1.2
			c0.2,0.3,0.5,0.4,0.9,0.4h1c0.1,0,0.2,0,0.3,0.1c0.1,0.1,0.1,0.2,0.1,0.3v0.5c0,0.1,0,0.2-0.1,0.3c-0.1,0.1-0.1,0.1-0.3,0.1h-1.1
			C159.8,1615,159,1614.1,159,1612.2z"/>
		<path class="st8" d="M165.2,1614.2c-0.6-0.7-0.8-1.5-0.8-2.6v-4.5c0-0.1,0-0.2,0.1-0.3s0.2-0.1,0.3-0.1h0.7c0.1,0,0.2,0,0.3,0.1
			s0.1,0.2,0.1,0.3v4.4c0,1.6,0.7,2.4,2.1,2.4c0.7,0,1.2-0.2,1.6-0.6c0.4-0.4,0.6-1,0.6-1.8v-4.4c0-0.1,0-0.2,0.1-0.3
			c0.1-0.1,0.2-0.1,0.3-0.1h0.7c0.1,0,0.2,0,0.3,0.1s0.1,0.2,0.1,0.3v7.6c0,0.1,0,0.2-0.1,0.3s-0.2,0.1-0.3,0.1h-0.7
			c-0.1,0-0.2,0-0.3-0.1s-0.1-0.2-0.1-0.3v-0.7c-0.3,0.4-0.7,0.7-1.1,0.9s-0.9,0.3-1.6,0.3C166.6,1615.2,165.8,1614.8,165.2,1614.2z
			"/>
		<path class="st8" d="M175,1614.8c-0.5-0.2-0.9-0.5-1.1-0.8c-0.2-0.3-0.4-0.6-0.4-0.8c0-0.1,0-0.2,0.1-0.2c0.1-0.1,0.2-0.1,0.2-0.1
			h0.7c0.1,0,0.1,0,0.2,0c0,0,0.1,0.1,0.2,0.1c0.2,0.3,0.5,0.5,0.8,0.7s0.7,0.3,1.2,0.3c0.6,0,1-0.1,1.4-0.3
			c0.3-0.2,0.5-0.5,0.5-0.9c0-0.3-0.1-0.5-0.2-0.6c-0.1-0.2-0.4-0.3-0.7-0.4c-0.3-0.1-0.9-0.3-1.5-0.4c-0.9-0.2-1.6-0.5-2-0.9
			c-0.4-0.4-0.6-0.9-0.6-1.5c0-0.4,0.1-0.8,0.4-1.1s0.6-0.7,1-0.9s1-0.3,1.7-0.3c0.7,0,1.2,0.1,1.7,0.3c0.5,0.2,0.8,0.5,1.1,0.8
			c0.2,0.3,0.4,0.5,0.4,0.8c0,0.1,0,0.2-0.1,0.2c-0.1,0.1-0.2,0.1-0.2,0.1H179c-0.1,0-0.3-0.1-0.3-0.2c-0.2-0.2-0.3-0.4-0.5-0.5
			c-0.1-0.1-0.3-0.2-0.5-0.3s-0.5-0.1-0.9-0.1c-0.5,0-0.9,0.1-1.2,0.3s-0.4,0.5-0.4,0.9c0,0.2,0.1,0.4,0.2,0.6
			c0.1,0.2,0.3,0.3,0.7,0.4c0.3,0.1,0.8,0.3,1.5,0.4c1,0.2,1.7,0.5,2.2,0.9c0.4,0.4,0.6,0.9,0.6,1.5c0,0.5-0.1,0.9-0.4,1.2
			c-0.3,0.4-0.7,0.7-1.2,0.9c-0.5,0.2-1.1,0.3-1.8,0.3C176.2,1615.2,175.6,1615,175,1614.8z"/>
		<path class="st8" d="M186.2,1617.9c-0.1-0.1-0.1-0.2-0.1-0.3V1607c0-0.1,0-0.2,0.1-0.3c0.1-0.1,0.2-0.1,0.3-0.1h0.7
			c0.1,0,0.2,0,0.3,0.1c0.1,0.1,0.1,0.2,0.1,0.3v0.7c0.6-0.8,1.5-1.2,2.6-1.2c1.1,0,2,0.4,2.5,1.1c0.6,0.7,0.9,1.6,0.9,2.7
			c0,0.1,0,0.3,0,0.5c0,0.2,0,0.4,0,0.5c0,1.1-0.3,2-0.9,2.7c-0.6,0.7-1.4,1.1-2.5,1.1c-1.1,0-2-0.4-2.6-1.2v3.7
			c0,0.1,0,0.2-0.1,0.3s-0.2,0.1-0.3,0.1h-0.7C186.4,1618,186.3,1618,186.2,1617.9z M191.6,1613.2c0.4-0.5,0.5-1.1,0.6-1.9
			c0-0.1,0-0.3,0-0.5c0-2-0.8-3.1-2.3-3.1c-0.7,0-1.3,0.2-1.7,0.7c-0.4,0.5-0.6,1.1-0.6,1.8c0,0.1,0,0.3,0,0.6c0,0.3,0,0.5,0,0.6
			c0,0.7,0.2,1.2,0.6,1.7s0.9,0.7,1.7,0.7C190.7,1613.9,191.2,1613.7,191.6,1613.2z"/>
		<path class="st8" d="M195.7,1614.9c-0.1-0.1-0.1-0.2-0.1-0.3v-7.6c0-0.1,0-0.2,0.1-0.3c0.1-0.1,0.2-0.1,0.3-0.1h0.7
			c0.1,0,0.2,0,0.3,0.1s0.1,0.2,0.1,0.3v0.7c0.4-0.7,1.2-1.1,2.2-1.1h0.6c0.1,0,0.2,0,0.3,0.1c0.1,0.1,0.1,0.2,0.1,0.3v0.6
			c0,0.1,0,0.2-0.1,0.3c-0.1,0.1-0.2,0.1-0.3,0.1H199c-0.6,0-1,0.2-1.4,0.5c-0.3,0.3-0.5,0.8-0.5,1.4v4.7c0,0.1,0,0.2-0.1,0.3
			c-0.1,0.1-0.2,0.1-0.3,0.1H196C195.9,1615,195.8,1615,195.7,1614.9z"/>
		<path class="st8" d="M202.2,1614.1c-0.7-0.7-1-1.6-1.1-2.8l0-0.5l0-0.5c0.1-1.2,0.4-2.1,1.1-2.8s1.5-1,2.6-1
			c1.2,0,2.1,0.4,2.7,1.1c0.6,0.7,1,1.8,1,3v0.3c0,0.1,0,0.2-0.1,0.3s-0.2,0.1-0.3,0.1h-5.6v0.1c0,0.7,0.2,1.3,0.6,1.8
			c0.4,0.5,0.9,0.7,1.6,0.7c0.5,0,0.9-0.1,1.2-0.3c0.3-0.2,0.6-0.4,0.7-0.6c0.1-0.1,0.2-0.2,0.2-0.2c0.1,0,0.1,0,0.3,0h0.7
			c0.1,0,0.2,0,0.2,0.1c0.1,0.1,0.1,0.1,0.1,0.2c0,0.2-0.1,0.5-0.4,0.8c-0.3,0.3-0.7,0.6-1.2,0.9c-0.5,0.2-1.1,0.4-1.8,0.4
			C203.7,1615.2,202.8,1614.8,202.2,1614.1z M207,1610.2L207,1610.2c0-0.8-0.2-1.4-0.6-1.9c-0.4-0.5-0.9-0.7-1.6-0.7
			c-0.7,0-1.2,0.2-1.6,0.7c-0.4,0.5-0.6,1.1-0.6,1.8v0H207z"/>
		<path class="st8" d="M211.3,1614.9c-0.1-0.1-0.1-0.2-0.1-0.3v-6.7h-1.4c-0.1,0-0.2,0-0.3-0.1c-0.1-0.1-0.1-0.1-0.1-0.3v-0.5
			c0-0.1,0-0.2,0.1-0.3s0.2-0.1,0.3-0.1h1.4v-0.8c0-0.9,0.2-1.5,0.6-2c0.4-0.5,1.1-0.7,2.1-0.7h0.9c0.1,0,0.2,0,0.3,0.1
			c0.1,0.1,0.1,0.2,0.1,0.3v0.5c0,0.1,0,0.2-0.1,0.3c-0.1,0.1-0.2,0.1-0.3,0.1h-0.9c-0.5,0-0.8,0.1-1,0.4c-0.2,0.3-0.3,0.7-0.3,1.2
			v0.7h2.1c0.1,0,0.2,0,0.3,0.1c0.1,0.1,0.1,0.2,0.1,0.3v0.5c0,0.1,0,0.2-0.1,0.3c-0.1,0.1-0.2,0.1-0.3,0.1h-2.1v6.7
			c0,0.1,0,0.2-0.1,0.3s-0.2,0.1-0.3,0.1h-0.7C211.4,1615,211.4,1615,211.3,1614.9z"/>
		<path class="st8" d="M217,1614.1c-0.7-0.7-1-1.6-1.1-2.8l0-0.5l0-0.5c0.1-1.2,0.4-2.1,1.1-2.8c0.7-0.7,1.5-1,2.6-1
			c1.2,0,2.1,0.4,2.7,1.1c0.6,0.7,1,1.8,1,3v0.3c0,0.1,0,0.2-0.1,0.3s-0.2,0.1-0.3,0.1h-5.6v0.1c0,0.7,0.2,1.3,0.6,1.8
			c0.4,0.5,0.9,0.7,1.6,0.7c0.5,0,0.9-0.1,1.2-0.3s0.6-0.4,0.7-0.6c0.1-0.1,0.2-0.2,0.2-0.2c0.1,0,0.1,0,0.3,0h0.7
			c0.1,0,0.2,0,0.2,0.1c0.1,0.1,0.1,0.1,0.1,0.2c0,0.2-0.1,0.5-0.4,0.8c-0.3,0.3-0.7,0.6-1.2,0.9c-0.5,0.2-1.1,0.4-1.8,0.4
			C218.5,1615.2,217.6,1614.8,217,1614.1z M221.8,1610.2L221.8,1610.2c0-0.8-0.2-1.4-0.6-1.9c-0.4-0.5-0.9-0.7-1.6-0.7
			c-0.7,0-1.2,0.2-1.6,0.7c-0.4,0.5-0.6,1.1-0.6,1.8v0H221.8z"/>
		<path class="st8" d="M225.3,1614.9c-0.1-0.1-0.1-0.2-0.1-0.3v-7.6c0-0.1,0-0.2,0.1-0.3c0.1-0.1,0.2-0.1,0.3-0.1h0.7
			c0.1,0,0.2,0,0.3,0.1s0.1,0.2,0.1,0.3v0.7c0.4-0.7,1.2-1.1,2.2-1.1h0.6c0.1,0,0.2,0,0.3,0.1c0.1,0.1,0.1,0.2,0.1,0.3v0.6
			c0,0.1,0,0.2-0.1,0.3c-0.1,0.1-0.2,0.1-0.3,0.1h-0.9c-0.6,0-1,0.2-1.4,0.5c-0.3,0.3-0.5,0.8-0.5,1.4v4.7c0,0.1,0,0.2-0.1,0.3
			s-0.2,0.1-0.3,0.1h-0.7C225.5,1615,225.4,1615,225.3,1614.9z"/>
		<path class="st8" d="M231.8,1614.1c-0.7-0.7-1-1.6-1.1-2.8l0-0.5l0-0.5c0.1-1.2,0.4-2.1,1.1-2.8c0.7-0.7,1.5-1,2.6-1
			c1.2,0,2.1,0.4,2.7,1.1c0.6,0.7,1,1.8,1,3v0.3c0,0.1,0,0.2-0.1,0.3s-0.2,0.1-0.3,0.1h-5.6v0.1c0,0.7,0.2,1.3,0.6,1.8
			c0.4,0.5,0.9,0.7,1.6,0.7c0.5,0,0.9-0.1,1.2-0.3s0.6-0.4,0.7-0.6c0.1-0.1,0.2-0.2,0.2-0.2c0.1,0,0.1,0,0.3,0h0.7
			c0.1,0,0.2,0,0.2,0.1c0.1,0.1,0.1,0.1,0.1,0.2c0,0.2-0.1,0.5-0.4,0.8c-0.3,0.3-0.7,0.6-1.2,0.9c-0.5,0.2-1.1,0.4-1.8,0.4
			C233.3,1615.2,232.4,1614.8,231.8,1614.1z M236.6,1610.2L236.6,1610.2c0-0.8-0.2-1.4-0.6-1.9c-0.4-0.5-0.9-0.7-1.6-0.7
			c-0.7,0-1.2,0.2-1.6,0.7c-0.4,0.5-0.6,1.1-0.6,1.8v0H236.6z"/>
		<path class="st8" d="M240.1,1614.9c-0.1-0.1-0.1-0.2-0.1-0.3v-7.6c0-0.1,0-0.2,0.1-0.3s0.2-0.1,0.3-0.1h0.7c0.1,0,0.2,0,0.3,0.1
			c0.1,0.1,0.1,0.2,0.1,0.3v0.7c0.3-0.4,0.7-0.7,1.1-0.9c0.4-0.2,0.9-0.3,1.6-0.3c1,0,1.8,0.3,2.4,1s0.8,1.5,0.8,2.6v4.5
			c0,0.1,0,0.2-0.1,0.3s-0.2,0.1-0.3,0.1h-0.7c-0.1,0-0.2,0-0.3-0.1s-0.1-0.2-0.1-0.3v-4.4c0-0.8-0.2-1.4-0.6-1.8s-0.9-0.6-1.6-0.6
			c-0.7,0-1.2,0.2-1.6,0.6s-0.6,1-0.6,1.8v4.4c0,0.1,0,0.2-0.1,0.3s-0.2,0.1-0.3,0.1h-0.7C240.3,1615,240.2,1615,240.1,1614.9z"/>
		<path class="st8" d="M250.4,1614.2c-0.6-0.6-1-1.5-1-2.7l0-0.6l0-0.6c0-1.2,0.4-2.1,1-2.7c0.6-0.6,1.5-1,2.7-1
			c0.8,0,1.4,0.1,1.9,0.4c0.5,0.3,0.9,0.6,1.2,1c0.3,0.4,0.4,0.8,0.4,1.2c0,0.1,0,0.2-0.1,0.3c-0.1,0.1-0.2,0.1-0.3,0.1h-0.7
			c-0.1,0-0.2,0-0.2-0.1s-0.1-0.1-0.2-0.3c-0.2-0.5-0.5-0.9-0.8-1.1s-0.8-0.3-1.3-0.3c-0.7,0-1.2,0.2-1.6,0.6s-0.6,1.1-0.6,1.9
			l0,0.6l0,0.6c0,0.9,0.2,1.5,0.6,1.9s0.9,0.6,1.6,0.6c0.5,0,0.9-0.1,1.3-0.3c0.3-0.2,0.6-0.6,0.8-1.1c0.1-0.1,0.1-0.2,0.2-0.3
			c0.1,0,0.1-0.1,0.2-0.1h0.7c0.1,0,0.2,0,0.3,0.1c0.1,0.1,0.1,0.2,0.1,0.3c0,0.4-0.2,0.8-0.4,1.2c-0.3,0.4-0.7,0.7-1.2,1
			s-1.2,0.4-1.9,0.4C251.9,1615.2,251,1614.8,250.4,1614.2z"/>
		<path class="st8" d="M258.5,1605c-0.1-0.1-0.1-0.2-0.1-0.3v-0.8c0-0.1,0-0.2,0.1-0.3c0.1-0.1,0.2-0.1,0.3-0.1h0.9
			c0.1,0,0.2,0,0.3,0.1c0.1,0.1,0.1,0.2,0.1,0.3v0.8c0,0.1,0,0.2-0.1,0.3c-0.1,0.1-0.2,0.1-0.3,0.1h-0.9
			C258.6,1605.1,258.6,1605.1,258.5,1605z M258.6,1614.9c-0.1-0.1-0.1-0.2-0.1-0.3v-7.6c0-0.1,0-0.2,0.1-0.3s0.2-0.1,0.3-0.1h0.7
			c0.1,0,0.2,0,0.3,0.1c0.1,0.1,0.1,0.2,0.1,0.3v7.6c0,0.1,0,0.2-0.1,0.3c-0.1,0.1-0.2,0.1-0.3,0.1h-0.7
			C258.8,1615,258.7,1615,258.6,1614.9z"/>
		<path class="st8" d="M263.2,1614.8c-0.4-0.2-0.8-0.5-1.1-0.9c-0.3-0.4-0.4-0.8-0.4-1.2c0-0.7,0.3-1.3,0.9-1.7
			c0.6-0.4,1.4-0.7,2.4-0.9l2.4-0.3v-0.5c0-1.1-0.6-1.6-1.9-1.6c-0.5,0-0.9,0.1-1.2,0.3s-0.5,0.4-0.7,0.7c0,0.1-0.1,0.2-0.1,0.2
			c0,0-0.1,0.1-0.2,0.1h-0.6c-0.1,0-0.2,0-0.2-0.1s-0.1-0.2-0.1-0.2c0-0.2,0.1-0.5,0.3-0.9c0.2-0.3,0.6-0.6,1.1-0.8
			c0.5-0.2,1.1-0.4,1.8-0.4c1.2,0,2.1,0.3,2.6,0.8c0.5,0.6,0.8,1.2,0.8,2.1v5.2c0,0.1,0,0.2-0.1,0.3c-0.1,0.1-0.2,0.1-0.3,0.1h-0.7
			c-0.1,0-0.2,0-0.3-0.1c-0.1-0.1-0.1-0.2-0.1-0.3v-0.7c-0.2,0.4-0.6,0.6-1,0.9c-0.4,0.2-1,0.4-1.7,0.4
			C264.1,1615.2,263.6,1615.1,263.2,1614.8z M266.7,1613.3c0.4-0.5,0.7-1.1,0.7-2v-0.4l-1.9,0.3c-0.8,0.1-1.3,0.3-1.7,0.5
			s-0.6,0.6-0.6,1c0,0.4,0.2,0.8,0.5,1c0.4,0.2,0.8,0.4,1.3,0.4C265.7,1614,266.3,1613.8,266.7,1613.3z"/>
		<path class="st8" d="M272.1,1614.8c-0.5-0.2-0.9-0.5-1.1-0.8c-0.2-0.3-0.4-0.6-0.4-0.8c0-0.1,0-0.2,0.1-0.2
			c0.1-0.1,0.2-0.1,0.2-0.1h0.7c0.1,0,0.1,0,0.2,0c0,0,0.1,0.1,0.2,0.1c0.2,0.3,0.5,0.5,0.8,0.7s0.7,0.3,1.2,0.3
			c0.6,0,1-0.1,1.4-0.3c0.3-0.2,0.5-0.5,0.5-0.9c0-0.3-0.1-0.5-0.2-0.6c-0.1-0.2-0.4-0.3-0.7-0.4c-0.3-0.1-0.9-0.3-1.5-0.4
			c-0.9-0.2-1.6-0.5-2-0.9c-0.4-0.4-0.6-0.9-0.6-1.5c0-0.4,0.1-0.8,0.4-1.1s0.6-0.7,1-0.9s1-0.3,1.7-0.3c0.7,0,1.2,0.1,1.7,0.3
			c0.5,0.2,0.8,0.5,1.1,0.8c0.2,0.3,0.4,0.5,0.4,0.8c0,0.1,0,0.2-0.1,0.2c-0.1,0.1-0.2,0.1-0.2,0.1h-0.6c-0.1,0-0.3-0.1-0.3-0.2
			c-0.2-0.2-0.3-0.4-0.5-0.5c-0.1-0.1-0.3-0.2-0.5-0.3s-0.5-0.1-0.9-0.1c-0.5,0-0.9,0.1-1.2,0.3s-0.4,0.5-0.4,0.9
			c0,0.2,0.1,0.4,0.2,0.6c0.1,0.2,0.3,0.3,0.7,0.4c0.3,0.1,0.8,0.3,1.5,0.4c1,0.2,1.7,0.5,2.2,0.9c0.4,0.4,0.6,0.9,0.6,1.5
			c0,0.5-0.1,0.9-0.4,1.2c-0.3,0.4-0.7,0.7-1.2,0.9c-0.5,0.2-1.1,0.3-1.8,0.3C273.3,1615.2,272.6,1615,272.1,1614.8z"/>
	</g>
</g>
</svg>
