<?xml version="1.0" encoding="utf-8"?>
<!-- Generator: Adobe Illustrator 23.0.6, SVG Export Plug-In . SVG Version: 6.00 Build 0)  -->
<svg version="1.1" id="Capa_1" xmlns="http://www.w3.org/2000/svg" xmlns:xlink="http://www.w3.org/1999/xlink" x="0px" y="0px"
	 viewBox="0 0 161.5 17" style="enable-background:new 0 0 161.5 17;" xml:space="preserve">
<style type="text/css">
	.st0{enable-background:new    ;}
	.st1{fill:#3C57AB;}
	.st2{fill:#FFB700;}
	.st3{fill:#FF6344;}
</style>
<g id="Grupo_5054" transform="translate(-24.479 -6.896)">
	<g id="Grupo_5019" transform="translate(24.479 6.896)">
		<g id="Grupo_4792" transform="translate(21.477)">
			<g id="Grupo_4791">
				<g class="st0">
					<path class="st1" d="M3.5,12.9c-0.1-0.1-0.1-0.1-0.1-0.2V4.4H0.7c-0.1,0-0.2,0-0.2-0.1C0.4,4.3,0.4,4.2,0.4,4.1V3.5
						c0-0.1,0-0.2,0.1-0.2s0.1-0.1,0.2-0.1h6.7c0.1,0,0.2,0,0.2,0.1c0.1,0.1,0.1,0.1,0.1,0.2v0.5c0,0.1,0,0.2-0.1,0.2
						C7.6,4.4,7.5,4.4,7.4,4.4H4.7v8.3c0,0.1,0,0.2-0.1,0.2S4.5,13,4.4,13H3.7C3.6,13,3.5,13,3.5,12.9z"/>
					<path class="st1" d="M12.2,12.9c-0.1-0.1-0.1-0.1-0.1-0.2V3.5c0-0.1,0-0.2,0.1-0.2s0.1-0.1,0.2-0.1h5.8c0.1,0,0.2,0,0.2,0.1
						c0.1,0.1,0.1,0.1,0.1,0.2V4c0,0.1,0,0.2-0.1,0.2c-0.1,0.1-0.1,0.1-0.2,0.1h-4.8v3.1h4.5c0.1,0,0.2,0,0.2,0.1
						c0.1,0.1,0.1,0.1,0.1,0.2v0.5c0,0.1,0,0.2-0.1,0.2C18,8.6,18,8.6,17.9,8.6h-4.5v3.2h4.9c0.1,0,0.2,0,0.2,0.1
						c0.1,0.1,0.1,0.1,0.1,0.2v0.5c0,0.1,0,0.2-0.1,0.2C18.5,13,18.4,13,18.3,13h-5.9C12.3,13,12.3,13,12.2,12.9z"/>
					<path class="st1" d="M29.7,12.9c-0.1-0.1-0.1-0.1-0.1-0.2V3.5c0-0.1,0-0.2,0.1-0.2s0.1-0.1,0.2-0.1h3.8c1,0,1.7,0.2,2.2,0.7
						s0.8,1.1,0.8,1.9c0,0.5-0.1,1-0.4,1.3c-0.2,0.3-0.5,0.6-0.9,0.8c0.4,0.2,0.7,0.5,1,0.9c0.3,0.4,0.4,0.9,0.4,1.4
						c0,0.5-0.1,1-0.4,1.4c-0.2,0.4-0.6,0.8-1.1,1c-0.5,0.3-1,0.4-1.7,0.4h-3.9C29.8,13,29.8,13,29.7,12.9z M33.5,7.4
						c0.6,0,1.1-0.1,1.4-0.4c0.3-0.3,0.5-0.7,0.5-1.2c0-0.5-0.2-0.9-0.5-1.1s-0.8-0.4-1.4-0.4h-2.6v3.1H33.5z M33.7,11.9
						c0.6,0,1.1-0.2,1.4-0.5c0.3-0.3,0.5-0.7,0.5-1.2c0-0.5-0.2-0.9-0.5-1.2c-0.3-0.3-0.8-0.5-1.4-0.5h-2.7v3.4H33.7z"/>
					<path class="st1" d="M42.7,12.2c-0.7-0.6-1-1.6-1-2.9V3.5c0-0.1,0-0.2,0.1-0.2s0.1-0.1,0.2-0.1h0.7c0.1,0,0.2,0,0.2,0.1
						C43,3.4,43,3.4,43,3.5v5.7c0,0.9,0.2,1.6,0.6,2c0.4,0.4,1,0.7,1.8,0.7c0.8,0,1.4-0.2,1.8-0.7s0.6-1.1,0.6-2V3.5
						c0-0.1,0-0.2,0.1-0.2s0.1-0.1,0.2-0.1h0.7c0.1,0,0.2,0,0.2,0.1c0.1,0.1,0.1,0.1,0.1,0.2v5.7c0,1.3-0.3,2.3-1,2.9s-1.6,1-2.8,1
						S43.3,12.8,42.7,12.2z"/>
					<path class="st1" d="M55.5,12.8c-0.6-0.2-1-0.6-1.3-1c-0.3-0.4-0.5-0.8-0.5-1.3c0-0.1,0-0.1,0.1-0.2c0.1-0.1,0.1-0.1,0.2-0.1
						h0.7c0.2,0,0.3,0.1,0.4,0.3c0.1,0.4,0.3,0.7,0.7,1c0.4,0.3,1,0.4,1.7,0.4c0.8,0,1.4-0.1,1.8-0.4c0.4-0.3,0.6-0.7,0.6-1.2
						c0-0.3-0.1-0.6-0.3-0.8c-0.2-0.2-0.5-0.4-0.9-0.5c-0.4-0.2-0.9-0.3-1.7-0.6c-0.7-0.2-1.3-0.4-1.7-0.7c-0.4-0.2-0.7-0.5-1-0.9
						C54.1,6.6,54,6.2,54,5.7c0-0.5,0.1-1,0.4-1.4c0.3-0.4,0.7-0.7,1.2-0.9s1.1-0.3,1.8-0.3c0.7,0,1.4,0.1,1.9,0.4s0.9,0.6,1.2,1
						s0.4,0.8,0.4,1.2c0,0.1,0,0.2-0.1,0.2c-0.1,0.1-0.1,0.1-0.2,0.1h-0.7c-0.1,0-0.1,0-0.2-0.1c-0.1,0-0.1-0.1-0.1-0.2
						c-0.1-0.4-0.3-0.7-0.7-1c-0.4-0.3-0.9-0.4-1.5-0.4c-0.6,0-1.1,0.1-1.5,0.4c-0.4,0.2-0.6,0.6-0.6,1.1c0,0.3,0.1,0.6,0.3,0.8
						C55.8,6.7,56,6.9,56.4,7c0.4,0.2,0.9,0.3,1.6,0.5c0.8,0.2,1.4,0.4,1.9,0.7c0.5,0.2,0.8,0.5,1,0.8c0.2,0.3,0.3,0.8,0.3,1.3
						c0,0.9-0.3,1.6-1,2.1c-0.7,0.5-1.6,0.7-2.7,0.7C56.7,13.1,56.1,13,55.5,12.8z"/>
					<path class="st1" d="M66.5,12.1c-0.6-0.7-1-1.6-1-2.8c0-0.3,0-0.7,0-1.2c0-0.6,0-1,0-1.3c0-1.2,0.4-2.1,1-2.8
						c0.6-0.7,1.6-1,2.8-1c0.8,0,1.5,0.1,2.1,0.4c0.6,0.3,1,0.7,1.3,1.2c0.3,0.5,0.5,1,0.5,1.5c0,0.1,0,0.2-0.1,0.2
						c-0.1,0.1-0.1,0.1-0.2,0.1h-0.7c-0.1,0-0.2,0-0.2-0.1c-0.1,0-0.1-0.1-0.1-0.2c-0.2-0.7-0.4-1.2-0.9-1.5c-0.4-0.3-1-0.4-1.7-0.4
						c-1.6,0-2.5,0.9-2.5,2.7c0,0.3,0,0.6,0,1.2s0,0.9,0,1.2c0.1,1.8,0.9,2.7,2.5,2.7c0.7,0,1.3-0.1,1.7-0.4s0.7-0.8,0.9-1.5
						c0-0.1,0.1-0.2,0.1-0.2c0.1,0,0.1-0.1,0.2-0.1h0.7c0.1,0,0.2,0,0.2,0.1c0.1,0.1,0.1,0.1,0.1,0.2c0,0.5-0.2,1.1-0.5,1.5
						s-0.7,0.9-1.3,1.2c-0.6,0.3-1.3,0.4-2.1,0.4C68.1,13.1,67.2,12.8,66.5,12.1z"/>
					<path class="st1" d="M78.6,12.2c-0.7-0.6-1-1.6-1-2.9c0-0.3,0-0.7,0-1.2c0-0.5,0-0.9,0-1.2c0-1.3,0.4-2.2,1.1-2.9
						c0.7-0.7,1.6-1,2.8-1c1.2,0,2.1,0.3,2.8,1c0.7,0.7,1,1.6,1.1,2.9c0,0.5,0,0.9,0,1.2c0,0.2,0,0.6,0,1.2c0,1.3-0.4,2.3-1,2.9
						c-0.7,0.6-1.6,1-2.8,1C80.2,13.1,79.3,12.8,78.6,12.2z M83.2,11.3c0.4-0.5,0.7-1.1,0.7-2.1c0-0.6,0-0.9,0-1.1
						c0-0.2,0-0.6,0-1.1c0-0.9-0.3-1.6-0.7-2.1c-0.4-0.5-1-0.7-1.8-0.7c-0.7,0-1.3,0.2-1.8,0.7C79.2,5.4,79,6,78.9,7
						c0,0.3,0,0.6,0,1.1c0,0.5,0,0.8,0,1.1c0,0.9,0.3,1.6,0.7,2.1c0.4,0.5,1,0.7,1.8,0.7C82.2,12,82.8,11.8,83.2,11.3z"/>
					<path class="st1" d="M96.5,12.9c-0.1-0.1-0.1-0.1-0.1-0.2V3.5c0-0.1,0-0.2,0.1-0.2c0.1-0.1,0.1-0.1,0.2-0.1h3.2
						c1.4,0,2.4,0.3,3.1,0.9c0.6,0.6,0.9,1.6,1,2.8c0,0.3,0,0.6,0,1.1s0,0.8,0,1.1c0,0.9-0.2,1.6-0.4,2.2c-0.3,0.6-0.7,1-1.3,1.2
						c-0.6,0.3-1.3,0.4-2.3,0.4h-3.2C96.7,13,96.6,13,96.5,12.9z M99.9,11.8c0.7,0,1.2-0.1,1.6-0.3c0.4-0.2,0.7-0.5,0.8-0.9
						c0.2-0.4,0.3-0.9,0.3-1.6c0-0.6,0-0.9,0-1c0-0.1,0-0.5,0-1c0-0.9-0.2-1.6-0.7-2.1c-0.4-0.4-1.1-0.7-2.1-0.7h-2.1v7.5H99.9z"/>
					<path class="st1" d="M109,12.9c-0.1-0.1-0.1-0.1-0.1-0.2V3.5c0-0.1,0-0.2,0.1-0.2c0.1-0.1,0.1-0.1,0.2-0.1h3.5
						c1.1,0,1.9,0.3,2.5,0.8c0.6,0.5,0.9,1.2,0.9,2.2s-0.3,1.7-0.9,2.2c-0.6,0.5-1.4,0.8-2.5,0.8h-2.5v3.5c0,0.1,0,0.2-0.1,0.2
						S110,13,109.9,13h-0.7C109.1,13,109,13,109,12.9z M112.7,8c1.4,0,2.1-0.6,2.1-1.8c0-0.6-0.2-1.1-0.5-1.4
						c-0.3-0.3-0.9-0.5-1.6-0.5h-2.5V8H112.7z"/>
					<path class="st1" d="M122.9,12.9c-0.1-0.1-0.1-0.1-0.1-0.2V4.4h-2.7c-0.1,0-0.2,0-0.2-0.1c-0.1-0.1-0.1-0.1-0.1-0.2V3.5
						c0-0.1,0-0.2,0.1-0.2s0.1-0.1,0.2-0.1h6.7c0.1,0,0.2,0,0.2,0.1c0.1,0.1,0.1,0.1,0.1,0.2v0.5c0,0.1,0,0.2-0.1,0.2
						c-0.1,0.1-0.1,0.1-0.2,0.1h-2.7v8.3c0,0.1,0,0.2-0.1,0.2s-0.1,0.1-0.2,0.1h-0.7C123,13,122.9,13,122.9,12.9z"/>
					<path class="st1" d="M132,12.2c-0.7-0.6-1-1.6-1-2.9c0-0.3,0-0.7,0-1.2c0-0.5,0-0.9,0-1.2c0-1.3,0.4-2.2,1.1-2.9
						c0.7-0.7,1.6-1,2.8-1c1.2,0,2.1,0.3,2.8,1c0.7,0.7,1,1.6,1.1,2.9c0,0.5,0,0.9,0,1.2c0,0.2,0,0.6,0,1.2c0,1.3-0.4,2.3-1,2.9
						c-0.7,0.6-1.6,1-2.8,1C133.6,13.1,132.7,12.8,132,12.2z M136.6,11.3c0.4-0.5,0.7-1.1,0.7-2.1c0-0.6,0-0.9,0-1.1
						c0-0.2,0-0.6,0-1.1c0-0.9-0.3-1.6-0.7-2.1c-0.4-0.5-1-0.7-1.8-0.7c-0.7,0-1.3,0.2-1.8,0.7c-0.5,0.5-0.7,1.2-0.7,2.1
						c0,0.3,0,0.6,0,1.1c0,0.5,0,0.8,0,1.1c0,0.9,0.3,1.6,0.7,2.1c0.4,0.5,1.1,0.7,1.8,0.7C135.6,12,136.2,11.8,136.6,11.3z"/>
				</g>
			</g>
		</g>
		<g id="Grupo_4794" transform="translate(0 1.249)">
			<circle id="Elipse_109" class="st2" cx="6.7" cy="6.7" r="6.7"/>
			<g id="Grupo_4793" transform="translate(1.794 1.794)">
				<path id="Trazado_3267" class="st3" d="M5,9.9c-2.7,0-4.9-2.2-5-5C0,2.2,2.2,0,5,0c2.7,0,4.9,2.2,5,5C9.9,7.7,7.7,9.9,5,9.9z
					 M5,1.9c-1.7,0-3.1,1.4-3.1,3.1C1.9,6.7,3.3,8,5,8C6.7,8,8,6.7,8,4.9C8,3.3,6.7,1.9,5,1.9L5,1.9z"/>
			</g>
			<circle id="Elipse_110" class="st3" cx="6.7" cy="6.7" r="1.6"/>
		</g>
	</g>
</g>
</svg>
