<svg xmlns="http://www.w3.org/2000/svg" width="364" height="174" viewBox="0 0 364 174">
  <g id="Group_4613" data-name="Group 4613" transform="translate(0 -1252)">
    <rect id="Rectangle_5840" data-name="Rectangle 5840" width="364" height="174" transform="translate(0 1252)" fill="#1c2635"/>
    <g id="Group_4612" data-name="Group 4612" transform="translate(0 9)">
      <text id="_SpinParking_todos_los_derechos_reservados." data-name="© SpinParking todos los derechos reservados." transform="translate(79 1363)" fill="#fcfcfc" font-size="9" font-family="Nunito-SemiBold, Nunito" font-weight="600" letter-spacing="0.04em"><tspan x="0" y="0">© SpinParking todos los derechos reservados.</tspan></text>
      <g id="Group_4610" data-name="Group 4610" transform="translate(80 1368.625)">
        <text id="Términos_y_condiciones" data-name="Términos y condiciones" transform="translate(0 0.375)" fill="#fcfcfc" font-size="8" font-family="Nunito-SemiBold, Nunito" font-weight="600" letter-spacing="0.04em" text-decoration="underline"><tspan x="0" y="8">Términos y condiciones</tspan></text>
        <text id="Política_de_privacidad_" data-name="Política de privacidad
" transform="translate(107 0.375)" fill="#fcfcfc" font-size="9" font-family="Nunito-SemiBold, Nunito" font-weight="600" letter-spacing="0.04em" text-decoration="underline"><tspan x="0" y="9">Política de privacidad</tspan></text>
      </g>
      <g id="Group_4609" data-name="Group 4609" transform="translate(101 1324)">
        <g id="Group_3960" data-name="Group 3960" transform="translate(0 0)">
          <g id="Group_3954" data-name="Group 3954" transform="translate(0 0)">
            <g id="Group_3952" data-name="Group 3952">
              <path id="Path_2750" data-name="Path 2750" d="M151.476,14.87l-6.862,6.862-7.6-7.6,6.861-6.862a2.523,2.523,0,0,0,0-3.574l-8.649,8.649-.7.7h0a1.522,1.522,0,0,0,0,2.17h0l.7.7,7.6,7.6.7.7h0a1.522,1.522,0,0,0,2.17,0h0l.7-.7,8.649-8.649A2.523,2.523,0,0,0,151.476,14.87Z" transform="translate(-134.075 -3.7)" fill="#39e593"/>
            </g>
            <g id="Group_3953" data-name="Group 3953" transform="translate(8.72 7.005)">
              <path id="Path_2751" data-name="Path 2751" d="M164.847,29.208l2.84-2.84a2.427,2.427,0,0,0-3.447,0l-2.84,2.84A2.427,2.427,0,0,0,164.847,29.208Z" transform="translate(-161.4 -25.65)" fill="#39e593"/>
            </g>
          </g>
        </g>
        <g id="Group_3968" data-name="Group 3968" transform="translate(30.539 2.288)">
          <g id="Group_3967" data-name="Group 3967" transform="translate(0 0)">
            <g id="Group_3966" data-name="Group 3966">
              <g id="Group_3965" data-name="Group 3965">
                <g id="Group_3961" data-name="Group 3961" transform="translate(28.323 4.637)">
                  <rect id="Rectangle_3450" data-name="Rectangle 3450" width="2.202" height="12.017" fill="#fcfcfc"/>
                </g>
                <g id="Group_3962" data-name="Group 3962" transform="translate(28.207)">
                  <rect id="Rectangle_3451" data-name="Rectangle 3451" width="2.434" height="2.318" fill="#fcfcfc"/>
                </g>
                <g id="Group_3963" data-name="Group 3963" transform="translate(100.039)">
                  <rect id="Rectangle_3452" data-name="Rectangle 3452" width="2.434" height="2.318" fill="#fcfcfc"/>
                </g>
                <g id="Group_3964" data-name="Group 3964" transform="translate(100.155 4.637)">
                  <rect id="Rectangle_3453" data-name="Rectangle 3453" width="2.202" height="12.017" fill="#fcfcfc"/>
                </g>
                <path id="Path_2754" data-name="Path 2754" d="M12.5,105.268v-1.507a1.649,1.649,0,0,0-1.662-1.662H1.562A1.649,1.649,0,0,0-.1,103.762v6.105a1.649,1.649,0,0,0,1.662,1.662H10.41v4.637H1.987v-1.121H-.061v1.507A1.649,1.649,0,0,0,1.6,118.213h9.274a1.649,1.649,0,0,0,1.662-1.662V111.1a1.649,1.649,0,0,0-1.662-1.662H1.987v-5.294h8.462v1.121Z" transform="translate(0.1 -101.559)" fill="#fcfcfc"/>
                <path id="Path_2755" data-name="Path 2755" d="M47.771,112.7H39v16.615h2.048v-4.6h6.723a1.649,1.649,0,0,0,1.662-1.661v-8.694A1.674,1.674,0,0,0,47.771,112.7Zm-.425,9.931h-6.3v-7.883h6.3Z" transform="translate(-23.892 -108.063)" fill="#fcfcfc"/>
                <path id="Path_2756" data-name="Path 2756" d="M96.087,112.7H87.2v2.048h0v9.969h2.048v-9.969h6.414v9.969H97.71V114.362A1.594,1.594,0,0,0,96.087,112.7Z" transform="translate(-53.467 -108.063)" fill="#fcfcfc"/>
                <path id="Path_2757" data-name="Path 2757" d="M283.749,124.717V114.362a1.649,1.649,0,0,0-1.662-1.662H273.2v12.017h2.048v-9.969H281.7v9.969Z" transform="translate(-167.597 -108.063)" fill="#fcfcfc"/>
                <path id="Path_2758" data-name="Path 2758" d="M134.912,102.1H123.9v16.113h2.048V112.34h8.965a1.649,1.649,0,0,0,1.662-1.662v-6.917A1.649,1.649,0,0,0,134.912,102.1Zm-.386,8.153h-8.539v-6.105h8.539Z" transform="translate(-75.986 -101.559)" fill="#fcfcfc"/>
                <path id="Path_2759" data-name="Path 2759" d="M173.776,114.262a1.674,1.674,0,0,0-1.662-1.662h-7.071v2.048h6.685v2.9h-6.066A1.649,1.649,0,0,0,164,119.207v5.41h8.114a1.649,1.649,0,0,0,1.662-1.662Zm-8.037,5.062h5.989v3.555h-5.989Z" transform="translate(-100.592 -108.002)" fill="#fcfcfc"/>
                <path id="Path_2760" data-name="Path 2760" d="M203.9,112.7h-7.3v12.017h2.048v-9.969h4.83v1.623h2.048v-2.048A1.633,1.633,0,0,0,203.9,112.7Z" transform="translate(-120.595 -108.063)" fill="#fcfcfc"/>
                <path id="Path_2761" data-name="Path 2761" d="M317.481,114.648v-.309a1.692,1.692,0,0,0-1.661-1.739h-7.458a1.675,1.675,0,0,0-1.159.5,1.787,1.787,0,0,0-.5,1.236v8.539a1.692,1.692,0,0,0,1.661,1.739h7.033v2.7H308.4v2.048h7.38a1.649,1.649,0,0,0,1.661-1.662l.039-13.06Zm-8.694,7.921v-7.921h6.646v7.921Z" transform="translate(-188.152 -108.002)" fill="#fcfcfc"/>
                <path id="Path_2762" data-name="Path 2762" d="M229.289,111.194l6.453-5.8h-3.13l-5.564,4.985v-7.728a1.855,1.855,0,0,0-1.855-1.855H225v16.615h2.048v-5.371l6.028,5.371h3.13Z" transform="translate(-138.021 -100.761)" fill="#fcfcfc"/>
              </g>
            </g>
          </g>
        </g>
      </g>
      <g id="Group_4611" data-name="Group 4611" transform="translate(-25 -4)">
        <path id="instagram-brands" d="M10.912,37.176a5.631,5.631,0,1,0,5.631,5.631A5.622,5.622,0,0,0,10.912,37.176Zm0,9.292a3.661,3.661,0,1,1,3.661-3.661A3.668,3.668,0,0,1,10.912,46.468Zm7.175-9.523a1.314,1.314,0,1,1-1.314-1.313A1.31,1.31,0,0,1,18.087,36.945Zm3.73,1.333a6.5,6.5,0,0,0-1.774-4.6,6.543,6.543,0,0,0-4.6-1.774c-1.813-.1-7.249-.1-9.062,0a6.534,6.534,0,0,0-4.6,1.769A6.521,6.521,0,0,0,0,38.274c-.1,1.813-.1,7.249,0,9.062a6.5,6.5,0,0,0,1.774,4.6,6.551,6.551,0,0,0,4.6,1.774c1.813.1,7.249.1,9.062,0a6.5,6.5,0,0,0,4.6-1.774,6.543,6.543,0,0,0,1.774-4.6C21.92,45.522,21.92,40.092,21.817,38.278Zm-2.343,11a3.707,3.707,0,0,1-2.088,2.088c-1.446.573-4.877.441-6.474.441s-5.033.127-6.474-.441A3.707,3.707,0,0,1,2.35,49.281c-.573-1.446-.441-4.877-.441-6.474s-.127-5.033.441-6.474a3.707,3.707,0,0,1,2.088-2.088c1.446-.573,4.877-.441,6.474-.441s5.033-.127,6.474.441a3.707,3.707,0,0,1,2.088,2.088c.573,1.446.441,4.877.441,6.474S20.048,47.84,19.474,49.281Z" transform="translate(140.075 1251.175)" fill="#fcfcfc"/>
        <path id="whatsapp-brands" d="M18.288,35.126A10.662,10.662,0,0,0,1.512,47.988L0,53.51l5.651-1.484a10.627,10.627,0,0,0,5.094,1.3h0a10.591,10.591,0,0,0,7.538-18.2Zm-7.538,16.4a8.844,8.844,0,0,1-4.513-1.234L5.915,50.1l-3.351.879.893-3.27-.211-.336a8.876,8.876,0,1,1,16.464-4.71A8.958,8.958,0,0,1,10.75,51.527Zm4.859-6.635c-.264-.134-1.575-.778-1.82-.864s-.423-.134-.6.134-.687.864-.845,1.047-.312.2-.576.067a7.25,7.25,0,0,1-3.625-3.169c-.274-.471.274-.437.783-1.455a.494.494,0,0,0-.024-.466c-.067-.134-.6-1.445-.821-1.978s-.437-.447-.6-.456-.331-.01-.509-.01a.987.987,0,0,0-.711.331A2.993,2.993,0,0,0,5.329,40.3a5.218,5.218,0,0,0,1.085,2.756,11.9,11.9,0,0,0,4.552,4.023,5.212,5.212,0,0,0,3.2.667,2.728,2.728,0,0,0,1.8-1.268,2.227,2.227,0,0,0,.154-1.268C16.051,45.088,15.873,45.021,15.609,44.891Z" transform="translate(208.03 1251)" fill="#fcfcfc"/>
        <path id="envelope-regular" d="M26.541,64H2.746A2.746,2.746,0,0,0,0,66.746V83.219a2.746,2.746,0,0,0,2.746,2.746H26.541a2.746,2.746,0,0,0,2.746-2.746V66.746A2.746,2.746,0,0,0,26.541,64Zm0,2.746V69.08c-1.283,1.044-3.327,2.668-7.7,6.091-.963.758-2.871,2.578-4.2,2.557-1.327.021-3.236-1.8-4.2-2.557-4.37-3.422-6.416-5.047-7.7-6.091V66.746ZM2.746,83.219V72.6c1.311,1.044,3.169,2.509,6,4.727,1.25.984,3.44,3.157,5.9,3.143,2.443.013,4.605-2.128,5.895-3.143,2.833-2.218,4.692-3.684,6-4.728V83.219Z" transform="translate(240.229 1219)" fill="#fcfcfc"/>
        <path id="facebook-f-brands" d="M33.883,12.355l.61-3.975H30.679V5.8A1.988,1.988,0,0,1,32.92,3.653h1.734V.269A21.146,21.146,0,0,0,31.576,0c-3.141,0-5.194,1.9-5.194,5.35V8.38H22.89v3.975h3.492v9.609h4.3V12.355Z" transform="translate(156.748 1283)" fill="#fcfcfc"/>
      </g>
    </g>
  </g>
</svg>
